<svg width="1803" height="611" viewBox="0 0 1803 611" fill="none" xmlns="http://www.w3.org/2000/svg">
<path d="M783.898 516.065H783.835L637.355 511.385L565.832 509.052L27.1284 491.825C31.7413 378.198 81.6333 286.158 180.897 217.558V102.811C180.897 83.2371 193.382 65.6781 211.944 59.664C271.928 40.2914 335.658 29.477 402.853 26.7313C422.753 25.9315 439.189 42.0247 439.189 61.9311V90.6508C456.208 88.1177 473.322 86.2505 490.482 85.1043C577.388 78.9706 665.804 90.5848 756.048 128.998C773.696 136.478 785.299 153.371 786.858 172.477C796.131 291.371 798.398 407.331 783.898 516.065Z" fill="#F53B6B"/>
<path d="M440.297 139.612L429.293 188.398C555.619 262.665 679.229 324.919 776.491 271.385L769.81 204.185C666.274 231.839 555.791 205.292 440.297 139.612Z" fill="#FFEB52"/>
<path d="M783.837 516.067C782.444 527.293 780.769 538.373 778.89 549.4C777.356 558.613 772.55 566.626 765.741 572.24C759.338 577.653 751.041 580.853 742.165 581.053C481.191 586 232.912 587.399 67.4135 565.959C44.8242 563.093 27.5261 544.253 26.8686 521.546C26.6025 511.452 26.6652 501.573 27.1348 491.826L565.818 509.12L637.359 511.386L783.837 516.067Z" fill="white"/>
<path d="M648.458 502.746C648.881 390.278 689.739 323.171 783.837 315.745L772.034 503.959L648.458 502.746Z" fill="white"/>
<path d="M51.7695 418.225C61.6495 363.639 89.9562 317.519 133.063 278.212C206.69 294.319 272.53 315.345 307.263 356.172C239.263 416.785 154.716 438.905 51.7695 418.225Z" fill="white"/>
<path d="M195.383 208.639V169.439C279.236 161.119 359.716 157.145 405.276 198.492L384.076 253.172C336.156 214.225 271.169 202.745 195.383 208.639Z" fill="#FFEB52"/>
<path d="M276.644 402.866L348.817 343.332L491.502 491.839H348.817L276.644 402.866Z" fill="#FFEB52"/>
<path d="M404.281 53.4418L403.93 53.4546C338.824 56.0958 276.978 66.748 220.177 85.0948C212.667 87.5212 207.639 94.627 207.639 102.788V217.547C207.639 226.321 203.327 234.535 196.104 239.522C96.9317 308.081 50.3131 400.081 53.5907 520.801C53.8612 530.214 61.2596 538.241 70.8379 539.48C242.07 561.653 506.857 558.786 741.637 554.347C747.063 554.241 751.677 550.307 752.568 544.987C769.592 443.681 772.011 325.975 760.173 174.549C759.425 165.121 753.857 157.094 745.615 153.588C650.325 113.095 551.376 101.122 443.055 117.068C435.418 118.188 427.59 115.935 421.719 110.854C415.832 105.774 412.459 98.401 412.459 90.6413V61.9223C412.459 58.7481 410.804 56.6686 409.802 55.7219C408.704 54.6686 406.89 53.4418 404.281 53.4418ZM473.174 610.867C320.622 610.867 174.035 606.721 63.9804 592.468C27.9902 587.814 1.14866 558.28 0.1781 522.254C-3.44956 388.76 48.356 281.695 154.195 203.788V102.788C154.195 71.3606 174.115 43.8142 203.757 34.255C265.172 14.4015 331.807 2.90755 401.783 0.0674706C418.664 -0.691475 434.638 5.4676 446.826 17.1748C458.568 28.4683 465.458 44.1213 465.871 60.3615C572.331 49.3082 670.993 63.8141 766.506 104.415C793.156 115.749 811.152 141.015 813.443 170.375C825.63 326.268 823.037 448.12 805.265 553.84C800.094 584.506 773.761 607.187 742.64 607.774C654.923 609.427 563.023 610.867 473.174 610.867Z" fill="#000072"/>
<path d="M783.916 536.133C783.695 536.133 783.474 536.12 783.254 536.12L26.4668 511.866C15.3894 511.519 6.71054 502.253 7.07348 491.2C7.43642 480.133 16.8885 471.56 27.7608 471.813L784.548 496.066C795.609 496.413 804.288 505.679 803.925 516.733C803.578 527.574 794.694 536.133 783.916 536.133Z" fill="#000072"/>
<path d="M122.704 456.89C87.4493 456.89 55.7884 451.317 30.4434 444.636C19.7445 441.811 13.3606 430.85 16.1919 420.143C18.9959 409.436 29.9534 403.077 40.6794 405.891C87.3949 418.223 158.298 426.303 230.726 394.756C339.906 347.209 410.592 226.729 410.796 87.8089C410.81 76.7561 419.78 67.8092 430.833 67.8092H430.873C441.94 67.8228 450.883 76.8092 450.869 87.8756C450.638 242.716 370.505 377.597 246.72 431.504C203.516 450.317 161.007 456.89 122.704 456.89Z" fill="#000072"/>
<path d="M387.454 289.934C382.978 289.934 378.489 288.44 374.748 285.387C325.513 244.946 262.798 229.281 182.954 237.48C172.011 238.613 162.111 230.601 160.975 219.588C159.853 208.573 167.856 198.747 178.879 197.613C268.583 188.414 343.056 207.507 400.187 254.401C408.738 261.427 409.98 274.054 402.953 282.615C398.998 287.427 393.253 289.934 387.454 289.934Z" fill="#000072"/>
<path d="M323.49 376.212C316.583 376.212 309.877 372.652 306.143 366.265C281.303 323.599 192.37 307.172 110.97 295.132C100.01 293.519 92.4633 283.319 94.0766 272.385C95.6899 261.425 105.93 253.905 116.823 255.479C215.543 270.092 306.943 288.012 340.783 346.092C346.357 355.652 343.117 367.919 333.557 373.492C330.383 375.332 326.917 376.212 323.49 376.212Z" fill="#000072"/>
<path d="M415.629 218.521C410.42 218.521 405.224 216.507 401.287 212.468C359.679 169.801 261.593 178.92 182.776 186.293C171.775 187.254 161.979 179.214 160.95 168.201C159.935 157.174 168.027 147.4 179.041 146.375C290.089 136.041 379.069 132.255 429.972 184.507C437.712 192.427 437.55 205.12 429.62 212.841C425.724 216.627 420.69 218.521 415.629 218.521Z" fill="#000072"/>
<path d="M522.759 527.759C517.524 527.759 512.316 525.733 508.386 521.693L334.454 342.706C326.736 334.773 326.92 322.079 334.865 314.372C342.797 306.667 355.495 306.827 363.199 314.772L537.131 493.76C544.836 501.692 544.665 514.386 536.72 522.093C532.818 525.879 527.782 527.759 522.759 527.759Z" fill="#000072"/>
<path d="M367.37 522.785C361.17 522.785 355.05 519.905 351.13 514.505L267.97 399.772C261.463 390.812 263.463 378.292 272.436 371.799C281.383 365.292 293.916 367.305 300.41 376.265L383.583 490.985C390.076 499.945 388.076 512.465 379.116 518.972C375.556 521.545 371.45 522.785 367.37 522.785Z" fill="#000072"/>
<path d="M637.346 531.439H637.06C625.997 531.279 617.152 522.186 617.295 511.119C619.688 336.587 706.739 297.747 788.148 275.04C798.831 272.08 809.847 278.292 812.827 288.96C815.807 299.627 809.562 310.68 798.91 313.653C722.653 334.907 659.394 364.494 657.381 511.666C657.222 522.639 648.282 531.439 637.346 531.439Z" fill="#000072"/>
<path d="M793.53 294.372L793.467 294.438V294.372H793.53Z" fill="white"/>
<path d="M699.416 318.235C603.647 318.235 500.603 263.675 407.719 205.367C398.335 199.488 395.514 187.115 401.395 177.741C407.291 168.381 419.638 165.541 429.022 171.421C546.696 245.288 680.808 313.315 783.361 257.688C793.093 252.421 805.25 256.035 810.528 265.754C815.807 275.475 812.193 287.649 802.461 292.928C769.729 310.675 735.064 318.235 699.416 318.235Z" fill="#000072"/>
<path d="M673.774 236.055C591.677 236.055 501.707 190.521 418.883 140.241C409.413 134.507 406.409 122.175 412.148 112.722C417.902 103.254 430.218 100.241 439.687 105.988C604.103 205.788 703.875 221.268 773.277 157.681C781.451 150.201 794.13 150.761 801.592 158.922C809.069 167.095 808.516 179.761 800.343 187.241C762.274 222.095 719.226 236.055 673.774 236.055Z" fill="#000072"/>
<path d="M534.838 488.065L531.49 487.958L515.23 471.225C521.404 477.092 527.945 482.704 534.838 488.065ZM327.146 481.412L74.5732 473.319C86.1996 468.145 97.1337 462.637 107.277 456.544C112.334 456.772 117.476 456.892 122.703 456.892C161.001 456.892 203.523 450.319 246.722 431.505C257.854 426.665 268.633 421.158 279.044 415.038L327.146 481.412ZM502.036 457.652L375.389 327.318C398.868 295.478 417.473 258.998 430.342 219.357C436.417 223.051 442.506 226.691 448.637 230.304C433.21 328.664 453.087 403.064 502.036 457.652ZM325.14 325.758C295.078 295.225 244.674 278.784 186.542 267.199C186.118 260.864 185.525 254.33 184.819 247.598C188.506 244.864 192.264 242.184 196.106 239.517C197.604 238.492 198.946 237.33 200.175 236.065C207.775 235.598 215.191 235.371 222.481 235.371C277.476 235.371 323.374 248.611 361.672 275.451C353.578 289.29 344.536 302.384 334.648 314.571C333.701 315.532 332.868 316.558 332.133 317.638C329.859 320.385 327.499 323.104 325.14 325.758ZM403.403 163.918C372.168 145.944 332.048 140.038 285.02 140.038C260.948 140.038 235.054 141.585 207.633 143.85V102.784C207.633 94.6242 212.677 87.517 220.192 85.0915C276.982 66.7436 338.829 56.0905 403.94 53.4516L404.293 53.4376C406.892 53.4376 408.714 54.6637 409.816 55.7176C410.805 56.6641 412.458 58.7436 412.458 61.9179V79.825C411.399 82.2647 410.805 84.9714 410.805 87.8109C410.777 98.7704 410.325 109.611 409.435 120.304C409.35 121.037 409.279 121.77 409.251 122.505C408.022 136.585 406.058 150.411 403.403 163.918ZM475.068 126.718C468.612 123.077 462.057 119.291 455.375 115.371C463.639 114.304 471.833 113.411 479.998 112.678C478.289 117.411 476.65 122.078 475.068 126.718Z" fill="#AB296D"/>
<path d="M456.945 188.627C451.677 185.455 446.422 182.24 441.194 179.015C442.822 171.441 444.259 163.787 445.491 156.041C451.239 159.387 457.041 162.694 462.857 165.934C460.695 173.627 458.738 181.188 456.945 188.627Z" fill="#B2A45C"/>
<path d="M472.795 557.436C322.34 557.436 178.212 553.369 70.8404 539.476C61.2679 538.236 53.8744 530.209 53.6039 520.796C53.5288 518.103 53.4837 515.396 53.4536 512.73L366.31 522.757C366.596 522.769 366.866 522.782 367.167 522.782L521.664 527.729C521.965 527.743 522.265 527.756 522.581 527.756L608.102 530.503C630.583 540.196 655.153 548.463 681.647 555.423C612.671 556.57 542.057 557.436 472.795 557.436Z" fill="#B2B2D4"/>
<path d="M154.903 414.985C174.143 389.412 185.69 355.679 187.37 308.385C233.503 318.252 274.57 331.932 296.383 353.759C289.33 359.732 281.997 365.319 274.41 370.532C273.73 370.905 273.077 371.332 272.437 371.799C272.157 371.999 271.89 372.199 271.623 372.412C258.703 381.025 245.037 388.519 230.717 394.759C204.903 405.999 179.303 412.212 154.903 414.985Z" fill="#B2B2D4"/>
<path d="M379.97 239.438C335.81 210.118 282.717 195.358 221.463 195.358C216.903 195.358 212.29 195.439 207.637 195.612V184.012C232.41 181.852 258.237 180.025 283.023 180.025C326.677 180.025 367.103 185.679 392.863 205.079C389.103 216.865 384.81 228.332 379.97 239.438Z" fill="#B2A45C"/>
<path d="M473.811 486.104L377.806 483.025L312.193 392.518C325.491 382.158 337.979 370.731 349.627 358.305L473.811 486.104Z" fill="#B2A45C"/>
<path d="M472.29 584.121C315.411 584.121 174.185 579.8 67.4022 565.96C44.8177 563.094 27.5179 544.254 26.8495 521.547C26.7718 518.654 26.0102 515.255 25.1709 511.787C25.6061 511.828 26.0258 511.854 26.461 511.868L53.4443 512.734C53.4754 515.401 53.5064 518.107 53.5841 520.801C53.8483 530.214 61.2625 538.24 70.8217 539.481C178.195 553.373 322.328 557.441 472.772 557.441C542.033 557.441 612.647 556.574 681.628 555.428C707.834 562.294 735.905 567.867 765.733 572.241C759.314 577.654 751.029 580.854 742.154 581.054C649.562 582.814 558.556 584.121 472.29 584.121ZM184.816 247.602C184.459 244.255 184.07 240.856 183.635 237.415C189.231 236.841 194.733 236.401 200.158 236.069C198.93 237.335 197.593 238.495 196.101 239.522C192.262 242.188 188.5 244.869 184.816 247.602ZM180.884 197.401V186.361C180.915 186.361 180.946 186.361 180.977 186.361C181.568 186.361 182.159 186.349 182.78 186.296C190.878 185.536 199.194 184.749 207.634 184.015V195.616C198.868 195.922 189.946 196.522 180.884 197.401ZM180.884 146.216V102.816C180.884 83.2419 193.381 65.6825 211.94 59.6688C271.921 40.2956 335.649 29.4821 402.843 26.7356C403.309 26.7232 403.791 26.7092 404.257 26.7092C423.515 26.7092 439.168 42.509 439.168 61.9366V69.629C436.634 68.4695 433.821 67.8151 430.852 67.8151H430.821C422.614 67.8151 415.542 72.7486 412.449 79.8301V61.9226C412.449 58.7487 410.801 56.669 409.806 55.7224C408.703 54.6686 406.884 53.4422 404.288 53.4422L403.931 53.4562C338.82 56.0955 276.973 66.7489 220.177 85.0962C212.67 87.5225 207.634 94.629 207.634 102.789V143.856C198.868 144.576 189.946 145.375 180.884 146.216ZM455.364 115.376C453.638 114.349 451.913 113.335 450.157 112.295C450.592 104.589 450.825 96.8423 450.856 89.0286C464.021 87.3096 477.233 85.99 490.461 85.1087C486.746 94.4564 483.248 103.657 479.984 112.683C471.824 113.416 463.633 114.308 455.364 115.376Z" fill="#000072"/>
<path d="M608.08 530.508L522.562 527.762C522.62 527.762 522.678 527.762 522.751 527.762C527.78 527.762 532.809 525.881 536.701 522.094C544.659 514.388 544.834 501.695 537.123 493.761L531.482 487.962L534.82 488.068C544.455 495.535 554.79 502.535 565.809 509.055V509.122C578.942 516.908 593.037 524.029 608.08 530.508ZM521.643 527.735L367.151 522.788C367.209 522.788 367.297 522.788 367.355 522.788C371.436 522.788 375.547 521.548 379.103 518.975C388.068 512.468 390.065 499.949 383.578 490.987L377.806 483.029L473.805 486.107L508.379 521.695C512.023 525.454 516.79 527.469 521.643 527.735ZM366.291 522.762L53.4436 512.735L26.463 511.868C26.0258 511.855 25.6031 511.828 25.1804 511.788C23.0814 503.148 20.5451 494.148 27.119 491.829C43.9253 485.881 59.7987 479.869 74.5643 473.321L327.14 481.415L351.117 514.508C354.82 519.602 360.475 522.441 366.291 522.762Z" fill="#000072"/>
<path d="M122.698 456.893C117.471 456.893 112.326 456.773 107.276 456.546C126.088 445.226 142.177 431.892 154.903 414.985C179.295 412.213 204.899 405.999 230.72 394.76C245.039 388.519 258.705 381.026 271.623 372.412C263.361 379.052 261.659 391.093 267.961 399.773L279.028 415.04C268.628 421.159 257.848 426.665 246.714 431.506C203.51 450.32 160.988 456.893 122.698 456.893ZM312.199 392.519L300.411 376.266C296.491 370.852 290.366 367.972 284.173 367.972C280.824 367.972 277.462 368.812 274.413 370.532C281.995 365.319 289.331 359.733 296.382 353.759C300.275 357.665 303.556 361.813 306.142 366.267C309.871 372.653 316.582 376.213 323.483 376.213C326.913 376.213 330.384 375.332 333.556 373.493C341.396 368.919 344.976 359.839 342.934 351.439L349.617 358.305C337.979 370.733 325.484 382.159 312.199 392.519ZM328.805 329.666C327.621 328.346 326.396 327.039 325.144 325.76C327.499 323.106 329.853 320.386 332.126 317.639C329.731 321.253 328.601 325.479 328.805 329.666ZM375.384 327.32L363.188 314.773C359.254 310.733 354.041 308.706 348.828 308.706C343.792 308.706 338.755 310.586 334.862 314.372C334.794 314.439 334.713 314.506 334.645 314.572C344.527 302.386 353.565 289.292 361.677 275.453C366.142 278.572 370.498 281.892 374.758 285.386C378.488 288.44 382.979 289.933 387.458 289.933C393.243 289.933 399 287.425 402.948 282.614C409.985 274.052 408.746 261.426 400.184 254.4C393.664 249.053 386.927 244.066 379.971 239.439C384.803 228.332 389.105 216.866 392.861 205.079C395.87 207.346 398.687 209.812 401.287 212.466C405.221 216.506 410.42 218.519 415.634 218.519C418.887 218.519 422.14 217.733 425.094 216.159C426.836 217.226 428.578 218.292 430.334 219.359C417.471 258.999 398.864 295.479 375.384 327.32ZM441.196 179.013C437.113 176.492 433.056 173.973 429.014 171.426C425.706 169.346 422.017 168.359 418.383 168.359C416.233 168.359 414.082 168.706 412.054 169.386C409.25 167.453 406.364 165.64 403.397 163.919C406.051 150.412 408.025 136.586 409.25 122.506C409.046 129.479 412.503 136.372 418.887 140.239C427.68 145.586 436.555 150.866 445.484 156.039C444.259 163.786 442.816 171.44 441.196 179.013ZM409.44 120.306C410.311 109.613 410.761 98.7728 410.788 87.8127C410.788 84.9733 411.4 82.266 412.462 79.8268C415.552 72.7461 422.616 67.8132 430.824 67.8132H430.865C433.832 67.8132 436.65 68.4665 439.182 69.6262V90.6535C443.075 90.0791 446.967 89.5332 450.86 89.0255C450.833 96.84 450.588 104.586 450.166 112.292C446.695 110.227 443.211 108.12 439.685 105.987C436.432 104.013 432.852 103.079 429.3 103.079C422.521 103.079 415.933 106.506 412.149 112.719C410.706 115.119 409.808 117.693 409.44 120.306Z" fill="#000072"/>
<path d="M387.454 289.934C382.978 289.934 378.489 288.44 374.748 285.387C370.499 281.894 366.144 278.574 361.668 275.453C323.362 248.614 277.468 235.373 222.475 235.373C215.193 235.373 207.765 235.601 200.162 236.067C194.738 236.4 189.233 236.84 183.649 237.414C182.847 230.987 181.925 224.36 180.883 217.561V197.401C189.955 196.52 198.88 195.92 207.631 195.614C212.281 195.441 216.904 195.36 221.46 195.36C282.719 195.36 335.801 210.12 379.972 239.44C386.933 244.067 393.654 249.054 400.187 254.401C408.738 261.427 409.981 274.054 402.953 282.615C398.998 287.427 393.253 289.934 387.454 289.934Z" fill="#000072"/>
<path d="M323.49 376.212C316.583 376.212 309.876 372.652 306.143 366.265C303.556 361.812 300.276 357.665 296.383 353.759C274.57 331.932 233.503 318.252 187.37 308.385C187.823 295.679 187.57 281.972 186.543 267.199C244.676 278.785 295.076 295.225 325.143 325.759C326.396 327.039 327.623 328.345 328.81 329.665C329.023 334.385 330.903 339.052 334.45 342.705L342.943 351.439C344.983 359.839 341.396 368.919 333.556 373.492C330.383 375.332 326.916 376.212 323.49 376.212Z" fill="#000072"/>
<path d="M415.627 218.521C410.421 218.521 405.214 216.508 401.286 212.467C398.689 209.814 395.877 207.347 392.864 205.081C367.1 185.682 326.673 180.027 283.016 180.027C258.235 180.027 232.404 181.854 207.637 184.015C199.188 184.748 190.887 185.535 182.775 186.294C182.169 186.348 181.564 186.361 180.985 186.361C180.958 186.361 180.918 186.361 180.891 186.361V146.214C189.959 145.374 198.878 144.575 207.637 143.855C235.041 141.588 260.939 140.041 285.021 140.041C332.041 140.041 372.159 145.948 403.398 163.921C406.371 165.641 409.25 167.455 412.048 169.388C407.784 170.801 403.963 173.654 401.38 177.748C395.501 187.121 398.326 199.494 407.717 205.375C413.461 208.988 419.26 212.587 425.085 216.162C422.139 217.734 418.883 218.521 415.627 218.521Z" fill="#000072"/>
<path d="M522.759 527.759C522.688 527.759 522.631 527.759 522.574 527.759C522.262 527.759 521.95 527.746 521.652 527.733C516.8 527.466 512.033 525.453 508.386 521.693L473.81 486.105L349.621 358.306L342.938 351.439L334.454 342.706C330.907 339.052 329.02 334.386 328.807 329.666C328.608 325.48 329.729 321.253 332.127 317.64C332.865 316.56 333.702 315.533 334.653 314.574C334.709 314.505 334.794 314.439 334.865 314.372C338.753 310.587 343.79 308.705 348.841 308.705C354.048 308.705 359.269 310.733 363.199 314.772L375.387 327.319L502.03 457.652C506.23 462.319 510.628 466.853 515.225 471.226L531.485 487.96L537.131 493.76C544.836 501.692 544.665 514.386 536.72 522.093C532.818 525.879 527.781 527.759 522.759 527.759Z" fill="#000072"/>
<path d="M367.37 522.785C367.303 522.785 367.223 522.785 367.156 522.785C366.863 522.785 366.583 522.772 366.303 522.758C360.476 522.438 354.823 519.598 351.13 514.505L327.143 481.412L279.036 415.038L267.97 399.772C261.663 391.092 263.356 379.052 271.623 372.412C271.89 372.199 272.156 371.999 272.436 371.799C273.076 371.332 273.73 370.905 274.41 370.532C277.463 368.812 280.823 367.972 284.17 367.972C290.37 367.972 296.49 370.852 300.41 376.265L312.196 392.518L377.81 483.025L383.583 490.985C390.076 499.945 388.076 512.465 379.116 518.972C375.556 521.545 371.45 522.785 367.37 522.785Z" fill="#000072"/>
<path d="M448.62 230.31C442.492 226.697 436.404 223.057 430.331 219.363C428.57 218.297 426.823 217.231 425.076 216.164C419.248 212.591 413.447 208.99 407.701 205.377C398.324 199.497 395.498 187.124 401.367 177.75C403.961 173.657 407.769 170.804 412.041 169.39C414.075 168.711 416.231 168.364 418.374 168.364C422.018 168.364 425.69 169.351 428.993 171.431C433.047 173.978 437.1 176.497 441.181 179.017C446.409 182.243 451.664 185.458 456.946 188.63C453.506 202.978 450.736 216.871 448.62 230.31Z" fill="#000072"/>
<path d="M462.866 165.929C457.06 162.688 451.253 159.382 445.501 156.035C436.571 150.861 427.682 145.582 418.903 140.234C412.504 136.368 409.064 129.475 409.257 122.502C409.284 121.768 409.353 121.035 409.45 120.302C409.821 117.687 410.715 115.115 412.16 112.714C415.931 106.501 422.535 103.075 429.305 103.075C432.856 103.075 436.447 104.008 439.694 105.981C443.217 108.114 446.712 110.222 450.179 112.288C451.927 113.328 453.661 114.342 455.381 115.368C462.055 119.287 468.618 123.074 475.072 126.715C470.503 140.141 466.43 153.195 462.866 165.929Z" fill="#000072"/>
<path d="M1018.77 516.064H1018.83L1165.33 511.384L1236.85 509.049L1775.55 491.824C1770.94 378.197 1721.05 286.156 1621.79 217.557V102.808C1621.79 83.2351 1609.32 65.6768 1590.73 59.6618C1530.75 40.2884 1467.04 29.4757 1399.84 26.7279C1379.93 25.9301 1363.52 42.0232 1363.52 61.9292V90.65C1346.48 88.1153 1329.37 86.2501 1312.19 85.1024C1225.3 78.9699 1136.87 90.5827 1046.64 128.997C1029.01 136.477 1017.38 153.37 1015.83 172.476C1006.57 291.371 1004.29 407.33 1018.77 516.064Z" fill="#F53B6B"/>
<path d="M1362.39 139.612L1373.4 188.398C1247.05 262.665 1123.45 324.918 1026.19 271.386L1032.87 204.185C1136.4 231.839 1246.88 205.291 1362.39 139.612Z" fill="#FFEB52"/>
<path d="M1018.83 516.067C1020.24 527.294 1021.92 538.374 1023.79 549.401C1025.31 558.613 1030.14 566.627 1036.94 572.241C1043.35 577.655 1051.64 580.853 1060.51 581.053C1321.5 585.999 1569.74 587.401 1735.26 565.96C1757.85 563.094 1775.14 544.253 1775.81 521.548C1776.07 511.453 1776.01 501.574 1775.53 491.827L1236.86 509.12L1165.3 511.388L1018.83 516.067Z" fill="white"/>
<path d="M1154.22 502.745C1153.82 390.279 1112.95 323.17 1018.83 315.743L1030.65 503.957L1154.22 502.745Z" fill="white"/>
<path d="M1750.91 418.224C1741.02 363.638 1712.74 317.517 1669.61 278.211C1595.99 294.317 1530.15 315.345 1495.42 356.171C1563.42 416.784 1647.98 438.905 1750.91 418.224Z" fill="white"/>
<path d="M1607.29 208.639V169.438C1523.45 161.118 1442.97 157.145 1397.41 198.493L1418.6 253.172C1466.51 214.225 1531.51 202.746 1607.29 208.639Z" fill="#FFEB52"/>
<path d="M1526.03 402.864L1453.85 343.33L1311.18 491.837H1453.85L1526.03 402.864Z" fill="#FFEB52"/>
<path d="M1057.05 153.587C1048.81 157.096 1043.24 165.123 1042.49 174.535C1030.65 325.974 1033.08 443.681 1050.1 544.986C1051 550.308 1055.58 554.241 1061.04 554.346C1295.78 558.786 1560.58 561.667 1731.82 539.481C1741.4 538.242 1748.82 530.215 1749.08 520.813C1752.35 400.082 1705.73 308.08 1606.56 239.522C1599.35 234.536 1595.05 226.32 1595.05 217.548V102.789C1595.05 94.7621 1589.87 87.4826 1582.48 85.0948C1525.67 66.7494 1463.86 56.0956 1398.72 53.4557C1395.83 53.4557 1394.01 54.6287 1392.85 55.7228C1391.86 56.6678 1390.22 58.7354 1390.22 61.9213V90.6422C1390.22 98.4018 1386.84 105.775 1380.94 110.856C1375.09 115.936 1367.3 118.188 1359.61 117.067C1251.29 101.134 1152.34 113.081 1057.05 153.587ZM1329.48 610.867C1239.65 610.867 1147.76 609.427 1060.03 607.773C1028.87 607.188 1002.54 584.508 997.411 553.84C979.651 448.121 977.042 326.268 989.211 170.374C991.513 141.028 1009.49 115.747 1036.15 104.414C1131.66 63.8157 1230.33 49.3226 1336.78 60.3624C1337.2 44.1218 1344.11 28.4556 1355.84 17.1747C1368.05 5.46838 1384.03 -0.719143 1400.87 0.0680001C1470.86 2.90742 1537.49 14.4011 1598.93 34.2551C1628.55 43.828 1648.48 71.3604 1648.48 102.789V203.789C1754.32 281.694 1806.11 388.774 1802.49 522.253C1801.5 558.28 1774.69 587.814 1738.69 592.467C1628.64 606.721 1482.02 610.867 1329.48 610.867Z" fill="#000072"/>
<path d="M1018.77 536.133C1007.99 536.133 999.113 527.573 998.763 516.733C998.391 505.679 1007.07 496.413 1018.13 496.065L1774.93 471.812C1775.14 471.812 1775.36 471.799 1775.58 471.799C1786.36 471.799 1795.26 480.358 1795.61 491.198C1795.96 502.253 1787.28 511.519 1776.22 511.866L1019.42 536.12C1019.21 536.12 1018.99 536.133 1018.77 536.133Z" fill="#000072"/>
<path d="M1679.97 456.892C1641.68 456.892 1599.16 450.332 1555.95 431.505C1432.17 377.6 1352.04 242.718 1351.8 87.8789C1351.78 76.8124 1360.75 67.8257 1371.81 67.8126H1371.85C1382.9 67.8126 1391.87 76.7579 1391.89 87.8113C1392.11 226.733 1462.79 347.211 1571.95 394.759C1644.38 426.304 1715.28 418.226 1762.01 405.891C1772.74 403.078 1783.68 409.437 1786.49 420.146C1789.33 430.852 1782.94 441.812 1772.24 444.638C1746.91 451.318 1715.22 456.892 1679.97 456.892Z" fill="#000072"/>
<path d="M1415.23 289.932C1409.41 289.932 1403.68 287.425 1399.73 282.612C1392.7 274.052 1393.95 261.424 1402.49 254.398C1459.63 207.505 1534.1 188.411 1623.8 197.612C1634.83 198.746 1642.83 208.572 1641.7 219.584C1640.57 230.599 1630.77 238.625 1619.72 237.479C1539.9 229.251 1477.17 244.944 1427.93 285.385C1424.21 288.438 1419.71 289.932 1415.23 289.932Z" fill="#000072"/>
<path d="M1479.2 376.212C1475.76 376.212 1472.3 375.346 1469.13 373.493C1459.57 367.92 1456.32 355.653 1461.89 346.094C1495.73 288.012 1587.12 270.093 1685.85 255.479C1696.78 253.919 1706.98 261.426 1708.6 272.387C1710.22 283.32 1702.67 293.52 1691.7 295.133C1610.3 307.174 1521.36 323.599 1496.52 366.266C1492.81 372.653 1486.09 376.212 1479.2 376.212Z" fill="#000072"/>
<path d="M1387.03 218.52C1381.99 218.52 1376.94 216.626 1373.05 212.841C1365.12 205.12 1364.96 192.428 1372.68 184.506C1423.58 132.253 1512.57 136.04 1623.61 146.372C1634.64 147.4 1642.74 157.173 1641.71 168.2C1640.69 179.214 1630.9 187.32 1619.89 186.293C1541.07 178.919 1442.98 169.786 1401.38 212.466C1397.45 216.507 1392.24 218.52 1387.03 218.52Z" fill="#000072"/>
<path d="M1279.92 527.758C1274.9 527.758 1269.85 525.877 1265.97 522.09C1258.03 514.385 1257.85 501.69 1265.55 493.758L1439.48 314.77C1447.2 306.824 1459.9 306.65 1467.82 314.37C1475.76 322.077 1475.93 334.77 1468.23 342.704L1294.3 521.69C1290.36 525.732 1285.15 527.758 1279.92 527.758Z" fill="#000072"/>
<path d="M1435.29 522.787C1431.21 522.787 1427.11 521.547 1423.56 518.975C1414.58 512.468 1412.59 499.949 1419.09 490.988L1502.26 376.268C1508.74 367.293 1521.29 365.294 1530.22 371.802C1539.19 378.294 1541.2 390.814 1534.7 399.774L1451.53 514.506C1447.61 519.908 1441.5 522.787 1435.29 522.787Z" fill="#000072"/>
<path d="M1165.33 531.438C1154.41 531.438 1145.46 522.638 1145.31 511.664C1143.3 364.492 1080.01 334.906 1003.77 313.65C993.113 310.677 986.88 299.625 989.851 288.958C992.823 278.29 1003.89 272.091 1014.53 275.038C1095.96 297.744 1183 336.585 1185.39 511.118C1185.53 522.185 1176.67 531.279 1165.62 531.438H1165.33Z" fill="#000072"/>
<path d="M1009.17 294.368L1009.23 294.435V294.368H1009.17Z" fill="white"/>
<path d="M1103.29 318.237C1067.62 318.237 1032.97 310.676 1000.22 292.931C990.505 287.65 986.901 275.476 992.16 265.756C997.439 256.036 1009.61 252.409 1019.33 257.69C1121.91 313.303 1256 245.29 1373.67 171.423C1383.04 165.542 1395.43 168.368 1401.29 177.744C1407.19 187.128 1404.35 199.49 1394.98 205.37C1302.09 263.676 1199.04 318.237 1103.29 318.237Z" fill="#000072"/>
<path d="M1128.9 236.065C1083.44 236.065 1040.39 222.106 1002.32 187.239C994.168 179.76 993.606 167.092 1001.08 158.92C1008.55 150.759 1021.23 150.2 1029.4 157.679C1098.82 221.252 1198.59 205.785 1362.99 105.986C1372.46 100.239 1384.79 103.253 1390.51 112.72C1396.26 122.172 1393.25 134.506 1383.78 140.24C1300.97 190.52 1210.98 236.065 1128.9 236.065Z" fill="#000072"/>
<mask id="mask0_1_5437" style="mask-type:luminance" maskUnits="userSpaceOnUse" x="1267" y="53" width="462" height="436">
<path d="M1267.84 488.065C1274.73 482.719 1281.26 477.119 1287.41 471.265L1271.2 487.959L1267.84 488.065ZM1475.53 481.412L1523.65 415.039C1534.04 421.159 1544.82 426.665 1555.96 431.505C1599.17 450.332 1641.68 456.892 1679.98 456.892C1685.21 456.892 1690.36 456.772 1695.41 456.545C1705.54 462.639 1716.48 468.145 1728.12 473.319L1475.53 481.412ZM1300.68 457.625C1349.58 403.039 1369.46 328.625 1354.04 230.305C1360.18 226.692 1366.28 223.052 1372.34 219.359C1385.21 258.999 1403.81 295.479 1427.29 327.319L1300.68 457.625ZM1477.54 325.759C1475.16 323.092 1472.82 320.385 1470.53 317.625C1469.81 316.559 1468.98 315.532 1468.04 314.585C1458.16 302.399 1449.12 289.305 1441 275.452C1479.29 248.612 1525.18 235.359 1580.14 235.359C1587.44 235.359 1594.89 235.585 1602.5 236.052C1603.73 237.332 1605.09 238.492 1606.57 239.519C1610.41 242.185 1614.17 244.865 1617.86 247.599C1617.14 254.332 1616.57 260.865 1616.13 267.199C1558 278.785 1507.6 295.225 1477.54 325.759ZM1399.28 163.919C1396.62 150.399 1394.65 136.559 1393.42 122.492C1393.4 121.772 1393.34 121.052 1393.24 120.332C1392.36 109.625 1391.9 98.7855 1391.89 87.8121C1391.88 84.9721 1391.29 82.2788 1390.22 79.8388V61.9188C1390.22 58.7321 1391.88 56.6654 1392.86 55.7188C1394.01 54.6254 1395.84 53.4521 1398.73 53.4521C1463.86 56.0921 1525.69 66.7454 1582.5 85.0921C1589.89 87.4787 1595.05 94.7588 1595.05 102.785V143.852C1567.62 141.585 1541.73 140.039 1517.65 140.039C1470.64 140.039 1430.5 145.945 1399.28 163.919ZM1327.61 126.719C1326.04 122.092 1324.38 117.399 1322.68 112.679C1330.84 113.412 1339.05 114.305 1347.3 115.372C1340.62 119.305 1334.06 123.079 1327.61 126.719Z" fill="white"/>
</mask>
<g mask="url(#mask0_1_5437)">
<path d="M1267.82 53.4549H1728.11V488.066H1267.82" fill="#AB296D"/>
</g>
<path d="M1345.73 188.627C1343.94 181.188 1341.96 173.625 1339.81 165.933C1345.63 162.694 1351.43 159.386 1357.19 156.04C1358.42 163.786 1359.86 171.441 1361.49 179.013C1356.27 182.24 1351.01 185.453 1345.73 188.627Z" fill="#B2A45C"/>
<path d="M1330.05 557.438C1260.73 557.438 1190.06 556.57 1121.04 555.424C1147.53 548.464 1172.11 540.197 1194.59 530.503L1280.1 527.756C1280.43 527.756 1280.73 527.743 1281.03 527.73L1435.54 522.783C1435.83 522.783 1436.11 522.77 1436.39 522.757L1749.23 512.73C1749.21 515.397 1749.17 518.103 1749.08 520.81C1748.82 530.209 1741.42 538.238 1731.84 539.477C1624.52 553.383 1480.45 557.438 1330.05 557.438Z" fill="#B2B2D4"/>
<path d="M1647.78 414.986C1623.39 412.212 1597.76 405.999 1571.95 394.759C1557.61 388.518 1543.97 381.025 1531.04 372.4C1530.79 372.199 1530.52 371.985 1530.22 371.799C1529.6 371.332 1528.95 370.906 1528.25 370.533C1520.67 365.32 1513.36 359.733 1506.29 353.759C1528.11 331.932 1569.18 318.253 1615.3 308.386C1616.98 355.678 1628.52 389.411 1647.78 414.986Z" fill="#B2B2D4"/>
<path d="M1422.72 239.437C1417.87 228.331 1413.58 216.864 1409.83 205.063C1435.56 185.678 1475.97 180.023 1519.63 180.023C1544.43 180.023 1570.28 181.851 1595.06 184.011V195.61C1590.39 195.451 1585.79 195.358 1581.23 195.358C1519.98 195.358 1466.87 210.118 1422.72 239.437Z" fill="#B2A45C"/>
<path d="M1328.86 486.106L1453.05 358.305C1464.67 370.718 1477.2 382.173 1490.47 392.505L1424.87 483.026L1328.86 486.106Z" fill="#B2A45C"/>
<path d="M1330.38 584.119C1244.12 584.119 1153.1 582.812 1060.5 581.052C1051.63 580.852 1043.34 577.653 1036.95 572.239C1066.75 567.865 1094.83 562.293 1121.04 555.426C1190.05 556.572 1260.72 557.44 1330.04 557.44C1480.44 557.44 1624.49 553.386 1731.83 539.479C1741.4 538.239 1748.82 530.213 1749.08 520.812C1749.14 518.107 1749.19 515.399 1749.21 512.732L1776.2 511.867C1776.64 511.853 1777.07 511.825 1777.49 511.786C1776.66 515.253 1775.88 518.653 1775.81 521.545C1775.14 544.253 1757.84 563.093 1735.27 565.96C1628.47 579.8 1487.25 584.119 1330.38 584.119ZM1617.86 247.599C1614.16 244.867 1610.4 242.185 1606.57 239.519C1605.09 238.492 1603.72 237.333 1602.5 236.054C1607.92 236.387 1613.42 236.839 1619.03 237.413C1618.6 240.852 1618.21 244.239 1617.86 247.599ZM1621.77 197.399C1612.7 196.52 1603.81 195.92 1595.04 195.614V184.014C1603.48 184.747 1611.79 185.534 1619.9 186.293C1620.53 186.346 1621.14 186.374 1621.77 186.374V197.399ZM1621.77 146.214C1612.73 145.372 1603.81 144.574 1595.04 143.854V102.787C1595.04 94.7591 1589.89 87.4793 1582.49 85.0932C1525.68 66.7468 1463.87 56.0934 1398.72 53.4529C1395.83 53.4529 1394 54.6252 1392.85 55.7193C1391.87 56.6654 1390.22 58.7339 1390.22 61.9204V79.8405C1387.13 72.7608 1380.06 67.8125 1371.84 67.8125H1371.8C1368.84 67.8125 1366.01 68.4673 1363.49 69.6266V61.9334C1363.49 42.506 1379.15 26.7065 1398.4 26.7065C1398.88 26.7065 1399.35 26.7194 1399.83 26.7325C1467.02 29.4796 1530.75 40.294 1590.71 59.667C1609.29 65.6789 1621.77 83.24 1621.77 102.813V146.214ZM1347.31 115.372C1339.04 114.306 1330.84 113.412 1322.66 112.679C1319.4 103.64 1315.92 94.4655 1312.2 85.1063C1325.42 85.9872 1338.65 87.3074 1351.81 89.0257C1351.83 96.8406 1352.07 104.586 1352.5 112.292C1350.76 113.321 1349.02 114.348 1347.31 115.372Z" fill="#000072"/>
<path d="M1194.59 530.506C1209.61 524.027 1223.73 516.907 1236.84 509.119V509.054C1247.88 502.533 1258.2 495.533 1267.83 488.068L1271.18 487.959L1265.54 493.761C1257.83 501.693 1258.03 514.387 1265.96 522.093C1269.85 525.88 1274.89 527.76 1279.92 527.76C1279.98 527.76 1280.05 527.76 1280.09 527.76L1194.59 530.506ZM1281.03 527.733C1285.88 527.468 1290.63 525.453 1294.29 521.694L1328.85 486.105L1424.85 483.026L1419.11 490.986C1412.59 499.948 1414.6 512.466 1423.57 518.974C1427.12 521.546 1431.21 522.787 1435.31 522.787C1435.37 522.787 1435.44 522.787 1435.53 522.787L1281.03 527.733ZM1436.38 522.759C1442.19 522.454 1447.85 519.601 1451.53 514.507L1475.53 481.414L1728.12 473.319C1742.87 479.866 1758.75 485.879 1775.54 491.827C1782.11 494.146 1779.59 503.147 1777.5 511.787C1777.08 511.826 1776.65 511.852 1776.21 511.868L1749.23 512.734L1436.38 522.759Z" fill="#000072"/>
<path d="M1679.99 456.891C1641.69 456.891 1599.17 450.33 1555.98 431.503C1544.84 426.663 1534.05 421.157 1523.66 415.036L1534.73 399.77C1541.02 391.091 1539.32 379.05 1531.05 372.396C1543.97 381.024 1557.63 388.516 1571.98 394.756C1597.77 405.996 1623.39 412.21 1647.78 414.983C1660.51 431.889 1676.6 445.224 1695.42 456.544C1690.36 456.769 1685.22 456.891 1679.99 456.891ZM1490.49 392.504C1477.21 382.169 1464.68 370.717 1453.06 358.303L1459.75 351.423C1457.71 359.824 1461.28 368.916 1469.14 373.49C1472.31 375.343 1475.77 376.21 1479.21 376.21C1486.1 376.21 1492.81 372.651 1496.55 366.264C1499.12 361.811 1502.41 357.663 1506.3 353.756C1513.38 359.73 1520.69 365.316 1528.27 370.53C1525.21 368.809 1521.85 367.97 1518.52 367.97C1512.31 367.97 1506.2 370.849 1502.26 376.263L1490.49 392.504ZM1473.88 329.677C1474.07 325.476 1472.94 321.237 1470.54 317.623C1472.84 320.383 1475.17 323.09 1477.55 325.757C1476.28 327.036 1475.07 328.342 1473.88 329.677ZM1427.31 327.316C1403.83 295.476 1385.21 258.997 1372.36 219.356C1374.1 218.302 1375.87 217.223 1377.59 216.156C1380.54 217.729 1383.79 218.517 1387.04 218.517C1392.27 218.517 1397.47 216.503 1401.38 212.462C1404 209.795 1406.8 207.343 1409.84 205.061C1413.58 216.862 1417.89 228.329 1422.72 239.437C1415.77 244.062 1409.01 249.049 1402.51 254.397C1393.95 261.423 1392.72 274.05 1399.75 282.61C1403.7 287.423 1409.44 289.93 1415.24 289.93C1419.72 289.93 1424.2 288.436 1427.94 285.383C1432.19 281.875 1436.55 278.569 1441.01 275.45C1449.13 289.303 1458.18 302.396 1468.04 314.583C1467.97 314.517 1467.91 314.436 1467.82 314.37C1463.93 310.582 1458.9 308.689 1453.86 308.689C1448.64 308.689 1443.41 310.731 1439.48 314.77L1427.31 327.316ZM1361.5 179.008C1359.87 171.436 1358.42 163.783 1357.21 156.036C1366.14 150.862 1375.02 145.583 1383.79 140.235C1390.19 136.355 1393.65 129.463 1393.44 122.489C1394.67 136.555 1396.62 150.395 1399.28 163.917C1396.33 165.636 1393.44 167.45 1390.63 169.384C1388.59 168.701 1386.47 168.355 1384.32 168.355C1380.67 168.355 1376.97 169.356 1373.68 171.423C1369.64 173.969 1365.58 176.488 1361.5 179.008ZM1393.25 120.329C1392.86 117.702 1391.97 115.117 1390.53 112.716C1386.77 106.503 1380.16 103.076 1373.38 103.076C1369.85 103.076 1366.24 104.009 1363.01 105.983C1359.46 108.116 1355.98 110.221 1352.52 112.289C1352.09 104.582 1351.84 96.8359 1351.81 89.0212C1355.7 89.529 1359.61 90.075 1363.52 90.6487V69.6227C1366.03 68.4626 1368.85 67.8082 1371.83 67.8082H1371.85C1380.07 67.8082 1387.15 72.7567 1390.23 79.8362C1391.29 82.2753 1391.89 84.9693 1391.91 87.8079C1391.91 98.782 1392.38 109.622 1393.25 120.329Z" fill="#000072"/>
<path d="M1415.23 289.933C1409.43 289.933 1403.69 287.425 1399.74 282.613C1392.71 274.051 1393.96 261.424 1402.5 254.398C1409.01 249.051 1415.77 244.065 1422.72 239.438C1466.88 210.118 1520 195.358 1581.24 195.358C1585.79 195.358 1590.41 195.452 1595.05 195.612C1603.82 195.917 1612.72 196.518 1621.79 197.398V217.559C1620.75 224.357 1619.83 230.984 1619.04 237.412C1613.45 236.838 1607.94 236.385 1602.51 236.052C1594.9 235.584 1587.43 235.358 1580.16 235.358C1525.19 235.358 1479.3 248.61 1440.99 275.451C1436.54 278.572 1432.18 281.879 1427.93 285.385C1424.19 288.437 1419.7 289.933 1415.23 289.933Z" fill="#000072"/>
<path d="M1479.2 376.21C1475.77 376.21 1472.31 375.342 1469.13 373.49C1461.28 368.917 1457.69 359.824 1459.75 351.424L1468.24 342.702C1471.77 339.051 1473.66 334.384 1473.86 329.677C1475.05 328.342 1476.27 327.037 1477.56 325.756C1507.6 295.223 1558.01 278.783 1616.14 267.196C1615.12 281.97 1614.85 295.676 1615.31 308.383C1569.2 318.251 1528.11 331.93 1506.29 353.757C1502.41 357.663 1499.13 361.811 1496.54 366.264C1492.82 372.65 1486.09 376.21 1479.2 376.21Z" fill="#000072"/>
<path d="M1387.03 218.518C1383.79 218.518 1380.54 217.732 1377.59 216.157C1383.43 212.585 1389.21 208.985 1394.97 205.371C1404.35 199.492 1407.18 187.131 1401.3 177.744C1398.72 173.637 1394.89 170.797 1390.63 169.385C1393.44 167.451 1396.33 165.637 1399.28 163.918C1430.51 145.944 1470.65 140.039 1517.65 140.039C1541.73 140.039 1567.64 141.584 1595.04 143.85C1603.82 144.572 1612.74 145.37 1621.79 146.211V186.37C1621.16 186.37 1620.54 186.345 1619.92 186.291C1611.81 185.532 1603.49 184.744 1595.04 184.012C1570.28 181.852 1544.43 180.024 1519.62 180.024C1475.97 180.024 1435.57 185.678 1409.82 205.065C1406.81 207.344 1403.98 209.798 1401.38 212.464C1397.47 216.505 1392.25 218.518 1387.03 218.518Z" fill="#000072"/>
<path d="M1279.91 527.758C1274.9 527.758 1269.85 525.878 1265.97 522.091C1258.03 514.384 1257.83 501.691 1265.55 493.758L1271.2 487.958L1287.41 471.265C1292.06 466.852 1296.46 462.319 1300.67 457.625L1427.29 327.319L1439.48 314.771C1443.42 310.732 1448.63 308.691 1453.86 308.691C1458.89 308.691 1463.94 310.585 1467.82 314.371C1467.9 314.437 1467.98 314.519 1468.04 314.584C1468.99 315.531 1469.81 316.559 1470.53 317.625C1472.95 321.239 1474.07 325.477 1473.87 329.678C1473.65 334.386 1471.78 339.052 1468.22 342.705L1459.75 351.425L1453.04 358.304L1328.86 486.104L1294.29 521.692C1290.63 525.453 1285.88 527.465 1281.02 527.732C1280.73 527.746 1280.41 527.758 1280.11 527.758C1280.05 527.758 1279.99 527.758 1279.91 527.758Z" fill="#000072"/>
<path d="M1435.3 522.785C1431.22 522.785 1427.1 521.547 1423.57 518.973C1414.6 512.467 1412.59 499.946 1419.11 490.986L1424.85 483.026L1490.48 392.506L1502.25 376.267C1506.17 370.853 1512.3 367.972 1518.49 367.972C1521.84 367.972 1525.21 368.813 1528.26 370.534C1528.95 370.908 1529.6 371.332 1530.23 371.801C1530.51 371.986 1530.77 372.201 1531.04 372.4C1539.32 379.054 1541 391.094 1534.71 399.774L1523.65 415.039L1475.52 481.413L1451.54 514.505C1447.85 519.6 1442.19 522.452 1436.36 522.759C1436.08 522.773 1435.81 522.785 1435.53 522.785C1435.45 522.785 1435.39 522.785 1435.3 522.785Z" fill="#000072"/>
<path d="M1354.05 230.303C1351.93 216.862 1349.19 202.968 1345.74 188.622C1351.02 185.449 1356.28 182.235 1361.5 179.01C1365.59 176.489 1369.64 173.969 1373.67 171.423C1376.98 169.356 1380.68 168.355 1384.31 168.355C1386.47 168.355 1388.59 168.703 1390.64 169.383C1394.9 170.795 1398.72 173.635 1401.29 177.743C1407.19 187.128 1404.35 199.489 1394.98 205.37C1389.21 208.983 1383.43 212.583 1377.58 216.155C1375.85 217.223 1374.1 218.302 1372.35 219.356C1366.29 223.049 1360.19 226.689 1354.05 230.303Z" fill="#000072"/>
<path d="M1339.81 165.935C1336.26 153.201 1332.19 140.146 1327.61 126.721C1334.05 123.08 1340.62 119.308 1347.3 115.374C1349.02 114.346 1350.77 113.32 1352.51 112.294C1355.96 110.227 1359.46 108.121 1362.99 105.987C1366.23 104.015 1369.83 103.08 1373.36 103.08C1380.13 103.08 1386.75 106.507 1390.51 112.721C1391.96 115.12 1392.86 117.708 1393.22 120.334C1393.34 121.053 1393.4 121.773 1393.42 122.495C1393.63 129.467 1390.18 136.36 1383.78 140.239C1374.99 145.587 1366.13 150.868 1357.19 156.041C1351.43 159.387 1345.63 162.694 1339.81 165.935Z" fill="#000072"/>
</svg>
