<svg width="1561" height="447" viewBox="0 0 1561 447" fill="none" xmlns="http://www.w3.org/2000/svg">
<path d="M657.962 399.198C641.836 416.36 533.993 424.746 416.188 425.131C272.802 425.705 114.781 414.438 89.9993 392.799C45.8782 354.372 6.23066 273.692 26.4772 206.399C40.3745 159.905 82.8815 119.692 172.092 104.199C176.058 103.424 180.086 102.785 184.175 102.211C184.175 102.211 184.068 102.025 183.93 101.638C181.624 97.0244 167.48 65.9045 184.175 44.0115C209.357 10.9038 415.281 15.837 458.31 45.7441C479.694 60.5976 494.945 84.1586 512.547 105.292C529.258 125.331 548.151 143.132 576.515 149.212C578.314 149.598 580.174 149.917 582.095 150.239C644.787 159.838 674.673 39.2643 674.673 39.2643C674.673 39.2643 676.548 81.3453 678.778 123.665C681.022 166.052 680.822 374.798 657.962 399.198Z" fill="#0096F0"/>
<path d="M512.547 105.29C446.025 74.9302 347.727 58.4641 283.371 58.4641C269.662 58.4641 257.502 59.1969 247.522 60.7169C187.769 69.6906 201.865 88.2503 198.466 96.7709C196.287 102.21 182.019 103.757 172.096 104.197C176.068 103.425 180.097 102.783 184.184 102.21C184.184 102.21 184.069 102.024 183.926 101.638C182.463 98.691 176.154 84.9307 176.139 69.6777C176.139 61.0381 178.161 51.9167 184.184 44.0098C196.1 28.3309 248.597 21.184 305.124 21.184C367.903 21.184 435.672 29.9971 458.314 45.7435C479.709 60.5978 494.952 84.1578 512.547 105.29Z" fill="#66C0F6"/>
<path d="M405.658 425.162C265.176 425.162 114.154 413.909 89.9851 392.802C54.0158 361.468 21.012 302.043 21.0273 244.683C21.0427 231.696 22.7329 218.816 26.4666 206.402C38.7585 237.962 77.3091 282.536 196.341 290.416C203.271 290.869 210.83 291.123 218.82 291.123C280.48 291.123 368.751 275.655 404.06 214.722C446.344 251.176 486.523 265.949 518.621 265.949C551.041 265.949 575.179 250.882 584.89 227.856C594.185 205.763 588.608 177.59 576.5 149.216C578.298 149.603 580.157 149.922 582.078 150.244C584.475 150.615 586.841 150.789 589.13 150.789C647.01 150.789 674.667 39.2703 674.667 39.2703C674.667 39.2703 676.526 81.3502 678.769 123.67C679.292 133.563 679.676 152.522 679.676 176.083C679.676 253.456 675.481 380.495 657.95 399.202C641.817 416.363 533.986 424.749 416.167 425.136C412.68 425.148 409.161 425.162 405.658 425.162Z" fill="#0979C1"/>
<path d="M416.179 425.135C272.8 425.709 114.77 414.442 89.9863 392.803C54.0029 361.43 20.9581 302.003 21.0275 244.563C21.0275 242.643 21.0967 240.656 21.1521 238.736C21.2076 236.949 21.3463 235.082 21.471 233.297C21.5265 232.203 21.6651 231.176 21.7898 230.163C21.9146 228.549 22.1086 226.95 22.372 225.35C22.8156 222.216 23.3283 219.082 24.0214 216.004C24.3541 214.336 24.7284 212.67 25.1858 211.069C25.5739 209.603 25.962 208.136 26.4055 206.656L26.461 206.402C38.7558 237.962 77.3034 282.537 196.342 290.415C256.028 294.323 361.927 283.75 402.789 216.844C434.545 284.003 428.584 364.696 416.179 425.135Z" fill="#D6D6D6"/>
<path d="M90.0253 392.8C114.804 414.44 272.84 425.707 416.209 425.133C435.362 331.84 439.196 190.387 312.662 124.826C269.896 102.666 226.227 96.9597 183.961 101.639C184.086 102.025 184.225 102.213 184.225 102.213C-48.5373 135.519 14.077 326.653 90.0253 392.8Z" fill="white"/>
<path d="M416.179 425.135C272.8 425.709 114.77 414.442 89.9863 392.803C54.0029 361.43 20.9581 302.003 21.0275 244.563C21.0275 242.643 21.0967 240.656 21.1521 238.736C21.2076 236.949 21.3463 235.082 21.471 233.297C21.5265 232.203 21.6651 231.176 21.7898 230.163C21.9146 228.549 22.1086 226.95 22.372 225.35C22.8156 222.216 23.3283 219.082 24.0214 216.004C24.3541 214.336 24.7284 212.67 25.1858 211.069C25.5739 209.603 25.962 208.136 26.4055 206.656L26.461 206.402C38.7558 237.962 77.3034 282.537 196.342 290.415C256.028 294.323 361.927 283.75 402.789 216.844C434.545 284.003 428.584 364.696 416.179 425.135Z" fill="#D6D6D6"/>
<path d="M39.25 322.678C52.2506 351.053 70.6938 375.958 90.0261 392.799C135.176 432.172 622.209 437.239 658.006 399.198C665.687 391.065 670.746 362.252 674.135 325.945C510.462 353.799 118.327 356.359 39.25 322.678Z" fill="#D6D6D6"/>
<path d="M544.146 239.624C544.146 266.331 558.859 287.984 577.007 287.984C595.155 287.984 609.868 266.331 609.868 239.624C609.868 212.904 595.155 191.25 577.007 191.25C558.859 191.25 544.146 212.904 544.146 239.624Z" fill="white"/>
<path d="M576.993 203.227C567.116 203.227 556.114 218.174 556.114 239.627C556.114 261.067 567.116 276.015 576.993 276.015C586.869 276.015 597.887 261.067 597.887 239.627C597.887 218.174 586.869 203.227 576.993 203.227ZM576.993 299.974C551.836 299.974 532.143 273.467 532.143 239.627C532.143 205.787 551.836 179.268 576.993 179.268C602.15 179.268 621.843 205.787 621.843 239.627C621.843 273.467 602.15 299.974 576.993 299.974Z" fill="#512717"/>
<path d="M576.993 203.227C567.116 203.227 556.114 218.174 556.114 239.627C556.114 261.067 567.116 276.015 576.993 276.015C586.869 276.015 597.887 261.067 597.887 239.627C597.887 218.174 586.869 203.227 576.993 203.227ZM576.993 299.974C551.836 299.974 532.143 273.467 532.143 239.627C532.143 205.787 551.836 179.268 576.993 179.268C602.15 179.268 621.843 205.787 621.843 239.627C621.843 273.467 602.15 299.974 576.993 299.974Z" fill="#232333"/>
<path d="M305.045 42.1624C244.409 42.1624 207.139 50.7615 200.583 57.0674C191.511 69.0422 202.65 92.2679 202.774 92.4947C205.928 98.5209 205.943 105.709 202.852 111.762C199.745 117.815 193.888 121.989 187.161 122.962C109.141 134.122 60.468 165.201 46.4083 212.829C29.8318 268.948 63.2644 341.748 103.766 377.015C116.707 386.935 208.973 401.961 373.2 404.029C534.148 406.081 626.445 394.067 642.665 384.628C656.833 358.722 660.81 191.735 658.06 128.988C639.62 155.375 613.706 176.309 578.922 170.976C531.414 163.694 505.78 130.989 483.145 102.122C471.136 86.8025 459.795 72.3357 446.341 62.988C433.291 53.909 383.888 43.5746 317.986 42.2821C313.558 42.2013 309.24 42.1624 305.045 42.1624ZM409.972 446.188C398.476 446.188 387.508 446.108 377.301 446.001C298.691 445.161 112.031 439.801 76.221 408.629C25.5594 364.522 -16.1847 276.734 6.18653 200.949C18.5373 159.149 54.9372 106.761 156.773 85.6947C153.635 68.5481 154.722 48.1623 167.508 31.3481C203.458 -15.9453 423.846 -3.74527 470.297 28.5626C488.909 41.5084 502.766 59.1755 516.143 76.2553C536.541 102.282 554.158 124.762 585.261 129.522C618.165 134.548 646.051 67.4948 654.378 34.2284C656.895 24.135 666.465 17.4283 676.827 18.4552C687.19 19.4945 695.222 27.9878 695.657 38.3888C695.657 38.4292 697.474 80.335 699.727 122.575C699.851 125.068 707.495 377.108 673.285 413.535C647.403 441.081 509.074 446.188 409.972 446.188Z" fill="#232333"/>
<path d="M294.653 365.641C204.599 365.641 109.405 360.946 39.106 344.174C31.0497 342.267 26.0803 334.187 28.0094 326.134C29.9232 318.093 38.0411 313.147 46.0511 315.054C169.148 344.427 375.139 335.32 485.812 330.44C504.379 329.613 520.383 328.907 533.039 328.506C618.957 325.787 669.393 311.173 669.903 311.026C677.835 308.693 686.154 313.213 688.5 321.146C690.846 329.066 686.339 337.387 678.407 339.746C676.23 340.387 624.158 355.587 533.996 358.439C521.433 358.841 505.552 359.546 487.124 360.359C436.981 362.574 367.499 365.641 294.653 365.641Z" fill="#232333"/>
<path d="M417.152 290.865C415.433 278.132 411.856 264.411 407.295 251.771C402.706 238.985 397.008 226.665 390.256 215.105C376.683 191.998 358.618 171.998 337.018 157.238C315.529 142.278 290.726 132.585 264.842 127.224C238.944 121.638 212.034 120.025 184.819 120.158C174.906 120.224 166.796 112.225 166.741 102.291C166.685 92.7305 174.172 84.8779 183.571 84.2388C213.226 82.3449 243.616 84.9042 273.133 92.5308C302.622 100.038 331.126 113.504 355.374 132.545C379.844 151.345 398.949 176.372 412.216 203.372C418.913 216.891 424.098 231.025 427.813 245.478C431.571 260.025 434.108 274.292 434.815 289.918C435.023 294.784 431.252 298.905 426.386 299.132C421.797 299.332 417.859 295.999 417.249 291.532L417.152 290.865Z" fill="#232333"/>
<path d="M414.527 128.201C398.821 122.041 380.973 117.575 363.637 114.455C346.121 111.361 328.411 109.414 310.688 108.828C292.95 108.455 275.213 108.588 257.641 110.6C248.835 111.2 240.111 112.828 231.388 114.001C222.678 115.374 214.065 117.388 205.438 119.028L204.208 119.255C194.447 121.107 185.019 114.694 183.166 104.935C181.314 95.1607 187.729 85.7473 197.503 83.8948C197.945 83.8146 198.443 83.7344 198.899 83.6819C208.397 82.6409 217.839 81.2543 227.351 80.5478C236.876 80.028 246.346 79.0948 255.885 79.2012C274.909 78.6137 293.932 79.9879 312.775 81.9469C331.618 84.134 350.254 87.734 368.545 92.534C386.946 97.4944 404.531 103.294 422.365 112.027C426.817 114.214 428.656 119.588 426.471 124.041C424.398 128.255 419.476 130.121 415.163 128.454L414.527 128.201Z" fill="#232333"/>
<path d="M902.776 399.202C918.926 416.362 1026.75 424.748 1144.55 425.135C1287.93 425.71 1445.97 414.442 1470.75 392.802C1514.87 354.375 1554.51 273.696 1534.27 206.402C1520.38 159.909 1477.86 119.695 1388.65 104.202C1384.69 103.429 1380.65 102.788 1376.56 102.216C1376.56 102.216 1376.69 102.029 1376.81 101.644C1379.11 97.0286 1393.27 65.9079 1376.56 44.0149C1351.4 10.908 1145.46 15.8422 1102.42 45.7481C1081.05 60.6025 1065.79 84.1624 1048.21 105.297C1031.48 125.336 1012.59 143.137 984.231 149.215C982.449 149.603 980.583 149.922 978.655 150.244C915.982 159.843 886.065 39.2693 886.065 39.2693C886.065 39.2693 884.22 81.3491 881.981 123.669C879.721 166.056 879.929 374.802 902.776 399.202Z" fill="#0096F0"/>
<path d="M1048.21 105.293C1065.82 84.159 1081.06 60.6002 1102.43 45.7453C1125.08 29.9993 1192.86 21.1849 1255.63 21.1849C1312.15 21.1849 1364.65 28.3334 1376.58 44.0123C1382.61 51.9198 1384.6 61.0398 1384.6 69.6787C1384.6 84.9318 1378.29 98.6926 1376.81 101.64C1376.69 102.026 1376.58 102.212 1376.58 102.212C1380.66 102.785 1384.7 103.426 1388.66 104.199C1378.74 103.759 1364.45 102.212 1362.28 96.7724C1358.89 88.2518 1372.99 69.6925 1313.23 60.7185C1303.26 59.1985 1291.09 58.4651 1277.39 58.4651C1213.04 58.4651 1114.73 74.9326 1048.21 105.293Z" fill="#66C0F6"/>
<path d="M1155.1 425.16C1151.59 425.16 1148.06 425.146 1144.57 425.133C1026.75 424.745 918.921 416.359 902.779 399.2C885.255 380.492 881.064 253.453 881.064 176.079C881.064 152.519 881.457 133.56 881.973 123.667C884.223 81.3458 886.08 39.2663 886.08 39.2663C886.08 39.2663 913.719 150.8 971.618 150.785C973.909 150.785 976.262 150.612 978.657 150.24C980.576 149.918 982.455 149.598 984.23 149.212C972.134 177.586 966.561 205.759 975.85 227.852C985.572 250.879 1009.72 265.945 1042.11 265.945C1074.21 265.945 1114.39 251.172 1156.67 214.72C1191.98 275.653 1280.27 291.132 1341.92 291.12C1349.91 291.12 1357.47 290.866 1364.4 290.412C1483.44 282.533 1521.98 237.96 1534.28 206.399C1538.02 218.813 1539.71 231.693 1539.71 244.681C1539.73 302.039 1506.72 361.467 1470.75 392.799C1446.58 413.907 1295.56 425.16 1155.1 425.16Z" fill="#0979C1"/>
<path d="M1144.57 425.136C1287.92 425.707 1445.98 414.441 1470.75 392.8C1506.72 361.427 1539.77 302.002 1539.71 244.561C1539.71 242.641 1539.65 240.655 1539.59 238.734C1539.52 236.948 1539.38 235.082 1539.26 233.295C1539.19 232.203 1539.07 231.175 1538.95 230.161C1538.8 228.547 1538.62 226.947 1538.37 225.348C1537.91 222.214 1537.42 219.081 1536.7 216.001C1536.39 214.335 1535.99 212.667 1535.54 211.068C1535.17 209.602 1534.78 208.135 1534.32 206.655L1534.26 206.401C1521.98 237.962 1483.42 282.535 1364.38 290.414C1304.71 294.321 1198.79 283.749 1157.94 216.841C1126.18 284.001 1132.14 364.695 1144.57 425.136Z" fill="#D6D6D6"/>
<path d="M1470.73 392.8C1445.93 414.441 1287.9 425.707 1144.53 425.133C1125.38 331.842 1121.55 190.388 1248.08 124.828C1290.85 102.667 1334.53 96.9616 1376.79 101.641C1376.66 102.028 1376.54 102.214 1376.54 102.214C1609.3 135.52 1546.66 326.655 1470.73 392.8Z" fill="white"/>
<path d="M1144.57 425.136C1287.92 425.707 1445.98 414.441 1470.75 392.8C1506.72 361.427 1539.77 302.002 1539.71 244.561C1539.71 242.641 1539.65 240.655 1539.59 238.734C1539.52 236.948 1539.38 235.082 1539.26 233.295C1539.19 232.203 1539.07 231.175 1538.95 230.161C1538.8 228.547 1538.62 226.947 1538.37 225.348C1537.91 222.214 1537.42 219.081 1536.7 216.001C1536.39 214.335 1535.99 212.667 1535.54 211.068C1535.17 209.602 1534.78 208.135 1534.32 206.655L1534.26 206.401C1521.98 237.962 1483.42 282.535 1364.38 290.414C1304.71 294.321 1198.79 283.749 1157.94 216.841C1126.18 284.001 1132.14 364.695 1144.57 425.136Z" fill="#D6D6D6"/>
<path d="M1521.49 322.68C1508.5 351.054 1490.06 375.96 1470.73 392.801C1425.58 432.174 938.54 437.241 902.757 399.2C895.059 391.066 890.008 362.253 886.621 325.947C1050.28 353.801 1442.42 356.361 1521.49 322.68Z" fill="#D6D6D6"/>
<path d="M1016.63 239.624C1016.63 266.33 1001.92 287.984 983.77 287.984C965.605 287.984 950.893 266.33 950.893 239.624C950.893 212.904 965.605 191.25 983.77 191.25C1001.92 191.25 1016.63 212.904 1016.63 239.624Z" fill="white"/>
<path d="M983.751 203.229C973.861 203.229 962.85 218.177 962.85 239.63C962.85 261.069 973.861 276.017 983.751 276.017C993.624 276.017 1004.62 261.069 1004.62 239.63C1004.62 218.177 993.624 203.229 983.751 203.229ZM983.751 299.977C958.596 299.977 938.885 273.47 938.885 239.63C938.885 205.79 958.596 179.269 983.751 179.269C1008.89 179.269 1028.58 205.79 1028.58 239.63C1028.58 273.47 1008.89 299.977 983.751 299.977Z" fill="#512717"/>
<path d="M983.751 203.229C973.861 203.229 962.85 218.177 962.85 239.63C962.85 261.069 973.861 276.017 983.751 276.017C993.624 276.017 1004.62 261.069 1004.62 239.63C1004.62 218.177 993.624 203.229 983.751 203.229ZM983.751 299.977C958.596 299.977 938.885 273.47 938.885 239.63C938.885 205.79 958.596 179.269 983.751 179.269C1008.89 179.269 1028.58 205.79 1028.58 239.63C1028.58 273.47 1008.89 299.977 983.751 299.977Z" fill="#232333"/>
<path d="M918.062 384.626C934.299 394.068 1026.58 406.095 1187.53 404.027C1351.77 401.961 1444.04 386.935 1457.08 376.921C1497.46 341.748 1530.92 268.948 1514.33 212.828C1500.26 165.201 1451.59 134.12 1373.58 122.961C1366.84 121.987 1361 117.815 1357.89 111.76C1354.78 105.708 1354.82 98.5208 1357.97 92.4937C1360.96 86.6273 1367.82 67.1872 1359.85 56.7211C1353.15 50.3079 1311 40.9875 1242.75 42.2814C1176.87 43.5733 1127.45 53.9079 1114.4 62.9883C1100.94 72.3337 1089.61 86.8004 1077.59 102.121C1054.97 130.988 1029.34 163.694 981.819 170.974C947.029 176.308 921.13 155.374 902.681 129.001C899.927 191.747 903.934 358.721 918.062 384.626ZM1150.76 446.188C1051.67 446.188 913.346 441.081 887.447 413.535C853.241 377.107 860.879 125.161 861.026 122.575C863.279 80.3351 865.074 38.4269 865.074 38.3872C865.533 27.9754 873.568 19.4814 883.941 18.44C894.334 17.4133 903.871 24.1332 906.375 34.255C914.681 67.5065 942.542 134.575 975.474 129.521C1006.57 124.76 1024.18 102.282 1044.59 76.2551C1057.97 59.1733 1071.83 41.5072 1090.47 28.5618C1136.9 -3.74642 1357.26 -15.9468 1393.24 31.3479C1406.01 48.1605 1407.12 68.5479 1403.97 85.6944C1505.81 106.748 1542.21 159.147 1554.54 200.947C1576.94 276.735 1535.18 364.521 1484.53 408.626C1448.71 439.801 1262.03 445.161 1183.44 446.002C1173.23 446.106 1162.26 446.188 1150.76 446.188Z" fill="#232333"/>
<path d="M1266.11 365.641C1193.23 365.641 1123.78 362.574 1073.63 360.36C1055.21 359.546 1039.34 358.839 1026.77 358.439C936.596 355.587 884.514 340.387 882.35 339.746C874.415 337.386 869.901 329.053 872.251 321.12C874.6 313.2 882.947 308.719 890.862 311.025C891.356 311.174 941.79 325.787 1027.71 328.507C1040.37 328.907 1056.38 329.612 1074.95 330.438C1185.61 335.306 1391.61 344.412 1514.71 315.053C1522.75 313.134 1530.83 318.093 1532.75 326.133C1534.66 334.185 1529.7 342.266 1521.66 344.173C1451.36 360.946 1356.14 365.641 1266.11 365.641Z" fill="#232333"/>
<path d="M1125.96 289.919C1126.65 274.292 1129.18 260.026 1132.95 245.479C1136.65 231.025 1141.84 216.891 1148.56 203.372C1161.83 176.372 1180.93 151.345 1205.4 132.544C1229.64 113.504 1258.16 100.038 1287.62 92.5307C1317.13 84.9048 1347.53 82.3451 1377.2 84.2392C1387.09 84.8772 1394.62 93.4254 1393.98 103.333C1393.37 112.864 1385.37 120.184 1375.93 120.158C1348.71 120.024 1321.81 121.638 1295.92 127.225C1270.03 132.584 1245.22 142.278 1223.73 157.239C1202.14 171.999 1184.09 191.999 1170.52 215.106C1163.75 226.666 1158.06 238.985 1153.47 251.772C1148.91 264.412 1145.32 278.131 1143.6 290.865L1143.52 291.491C1142.85 296.332 1138.42 299.706 1133.59 299.052C1129.02 298.438 1125.76 294.412 1125.96 289.919Z" fill="#232333"/>
<path d="M1138.39 112.025C1156.21 103.291 1173.81 97.491 1192.2 92.5321C1210.5 87.7305 1229.13 84.1318 1247.98 81.9442C1266.81 79.9847 1285.84 78.6108 1304.86 79.1984C1314.39 79.0923 1323.89 80.024 1333.4 80.5448C1342.91 81.2504 1352.35 82.638 1361.86 83.6777C1371.73 84.7587 1378.88 93.6505 1377.8 103.531C1376.72 113.411 1367.83 120.544 1357.95 119.465C1357.5 119.412 1357.04 119.345 1356.59 119.264L1355.31 119.024C1346.69 117.385 1338.08 115.373 1329.37 113.999C1320.64 112.825 1311.92 111.198 1303.11 110.599C1285.54 108.584 1267.79 108.452 1250.06 108.826C1232.34 109.411 1214.63 111.357 1197.12 114.451C1179.78 117.572 1161.93 122.037 1146.23 128.199L1145.62 128.437C1141 130.251 1135.79 127.971 1133.99 123.358C1132.28 118.985 1134.26 114.077 1138.39 112.025Z" fill="#232333"/>
</svg>
