<svg width="2248" height="696" viewBox="0 0 2248 696" fill="none" xmlns="http://www.w3.org/2000/svg">
<path d="M351.491 68.4596C274.812 92.8526 170.223 155.635 69.2639 278.329C27.3982 329.208 10.2643 396.93 25.4246 461.053C36.8919 509.627 61.2897 531.668 102.732 518.683C106.185 364.116 170.823 304.133 265.878 291.102L351.491 68.4596Z" fill="#FEDA24"/>
<path d="M81.0651 502.297C76.1435 502.297 71.85 501.261 68.1847 499.19C58.2381 493.516 50.1849 478.747 44.9166 456.436C44.7703 455.805 44.6104 455.175 44.4775 454.522C50.3852 305.727 127.971 246.628 241.797 232.872C242.103 246.921 242.891 260.812 244.118 274.523C142.744 295.731 89.9851 370.477 83.2781 502.229C82.5307 502.274 81.7968 502.297 81.0651 502.297Z" fill="#CBAE34"/>
<path d="M316.518 103.587C261.399 128.707 174.505 181.953 84.745 291.046C46.3591 337.692 31.4641 399.547 44.9186 456.435C50.184 478.741 58.2383 493.525 68.1848 499.178C72.3858 501.567 77.4242 502.585 83.2786 502.23C90.1454 367.378 145.252 292.252 251.317 273.116L316.518 103.587ZM80.8776 542.395C69.0245 542.395 58.1578 539.58 48.3579 534.021C27.9183 522.383 14.0381 500.006 5.91765 465.66C-10.4013 396.638 7.50481 321.843 53.7841 265.594C173.519 120.074 287.906 67.6561 345.411 49.3715C352.758 47.0297 360.784 49.0875 366.078 54.7172C371.357 60.3233 372.959 68.4603 370.198 75.6511L284.585 298.284C281.959 305.096 275.837 309.945 268.599 310.939C207.813 319.289 126.544 349.921 122.757 519.119C122.573 527.705 116.919 535.227 108.719 537.782C98.9446 540.857 89.6391 542.395 80.8776 542.395Z" fill="#000072"/>
<path d="M1895.69 95.1692C1972.38 119.556 2076.95 182.321 2177.91 305.025C2219.79 355.924 2236.91 423.641 2221.75 487.761C2210.28 536.324 2185.9 558.374 2144.46 545.363C2140.98 390.845 2076.35 330.813 1981.3 317.802L1895.69 95.1692Z" fill="#FEDA24"/>
<path d="M2166.11 529.01C2165.4 529.01 2164.65 528.987 2163.91 528.941C2157.46 402.645 2108.71 328.726 2015.38 304.132C2017.43 290.298 2019.17 276.189 2020.62 261.735C2126.08 278.873 2197.06 339.21 2202.71 481.221C2202.57 481.864 2202.41 482.529 2202.27 483.171C2196.99 505.448 2188.94 520.246 2178.98 525.89C2175.31 527.977 2171.05 529.01 2166.11 529.01Z" fill="#CBAE34"/>
<path d="M2163.91 528.935C2169.78 529.287 2174.79 528.277 2178.99 525.881C2188.95 520.244 2196.98 505.445 2202.27 483.153C2215.73 426.236 2200.84 364.409 2162.45 317.758C2072.7 208.669 1985.78 155.417 1930.68 130.282L1995.86 299.811C2101.92 318.956 2157.05 394.101 2163.91 528.935ZM2166.31 569.08C2157.54 569.08 2148.24 567.553 2138.47 564.499C2130.25 561.916 2124.61 554.399 2124.42 545.825C2120.64 376.624 2039.39 345.993 1978.57 337.654C1971.36 336.667 1965.23 331.805 1962.6 324.993L1877 102.352C1874.23 95.1639 1875.83 87.0363 1881.11 81.4222C1886.4 75.808 1894.43 73.7409 1901.76 76.0664C1959.29 94.3654 2073.66 146.772 2193.39 292.294C2239.69 348.554 2257.59 423.346 2241.26 492.361C2233.16 526.727 2219.25 549.09 2198.82 560.717C2189.02 566.308 2178.15 569.08 2166.31 569.08Z" fill="#000072"/>
<path d="M352.065 288.312C381.012 615.688 761.851 625.386 890.456 284.798C902.943 251.718 890.128 214.328 859.884 196.055C721.945 112.63 549.772 83.9776 432.384 142.57C378.119 169.628 346.719 227.916 352.065 288.312Z" fill="#000072"/>
<path d="M1900.54 315.012C1871.6 642.401 1490.75 652.102 1362.18 311.499C1349.66 278.419 1362.48 241.057 1392.74 222.749C1530.67 139.326 1702.85 110.688 1820.24 169.266C1874.51 196.345 1905.89 254.597 1900.54 315.012Z" fill="#000072"/>
<path d="M1900.53 315.048C1871.6 642.388 1490.74 652.072 1362.17 311.501C1349.66 278.424 1362.48 241.033 1392.75 222.721C1530.67 139.358 1702.86 110.716 1820.23 169.295C1874.48 196.356 1905.85 254.647 1900.53 315.048ZM890.443 284.776C761.879 625.371 381.027 615.687 352.027 288.323C346.759 227.946 378.146 169.631 432.387 142.57C549.745 83.9905 721.933 112.657 859.866 196.02C890.131 214.308 902.954 251.699 890.443 284.776ZM1923.35 96.1425C1727.79 -1.64964 1508.16 30.5643 1269.99 163.351C1250.74 174.017 1229.1 179.769 1207.14 179.769H1056.45C1030.11 179.769 1004.56 171.236 983.585 155.465C794.681 13.8581 575.72 -4.23821 385.96 44.7777C315.293 63.0179 264.4 125.265 261.999 198.225C248.439 614.873 643.254 878.576 974.477 357.928C994.059 327.177 1028.19 308.889 1064.57 308.889H1167.11C1197.7 308.889 1225.55 325.93 1240.19 352.775C1475.83 786.8 1957.02 814.987 2002.56 238.684C2007.26 179.506 1976.46 122.676 1923.35 96.1425Z" fill="#FEDA24"/>
<path d="M1207.13 243.764H1056.45C1030.12 243.764 1004.55 235.209 983.58 219.451C855.43 123.386 713.503 84.1684 576.196 84.1684C511.09 84.1684 446.996 92.9834 385.957 108.765C341.156 120.329 304.356 149.594 282.811 188.054C289.304 129.381 332.45 79.3107 390.957 64.1924C453.264 48.0789 515.209 40.1406 575.888 40.1406C719.503 40.1406 855.785 84.7609 971.519 171.537C995.831 189.783 1026 199.831 1056.42 199.831H1207.13C1232.34 199.831 1257.44 193.267 1279.69 180.85C1425.78 99.4526 1558.67 58.8843 1680.92 58.8843C1763.31 58.8843 1840.87 77.2966 1914.37 114.05C1953.54 133.67 1978.85 172.13 1982.53 215.589C1968.81 192.248 1948.62 172.746 1923.36 160.115C1846.34 121.632 1765.66 103.291 1681.53 103.291C1551.99 103.291 1414.38 146.822 1269.97 227.319C1250.73 238.006 1229.1 243.764 1207.13 243.764Z" fill="#FFF0A7"/>
<path d="M1667.12 609.492C1552.63 609.492 1426.15 531.614 1362.16 372.092C1359.62 365.776 1358.13 359.308 1357.61 352.862C1431.2 514.758 1558.49 583.772 1667.49 583.772C1679.01 583.772 1690.33 582.988 1701.33 581.486C1784.87 570.031 1850.53 519.027 1887.88 441.106C1854.08 552.587 1764.99 609.492 1667.12 609.492Z" fill="#CBAE34"/>
<path d="M585.479 580.539C488.319 580.539 399.772 524.852 365.399 415.826C402.851 492.906 468.238 543.37 551.266 554.758C562.265 556.272 573.545 557.04 585.051 557.04C585.078 557.04 585.091 557.04 585.117 557.04C694.089 557.04 821.393 488.034 894.962 326.217C894.413 332.492 892.943 338.812 890.442 344.955C826.461 503.262 699.991 580.561 585.479 580.539Z" fill="#CBAE34"/>
<path d="M1064.61 288.878H1167.1C1204.85 288.878 1239.61 309.71 1257.79 343.215C1376.02 560.994 1564.52 684.149 1726.97 649.655C1871.1 619.047 1964.28 468.687 1982.6 237.125C1986.7 185.155 1959.91 136.829 1914.39 114.042C1731.8 22.7496 1524.18 44.5951 1279.71 180.858C1257.45 193.241 1232.35 199.807 1207.15 199.807H1056.42C1026.01 199.807 995.837 189.765 971.529 171.516C806.908 48.0713 600.747 9.98029 390.96 64.1957C328.895 80.2238 284.094 135.622 282.042 198.89C275.44 400.761 369.627 572.315 511.082 616.006C534.494 623.223 558.362 626.796 582.441 626.796C708.855 626.82 842.134 528.648 957.601 347.173C980.823 310.676 1020.82 288.878 1064.61 288.878ZM1672.13 695.422C1508.9 695.422 1334.74 568.911 1222.6 362.357C1211.4 341.742 1190.13 328.949 1167.1 328.949H1064.61C1034.6 328.949 1007.23 343.794 991.42 368.681C843.522 601.112 664.135 705.222 499.254 654.29C340.6 605.288 234.8 417.465 241.986 197.562C244.615 116.649 301.761 45.8263 380.933 25.3808C602.734 -31.9485 821.015 8.5802 995.571 139.46C1013 152.543 1034.6 159.737 1056.42 159.737H1207.15C1225.54 159.737 1243.89 154.933 1260.2 145.857C1513.54 4.62147 1739.67 -18.1413 1932.32 78.1962C1992.52 108.321 2027.96 171.951 2022.55 240.287C2002.73 490.798 1898.02 654.29 1735.28 688.856C1714.54 693.273 1693.42 695.422 1672.13 695.422Z" fill="#000072"/>
<path d="M585.493 458.494C567.52 458.494 549.854 456.458 532.76 452.41L587.785 279.974H509.868L565.374 132.06C569.04 131.967 572.732 131.921 576.441 131.921C602.852 131.921 630.321 134.512 658.24 139.624L623.346 239.884H710.253L645.681 451.022C625.52 456.019 605.32 458.494 585.493 458.494Z" fill="#9999C7"/>
<path d="M1667.12 505.654C1646.52 505.654 1625.53 502.967 1604.58 497.569L1667.63 300.009H1589.69L1642.25 160.01C1653.71 159.091 1665.03 158.632 1676.17 158.632C1697.1 158.632 1717.38 160.263 1736.72 163.547L1703.16 259.927H1790.08L1716.58 500.302C1700.52 503.863 1683.94 505.654 1667.12 505.654Z" fill="#9999C7"/>
<path d="M576.435 131.93C526.249 131.93 479.848 141.252 441.314 160.486C395.236 183.487 367.381 234.149 372.021 286.553C383.234 413.42 454.008 500.972 556.702 515.074C663.354 529.67 802.127 461.987 871.705 277.725C880.815 253.618 871.469 226.474 849.504 213.196C761.434 159.921 663.288 131.93 576.435 131.93ZM585.115 557.049C573.582 557.049 562.289 556.295 551.262 554.765C429.021 538.003 345.049 436.562 332.101 290.084C326.023 221.412 362.729 154.93 423.434 124.632C542.288 65.3299 717.661 86.6118 870.245 178.896C908.736 202.179 925.121 249.71 909.183 291.897C838.793 478.348 701.502 557.049 585.115 557.049Z" fill="#000072"/>
<path d="M1676.2 158.623C1589.33 158.623 1491.19 186.629 1403.12 239.908C1381.15 253.187 1371.8 280.306 1380.91 304.408C1450.49 488.698 1589.26 556.378 1695.91 541.767C1798.61 527.67 1869.38 440.095 1880.6 313.269C1885.23 260.855 1857.36 210.195 1811.28 187.19C1772.78 167.974 1726.35 158.623 1676.2 158.623ZM1667.51 583.754C1551.11 583.754 1413.83 505.063 1343.42 318.576C1327.49 276.401 1343.88 228.874 1382.36 205.613C1534.93 113.316 1710.34 92.0182 1829.19 151.329C1889.88 181.627 1926.58 248.114 1920.5 316.776C1907.58 463.263 1823.58 564.701 1701.36 581.463C1690.35 582.982 1679.01 583.754 1667.51 583.754Z" fill="#000072"/>
<path d="M626.677 513.168L645.676 451.026C732.426 429.556 818.685 361.739 873.603 245.912C876.138 256.164 875.667 267.224 871.719 277.723C816.643 423.589 718.225 496.387 626.677 513.168ZM515.942 505.069C441.13 477.969 389.305 406.741 374.678 308.906C406.076 388.098 464.784 436.264 532.757 452.394L515.942 505.069Z" fill="#000072"/>
<path d="M585.272 516.972C575.557 516.972 565.998 516.337 556.704 515.067C542.479 513.118 528.877 509.751 515.943 505.072L532.757 452.408C549.85 456.452 567.517 458.506 585.484 458.506C605.326 458.506 625.527 456.008 645.686 451.032L626.671 513.161C612.674 515.723 598.782 516.994 585.272 516.972Z" fill="#7A7AB6"/>
<path d="M585.499 518.664C469.965 518.664 366.606 434.332 352.072 269.904C350.831 255.883 351.646 241.975 354.206 228.52C358.193 258.148 365.178 284.945 374.685 308.887C389.311 406.72 441.138 477.959 515.952 505.05C528.886 509.739 542.486 513.092 556.713 515.04C566.005 516.331 575.566 516.965 585.273 516.965C598.793 516.988 612.672 515.719 626.687 513.16C718.233 496.375 816.638 423.573 871.727 277.719C875.691 267.209 876.144 256.155 873.607 245.893C878.976 234.545 884.072 222.721 888.829 210.444C896.508 227.659 897.527 247.706 890.46 266.393C826.469 435.918 699.994 518.664 585.499 518.664Z" fill="#000072"/>
<path d="M1704.29 540.447L1716.57 500.311C1780.35 486.193 1836.29 444.128 1869.69 374.869C1845 464.894 1785.14 525.953 1704.29 540.447ZM1593.68 531.693C1512.01 505.12 1429.54 433.268 1380.89 304.436C1379.12 299.737 1378.03 294.928 1377.63 290.118C1431.96 406.695 1517.88 475.289 1604.56 497.584L1593.68 531.693Z" fill="#000072"/>
<path d="M1667.33 543.709C1643.52 543.709 1618.64 539.803 1593.67 531.697L1604.56 497.584C1625.51 502.974 1646.5 505.668 1667.12 505.668C1683.94 505.668 1700.5 503.872 1716.57 500.32L1704.31 540.45C1701.51 540.952 1698.71 541.39 1695.89 541.787C1686.59 543.061 1677.04 543.709 1667.33 543.709Z" fill="#7A7AB6"/>
<path d="M1667.14 565.801C1552.64 565.823 1426.18 483.083 1362.16 313.554C1355.11 294.882 1356.14 274.823 1363.81 257.604C1368.15 268.807 1372.78 279.653 1377.66 290.096C1378.06 294.904 1379.13 299.734 1380.92 304.408C1429.56 433.26 1512.03 505.087 1593.7 531.676C1618.65 539.793 1643.52 543.684 1667.34 543.684C1677.06 543.684 1686.61 543.036 1695.89 541.761C1698.73 541.381 1701.53 540.934 1704.32 540.442C1785.16 525.929 1845.03 464.88 1869.72 374.849C1883.45 346.382 1893.37 313.308 1898.43 275.695C1900.98 289.135 1901.81 303.022 1900.58 317.065C1886.02 481.495 1782.68 565.801 1667.14 565.801Z" fill="#000072"/>
</svg>
