<svg width="1407" height="1509" viewBox="0 0 1407 1509" fill="none" xmlns="http://www.w3.org/2000/svg">
<path d="M1008.9 998.349C1008.9 1273.5 785.81 1496.58 510.639 1496.58C235.491 1496.58 12.4092 1273.5 12.4092 998.349C12.4092 723.178 235.491 500.125 510.639 500.125C536.436 500.125 561.798 502.079 586.542 505.869C650.861 515.71 711.12 537.811 764.892 569.789C785.039 581.737 804.251 595.086 822.443 609.712C852.991 634.267 880.589 662.331 904.621 693.313V693.343C970 777.627 1008.9 883.459 1008.9 998.349Z" fill="#6D6C80"/>
<path d="M510.65 1484.16C346.102 1484.16 200.411 1401.95 112.49 1276.42C202.006 1362.24 323.477 1414.97 457.272 1414.97C732.415 1414.97 955.503 1191.92 955.503 916.738C955.503 856.48 944.809 798.723 925.209 745.268C970.406 819.023 996.468 905.685 996.468 998.345C996.468 1266.22 778.53 1484.16 510.65 1484.16Z" fill="#5E4C7D"/>
<path d="M58.1865 1175.28C36.664 1120.43 24.8359 1060.73 24.8359 998.345C24.8359 730.466 242.771 512.528 510.651 512.528C529.962 512.528 548.996 513.658 567.719 515.859C565.842 519.849 563.935 523.822 562.075 527.819C552.593 527.283 543.04 527.012 533.423 527.012C258.251 527.012 35.196 750.06 35.196 1025.24C35.196 1077.53 43.2531 1127.94 58.1865 1175.28Z" fill="#C5C4CC"/>
<path d="M510.651 512.527C242.772 512.527 24.8362 730.465 24.8362 998.344C24.8362 1266.22 242.772 1484.16 510.651 1484.16C778.53 1484.16 996.469 1266.22 996.469 998.344C996.469 730.465 778.53 512.527 510.651 512.527ZM510.651 1509C229.075 1509 0 1279.92 0 998.344C0 716.769 229.075 487.695 510.651 487.695C792.226 487.695 1021.31 716.769 1021.31 998.344C1021.31 1279.92 792.226 1509 510.651 1509Z" fill="#3A0176"/>
<path d="M837.411 570.625C834.462 580.284 829.553 594.498 822.443 609.713C815.675 624.18 806.893 639.548 795.904 652.708L751.755 680.307L746.234 683.75C706.776 683.503 675.111 675.586 649.902 664.039C649.372 663.821 649.031 663.668 648.937 663.603H648.907C607.089 644.203 583.128 614.804 570.491 593.974C561.986 579.943 560.744 562.709 567.107 547.594C573.222 533.033 579.679 519.096 586.542 505.87C597.53 484.729 609.573 465.417 623.016 448.59C631.091 438.443 642.792 431.704 655.646 429.967C692.062 425.058 739.307 433.846 777.152 458.59V458.619C806.087 477.524 829.553 505.805 838.465 544.457C840.448 553.115 840.018 562.121 837.411 570.625Z" fill="#6D6C80"/>
<path d="M577.401 576.752C576.248 572.944 575.7 568.942 576.048 564.698C576.177 558.277 578.896 551.914 581.386 546.046C591.027 523.492 602.057 501.432 615.288 480.826C616.553 484.699 618.307 488.613 620.538 492.544C605.053 515.734 591.521 542.373 579.338 571.308C578.584 573.097 577.943 574.916 577.401 576.752ZM635.364 472.197C634.876 470.225 634.611 468.307 634.582 466.441C634.464 458.819 638.572 451.715 646.818 445.27C650.149 443.68 653.752 442.609 657.654 442.233C663.769 441.462 669.908 441.097 676.053 441.097C686.447 441.097 696.847 442.144 707.112 444.069C705.964 447.047 704.887 450.055 703.881 453.127C698.53 452.645 693.257 452.409 688.101 452.409C681.103 452.409 674.34 452.845 667.907 453.716C655.082 455.446 643.457 462.126 635.364 472.197Z" fill="#C5C4CC"/>
<path d="M795.905 652.707C805.769 630.229 811.184 608.476 818.247 585.892C823.109 573.714 829.866 560.618 826.358 547.24C815.157 495.922 770.472 459.895 720.661 447.129C700.084 441.714 678.707 439.577 657.654 442.232C643.575 443.586 633.393 454.004 625.941 465.234C607.825 490.119 593.511 517.688 581.386 546.045C578.896 551.913 576.177 558.276 576.048 564.697C574.965 578.005 582.622 588.9 590.403 599.182C608.29 622.431 631.427 641.324 658.16 654.579C684.793 668.346 714.64 676.209 746.235 683.749C730.343 686.898 713.892 688.322 697.436 686.957C646.636 683.819 598.19 656.71 568.484 615.415C553.399 595.709 545.165 572.99 553.37 548.299C557.69 536.546 563.276 525.333 568.59 514.009C579.214 492.026 591.386 470.425 605.894 450.572C611.239 443.321 616.701 435.817 623.975 430.302C638.725 418.242 658.443 416.034 676.877 416.27C736.064 417.011 797.135 443.609 830.36 494.044C839.866 508.547 846.57 524.833 850.56 541.66C852.797 551.395 852.579 561.572 850.172 571.066C849.212 574.715 847.611 579.806 846.593 583.473C843.733 595.727 837.711 606.698 830.537 616.992C821.072 630.694 809.766 643.508 795.905 652.707Z" fill="#3A0176"/>
<path d="M804.863 590.756C771.791 590.756 727.165 574.076 691.168 553.487C640.362 524.429 613.281 494.447 612.852 466.784C612.669 454.753 617.466 437.337 641.38 422.664C646.495 419.521 653.187 421.128 656.324 426.243C659.461 431.357 657.86 438.05 652.745 441.187C640.55 448.673 634.441 457.166 634.582 466.442C634.876 485.454 659.432 510.303 701.956 534.623C758.989 567.242 810.101 575.524 824.745 564.494C826.458 563.205 831.02 559.773 827.906 547.036C826.476 541.209 830.048 535.324 835.875 533.899C841.726 532.475 847.588 536.048 849.012 541.875C854.68 565.053 844.433 576.871 837.818 581.851C829.572 588.066 818.153 590.756 804.863 590.756Z" fill="#3A0176"/>
<path d="M796.258 536.452C788.353 550.143 754.475 545.381 720.585 525.811C686.694 506.247 665.629 479.29 673.534 465.599C681.438 451.909 715.317 456.671 749.207 476.241C783.097 495.805 804.163 522.762 796.258 536.452Z" fill="#3A0176"/>
<path d="M159.499 1025.24C133.779 1025.24 112.931 998.827 112.931 966.255C112.931 933.677 133.779 907.268 159.499 907.268C185.214 907.268 206.062 933.677 206.062 966.255C206.062 998.827 185.214 1025.24 159.499 1025.24Z" fill="#9998A6"/>
<path d="M200.971 844.549C182.737 844.549 167.863 831.736 168.835 801.082C169.258 787.716 173.066 774.708 178.999 762.725C216.38 687.193 283.301 636.546 369.222 615.039C378.215 612.791 387.467 611.519 396.72 611.519C399.604 611.519 402.488 611.643 405.36 611.896C453.412 616.151 477.537 649.836 430.098 685.092C424.654 689.147 418.656 692.402 412.476 695.209C352.947 722.266 297.98 765.426 246.421 820.647C233.784 835.602 216.203 844.549 200.971 844.549Z" fill="#9998A6"/>
<path d="M1243.06 516.236C1225.71 564.728 1191.25 595.617 1151.7 607.724C1139 611.603 1125.78 613.533 1112.46 613.533C1085.33 613.533 1057.7 605.582 1032.92 590.214C1014.24 578.607 997.722 563.392 983.749 545.017C968.352 524.835 956.027 500.903 947.122 473.77C940.971 455.889 932.06 442.169 921.66 431.951V431.922C901.295 411.869 875.127 405.194 852.838 406.684C819.312 408.95 776.158 432.016 764.857 489.479C761.879 504.629 747.194 514.47 732.044 511.521C716.923 508.537 707.053 493.852 710.037 478.708C724.345 405.842 778.924 355.678 849.047 350.957C873.732 349.28 897.228 353.6 918.276 363.005C955.533 379.58 985.114 412.175 1000.08 455.859C1000.11 455.983 1000.14 456.106 1000.18 456.201C1006.57 475.694 1014.83 492.239 1024.33 505.93C1055.34 550.697 1099.67 565.193 1135.34 554.299C1165.8 544.952 1190.82 515.835 1197.43 467.748H1197.46C1201.46 438.69 1198.79 402.74 1186.59 360.021C1182.34 345.183 1190.94 329.727 1205.78 325.501C1220.62 321.252 1236.08 329.851 1240.3 344.689C1260.51 415.406 1258.61 472.869 1243.06 516.236Z" fill="white"/>
<path d="M858.93 394.075C895.916 394.075 939.671 413.734 958.882 469.731C975.009 518.954 1002.86 556.911 1039.49 579.665C1062.07 593.691 1087.3 601.107 1112.45 601.107C1124.68 601.107 1136.66 599.342 1148.06 595.851C1217.22 574.68 1268.88 489.86 1228.37 348.09C1226.02 339.861 1217.41 335.082 1209.18 337.431C1200.95 339.779 1196.17 348.39 1198.53 356.618C1233.25 478.148 1193.64 549.43 1138.97 566.169C1086.59 582.196 1018.06 550.884 988.381 460.067C966.839 396.995 912.584 359.09 849.895 363.334C785.54 367.683 735.422 413.91 722.215 481.096C720.567 489.495 726.058 497.671 734.451 499.325C742.821 500.961 751.026 495.481 752.68 487.082C765.334 422.71 814.086 396.871 851.99 394.305C854.268 394.152 856.587 394.075 858.93 394.075ZM1112.45 625.945C1082.67 625.945 1052.9 617.234 1026.38 600.76C984.726 574.886 953.243 532.309 935.333 477.624C919.518 431.515 882.767 417.148 853.662 419.084C824.533 421.056 786.988 441.303 777.047 491.873C772.756 513.709 751.479 527.977 729.666 523.692C707.83 519.401 693.557 498.142 697.848 476.311C713.286 397.76 772.314 343.687 848.217 338.555C922.366 333.552 986.598 378.007 1011.82 451.844L1012.02 452.456C1036.7 527.965 1090.92 554.898 1131.71 542.42C1174.76 529.236 1204.74 468.783 1174.64 363.44C1168.53 342.045 1180.96 319.661 1202.36 313.552C1223.75 307.443 1246.14 319.873 1252.25 341.268C1297.38 499.225 1236.09 594.874 1155.33 619.6C1141.57 623.809 1127.14 625.945 1112.45 625.945Z" fill="#3A0176"/>
<path d="M751.755 680.307L795.905 652.708C806.399 645.739 815.428 636.705 823.303 626.781C838.724 639.777 853.32 653.709 867.017 668.494C857.705 661.525 846.381 656.357 832.814 656.357C823.009 656.357 812.032 659.053 799.783 665.716C784.292 674.127 767.871 678.535 751.755 680.307Z" fill="#5E4C7D"/>
<path d="M901.295 705.039C898.099 705.039 891.395 692.867 880.283 680.701C876.41 676.458 872.002 672.22 867.016 668.494C853.32 653.709 838.723 639.778 823.303 626.782C825.828 623.598 828.241 620.319 830.536 616.994C830.631 616.859 830.725 616.723 830.819 616.588C858.052 639.466 882.808 665.187 904.621 693.315V693.344C904.062 699.489 903.255 703.621 902.107 704.709C901.866 704.933 901.595 705.039 901.295 705.039Z" fill="#3A0176"/>
<path d="M736.035 681.283C717.571 676.739 699.766 671.872 682.939 665.515C725.664 663.055 752.468 638.853 755.246 581.849C772.897 587.405 790.042 590.754 804.863 590.754C809.118 590.754 813.179 590.478 817.005 589.901C810.525 611.06 805.186 631.56 795.905 652.708L751.755 680.306C746.47 680.895 741.208 681.207 736.035 681.283ZM804.963 569.106C797.747 569.106 789.136 568.082 779.477 565.975C795.287 559.183 796.64 546.481 795.369 537.77C795.699 537.353 795.993 536.911 796.258 536.452C801.755 526.929 793.238 510.99 776.134 495.581C776.493 494.375 776.799 493.139 777.047 491.873C778.071 486.658 779.389 481.767 780.967 477.182C781.579 477.535 782.191 477.894 782.803 478.253C804.209 495.846 820.254 519.271 826.358 547.241C827.747 552.532 827.529 557.782 826.452 562.95C825.816 563.685 825.186 564.162 824.745 564.492C820.707 567.535 813.903 569.106 804.963 569.106Z" fill="#5E4C7D"/>
<path d="M782.803 478.254C782.191 477.895 781.578 477.536 780.966 477.183C781.002 477.077 781.043 476.965 781.078 476.859C781.655 477.318 782.232 477.783 782.803 478.254Z" fill="#9B89B2"/>
<path d="M733.41 681.301C691.944 681.307 656.247 666.775 649.902 664.038C649.373 663.82 649.031 663.667 648.937 663.602C658.254 664.997 667.101 665.733 675.394 665.733C677.96 665.733 680.473 665.662 682.939 665.515C699.767 671.872 717.571 676.739 736.035 681.283C735.158 681.295 734.287 681.301 733.41 681.301ZM795.905 652.708C805.187 631.56 810.525 611.06 817.005 589.901C822.779 589.029 828.012 587.47 832.573 585.127C829.895 592.537 826.534 600.96 822.444 609.712C825.263 611.972 828.053 614.268 830.819 616.587C830.725 616.722 830.631 616.857 830.537 616.993C828.241 620.318 825.828 623.597 823.303 626.781C815.428 636.704 806.399 645.739 795.905 652.708ZM826.452 562.95C827.529 557.782 827.747 552.532 826.358 547.24C820.254 519.271 804.21 495.846 782.803 478.253C782.232 477.782 781.655 477.318 781.079 476.858C782.55 472.615 784.239 468.636 786.117 464.916C808.306 481.667 826.37 504.516 835.616 533.968C829.942 535.498 826.499 541.29 827.906 547.034C830.219 556.493 828.294 560.819 826.452 562.95Z" fill="#3A0176"/>
<path d="M804.863 590.756C790.043 590.756 772.898 587.407 755.246 581.851C755.423 578.231 755.505 574.488 755.482 570.597C758.901 570.473 762.032 570.191 764.893 569.791C770.761 568.984 775.564 567.66 779.478 565.977C789.136 568.084 797.747 569.108 804.963 569.108C813.904 569.108 820.708 567.537 824.745 564.494C825.187 564.164 825.816 563.687 826.452 562.951C828.294 560.821 830.219 556.495 827.906 547.036C826.499 541.292 829.942 535.5 835.616 533.97C836.688 537.378 837.641 540.874 838.465 544.458C840.449 553.116 840.019 562.122 837.411 570.627C836.158 574.729 834.551 579.655 832.573 585.129C828.012 587.472 822.779 589.031 817.005 589.902C813.18 590.479 809.119 590.756 804.863 590.756Z" fill="#3A0176"/>
<path d="M795.369 537.771C794.587 532.392 792.797 528.531 792.797 528.531L771.273 506.094C773.357 502.904 775.011 499.379 776.135 495.582C793.239 510.991 801.755 526.93 796.258 536.453C795.993 536.912 795.699 537.354 795.369 537.771Z" fill="#3A0176"/>
<path d="M771.273 506.094L766.411 501.026L777.153 458.619C780.207 460.614 783.197 462.71 786.117 464.917C784.239 468.637 782.55 472.616 781.079 476.859C781.043 476.965 781.002 477.077 780.967 477.183C779.389 481.768 778.071 486.659 777.047 491.874C776.8 493.139 776.494 494.375 776.134 495.582C775.01 499.378 773.356 502.904 771.273 506.094Z" fill="#3A0176"/>
<path d="M983.178 522.355C973.384 506.717 965.226 489.095 958.881 469.731C953.296 453.451 945.644 440.249 936.68 429.708C952.277 423.127 944.832 403.233 935.156 386.871C958.97 403.704 977.698 428.789 988.381 460.066C993.478 475.664 999.723 489.507 1006.83 501.655C1006.11 501.614 1005.4 501.59 1004.71 501.59C990.435 501.59 984.849 511.202 983.178 522.355Z" fill="#C4B2D6"/>
<path d="M983.749 545.018C968.352 524.835 956.027 500.904 947.122 473.77C940.971 455.889 932.06 442.17 921.66 431.952V431.922C922.125 431.934 922.59 431.934 923.037 431.934C928.817 431.934 933.29 431.134 936.681 429.709C945.645 440.251 953.296 453.453 958.882 469.733C965.227 489.097 973.384 506.719 983.178 522.357C982.031 530.062 982.743 538.496 983.749 545.018ZM1024.33 505.93C1017.47 503.299 1011.69 501.963 1006.83 501.657C999.723 489.509 993.478 475.665 988.381 460.068C977.699 428.791 958.97 403.706 935.156 386.873C927.434 373.812 918.276 363.006 918.276 363.006C955.533 379.58 985.115 412.176 1000.08 455.86C1000.11 455.983 1000.14 456.107 1000.18 456.201C1006.57 475.695 1014.83 492.24 1024.33 505.93Z" fill="#3A0176"/>
<path d="M1238.94 483.516C1232.45 470.997 1220.36 467.447 1210.03 466.977C1213.82 436.671 1210.86 399.82 1198.53 356.618C1196.17 348.39 1200.95 339.779 1209.18 337.431C1210.6 337.025 1212.03 336.83 1213.44 336.83C1220.2 336.83 1226.43 341.28 1228.37 348.09C1243.6 401.403 1245.8 446.665 1238.94 483.516Z" fill="#C4B2D6"/>
<path d="M1243.06 516.234C1244.65 501.402 1242.76 490.896 1238.94 483.515C1245.8 446.665 1243.6 401.403 1228.37 348.09C1226.43 341.28 1220.2 336.83 1213.44 336.83C1212.03 336.83 1210.6 337.024 1209.18 337.43C1200.95 339.779 1196.17 348.39 1198.53 356.618C1210.86 399.82 1213.82 436.67 1210.03 466.976C1209.19 466.941 1208.35 466.923 1207.53 466.923C1203.68 466.923 1200.18 467.306 1197.46 467.747C1201.46 438.689 1198.79 402.739 1186.59 360.02C1182.34 345.182 1190.94 329.726 1205.78 325.5C1208.35 324.764 1210.94 324.411 1213.48 324.411C1225.64 324.411 1236.81 332.416 1240.3 344.688C1260.51 415.405 1258.61 472.868 1243.06 516.234Z" fill="#3A0176"/>
<path d="M1173.09 12.4191L1157.57 216.279L1053.05 185.231L1125.49 262.847L980.618 315.619H1125.49L1026.14 431.928L1149.29 376.672L1150.32 467.737L1214.48 379.78L1322.1 489.467L1281.75 352.87L1369.7 362.187L1314.86 300.098L1394.54 244.218L1292.09 241.111L1340.73 128.322L1242.42 185.231L1173.09 12.4191Z" fill="#FC730D"/>
<path d="M1214.48 367.36C1217.8 367.36 1221 368.69 1223.35 371.079L1296.08 445.211L1269.83 356.388C1268.66 352.416 1269.54 348.113 1272.2 344.923C1274.86 341.739 1278.91 340.079 1283.05 340.52L1339.26 346.477L1305.55 308.319C1303.21 305.671 1302.11 302.145 1302.53 298.637C1302.94 295.129 1304.84 291.957 1307.73 289.932L1356.82 255.495L1291.72 253.523C1287.61 253.399 1283.82 251.251 1281.62 247.778C1279.41 244.312 1279.06 239.974 1280.69 236.195L1314.46 157.873L1248.64 195.978C1245.52 197.785 1241.77 198.144 1238.37 196.972C1234.97 195.795 1232.24 193.199 1230.9 189.856L1181.42 66.5377L1169.95 217.219C1169.66 220.963 1167.7 224.376 1164.61 226.507C1161.52 228.638 1157.62 229.256 1154.04 228.179L1093.28 210.139L1134.57 254.37C1137.41 257.419 1138.54 261.686 1137.57 265.736C1136.6 269.791 1133.65 273.087 1129.74 274.511L1050.98 303.199H1125.49C1130.33 303.199 1134.74 306.018 1136.77 310.421C1138.8 314.823 1138.08 319.997 1134.93 323.687L1071.48 397.977L1144.21 365.341C1148.03 363.628 1152.45 363.958 1155.98 366.212C1159.5 368.466 1161.66 372.345 1161.71 376.53L1162.32 430.225L1204.45 372.457C1206.6 369.508 1209.94 367.66 1213.58 367.389C1213.88 367.371 1214.18 367.36 1214.48 367.36ZM1322.1 501.885C1318.86 501.885 1315.64 500.608 1313.24 498.165L1215.88 398.931L1160.36 475.052C1157.2 479.372 1151.65 481.19 1146.54 479.56C1141.45 477.936 1137.97 473.227 1137.9 467.877L1137.09 395.758L1031.23 443.257C1025.92 445.634 1019.69 444.016 1016.21 439.366C1012.72 434.722 1012.93 428.277 1016.7 423.857L1098.55 328.037H980.618C974.591 328.037 969.435 323.711 968.387 317.778C967.339 311.845 970.706 306.012 976.362 303.952L1103.61 257.602L1043.97 193.706C1040.15 189.609 1039.55 183.459 1042.49 178.697C1045.44 173.929 1051.22 171.734 1056.59 173.329L1146.36 199.992L1160.71 11.4763C1161.15 5.72 1165.5 1.02315 1171.2 0.14617C1176.93 -0.736695 1182.46 2.43574 1184.61 7.79768L1248.61 167.302L1334.51 117.573C1339.14 114.895 1344.98 115.478 1348.98 119.039C1352.98 122.594 1354.25 128.315 1352.13 133.235L1310.73 229.256L1394.91 231.804C1400.26 231.969 1404.9 235.536 1406.44 240.657C1407.97 245.783 1406.05 251.31 1401.67 254.382L1333.36 302.286L1379.01 353.964C1382.4 357.801 1383.09 363.328 1380.74 367.878C1378.39 372.433 1373.51 375.076 1368.4 374.534L1298.92 367.177L1334.01 485.946C1335.63 491.414 1333.31 497.282 1328.4 500.172C1326.44 501.32 1324.26 501.885 1322.1 501.885Z" fill="#3A0176"/>
<path d="M1197.41 201.275L1190.68 256.637L1152.39 244.218L1166.88 278.367L1139.98 289.232L1168.69 299.579L1136.87 349.25L1181.89 324.929L1179.3 366.324L1208.27 327.001L1252.77 372.016L1241.91 310.963L1285.37 324.929L1253.29 299.579L1300.89 277.331L1242.94 268.538L1280.19 209.033L1221.21 247.32L1197.41 201.275Z" fill="#FEBC0B"/>
</svg>
