<svg width="2003" height="668" viewBox="0 0 2003 668" fill="none" xmlns="http://www.w3.org/2000/svg">
<path d="M1183.34 319.645C1109.77 264.115 1001.06 257.754 1001.06 257.754C1001.06 257.754 892.36 264.115 818.766 319.645C818.766 319.645 841.448 231.517 820.463 75.0707C820.463 75.0707 888.013 119.734 1001.06 119.734C1114.11 119.734 1181.66 75.0707 1181.66 75.0707C1160.68 231.517 1183.34 319.645 1183.34 319.645Z" fill="#1AB3FF"/>
<path d="M829.329 211.296C829.809 260.721 825.863 296.41 822.614 316.903C821.371 317.732 820.042 318.691 818.799 319.65C818.799 319.65 828.544 281.607 829.329 211.296Z" fill="#1AB3FF"/>
<path d="M1183.32 319.65C1182.08 318.691 1180.75 317.732 1179.51 316.903C1176.26 296.41 1172.31 260.721 1172.79 211.296C1173.58 281.607 1183.32 319.65 1183.32 319.65Z" fill="#1AB3FF"/>
<path d="M1183.32 337.027C1109.78 281.498 1001.07 275.092 1001.07 275.092C1001.07 275.092 892.345 281.498 818.797 337.027C818.797 337.027 820.517 330.123 822.622 316.903C825.86 296.416 829.799 260.717 829.323 211.3C829.685 178.816 828.146 139.54 822.803 93.836C822.079 87.7239 821.31 81.4308 820.449 75.0924C820.449 75.0924 888.044 119.71 1001.07 119.71C1114.08 119.71 1181.67 75.0924 1181.67 75.0924C1180.81 81.4308 1180.04 87.7239 1179.32 93.836C1174 139.54 1172.44 178.816 1172.8 211.3C1172.32 260.717 1176.26 296.416 1179.5 316.903C1181.6 330.123 1183.32 337.027 1183.32 337.027Z" fill="#1AB3FF"/>
<path d="M1001.05 257.11L1002.1 257.155C1006.08 257.407 1087.47 262.642 1159.12 300.571C1156.59 278.783 1154.46 248.856 1154.8 211.133C1154.44 177.937 1156.13 142.683 1159.86 106.446C1128.05 120.232 1073.46 137.699 1001.05 137.699C928.648 137.699 874.052 120.232 842.251 106.446C845.977 142.706 847.669 177.983 847.303 211.499C847.646 248.948 845.52 278.806 842.983 300.571C914.633 262.642 996.001 257.407 1000 257.155L1001.05 257.11ZM788.867 382.121L801.35 332.647C801.373 332.601 802.95 326.177 804.871 314.083C808.072 293.712 811.821 259.373 811.364 211.476C811.753 174.599 809.603 135.847 804.939 95.9296C804.231 89.9168 803.476 83.7211 802.63 77.4568L797.486 38.3849L830.362 60.1042C830.957 60.4928 895.429 101.76 1001.05 101.76C1106.68 101.76 1171.15 60.4929 1171.79 60.0814L1204.55 38.705L1199.48 77.4568C1198.63 83.7211 1197.88 89.9167 1197.17 95.9524C1192.5 135.847 1190.35 174.599 1190.74 211.11C1190.29 259.373 1194.03 293.712 1197.24 314.105C1199.16 326.177 1200.76 332.601 1200.76 332.67L1213.03 381.961L1172.5 351.371C1108.05 302.72 1012.23 293.987 1001.05 293.118C989.919 293.964 894.08 302.697 829.608 351.371L788.867 382.121Z" fill="#1D89FF"/>
<path d="M822.802 93.8568C828.142 139.55 829.674 178.843 829.314 211.311C829.021 177.83 826.565 138.062 820.459 92.4148C820.459 92.4148 821.248 92.9556 822.802 93.8568Z" fill="#1AB3FF"/>
<path d="M1181.65 92.4148C1175.52 138.062 1173.07 177.83 1172.77 211.311C1172.41 178.843 1173.99 139.55 1179.31 93.8568C1180.86 92.9556 1181.65 92.4148 1181.65 92.4148Z" fill="#1AB3FF"/>
<path d="M1001.04 154.869C927.108 154.869 872.611 135.746 843.769 122.481C843.321 117.162 842.804 111.797 842.266 106.433C874.048 120.214 928.634 137.676 1001.06 137.676C1073.47 137.676 1128.06 120.214 1159.86 106.433C1159.3 111.797 1158.81 117.162 1158.34 122.481C1129.52 135.724 1075.06 154.869 1001.04 154.869Z" fill="#5FCAFF"/>
<path d="M1001.05 137.699C928.645 137.699 874.056 120.222 842.246 106.451C842.785 111.82 843.301 117.166 843.773 122.491C843.077 122.199 842.38 121.862 841.729 121.547C841.325 115.324 840.898 109.214 840.426 103.216C868.282 116.448 924.152 137.115 1001.03 137.115C1077.97 137.115 1133.81 116.425 1161.67 103.216C1161.2 109.214 1160.75 115.324 1160.37 121.547C1159.69 121.862 1159.02 122.176 1158.32 122.491C1158.8 117.166 1159.31 111.82 1159.85 106.451C1128.04 120.222 1073.45 137.699 1001.05 137.699Z" fill="#61ADFF"/>
<path d="M1183.31 319.66C1109.77 264.163 1001.03 257.793 1001.03 257.793C1001.03 257.793 892.38 264.163 818.756 319.66C818.756 319.66 824.798 296.235 827.754 252.013C900.874 202.361 972.374 196.516 1001.03 196.516C1029.69 196.516 1101.28 202.361 1174.37 252.013C1177.33 296.235 1183.31 319.66 1183.31 319.66Z" fill="#1D89FF"/>
<path d="M1173.33 171.076C1172.32 145.541 1172.43 114.755 1174.94 78.9876C1179.38 76.5427 1181.64 75.0713 1181.64 75.0713" fill="#1AB3FF"/>
<path d="M1183.31 258.379C1180.4 256.196 1177.4 254.057 1174.36 252.007C1172.88 230.025 1172.11 202.971 1173.35 171.067C1175.53 227.952 1183.31 258.379 1183.31 258.379Z" fill="#1AB3FF"/>
<path d="M74.922 105.468C162.229 94.0327 286.829 79.4227 422.177 72.8194C547.75 66.5842 694.784 69.5981 786.218 75.9023C788.197 94.1018 789.739 113.59 790.981 134.412C668.302 129.258 530.775 129.465 417.416 134.987C310.295 140.256 196.63 150.035 70.8034 164.875C71.7077 143.73 73.1227 123.989 74.922 105.468ZM417.416 252.329C311.202 257.597 195.149 267.56 72.2162 282.101C70.3479 267.123 69.3885 251.869 69.3885 236.384C69.3885 229.758 69.3885 223.2 69.4552 216.827C197.015 201.596 311.844 191.633 419.922 186.341C533.083 180.842 670.81 180.704 792.96 186.042C793.351 202.056 793.558 218.829 793.558 236.384C793.558 241.584 793.42 246.715 793.213 251.799C669.567 246.6 531.031 246.715 417.416 252.329ZM431.364 598.417C365.722 598.417 304.069 580.816 250.895 550.146C309.789 544.923 366.43 541.012 419.922 538.389C497.015 534.57 573.589 533.81 636.857 534.316C578.483 574.696 507.629 598.417 431.364 598.417ZM695.681 483.583C624.191 482.18 521.376 481.789 417.416 487.012C345.723 490.532 268.708 496.33 188.136 504.222C168.268 486.229 150.469 466.051 135.028 444.056C235.843 433.127 331.522 425.396 419.922 421.024C517.069 416.216 633.122 415.502 744.021 418.907C730.332 442.238 714.134 463.935 695.681 483.583ZM768.663 368.313C649.589 364.01 522.603 364.47 417.416 369.67C321.229 374.41 216.682 383.038 106.296 395.439C96.4553 375.514 88.4162 354.485 82.3766 332.696C202.603 318.615 316.082 308.837 419.922 303.706C530.964 298.23 666.185 298.023 787.369 303.062C783.181 325.61 776.831 347.421 768.663 368.313ZM834.766 48.5226C833.155 36.4894 823.446 27.2402 811.343 26.2508C721.082 18.7272 557.522 14.6316 419.602 21.442C271.722 28.7126 136.775 45.3016 48.1083 57.1278C36.5352 58.6693 27.4032 67.8496 25.9882 79.4917C20.5882 124.174 17.9492 175.482 17.9492 236.384C17.9492 464.372 203.443 649.863 431.364 649.863C659.483 649.863 844.981 464.372 844.981 236.384C844.981 161.792 841.622 100.337 834.766 48.5226Z" fill="#1AB3FF"/>
<path d="M793.242 251.782C669.549 246.582 531.02 246.697 417.446 252.334C311.179 257.603 195.166 267.542 72.2438 282.084C70.3249 267.128 69.3769 251.851 69.3769 236.412C69.3769 229.74 69.377 223.205 69.4322 216.809C197.018 201.601 311.846 191.661 419.898 186.369C533.114 180.824 670.814 180.686 792.943 186.024C793.357 202.015 793.564 218.834 793.564 236.412C793.564 241.612 793.426 246.697 793.242 251.782ZM768.692 368.296C649.607 363.971 522.633 364.454 417.446 369.677C321.245 374.394 216.658 383.022 106.271 395.423C96.444 375.475 88.4187 354.445 82.3652 332.702C202.591 318.644 316.098 308.82 419.898 303.666C530.953 298.213 666.212 298.029 787.375 303.067C783.187 325.639 776.837 347.382 768.692 368.296ZM695.663 483.592C624.22 482.165 521.365 481.797 417.446 487.02C345.752 490.54 268.713 496.292 188.151 504.207C168.272 486.237 150.472 466.036 135.018 444.063C235.831 433.111 331.553 425.38 419.898 421.009C517.058 416.223 633.14 415.487 744.004 418.915C730.36 442.268 714.116 463.896 695.663 483.592ZM431.405 598.426C365.753 598.426 304.058 580.825 250.872 550.155C309.806 544.932 366.406 540.974 419.898 538.352C496.993 534.578 573.606 533.796 636.861 534.325C578.458 574.705 507.659 598.426 431.405 598.426ZM74.9381 105.448C162.218 94.0133 286.859 79.4028 422.179 72.8224C547.726 66.5871 694.789 69.5783 786.247 75.8596C788.226 94.0822 789.791 113.547 790.987 134.393C668.306 129.239 530.778 129.492 417.446 134.991C310.286 140.26 196.659 150.039 70.8058 164.879C71.7124 143.734 73.1527 123.97 74.9381 105.448ZM834.772 48.5027C833.138 36.4463 823.429 27.2198 811.349 26.2765C721.065 18.7297 557.553 14.5883 419.606 21.4218C271.713 28.7154 136.766 45.3276 48.1103 57.1309C36.5509 58.6724 27.3774 67.8527 26.0038 79.518C20.6176 124.2 17.9785 175.486 17.9785 236.412C17.9785 464.379 203.433 649.873 431.405 649.873C659.499 649.873 845.011 464.379 845.011 236.412C845.011 161.819 841.652 100.318 834.772 48.5027Z" fill="#1AB3FF"/>
<path d="M47.1744 98.4102C36.5481 98.4102 36.8549 72.6459 48.1065 71.1344C136.775 59.3172 271.72 42.7363 419.6 35.4536C468.587 33.026 520.8 31.9955 571.813 31.9955C664.462 31.9955 753.137 35.4308 811.353 40.2859C823.239 41.2249 823.445 67.493 811.971 67.493C811.765 67.493 811.559 67.4931 811.353 67.4702C753.137 62.615 664.462 59.2026 571.813 59.2026C520.8 59.2026 468.573 60.2333 419.6 62.6608C271.72 69.9207 136.775 86.5243 48.1065 98.3415C47.7882 98.3873 47.4813 98.4102 47.1744 98.4102Z" fill="#5FCAFF"/>
<path d="M66.265 200.965C56.1715 200.965 56.4651 176.51 67.1572 175.086C151.397 163.849 279.61 148.072 420.116 141.174C466.65 138.859 516.249 137.88 564.73 137.88C652.748 137.88 737.016 141.152 792.312 145.758C803.594 146.648 803.794 171.614 792.913 171.614C792.713 171.614 792.512 171.614 792.312 171.592C737.016 166.986 652.748 163.715 564.743 163.715C516.276 163.715 466.65 164.716 420.116 167.008C279.61 173.929 151.397 189.683 67.1572 200.92C66.8501 200.965 66.5587 200.965 66.265 200.965Z" fill="#5FCAFF"/>
<path d="M78.2883 313.977C68.5281 313.977 68.8082 290.319 79.1416 288.94C160.596 278.081 284.581 262.827 420.435 256.148C465.435 253.928 513.394 252.98 560.28 252.98C645.365 252.98 726.851 256.126 780.328 260.586C791.23 261.469 791.424 285.601 780.91 285.601C780.716 285.601 780.522 285.601 780.328 285.558C726.851 281.119 645.386 277.974 560.28 277.974C513.407 277.974 465.435 278.922 420.435 281.141C284.581 287.82 160.596 303.053 79.1416 313.934C78.8485 313.977 78.5684 313.977 78.2883 313.977Z" fill="#5FCAFF"/>
<path d="M110.142 423.191C101.261 423.191 101.516 401.662 110.93 400.411C184.994 390.532 297.741 376.693 421.288 370.607C462.224 368.585 505.846 367.71 548.468 367.71C625.855 367.71 699.948 370.586 748.572 374.65C758.493 375.421 758.681 397.368 749.093 397.368C748.927 397.368 748.76 397.368 748.572 397.368C699.948 393.304 625.855 390.449 548.468 390.449C505.826 390.449 462.203 391.303 421.288 393.346C297.741 399.411 184.994 413.25 110.93 423.129C110.661 423.171 110.396 423.191 110.142 423.191Z" fill="#5FCAFF"/>
<path d="M820.094 333.914C776.438 507.845 618.715 637.004 431.361 637.004C244.134 637.004 86.493 507.845 42.8262 333.914C42.8262 333.914 130.427 621.722 431.361 621.722C732.297 621.722 820.094 333.914 820.094 333.914Z" fill="#1D89FF"/>
<path d="M571.733 35.9373C520.999 35.9373 469.121 36.9776 420.48 39.3588C273.906 46.618 139.107 63.1479 50.4793 74.9383C47 75.4007 44.2536 78.1518 43.8536 81.6427C38.5341 125.73 35.9471 176.336 35.9471 236.398C35.9471 454.498 213.347 631.91 431.401 631.91C649.548 631.91 827.036 454.498 827.036 236.398C827.036 162.627 823.73 101.941 816.933 50.8718C816.447 47.2422 813.558 44.4912 809.928 44.1907C751.923 39.3358 663.733 35.9373 571.733 35.9373ZM431.401 667.859C193.521 667.859 0 474.311 0 236.398C0 174.88 2.66563 122.886 8.16091 77.3888C10.4936 57.6456 25.9345 41.9711 45.7078 39.3125C135.001 27.4296 270.787 10.7842 418.707 3.47879C557.12 -3.3643 721.754 0.750846 812.818 8.37996C833.416 9.99826 849.807 25.534 852.558 46.1095C859.563 98.7735 862.962 161.032 862.962 236.398C862.962 474.311 669.36 667.859 431.401 667.859Z" fill="#1D89FF"/>
<path d="M1931.29 164.875C1805.48 150.035 1691.8 140.256 1584.69 134.987C1471.33 129.465 1333.81 129.258 1211.13 134.412C1212.35 113.59 1213.89 94.1018 1215.9 75.9023C1307.33 69.5981 1454.38 66.5842 1579.93 72.8194C1715.26 79.4227 1839.88 94.0327 1927.19 105.468C1928.99 123.989 1930.41 143.73 1931.29 164.875ZM1208.88 251.799C1208.69 246.715 1208.56 241.584 1208.56 236.384C1208.56 218.829 1208.74 202.056 1209.13 186.042C1331.3 180.704 1469.01 180.842 1582.19 186.341C1690.25 191.633 1805.09 201.596 1932.67 216.827C1932.71 223.2 1932.71 229.758 1932.71 236.384C1932.71 251.869 1931.75 267.123 1929.88 282.101C1806.95 267.56 1690.9 257.597 1584.69 252.329C1471.08 246.715 1332.52 246.6 1208.88 251.799ZM1365.24 534.316C1428.51 533.81 1505.08 534.57 1582.19 538.389C1635.68 541.012 1692.3 544.923 1751.2 550.146C1698.05 580.816 1636.37 598.417 1570.73 598.417C1494.48 598.417 1423.64 574.696 1365.24 534.316ZM1258.07 418.907C1368.97 415.502 1485.02 416.216 1582.19 421.024C1670.58 425.396 1766.25 433.127 1867.07 444.056C1851.66 466.051 1833.82 486.229 1813.97 504.222C1733.39 496.33 1656.39 490.532 1584.69 487.012C1480.72 481.789 1377.92 482.18 1306.41 483.583C1287.96 463.935 1271.76 442.238 1258.07 418.907ZM1214.75 303.062C1335.93 298.023 1471.15 298.23 1582.19 303.706C1686.02 308.837 1799.5 318.615 1919.71 332.696C1913.69 354.485 1905.66 375.514 1895.81 395.439C1785.42 383.038 1680.87 374.41 1584.69 369.67C1479.5 364.47 1352.52 364.01 1233.45 368.313C1225.28 347.421 1218.91 325.61 1214.75 303.062ZM1157.13 236.384C1157.13 464.372 1342.62 649.863 1570.73 649.863C1798.67 649.863 1984.16 464.372 1984.16 236.384C1984.16 175.482 1981.51 124.174 1976.11 79.4917C1974.7 67.8496 1965.57 58.6693 1954 57.1278C1865.35 45.3016 1730.38 28.7126 1582.51 21.442C1444.6 14.6316 1281.01 18.7272 1190.75 26.2508C1178.67 27.2402 1168.96 36.4894 1167.35 48.5226C1160.47 100.337 1157.13 161.792 1157.13 236.384Z" fill="#1AB3FF"/>
<path d="M1208.57 236.412C1208.57 218.834 1208.75 202.015 1209.16 186.024C1331.29 180.686 1469 180.824 1582.2 186.369C1690.27 191.661 1805.08 201.601 1932.69 216.809C1932.73 223.205 1932.73 229.74 1932.73 236.412C1932.73 251.851 1931.79 267.128 1929.86 282.084C1806.95 267.542 1690.94 257.603 1584.66 252.334C1471.09 246.697 1332.56 246.582 1208.87 251.782C1208.68 246.697 1208.57 241.612 1208.57 236.412ZM1214.73 303.067C1335.89 298.029 1471.16 298.213 1582.2 303.666C1686.01 308.82 1799.54 318.644 1919.73 332.702C1913.68 354.445 1905.65 375.475 1895.83 395.423C1785.46 383.022 1680.86 374.394 1584.66 369.677C1479.49 364.454 1352.51 363.971 1233.42 368.296C1225.27 347.382 1218.92 325.639 1214.73 303.067ZM1258.1 418.915C1368.96 415.487 1485.06 416.223 1582.2 421.009C1670.55 425.38 1766.27 433.111 1867.09 444.063C1851.63 466.036 1833.84 486.237 1813.96 504.207C1733.39 496.292 1656.38 490.54 1584.66 487.02C1480.73 481.797 1377.91 482.165 1306.44 483.592C1287.99 463.896 1271.75 442.268 1258.1 418.915ZM1365.25 534.325C1428.5 533.796 1505.12 534.578 1582.2 538.352C1635.69 540.974 1692.29 544.932 1751.24 550.155C1698.05 580.825 1636.36 598.426 1570.72 598.426C1494.47 598.426 1423.67 574.705 1365.25 534.325ZM1931.31 164.879C1805.45 150.039 1691.81 140.26 1584.66 134.991C1471.34 129.492 1333.8 129.239 1211.14 134.393C1212.34 113.547 1213.88 94.0822 1215.88 75.8596C1307.34 69.5783 1454.39 66.5871 1579.92 72.8224C1715.26 79.4028 1839.89 94.0133 1927.16 105.448C1928.96 123.97 1930.39 143.734 1931.31 164.879ZM1157.12 236.412C1157.12 464.379 1342.61 649.873 1570.72 649.873C1798.69 649.873 1984.13 464.379 1984.13 236.412C1984.13 175.486 1981.49 124.2 1976.1 79.518C1974.72 67.8527 1965.57 58.6724 1953.99 57.1309C1865.36 45.3276 1730.4 28.7154 1582.52 21.4218C1444.56 14.5883 1281.04 18.7297 1190.76 26.2765C1178.68 27.2198 1168.97 36.4463 1167.36 48.5027C1160.46 100.318 1157.12 161.819 1157.12 236.412Z" fill="#1AB3FF"/>
<path d="M1954.92 98.4102C1954.62 98.4102 1954.3 98.3873 1953.98 98.3415C1865.33 86.5243 1730.37 69.9207 1582.5 62.6608C1533.53 60.2333 1481.29 59.2026 1430.29 59.2026C1337.63 59.2026 1248.96 62.6379 1190.74 67.4702C1190.53 67.4931 1190.33 67.493 1190.15 67.493C1178.67 67.493 1178.88 41.2249 1190.74 40.2859C1248.96 35.4308 1337.63 31.9955 1430.29 31.9955C1481.29 31.9955 1533.53 33.026 1582.5 35.4536C1730.37 42.7363 1865.33 59.3172 1953.98 71.1344C1965.25 72.6459 1965.57 98.4102 1954.92 98.4102Z" fill="#5FCAFF"/>
<path d="M1935.82 200.965C1935.53 200.965 1935.24 200.965 1934.95 200.92C1850.71 189.683 1722.47 173.929 1581.99 167.008C1535.44 164.716 1485.82 163.715 1437.35 163.715C1349.35 163.715 1265.08 166.986 1209.76 171.592C1209.56 171.614 1209.38 171.614 1209.18 171.614C1198.3 171.614 1198.5 146.648 1209.76 145.758C1265.1 141.152 1349.35 137.88 1437.35 137.88C1485.82 137.88 1535.44 138.859 1581.99 141.174C1722.47 148.072 1850.71 163.849 1934.95 175.086C1945.63 176.51 1945.92 200.965 1935.82 200.965Z" fill="#5FCAFF"/>
<path d="M1923.81 313.961C1923.52 313.961 1923.26 313.939 1922.95 313.917C1841.51 303.043 1717.51 287.806 1581.67 281.12C1536.66 278.884 1488.69 277.941 1441.82 277.941C1356.74 277.941 1275.25 281.098 1221.78 285.548C1221.58 285.57 1221.4 285.57 1221.21 285.57C1210.68 285.57 1210.86 261.433 1221.78 260.578C1275.25 256.105 1356.72 252.97 1441.82 252.97C1488.69 252.97 1536.66 253.913 1581.67 256.127C1717.51 262.814 1841.51 278.05 1922.95 288.924C1933.3 290.284 1933.58 313.961 1923.81 313.961Z" fill="#5FCAFF"/>
<path d="M1891.95 423.184C1891.71 423.184 1891.45 423.162 1891.19 423.118C1817.09 413.256 1704.35 399.397 1580.79 393.337C1539.89 391.295 1496.25 390.426 1453.63 390.426C1376.23 390.426 1302.14 393.293 1253.5 397.356C1253.33 397.377 1253.16 397.377 1252.98 397.377C1243.42 397.377 1243.6 375.416 1253.5 374.634C1302.14 370.572 1376.23 367.704 1453.61 367.704C1496.25 367.704 1539.89 368.574 1580.79 370.594C1704.35 376.676 1817.09 390.535 1891.19 400.397C1900.57 401.657 1900.83 423.184 1891.95 423.184Z" fill="#5FCAFF"/>
<path d="M1182 333.911C1225.66 507.842 1383.38 637.016 1570.74 637.016C1757.96 637.016 1915.62 507.842 1959.27 333.911C1959.27 333.911 1871.68 621.714 1570.74 621.714C1269.8 621.714 1182 333.911 1182 333.911Z" fill="#1D89FF"/>
<path d="M1430.34 35.9373C1338.35 35.9373 1250.22 39.3358 1192.26 44.1907C1188.54 44.4912 1185.65 47.2423 1185.14 50.895C1178.37 101.918 1175.06 162.604 1175.06 236.398C1175.06 454.498 1352.54 631.91 1570.71 631.91C1788.74 631.91 1966.16 454.498 1966.16 236.398C1966.16 176.336 1963.57 125.707 1958.25 81.6657C1957.83 78.1517 1955.11 75.4007 1951.59 74.9383C1862.98 63.1479 1728.2 46.6182 1581.63 39.3821C1532.98 36.9777 1481.06 35.9373 1430.34 35.9373ZM1570.71 667.859C1332.73 667.859 1139.14 474.311 1139.14 236.398C1139.14 160.985 1142.54 98.7503 1149.54 46.1325C1152.31 25.5108 1168.66 9.99826 1189.35 8.37996C1280.34 0.750846 1444.97 -3.3643 1583.38 3.47879C1731.32 10.7842 1867.09 27.4296 1956.35 39.3125C1976.17 41.9711 1991.61 57.6688 1993.94 77.412C1999.42 122.84 2002.11 174.88 2002.11 236.398C2002.11 474.311 1808.58 667.859 1570.71 667.859Z" fill="#1D89FF"/>
</svg>
