<svg width="1082" height="721" viewBox="0 0 1082 721" fill="none" xmlns="http://www.w3.org/2000/svg">
<path d="M318.44 492.658L308.261 491.285C328.525 339.778 398.178 235.621 494.599 212.67C552.145 198.945 608.993 218.847 639.454 263.338C676.588 317.551 667.438 392.771 614.33 469.745L605.905 463.95C656.458 390.636 665.608 319.648 630.991 269.133C602.969 228.187 550.345 209.963 496.971 222.659C404.846 244.581 338.116 345.535 318.44 492.658Z" fill="#000072"/>
<path d="M645.263 399.684C843.613 207.691 1022.28 481.385 727.078 548.199L645.263 399.684Z" fill="white"/>
<path d="M728.205 553.188L725.959 543.192C814.683 523.126 871.362 480.037 877.576 427.926C881.47 395.244 863.575 363.985 831.904 348.299C779.643 322.356 711.209 342.983 648.841 403.368L641.69 395.992C707.316 332.463 780.13 311.162 836.471 339.089C872.036 356.722 892.176 392.099 887.759 429.161C880.983 485.765 821.347 532.111 728.205 553.188Z" fill="#000072"/>
<path d="M313.389 522.941C312.03 522.941 310.652 522.827 309.258 522.635C292.316 520.376 280.43 504.829 282.689 487.864C304.425 325.345 381.407 213.067 488.615 187.563C556.69 171.365 624.233 195.375 660.765 248.757C681.367 278.779 720.082 361.877 635.568 484.418C625.879 498.472 606.625 501.995 592.552 492.306C578.479 482.618 574.952 463.356 584.652 449.264C628.79 385.275 637.942 324.924 609.712 283.681C587.777 251.667 545.883 237.537 502.964 247.761C421.646 267.1 362.226 359.963 344.036 496.059C341.941 511.607 328.657 522.941 313.389 522.941Z" fill="#000072"/>
<path d="M727.057 579.145C712.878 579.145 700.129 569.404 696.894 555.037C693.133 538.376 703.551 521.791 720.249 518.03C811.601 497.345 848.157 456.351 851.956 424.872C854.589 402.834 842.516 382.374 820.44 371.43C787.983 355.333 730.592 360.185 666.769 421.939C654.509 433.823 634.914 433.522 623.03 421.224C611.146 408.926 611.447 389.37 623.745 377.485C697.571 305.99 781.401 283.011 847.932 315.994C893.439 338.522 919.125 384.179 913.371 432.244C909.498 464.851 884.187 544.356 733.901 578.392C731.607 578.919 729.313 579.145 727.057 579.145Z" fill="#000072"/>
<path fill-rule="evenodd" clip-rule="evenodd" d="M562.57 169.282C840.208 192.737 1055.65 325.854 1043.73 466.545C1031.85 607.275 797.104 702.287 519.466 678.794C241.794 655.339 26.3694 522.222 38.2738 381.492C50.1628 240.8 284.878 145.788 562.57 169.282Z" fill="#E71C24"/>
<path d="M476.14 203.371C242.69 203.371 83.8712 290.628 75.9156 384.696C67.0429 489.559 244.454 617.638 522.659 641.165C651.145 652.038 773.448 637.14 867.051 599.219C950.98 565.245 1001.67 515.716 1006.08 463.362C1010.49 411.008 968.857 353.701 891.854 306.106C805.913 253.017 687.855 217.805 559.368 206.931C530.727 204.494 502.928 203.371 476.14 203.371ZM603.357 720.18C574.711 720.18 545.628 718.941 516.286 716.465C213.255 690.849 -13.2492 542.3 0.603504 378.311C14.4756 214.361 262.773 106.015 565.746 131.631C705.809 143.472 835.746 182.593 931.593 241.796C1035.18 305.836 1088.42 386.785 1081.38 469.747C1074.38 552.708 1008.33 623.559 895.452 669.296C812.878 702.69 711.42 720.18 603.357 720.18Z" fill="#000071"/>
<mask id="mask0_1_5986" style="mask-type:luminance" maskUnits="userSpaceOnUse" x="75" y="207" width="846" height="228">
<path d="M84.9934 434.863C78.82 420.569 75.6231 406.311 75.6048 392.421C75.5864 389.849 75.6965 387.277 75.917 384.723C82.8988 302.228 205.926 224.931 393.553 207.164C394.012 227.063 397.007 246.263 402.206 264.268C225.511 270.074 119.792 326.939 84.9934 434.863ZM919.613 337.376C840.315 317.551 766.546 301.731 698.382 289.899C706.76 272.665 713.081 253.796 716.902 233.751C753.373 243.378 787.878 255.156 819.737 268.88C845.661 280.051 869.822 292.489 891.87 306.104C902.195 312.498 911.878 319.039 920.899 325.745C920.569 329.659 920.128 333.554 919.613 337.376Z" fill="white"/>
</mask>
<g mask="url(#mask0_1_5986)">
<path d="M75.5947 207.154H920.914V434.877H75.5947" fill="#F38E92"/>
</g>
<path d="M84.9966 434.863C78.8057 420.571 75.6099 406.316 75.6099 392.403C75.6288 406.316 78.8246 420.533 84.9966 434.863Z" fill="#8080B8"/>
<path d="M476.155 203.371C242.705 203.371 83.8667 290.667 75.911 384.734C67.0383 489.558 244.45 617.638 522.655 641.165C651.141 652.038 773.447 637.141 867.05 599.258C950.979 565.284 1001.67 515.755 1006.08 463.401C1010.49 411.046 968.856 353.701 891.853 306.106C805.951 253.017 687.854 217.805 559.364 206.931C530.722 204.532 502.943 203.371 476.155 203.371ZM603.349 720.18C574.707 720.18 545.624 718.941 516.282 716.465C213.251 690.849 -13.2535 542.338 0.6031 378.349C14.4713 214.399 262.656 106.015 565.741 131.631C705.809 143.472 835.746 182.592 931.593 241.834C1035.18 305.835 1088.38 386.785 1081.38 469.785C1074.38 552.708 1008.32 623.597 895.413 669.296C812.877 702.69 711.42 720.18 603.349 720.18Z" fill="#000071"/>
<path fill-rule="evenodd" clip-rule="evenodd" d="M570.619 38.156C639.832 43.9889 689.932 119.308 682.565 206.332C675.217 293.356 613.172 359.163 543.96 353.33C474.748 347.458 424.643 272.178 431.991 185.154C439.359 98.1295 501.407 32.2839 570.619 38.156Z" fill="#E71C24"/>
<path d="M562.216 75.5971C516.687 75.5971 474.943 125.699 469.654 188.366C464.139 253.357 499.636 311.652 547.134 315.669C594.645 319.726 639.422 268.167 644.916 203.176C650.407 138.146 614.93 79.8117 567.415 75.794C565.69 75.6365 563.942 75.5971 562.216 75.5971ZM552.389 391.492C548.529 391.492 544.669 391.295 540.777 390.98C450.932 383.378 385.248 289.634 394.343 181.985C403.453 74.2975 483.873 -7.03987 573.792 0.483313C663.637 8.08528 729.337 101.869 720.227 209.557C711.498 312.519 637.456 391.492 552.389 391.492Z" fill="#000071"/>
<path d="M603.852 644.627C593.042 644.627 582.121 644.441 571.162 644.031C571.05 644.031 570.938 644.031 570.826 644.031C570.528 644.031 570.23 644.03 569.894 643.993C569.708 643.993 569.484 643.993 569.335 643.993C569.111 643.956 568.85 643.956 568.627 643.956C568.44 643.956 568.254 643.956 568.105 643.919C567.844 643.919 567.62 643.919 567.359 643.919C567.248 643.919 567.099 643.881 566.987 643.881C566.688 643.881 566.39 643.882 566.092 643.844C566.055 643.844 565.98 643.844 565.943 643.844C565.16 643.807 564.303 643.77 563.52 643.77C559.606 643.583 555.655 643.397 551.704 643.173C550.884 643.136 550.026 643.099 549.206 643.024C547.417 642.95 545.702 642.838 543.913 642.726C542.087 642.614 540.26 642.465 538.396 642.353C534.482 642.092 530.494 641.794 526.543 641.459C525.238 641.347 523.971 641.272 522.666 641.16C344.981 626.138 208.411 568.436 135.232 501.414C287.931 528.327 418.31 541.784 526.543 541.784C770.026 541.784 901.087 473.644 919.613 337.365C927.254 339.266 934.859 341.204 942.612 343.18C983.876 379.374 1006.39 418.551 1006.43 455.678C1006.43 458.25 1006.32 460.784 1006.09 463.356C1005.16 474.278 1002.22 485.125 997.369 495.711C983.652 515.169 969.115 533.061 953.832 549.5C931.317 568.175 902.093 585.024 867.092 599.225C793.435 629.046 702.036 644.627 603.852 644.627Z" fill="#A1143B"/>
<path d="M867.056 599.258C902.07 585.076 931.273 568.191 953.788 549.514C953.788 549.514 953.751 549.55 953.751 549.587C931.237 568.227 902.033 585.076 867.056 599.258ZM522.649 641.18C344.949 626.158 208.363 568.446 135.202 501.414L135.22 501.451C208.399 568.483 344.967 626.158 522.649 641.18ZM997.355 495.713C1002.22 485.15 1005.14 474.331 1006.05 463.366C1006.27 460.808 1006.38 458.25 1006.38 455.691C1006.38 458.286 1006.27 460.844 1006.05 463.403C1005.14 474.331 1002.22 485.114 997.392 495.676L997.355 495.713Z" fill="#000071"/>
<path d="M942.605 343.225C934.874 341.208 927.218 339.303 919.6 337.399C920.122 333.552 920.571 329.668 920.907 325.746C928.6 331.46 935.883 337.286 942.605 343.225Z" fill="#AA6388"/>
<path d="M619.354 682.223C468.209 677.594 286.332 613.514 73.793 490.093C94.6466 494.081 115.113 497.882 135.214 501.419C208.374 568.435 344.961 626.119 522.668 641.133C523.955 641.245 525.238 641.358 526.525 641.471C530.495 641.772 534.465 642.074 538.412 642.375C540.252 642.487 542.088 642.6 543.924 642.713C545.689 642.826 547.435 642.939 549.2 643.052C550.043 643.089 550.871 643.127 551.698 643.165C555.649 643.39 559.6 643.578 563.514 643.766C564.304 643.804 565.132 643.804 565.922 643.842C565.997 643.842 566.035 643.842 566.072 643.842C566.411 643.879 566.674 643.88 566.975 643.88C567.126 643.917 567.239 643.917 567.352 643.917C567.615 643.917 567.841 643.917 568.104 643.955C568.255 643.955 568.443 643.955 568.631 643.955C568.857 643.955 569.083 643.992 569.308 643.992C569.496 643.992 569.685 643.992 569.873 643.992C570.211 644.03 570.513 644.03 570.851 644.03C570.964 644.03 571.039 644.03 571.152 644.03C582.14 644.444 593.052 644.632 603.851 644.632C702.061 644.632 793.422 629.054 867.061 599.215C902.055 585.067 931.255 568.209 953.756 549.546C941.753 562.414 929.261 574.343 916.279 585.368C824.165 646.024 725.165 678.309 619.354 682.223ZM997.405 495.662C1002.22 485.088 1005.16 474.289 1006.1 463.377C1006.32 460.818 1006.4 458.259 1006.4 455.663C1006.36 418.562 983.859 379.39 942.619 343.192C935.883 337.284 928.621 331.452 920.907 325.733C922.186 311.171 922.262 295.893 921.095 279.864C967.415 302.666 1007.26 350.868 1040.64 424.544C1027.21 450.132 1012.8 473.837 997.405 495.662Z" fill="#000071"/>
<path d="M636.947 682.512C631.119 682.512 625.255 682.44 619.356 682.261C725.152 678.328 824.155 646.043 916.293 585.368C839.922 650.154 746.819 682.547 636.947 682.512Z" fill="#000071"/>
<path d="M522.659 246.139C522.163 246.139 521.686 246.1 521.19 246.062C505.076 244.677 493.923 220.872 496.292 192.913C498.588 165.762 512.756 144.648 528.316 144.648C528.797 144.648 529.289 144.687 529.77 144.725C545.938 146.071 557.071 169.877 554.702 197.874C552.406 224.987 538.257 246.139 522.659 246.139Z" fill="#F38E92"/>
</svg>
