<svg width="1190" height="1302" viewBox="0 0 1190 1302" fill="none" xmlns="http://www.w3.org/2000/svg">
<path d="M814.73 130.427C733.048 98.2611 657.428 112.735 591.564 159.25C561.675 180.361 533.782 208.06 508.26 241C482.513 274.214 459.136 312.769 438.528 355.266C412.731 408.344 391.275 467.586 374.759 530.271C363.582 572.719 354.675 616.713 348.264 661.457C348.239 661.631 348.214 661.781 348.189 661.956L342.6 664.251L156.882 740.986L154.986 741.76L156.557 731.528L181.706 566.904L211.345 490.145L280.827 310.099L291.53 298.57L388.032 194.635L475.427 100.482L595.181 53.0687L613.543 55.0401H613.568L804.102 75.4528H804.127L804.751 75.5276L804.85 76.1265V76.1515L814.73 130.427Z" fill="#0096F0"/>
<path d="M429.289 351.582L326.857 312.06C330.715 306.023 334.643 300.07 338.631 294.222C361.676 260.399 386.403 230.166 412.428 203.833L498.728 237.122C475.259 267.735 453.402 303.131 433.611 342.783C432.159 345.699 430.716 348.631 429.289 351.582Z" fill="#99D5F9"/>
<path d="M190.566 681.455C200.962 622.942 215.001 567.001 232.399 514.408C246.399 526.861 263.328 535.98 281.589 540.194C290.757 542.316 299.975 543.272 309.198 543.272C327.46 543.272 345.731 539.538 363.643 533.778C357.979 555.875 352.913 578.407 348.481 601.29C290.947 607.511 236.167 635.134 190.566 681.455Z" fill="#0071CE"/>
<path d="M583.316 153.176C561.851 138.259 536.233 129.238 510.186 127.184C529.371 115.983 548.95 106.711 568.803 99.4687C600.839 87.7961 632.236 82.0151 662.305 82.0151C697.43 82.0151 730.729 89.9107 761.058 105.511C749.809 103.828 738.624 102.99 727.5 102.99C686.66 102.99 646.699 114.336 607.991 136.998C599.671 141.87 591.441 147.269 583.316 153.176Z" fill="#0071CE"/>
<path d="M191.336 569.216L167.372 726.008L339.548 654.89C356.423 540.509 389.029 432.644 433.971 342.615C482.074 246.26 542.388 175.023 608.389 136.612C670.416 100.519 735.658 93.2936 802.578 115.065L796.926 83.9906L596.897 62.5536L481.375 108.294L289.448 315.021L191.336 569.216ZM155.105 751.41C152.953 751.41 150.821 750.696 149.074 749.323C146.303 747.151 144.915 743.65 145.45 740.165L172.189 565.217C172.299 564.518 172.479 563.833 172.734 563.174L271.905 306.232C272.354 305.079 273.013 304.015 273.862 303.107L468.569 93.3785C469.558 92.3099 470.776 91.481 472.129 90.9417L591.949 43.5033C593.422 42.924 595.014 42.7042 596.582 42.874L806.272 65.3449C810.576 65.8043 814.06 69.0501 814.839 73.3095L824.824 128.238C825.458 131.724 824.15 135.284 821.414 137.531C818.674 139.783 814.934 140.373 811.639 139.074C744.894 112.793 679.812 117.652 618.215 153.501C555.514 189.988 497.845 258.405 451.445 351.344C406.702 440.968 374.421 548.798 358.08 663.18C357.596 666.6 355.334 669.506 352.144 670.825L158.829 750.671C157.626 751.166 156.363 751.41 155.105 751.41Z" fill="#00046A"/>
<path d="M217.704 691.706L212.769 766.491L211.673 783.165L185.729 1175.96H134.689C97.7804 1175.96 63.7124 1155.19 47.7127 1121.87C5.09654 1033.18 -2.87841 915.337 29.5946 820.009C39.339 791.378 52.7718 764.744 69.9927 741.579C80.0112 728.075 91.3506 715.744 103.986 704.861C113.805 696.399 126.316 691.706 139.275 691.706H217.704Z" fill="#FFEB52"/>
<path d="M102.687 832.822L39.1986 821.761C49.4597 792.213 63.4688 765.828 80.7738 743.57L136.291 753.239C122.294 777.968 111.008 804.691 102.687 832.822Z" fill="#FFF7BA"/>
<path d="M145.94 1158.47H134.814C106.459 1158.47 79.7684 1146.76 61.6119 1126.91C59.6754 1123.94 57.9195 1120.83 56.3626 1117.6C41.862 1087.5 31.4014 1053.76 25.3284 1018.56C41.1018 1041.39 69.3543 1058 102.474 1065.42C112.569 1098.84 127.152 1130.22 145.94 1158.47Z" fill="#BFB158"/>
<path d="M139.635 701.578C129.036 701.578 118.738 705.415 110.638 712.376C62.5192 753.748 31.0773 820.33 22.1062 899.866C13.6349 974.976 26.2412 1054.32 56.6955 1117.56C70.8927 1147.04 101.638 1166.09 135.023 1166.09H177.021L207.756 701.578H139.635ZM186.164 1185.61H135.023C94.1804 1185.61 56.5247 1162.22 39.0942 1126.02C7.08957 1059.57 -6.17789 976.343 2.69487 897.68C12.2193 813.234 46.03 742.171 97.8984 697.581C109.541 687.571 124.364 682.057 139.635 682.057H218.187C220.893 682.057 223.47 683.175 225.317 685.146C227.165 687.117 228.114 689.766 227.934 692.461L195.911 1176.49C195.572 1181.62 191.307 1185.61 186.164 1185.61Z" fill="#00046A"/>
<path d="M582.856 938.394C582.831 939.717 582.781 941.04 582.731 942.388C582.631 944.985 582.507 947.581 582.382 950.177C582.257 952.898 582.082 955.644 581.907 958.341C581.708 961.861 581.458 965.331 581.159 968.801C581.034 970.473 580.884 972.146 580.734 973.818C580.709 974.243 580.684 974.667 580.634 975.067C580.435 977.213 580.235 979.36 580.01 981.507C578.188 999.482 575.617 1017.01 572.346 1033.91C572.022 1035.6 571.672 1037.3 571.323 1039C570.848 1041.4 570.349 1043.77 569.825 1046.11C568.976 1050.13 568.077 1054.1 567.104 1058.05C566.604 1060.19 566.08 1062.32 565.531 1064.44C564.483 1068.58 563.384 1072.7 562.236 1076.77C561.836 1078.22 561.437 1079.67 561.013 1081.09C560.613 1082.44 560.239 1083.79 559.814 1085.11C557.068 1094.37 554.073 1103.36 550.877 1112.07C550.203 1113.92 549.504 1115.79 548.805 1117.61C548.106 1119.48 547.382 1121.31 546.658 1123.15C545.934 1124.98 545.21 1126.8 544.461 1128.6C543.712 1130.39 542.964 1132.19 542.19 1133.96C541.441 1135.74 540.667 1137.48 539.893 1139.23C539.094 1141 538.295 1142.75 537.496 1144.5C536.698 1146.17 535.899 1147.84 535.1 1149.52C535.125 1149.44 535.175 1149.34 535.2 1149.27C511.259 1198.92 480.079 1235.69 445.429 1252.92C437.141 1256.36 428.678 1259.33 420.09 1261.78C394.777 1269.09 368.29 1272.04 341.229 1270.02C192.743 1258.93 83.4251 1102.23 97.0301 920.07C99.9758 880.677 108.439 843.306 121.395 809.055C137.273 767.04 159.89 729.694 187.4 699.013C241.173 639.049 313.569 604.548 390.558 610.315C413.3 612.013 435.119 617.13 455.714 625.244C458.91 626.467 462.08 627.815 465.225 629.213C465.275 629.213 465.3 629.238 465.35 629.263C537.796 664.088 587.499 789.733 582.856 938.394Z" fill="#0096F0"/>
<path d="M249.923 818.348C219.277 811.44 188.325 806.224 157.014 806.224C156.274 806.224 155.529 806.229 154.789 806.234C147.225 806.299 139.608 806.695 132.069 807.581C148.155 766.74 171.132 729.919 200.054 699.359C201.224 698.123 202.403 696.897 203.588 695.69C223.511 692.241 243.739 690.5 263.956 690.5C276.71 690.5 289.458 691.195 302.132 692.587C296.702 700.991 291.518 709.926 286.663 719.242C285.549 721.394 284.439 723.572 283.324 725.779C283.224 725.969 283.134 726.164 283.049 726.365C282.534 727.396 282.024 728.457 281.484 729.588L281.084 730.419C280.594 731.435 280.109 732.442 279.704 733.323C279.094 734.599 278.509 735.88 277.974 737.077C276.89 739.419 275.83 741.792 274.795 744.185C274.62 744.57 274.47 744.92 274.375 745.161L272.05 750.692C271.765 751.373 271.48 752.053 271.205 752.739C271.125 752.939 271.05 753.145 270.985 753.345C262.681 773.773 255.632 795.572 249.923 818.348Z" fill="#99D5F9"/>
<path d="M332.284 1248.33C210.969 1229.8 120.482 1111.79 113.375 967.907C140.539 1038.92 191.437 1096.06 256.115 1126.28C260.814 1140.7 266.188 1154.45 272.206 1167.39C288.771 1202.99 309.222 1230.34 332.284 1248.33Z" fill="#0071CE"/>
<path d="M373.544 619.575C310.305 619.575 249.179 647.58 199.905 699.522C145.964 756.385 112.723 834.974 106.306 920.81C99.8871 1006.65 121.065 1089.3 165.935 1153.54C210.377 1217.16 272.782 1255.03 341.662 1260.17C367.064 1262.07 392.456 1259.41 417.138 1252.29C425.192 1250 433.261 1247.19 441.145 1243.92C472.897 1228.03 503.105 1192.9 526.233 1144.96C526.323 1144.78 526.413 1144.6 526.508 1144.42L528.522 1140.22C529.246 1138.63 530.036 1136.91 530.83 1135.15C531.605 1133.4 532.329 1131.76 533.039 1130.1C533.833 1128.27 534.558 1126.53 535.287 1124.78C536.016 1123.03 536.721 1121.26 537.425 1119.49L537.795 1118.55C538.375 1117.08 538.944 1115.63 539.504 1114.14C540.213 1112.28 540.893 1110.46 541.552 1108.66C544.755 1099.94 547.698 1091.07 550.306 1082.29C550.636 1081.25 550.881 1080.4 551.125 1079.56L551.505 1078.27C551.9 1076.95 552.265 1075.62 552.634 1074.29C553.789 1070.19 554.873 1066.13 555.922 1062C556.462 1059.91 556.966 1057.86 557.451 1055.8C558.4 1051.96 559.265 1048.16 560.129 1044.06C560.664 1041.68 561.143 1039.39 561.603 1037.07C561.963 1035.34 562.297 1033.69 562.617 1032.04C565.845 1015.37 568.383 998.042 570.162 980.513C570.387 978.372 570.581 976.261 570.776 974.155C570.786 974.05 570.801 973.945 570.811 973.84C570.831 973.666 570.836 973.476 570.851 973.281C570.856 973.186 570.866 973.032 570.876 972.937C571.021 971.315 571.166 969.693 571.286 968.071C571.591 964.582 571.83 961.208 572.025 957.789C572.2 955.069 572.375 952.389 572.495 949.733C572.62 947.143 572.745 944.578 572.84 942.017C572.895 940.635 572.94 939.427 572.96 938.209L572.965 938.094C575.188 867.012 565.085 800.142 543.746 744.721C523.46 692.03 494.137 654.248 461.151 638.292L461.051 638.252C457.568 636.704 454.695 635.506 452.007 634.478C431.897 626.568 410.922 621.766 389.568 620.174C384.216 619.77 378.875 619.575 373.544 619.575ZM357.581 1280.29C351.795 1280.29 345.999 1280.07 340.203 1279.64C265.358 1274.06 197.777 1233.24 149.901 1164.71C102.467 1096.8 80.0615 1009.67 86.8131 919.358C93.5662 829.05 128.691 746.208 185.715 686.091C243.259 625.435 316.171 595.104 391.027 600.699C414.335 602.441 437.233 607.681 459.082 616.276C461.94 617.369 465.038 618.657 468.72 620.289C469.03 620.414 469.335 620.548 469.625 620.703C546.569 657.672 597.187 788.447 592.505 938.643C592.475 939.956 592.431 941.264 592.381 942.596C592.271 945.391 592.146 948.021 592.021 950.652C591.891 953.407 591.716 956.217 591.536 958.972C591.336 962.506 591.077 966.069 590.772 969.633C590.657 971.195 590.507 972.867 590.357 974.539C590.322 975.093 590.282 975.602 590.227 976.086C590.027 978.227 589.827 980.369 589.608 982.51C587.769 1000.59 585.146 1018.51 581.808 1035.73C581.478 1037.46 581.124 1039.2 580.764 1040.94C580.289 1043.34 579.77 1045.79 579.23 1048.21C578.346 1052.4 577.431 1056.41 576.457 1060.35C575.967 1062.45 575.428 1064.64 574.853 1066.84C573.779 1071.1 572.645 1075.33 571.506 1079.38C571.071 1080.94 570.666 1082.4 570.242 1083.83L569.897 1085.01C569.597 1086.03 569.302 1087.04 568.983 1088.04C566.319 1097.01 563.247 1106.27 559.909 1115.38C559.22 1117.25 558.5 1119.17 557.786 1121.05C557.216 1122.56 556.607 1124.12 555.992 1125.68L555.607 1126.65C554.848 1128.57 554.103 1130.44 553.329 1132.29C552.564 1134.13 551.79 1135.98 550.996 1137.81C550.291 1139.46 549.527 1141.2 548.752 1142.94L548.647 1143.18C547.838 1144.97 547.033 1146.73 546.229 1148.49L543.761 1153.65C543.661 1153.86 543.551 1154.07 543.436 1154.28C518.054 1206.56 485.608 1243.65 449.559 1261.55C449.364 1261.65 449.159 1261.74 448.96 1261.82C440.276 1265.43 431.382 1268.54 422.529 1271.06C401.264 1277.2 379.48 1280.29 357.581 1280.29Z" fill="#00046A"/>
<path d="M582.856 938.673C582.831 939.996 582.781 941.319 582.731 942.667C582.631 945.263 582.506 947.859 582.381 950.455C582.256 953.176 582.081 955.922 581.906 958.618C581.706 962.138 581.456 965.608 581.156 969.078C581.031 970.75 580.881 972.423 580.731 974.096C580.706 974.52 580.681 974.944 580.631 975.344C580.431 977.49 580.231 979.637 580.006 981.784C578.18 999.758 575.605 1017.28 572.33 1034.18C572.005 1035.88 571.655 1037.58 571.305 1039.27C570.83 1041.67 570.33 1044.04 569.805 1046.39C568.955 1050.41 568.055 1054.38 567.08 1058.32C566.58 1060.47 566.055 1062.59 565.505 1064.71C564.455 1068.86 563.355 1072.97 562.205 1077.04C561.805 1078.49 561.405 1079.94 560.98 1081.36C560.58 1082.71 560.205 1084.06 559.78 1085.38C557.03 1094.64 554.03 1103.63 550.83 1112.34C550.155 1114.19 549.455 1116.06 548.755 1117.88C548.055 1119.76 547.33 1121.58 546.605 1123.43C545.88 1125.25 545.155 1127.07 544.405 1128.87C543.655 1130.66 542.905 1132.46 542.13 1134.23C541.38 1136.01 540.605 1137.75 539.83 1139.5C539.03 1141.27 538.23 1143.02 537.43 1144.77C536.63 1146.44 535.83 1148.11 535.03 1149.79C535.065 1149.71 535.095 1149.62 535.13 1149.54C511.159 1199.2 479.919 1235.96 445.228 1253.18C436.953 1257.28 428.478 1260.27 419.853 1262.05C412.128 1263.64 404.303 1264.29 396.378 1263.89C302.551 1259.2 233.7 1111.27 242.6 933.505C245.895 867.398 259.52 806.533 280.121 756.327C280.071 756.427 280.021 756.516 279.976 756.616C280.501 755.318 281.051 754.045 281.576 752.747C282.076 751.574 282.576 750.401 283.076 749.227C283.176 748.978 283.276 748.728 283.401 748.478C284.426 746.107 285.476 743.76 286.551 741.439C287.101 740.216 287.651 739.017 288.226 737.819C288.801 736.571 289.401 735.348 290.001 734.1C290.576 732.901 291.151 731.703 291.751 730.53V730.48C292.851 728.308 293.951 726.161 295.051 724.039C300.776 713.081 306.876 702.846 313.301 693.36C313.826 692.561 314.376 691.787 314.926 690.988C319.326 684.648 323.876 678.656 328.576 673.04C329.151 672.341 329.727 671.642 330.327 670.968C333.802 666.924 337.327 663.104 340.952 659.485C341.627 658.786 342.327 658.112 343.002 657.438C343.977 656.514 344.952 655.59 345.927 654.667C346.577 654.068 347.227 653.468 347.902 652.869C352.027 649.175 356.202 645.755 360.477 642.61C361.652 641.761 362.827 640.912 364.002 640.113C364.677 639.664 365.327 639.215 365.977 638.79C373.727 633.648 381.702 629.504 389.802 626.408C390.627 626.084 391.452 625.784 392.303 625.485C393.703 625.01 395.078 624.561 396.478 624.137C397.128 623.937 397.753 623.737 398.403 623.563C405.953 621.441 413.628 620.218 421.378 619.993C422.253 619.968 423.128 619.943 424.003 619.943C425.553 619.943 427.078 619.993 428.628 620.068C429.978 620.143 431.303 620.243 432.628 620.367C433.953 620.492 435.278 620.667 436.603 620.842L436.473 620.852C442.958 621.735 449.328 623.283 455.529 625.535C458.754 626.658 461.929 627.981 465.054 629.504C465.104 629.504 465.129 629.529 465.179 629.554C537.73 664.377 587.506 790.017 582.856 938.673Z" fill="#B0B9C1"/>
<path d="M567.054 858.754C548.982 735.771 491.33 646.042 418.687 642.404C417.164 642.329 415.646 642.289 414.134 642.289C398.268 642.289 382.742 646.436 367.865 654.182C374.514 647.734 381.394 642.129 388.463 637.443C390.125 636.704 391.803 636.01 393.48 635.367C394.194 635.087 394.908 634.828 395.537 634.608C396.835 634.164 398.108 633.75 399.441 633.345L399.836 633.221C400.235 633.096 400.624 632.976 401.139 632.836C408.003 630.905 414.927 629.827 421.827 629.627C422.576 629.602 423.33 629.592 424.078 629.592C425.456 629.592 426.819 629.627 428.127 629.692C429.35 629.762 430.548 629.852 431.742 629.961C432.665 630.051 433.589 630.166 434.517 630.286C434.737 630.331 434.962 630.371 435.181 630.401C441.032 631.199 446.754 632.607 452.315 634.628C455.151 635.616 457.991 636.804 460.757 638.151C460.897 638.216 461.037 638.281 461.181 638.346C494.136 654.297 523.436 692.077 543.705 744.764C556.096 776.97 564.693 813.043 569.286 851.557C568.527 853.938 567.783 856.338 567.054 858.754Z" fill="#DFE3E6"/>
<path d="M400.892 1253.76C399.566 1253.76 398.239 1253.73 396.923 1253.66C355.463 1251.58 317.563 1217.99 290.202 1159.08C261.899 1098.14 248.627 1018.12 252.845 933.765C255.966 871.068 268.654 810.96 289.539 759.946C289.619 759.747 289.693 759.547 289.758 759.343L290.167 758.36C290.451 757.682 290.73 757.003 290.94 756.494L292.436 752.967C292.46 752.907 292.5 752.793 292.525 752.733C292.6 752.578 292.67 752.429 292.74 752.269C293.727 749.979 294.739 747.709 295.826 745.36C296.339 744.212 296.853 743.09 297.456 741.833C297.875 740.92 298.309 740.022 298.742 739.114L299.211 738.146C299.734 737.054 300.253 735.966 300.801 734.899C300.901 734.704 300.991 734.504 301.081 734.3C302.073 732.334 303.065 730.394 304.047 728.498C309.526 717.997 315.454 708 321.756 698.676C322.07 698.197 322.394 697.728 322.723 697.254L323.236 696.516C327.474 690.395 331.871 684.598 336.403 679.176C336.882 678.587 337.366 677.998 337.974 677.31C340.382 674.506 342.815 671.812 345.293 669.218C352.616 663.327 360.155 658.333 367.867 654.317C318.012 702.682 281.118 798.663 275.534 910.708C267.308 1075.01 329.503 1211.65 414.458 1215.91C415.804 1215.98 417.155 1216.01 418.501 1216.01C466.921 1216.02 511.96 1172.65 542.751 1104.55C542.268 1105.91 541.774 1107.27 541.281 1108.63C540.622 1110.42 539.944 1112.24 539.237 1114.1C538.678 1115.59 538.11 1117.04 537.531 1118.5L537.162 1119.45C536.459 1121.22 535.757 1122.98 535.029 1124.73C534.301 1126.48 533.578 1128.23 532.785 1130.05C532.077 1131.71 531.354 1133.35 530.581 1135.1C529.789 1136.86 529.001 1138.58 528.278 1140.17L526.269 1144.38C526.174 1144.55 526.084 1144.72 525.995 1144.9C502.847 1192.97 472.589 1228.15 440.816 1243.96C433.218 1247.72 425.501 1250.43 417.863 1252C412.214 1253.17 406.525 1253.76 400.892 1253.76Z" fill="#848CAB"/>
<path d="M344.949 668.791C345.912 667.797 346.885 666.818 347.859 665.854C348.25 665.458 348.646 665.072 349.043 664.686L352.455 661.467C353.062 660.918 353.669 660.364 354.326 659.785C358.295 656.279 362.294 653.06 366.277 650.162C367.336 649.41 368.39 648.658 369.378 647.995L371.345 646.695C376.889 643.065 382.584 639.964 388.369 637.432C381.264 642.076 374.35 647.63 367.667 654.019C359.905 658 352.319 662.95 344.949 668.791Z" fill="#A7ABC7"/>
<path d="M289.485 759.014C289.42 759.219 289.345 759.419 289.265 759.619C268.335 810.703 255.62 870.893 252.492 933.677C248.265 1018.15 261.565 1098.27 289.93 1159.3C317.35 1218.3 355.332 1251.93 396.882 1254.01C403.812 1254.35 410.872 1253.8 417.867 1252.36C425.521 1250.78 433.256 1248.07 440.87 1244.3C472.712 1228.47 503.035 1193.24 526.233 1145.11C526.323 1144.93 526.413 1144.75 526.508 1144.58L528.522 1140.37C529.246 1138.78 530.036 1137.05 530.83 1135.29C531.605 1133.54 532.329 1131.89 533.039 1130.23C533.833 1128.41 534.557 1126.66 535.287 1124.91C536.016 1123.16 536.721 1121.39 537.425 1119.61L537.795 1118.67C538.375 1117.2 538.944 1115.75 539.504 1114.26C540.213 1112.4 540.893 1110.58 541.552 1108.78C544.755 1100.05 547.698 1091.17 550.306 1082.38C550.636 1081.34 550.881 1080.49 551.125 1079.65L551.505 1078.36C551.9 1077.03 552.265 1075.7 552.634 1074.37C553.789 1070.27 554.873 1066.21 555.922 1062.08C556.462 1059.98 556.966 1057.94 557.451 1055.87C558.4 1052.02 559.265 1048.22 560.129 1044.12C560.664 1041.74 561.143 1039.44 561.603 1037.12C561.963 1035.4 562.297 1033.74 562.617 1032.08C565.845 1015.4 568.383 998.059 570.162 980.515C570.387 978.372 570.581 976.259 570.776 974.151C570.786 974.046 570.801 973.941 570.811 973.836C570.831 973.661 570.836 973.471 570.851 973.276C570.856 973.181 570.866 973.027 570.876 972.932C571.021 971.308 571.166 969.685 571.286 968.061C571.591 964.569 571.83 961.192 572.025 957.77C572.2 955.048 572.375 952.365 572.495 949.708C572.62 947.115 572.745 944.547 572.84 941.985C572.895 940.601 572.94 939.392 572.96 938.173L572.965 938.058C575.188 866.912 565.085 799.982 543.746 744.512C523.46 691.775 494.137 653.959 461.156 637.993C461.011 637.928 460.871 637.863 460.731 637.798C457.963 636.449 455.12 635.26 452.282 634.271C446.716 632.248 440.99 630.839 435.134 630.04C434.915 630.01 434.69 629.97 434.47 629.925C433.541 629.805 432.616 629.69 431.692 629.6C430.498 629.491 429.299 629.401 428.075 629.331C426.051 629.231 423.898 629.201 421.769 629.266C414.864 629.466 407.934 630.545 401.064 632.478C400.55 632.618 400.16 632.738 399.76 632.863L399.365 632.987C398.031 633.392 396.757 633.807 395.458 634.251C394.829 634.471 394.114 634.731 393.4 635.011C385.91 637.878 378.545 641.715 371.426 646.445L369.467 647.759C368.483 648.429 367.434 649.188 366.379 649.947C362.412 652.875 358.43 656.127 354.478 659.668C353.823 660.253 353.219 660.812 352.614 661.367L349.217 664.619C348.822 665.009 348.427 665.398 348.038 665.798C344.55 669.295 341.148 672.977 337.805 676.868C337.195 677.557 336.711 678.147 336.231 678.736C331.689 684.166 327.283 689.971 323.036 696.101L322.521 696.84C322.191 697.315 321.867 697.784 321.552 698.264C315.236 707.6 309.296 717.611 303.805 728.127C302.82 730.025 301.826 731.968 300.832 733.937C300.742 734.142 300.652 734.341 300.552 734.536C300.002 735.605 299.483 736.694 298.958 737.788L298.488 738.757C298.054 739.667 297.619 740.566 297.199 741.48C296.595 742.739 296.08 743.863 295.566 745.012C294.476 747.365 293.462 749.638 292.473 751.93C292.403 752.09 292.333 752.24 292.258 752.395C292.233 752.455 292.193 752.57 292.168 752.63L290.669 756.162C290.459 756.671 290.179 757.351 289.895 758.03L289.485 759.014ZM400.894 1273.66C399.225 1273.66 397.562 1273.61 395.903 1273.53C346.764 1271.07 302.83 1233.42 272.203 1167.54C242.524 1103.68 228.589 1020.28 232.966 932.703C236.184 868.116 249.259 806.052 270.794 753.149C270.858 752.95 270.933 752.745 271.013 752.545C271.288 751.861 271.573 751.181 271.858 750.502L274.181 744.982C274.276 744.742 274.426 744.392 274.601 744.008C275.635 741.62 276.694 739.252 277.778 736.914C278.313 735.72 278.898 734.441 279.507 733.167C279.912 732.288 280.397 731.284 280.886 730.27L281.286 729.441C281.826 728.312 282.335 727.253 282.85 726.224C282.935 726.024 283.025 725.829 283.125 725.639C284.239 723.436 285.348 721.263 286.462 719.115C292.303 707.915 298.633 697.265 305.284 687.434C305.613 686.929 306.033 686.32 306.463 685.705L306.942 685.006C311.549 678.362 316.316 672.082 321.142 666.312C321.772 665.548 322.416 664.769 323.081 664.015C326.633 659.873 330.375 655.822 334.098 652.105C334.467 651.716 334.972 651.216 335.477 650.722L336.141 650.062C336.201 649.997 336.266 649.937 336.331 649.877L339.254 647.105C340.038 646.375 340.733 645.736 341.457 645.097C345.839 641.16 350.316 637.508 354.723 634.261L354.933 634.111C356.137 633.242 357.341 632.373 358.545 631.554L360.663 630.13C368.927 624.64 377.581 620.139 386.33 616.792C387.179 616.457 388.114 616.118 389.078 615.778C390.682 615.233 392.156 614.749 393.655 614.294L393.974 614.199C394.609 614 395.233 613.81 395.878 613.635C404.177 611.297 412.696 609.978 421.09 609.733C424.092 609.653 426.461 609.688 429.089 609.813C430.638 609.898 432.087 610.008 433.531 610.143C434.975 610.283 436.414 610.468 437.853 610.658C438.127 610.698 438.402 610.742 438.672 610.802C445.592 611.807 452.372 613.51 458.842 615.863C462.17 617.022 465.607 618.451 468.96 620.069C469.185 620.164 469.41 620.269 469.624 620.384C546.569 657.385 597.187 788.273 592.505 938.603C592.475 939.916 592.431 941.225 592.381 942.564C592.271 945.361 592.146 947.994 592.021 950.622C591.891 953.384 591.716 956.197 591.536 958.954C591.336 962.491 591.077 966.058 590.772 969.625C590.657 971.188 590.507 972.862 590.357 974.54C590.322 975.09 590.282 975.599 590.227 976.079C590.032 978.222 589.827 980.37 589.608 982.513C587.769 1000.61 585.146 1018.54 581.808 1035.79C581.478 1037.51 581.124 1039.25 580.764 1041C580.289 1043.39 579.77 1045.85 579.23 1048.27C578.346 1052.47 577.431 1056.48 576.457 1060.42C575.967 1062.52 575.428 1064.72 574.853 1066.92C573.779 1071.18 572.645 1075.41 571.506 1079.47C571.071 1081.03 570.666 1082.49 570.242 1083.93L569.897 1085.11C569.597 1086.12 569.302 1087.14 568.983 1088.14C566.319 1097.12 563.247 1106.39 559.909 1115.5C559.22 1117.38 558.5 1119.3 557.786 1121.17C557.216 1122.69 556.607 1124.25 555.992 1125.81L555.607 1126.78C554.848 1128.71 554.103 1130.58 553.329 1132.43C552.564 1134.27 551.79 1136.12 550.996 1137.95C550.291 1139.61 549.527 1141.35 548.752 1143.08L548.647 1143.32C547.838 1145.12 547.033 1146.88 546.229 1148.64L543.761 1153.81C543.661 1154.02 543.551 1154.23 543.436 1154.43C518.054 1206.77 485.608 1243.88 449.559 1261.81C440.431 1266.33 431.102 1269.58 421.819 1271.49C414.874 1272.93 407.854 1273.66 400.894 1273.66Z" fill="#00046A"/>
<path d="M512.975 949.094C516.142 859.68 485.736 786.033 445.062 784.598C404.389 783.167 368.847 854.487 365.679 943.9C362.511 1033.31 392.918 1106.96 433.591 1108.4C474.265 1109.83 509.807 1038.51 512.975 949.094Z" fill="#B0B9C1"/>
<path d="M433.243 1101.18C432.662 1101.18 432.076 1101.17 431.501 1101.13C426.595 1100.76 421.799 1099.12 417.334 1096.44C412.878 1093.71 408.799 1090 405.139 1085.77C401.82 1081.96 398.867 1077.73 396.208 1073.25C438.449 1071.55 471.243 1017.83 471.243 949.547C471.243 882.921 440.016 830.159 399.252 826.054C401.795 821.614 404.563 817.334 407.592 813.324C414.47 804.18 423.046 796.264 432.747 792.918C435.891 791.765 439.125 791.21 442.354 791.21C449.027 791.21 455.694 793.573 461.566 797.862C470.347 804.205 477.526 813.594 483.663 823.647C489.715 833.835 494.826 844.817 499.717 856.113L499.727 856.138C500.203 857.232 501.294 857.961 502.505 857.961C502.666 857.961 502.826 857.951 502.991 857.921C503.116 857.901 503.236 857.876 503.356 857.841C510.525 883.955 514.149 915.253 512.988 948.763C512.983 948.853 512.978 948.938 512.978 949.028C512.973 949.127 512.968 949.227 512.968 949.327C511.937 977.743 507.586 1004.32 500.798 1027.32C500.463 1027.21 500.122 1027.16 499.782 1027.16C498.521 1027.16 497.314 1027.88 496.748 1029.1L496.744 1029.11C491.562 1040.28 486.451 1051.28 480.379 1061.54C478.867 1064.11 477.42 1066.7 475.743 1069.12C474.152 1071.62 472.474 1074.01 470.757 1076.37C469.936 1077.58 469.045 1078.72 468.109 1079.81L465.366 1083.16C463.399 1085.2 461.576 1087.44 459.449 1089.24C451.845 1096.59 442.489 1101.18 433.243 1101.18Z" fill="#848CAB"/>
<path d="M502.896 1031C500.799 1043.46 496.905 1055.63 491.527 1067.31C490.104 1070.19 488.731 1073.11 487.083 1075.91C486.274 1077.32 485.525 1078.76 484.661 1080.13L481.945 1084.22C481.071 1085.6 480.102 1086.93 479.074 1088.23L476.053 1092.16C473.786 1094.63 471.689 1097.21 469.128 1099.47C466.751 1101.88 463.97 1103.95 461.243 1106.07C458.297 1107.98 455.371 1109.91 452.041 1111.35C445.53 1114.36 438.06 1115.99 430.585 1115.6C423.111 1115.16 415.88 1112.68 409.719 1109.04C403.557 1105.35 398.359 1100.65 393.866 1095.58C384.858 1085.39 378.621 1073.74 373.459 1061.89C368.46 1049.97 364.745 1037.67 361.954 1025.25C356.402 1000.38 354.205 974.999 354.654 949.734C355.223 924.479 358.219 899.228 364.446 874.582C367.532 862.263 371.491 850.104 376.519 838.295C381.652 826.53 387.769 815.034 395.898 804.566C399.952 799.345 404.511 794.372 409.829 790.014C415.131 785.665 421.258 781.914 428.189 779.62C431.619 778.413 435.299 777.78 438.979 777.416C440.831 777.391 442.699 777.261 444.546 777.416C446.384 777.635 448.256 777.73 450.059 778.104C457.344 779.506 464.064 782.747 469.642 786.931C475.274 791.101 479.893 796.148 483.972 801.399C484.966 802.731 485.895 804.107 486.858 805.454L489.445 809.643C491.187 812.426 492.64 815.334 494.083 818.231C499.621 829.921 503.331 842.195 505.323 854.653C505.588 856.304 504.464 857.855 502.816 858.114C501.418 858.338 500.095 857.57 499.561 856.333L499.551 856.308C494.673 845.027 489.575 834.061 483.538 823.887C477.416 813.847 470.256 804.471 461.498 798.138C452.805 791.774 442.359 789.659 432.752 793.2C423.076 796.542 414.522 804.447 407.662 813.578C404.201 818.166 401.081 823.109 398.245 828.246C395.448 833.422 392.927 838.779 390.615 844.249C386.131 855.261 382.376 866.667 379.55 878.352C373.778 901.692 371.027 925.87 370.612 950.023C370.133 974.166 372.12 998.409 377.258 1021.83C379.825 1033.53 383.285 1044.99 387.769 1055.91C392.318 1066.73 397.87 1077.2 405.215 1085.66C408.865 1089.87 412.934 1093.58 417.378 1096.3C421.832 1098.99 426.616 1100.62 431.509 1100.99C441.291 1101.61 451.322 1096.92 459.386 1089.11C461.508 1087.32 463.325 1085.08 465.288 1083.04L468.024 1079.7C468.958 1078.61 469.847 1077.47 470.665 1076.26C472.378 1073.91 474.051 1071.52 475.639 1069.03C477.311 1066.61 478.754 1064.02 480.262 1061.46C486.319 1051.2 491.417 1040.23 496.585 1029.07L496.59 1029.06C497.364 1027.38 499.341 1026.66 501.009 1027.43C502.402 1028.07 503.136 1029.56 502.896 1031Z" fill="#00046A"/>
<path d="M464.354 949.514C464.354 1013.96 432.945 1066.21 394.222 1066.21C390.465 1066.21 386.758 1065.71 383.151 1064.76C369 1034.55 360.96 991.348 362.663 943.648C364.191 900.74 373.308 862.001 386.959 833.446C389.338 833.022 391.768 832.822 394.222 832.822C432.945 832.822 464.354 885.065 464.354 949.514Z" fill="#B0B9C1"/>
<path d="M394.426 1059.57C392.392 1059.57 390.348 1059.4 388.309 1059.04C375.047 1028.84 368.349 987.134 369.892 943.872C370.553 925.242 372.678 907.093 376.119 890.111C375.794 894.54 375.548 899.018 375.388 903.547C373.85 946.833 380.278 986.433 391.991 1016.03C394.421 1022.17 400.232 1026.51 406.84 1026.53H406.95C423.128 1026.53 438.017 1017.38 449.881 1002.01C439.174 1036.27 418.333 1059.57 394.426 1059.57Z" fill="#848CAB"/>
<path d="M388.275 1058.9C390.3 1059.26 392.33 1059.43 394.35 1059.43C428.908 1059.43 457.017 1010.26 457.017 949.815C457.017 889.371 428.908 840.198 394.35 840.198C393.504 840.198 392.668 840.228 391.848 840.282C379.101 868.666 371.36 905.381 369.987 944.202C368.454 987.288 375.106 1028.83 388.275 1058.9ZM394.35 1073.44C390.081 1073.44 385.783 1072.88 381.574 1071.76C379.569 1071.23 377.902 1069.83 377.026 1067.95C362.021 1035.73 354.37 990.442 356.026 943.703C357.524 901.42 366.33 861.322 380.832 830.808C381.803 828.767 383.688 827.321 385.907 826.922C388.619 826.438 391.459 826.188 394.35 826.188C437.326 826.188 470.988 880.495 470.988 949.815C470.988 1019.14 437.326 1073.44 394.35 1073.44Z" fill="#00046A"/>
<path d="M425.577 928.105C418.167 928.105 409.451 916.246 405.457 900.209C401.174 882.997 403.952 867.492 411.67 865.582C412.194 865.452 412.732 865.388 413.276 865.388C420.685 865.388 429.401 877.252 433.395 893.289C437.678 910.501 434.901 926.001 427.187 927.911C426.658 928.046 426.12 928.105 425.577 928.105Z" fill="#DFE3E6"/>
<path d="M902.173 679.929L880.454 1290.63C879.058 1290.68 877.662 1290.75 876.265 1290.78C835.496 1292.37 796.422 1292.22 760.664 1288.66C721.341 1284.74 683.613 1270.19 653.042 1245.17C603.42 1204.56 574.37 1143.66 562.426 1076.38C551.081 1012.44 555.17 942.718 571.777 879.104C583.846 832.753 602.573 789.645 626.81 754.37C657.905 709.017 698.126 676.661 744.98 667.056C800.686 656.603 853.549 658.749 902.173 679.929Z" fill="#B0B9C1"/>
<path d="M700.716 879.258H581.95C594.971 830.268 614.579 787.805 638.735 754.425H754.424C753.422 755.878 752.429 757.351 751.447 758.839C728.822 793.038 711.627 834.158 700.716 879.258Z" fill="#DFE3E6"/>
<path d="M664.569 723.668C689.293 698.97 717.271 682.607 746.919 676.548C768.082 672.585 788.112 670.599 807.154 670.599C823.223 670.599 838.589 672.013 853.326 674.85C844.994 677.389 836.793 680.755 828.756 684.937C818.329 683.677 807.758 683.07 797.047 683.07C776.857 683.07 756.183 685.215 735.101 689.163C709.468 694.4 685.826 706.438 664.569 723.668Z" fill="#DFE3E6"/>
<path d="M809.905 1282.1C792.457 1281.71 776.491 1280.77 761.488 1279.27C722.832 1275.42 687.42 1261.12 659.093 1237.94C612.573 1199.86 585.579 1143.72 573.507 1082.49C587.371 1088.67 602.598 1092.82 617.725 1095.29C626.757 1096.78 636.183 1097.65 645.548 1097.65C663.257 1097.65 680.77 1094.52 695.084 1086.42C703.077 1128.98 716.811 1168.26 735.757 1201.8C756.346 1238.24 781.668 1265.45 809.905 1282.1Z" fill="#848CAB"/>
<path d="M807.14 670.677C788.075 670.677 768.02 672.669 746.831 676.644C672.082 691.948 607.942 772.798 579.611 887.611C550.495 1005.62 563.817 1159.62 659.23 1237.65C687.571 1260.84 723.001 1275.13 761.676 1278.98C792.54 1282.05 827.48 1282.78 871.016 1281.25L892.204 686.271C866.046 675.86 837.884 670.677 807.14 670.677ZM829.862 1302C803.779 1302 780.847 1300.96 759.698 1298.85C717.092 1294.61 677.976 1278.79 646.578 1253.11C600.115 1215.11 568.057 1157.51 553.872 1086.52C541.195 1023.11 543.447 950.77 560.215 882.827C590.41 760.459 660.444 673.943 742.985 657.046C805.297 645.357 858.703 649.786 906.42 670.557C910.186 672.195 912.564 675.97 912.419 680.069L890.651 1291.23C890.466 1296.45 886.295 1300.64 881.081 1300.86C862.649 1301.62 845.676 1302 829.862 1302Z" fill="#00046A"/>
<path d="M1071.92 991.725C1070.77 1024.47 1066.5 1055.9 1059.62 1085.25C1031.05 1207.48 957.251 1294.04 873.869 1291.07C770.478 1287.42 691.488 1147.46 697.45 978.46C697.65 972.915 697.925 967.394 698.299 961.923C709.252 800.822 795.452 675.568 895.475 679.115C998.891 682.762 1077.88 822.73 1071.92 991.725Z" fill="#0096F0"/>
<path d="M887.237 1271.24C885.915 1271.24 884.602 1271.22 883.274 1271.17C784.965 1267.71 709.856 1134.8 715.527 974.321C715.716 969.059 715.981 963.812 716.335 958.621C719.705 935.776 723.094 912.957 726.463 890.112C728.245 953.494 730.591 1019.18 758.894 1075.9C764.754 1087.66 772.012 1099.24 782.903 1106.6C789.153 1110.81 796.845 1113.33 804.332 1113.33C809.883 1113.33 815.324 1111.95 819.981 1108.85C826.704 1104.35 830.882 1097.01 832.904 1089.08C842.233 1113.84 855.416 1136.32 873.061 1154.94C892.164 1175.09 919.303 1186.65 947.511 1186.65H1010.12C1007.31 1191.46 1004.39 1196.15 1001.37 1200.71C992.765 1213.71 983.59 1225.23 973.961 1235.21C947.935 1258.19 918.335 1271.24 887.237 1271.24Z" fill="#0071CE"/>
<path d="M891.328 689.353C795.086 689.353 712.875 817.911 707.184 978.828C704.361 1058.65 720.69 1134.23 753.163 1191.63C784.758 1247.47 827.749 1279.12 874.224 1280.77C920.703 1282.4 965.824 1253.86 1001.28 1200.38C1037.73 1145.42 1059.36 1071.18 1062.19 991.355C1067.95 828.321 993.021 692.876 895.145 689.422C893.871 689.377 892.597 689.353 891.328 689.353ZM878.066 1300.79C876.547 1300.79 875.038 1300.76 873.519 1300.71C819.83 1298.82 770.907 1263.57 735.765 1201.45C701.502 1140.89 684.254 1061.58 687.207 978.12C690.16 894.667 712.965 816.768 751.425 758.777C790.874 699.294 842.2 667.608 895.85 669.47C949.539 671.366 998.457 706.615 1033.6 768.733C1067.87 829.294 1085.12 908.605 1082.16 992.058C1079.21 1075.52 1056.4 1153.41 1017.94 1211.41C979.615 1269.21 930.092 1300.79 878.066 1300.79Z" fill="#00046A"/>
<path d="M1100.62 884.116C1093.19 884.116 1086.41 891.901 1082.96 896.662C1072.14 911.517 1064.48 936.054 1062.44 962.315C1060.44 987.741 1063.76 1011.83 1071.55 1028.41C1076.44 1038.87 1082.74 1045.15 1088.84 1045.63C1095.93 1046.22 1104.43 1039.05 1111.58 1026.51C1120.28 1011.26 1126.06 990.301 1127.84 967.485C1131.44 921.273 1116.88 885.371 1101.44 884.151C1101.17 884.126 1100.89 884.116 1100.62 884.116ZM1089.72 1066.21C1088.89 1066.21 1088.06 1066.17 1087.23 1066.11C1073.43 1065.01 1061.31 1054.73 1053.1 1037.17C1043.84 1017.46 1039.83 989.586 1042.1 960.71C1044.45 930.358 1053.35 902.592 1066.49 884.541C1077 870.055 1089.99 862.63 1103.04 863.675C1133.28 866.07 1152.68 911.392 1148.18 969.095C1146.16 994.886 1139.45 1018.91 1129.27 1036.74C1118.37 1055.84 1104.41 1066.21 1089.72 1066.21Z" fill="#00046A"/>
<path d="M1177.3 972.807C1165.1 1091.23 1107.67 1182.32 1048.97 1176.28C1048.45 1176.23 1047.9 1176.16 1047.38 1176.08C989.626 1168.39 952.695 1068.27 964.764 950.915C976.534 836.509 1030.55 747.616 1087.1 747.192C1089.1 747.167 1091.07 747.267 1093.06 747.466C1151.76 753.507 1189.47 854.408 1177.3 972.807Z" fill="#0096F0"/>
<path d="M974.54 952.83C974.575 952.486 974.61 952.137 974.65 951.788C974.95 948.869 975.279 945.966 975.639 943.073C988.253 841.674 1036.19 760.013 1085.14 757.499C1085.78 757.465 1086.42 757.445 1087.06 757.445C1087.12 757.44 1087.18 757.44 1087.24 757.44C1087.36 757.44 1087.47 757.44 1087.58 757.44C1088.97 757.44 1090.4 757.514 1091.92 757.664C1093.22 757.799 1094.52 757.988 1095.81 758.238C1098.47 758.856 1101.01 759.58 1103.41 760.413C1106.08 761.43 1108.7 762.707 1111.27 764.228C1111.85 764.902 1112.41 765.595 1112.95 766.304C1113.03 766.004 1113.1 765.715 1113.18 765.411C1127.28 774.544 1139.69 791.304 1149.43 814.624C1146.85 810.129 1144.13 805.939 1141.27 802.083C1139.69 799.954 1137.21 798.786 1134.73 798.786C1133.08 798.786 1131.41 799.31 1130.02 800.412L1129.96 800.462C1124.08 805.151 1120.79 812.329 1118.38 819.452C1113.24 834.666 1111.27 851.311 1114.59 866.919C1110.91 865.109 1107.01 864.006 1102.91 863.687C1102.09 863.622 1101.28 863.587 1100.46 863.587C1089.23 863.587 1078.15 869.733 1068.76 881.135C1073.01 861.692 1074.24 841.335 1067.66 822.709C1065.15 815.601 1061.37 808.678 1055.35 804.124C1055.3 804.084 1055.25 804.044 1055.2 804.004C1052.17 801.754 1048.65 800.697 1045.13 800.697C1039.75 800.697 1034.37 803.161 1030.76 807.635C1004.68 839.958 983.782 891.865 974.54 952.83Z" fill="#99D5F9"/>
<path d="M1054.42 1166.31C1052.93 1166.31 1051.44 1166.24 1049.95 1166.08C1049.62 1166.05 1049.28 1166.01 1048.88 1165.95C1048.82 1165.94 1048.77 1165.93 1048.71 1165.92C1041.93 1165.02 1035.45 1162.52 1029.34 1158.62H1039.87C1033.6 1157.78 1027.56 1155.85 1021.81 1152.93C992.013 1126.82 972.731 1065.34 972.731 993.819C972.731 980.793 973.37 967.447 974.702 953.906C974.682 1048.98 1006.04 1124.15 1051.78 1130.7C1052.26 1130.77 1052.76 1130.84 1053.23 1130.89C1054.91 1131.08 1056.58 1131.17 1058.26 1131.17C1109.13 1131.16 1157.81 1046.42 1169.33 936.548C1169.1 948.137 1168.38 959.926 1167.16 971.829C1156.08 1079.33 1105.12 1166.32 1054.42 1166.31Z" fill="#0071CE"/>
<path d="M1137.98 968.292C1134.06 1018.55 1111.7 1057.76 1088.06 1055.89C1077.69 1055.06 1068.75 1046.46 1062.38 1032.81C1054.19 1015.35 1050.12 989.697 1052.33 961.516C1054.61 932.083 1063.24 906.427 1074.76 890.598C1082.87 879.396 1092.45 873.119 1102.25 873.894C1125.9 875.77 1141.9 918.03 1137.98 968.292Z" fill="#FFEB52"/>
<path d="M1089.57 1045.7C1089.3 1045.7 1089.02 1045.69 1088.75 1045.67C1082.62 1045.18 1076.29 1038.89 1071.37 1028.38C1068.37 1022 1066.03 1014.51 1064.4 1006.26C1069.99 1019.33 1077.71 1027.53 1086.64 1028.34C1087.12 1028.39 1087.59 1028.41 1088.08 1028.41C1105.46 1028.4 1121.81 1000.19 1128.32 961.273C1128.23 963.24 1128.11 965.228 1127.95 967.235C1126.16 990.135 1120.36 1011.17 1111.61 1026.48C1104.69 1038.57 1096.53 1045.7 1089.57 1045.7Z" fill="#BFB158"/>
<path d="M1100.56 884.194C1093.11 884.194 1086.3 891.968 1082.84 896.72C1071.98 911.553 1064.28 936.052 1062.23 962.272C1060.23 987.659 1063.56 1011.71 1071.38 1028.26C1076.29 1038.71 1082.62 1044.98 1088.74 1045.46C1095.85 1046.05 1104.39 1038.89 1111.57 1026.37C1120.31 1011.14 1126.1 990.216 1127.89 967.435C1131.51 921.294 1116.89 885.447 1101.39 884.229C1101.12 884.204 1100.84 884.194 1100.56 884.194ZM1089.62 1066C1088.79 1066 1087.96 1065.97 1087.13 1065.9C1073.27 1064.81 1061.1 1054.54 1052.86 1037.01C1043.56 1017.34 1039.54 989.502 1041.81 960.67C1044.18 930.365 1053.1 902.642 1066.31 884.619C1076.85 870.155 1089.89 862.741 1103 863.785C1133.35 866.176 1152.83 911.428 1148.31 969.042C1146.29 994.794 1139.55 1018.78 1129.33 1036.59C1118.39 1055.65 1104.37 1066 1089.62 1066ZM1087.7 757.444C1087.55 757.444 1087.39 757.444 1087.23 757.444C1036.3 757.828 985.954 845.093 974.963 951.963C963.737 1061.12 997.519 1159.1 1048.74 1165.91C1049.21 1165.98 1049.6 1166.04 1049.98 1166.07C1102.08 1171.4 1155.71 1082.45 1167.11 971.758C1172.84 916.037 1167.53 862.706 1152.16 821.598C1137.7 782.876 1116.34 760.175 1092.03 757.669C1090.51 757.519 1089.09 757.444 1087.7 757.444ZM1054.57 1186.82C1052.36 1186.82 1050.15 1186.7 1047.93 1186.48C1047.31 1186.42 1046.6 1186.32 1045.92 1186.23C981.999 1177.72 941.833 1073.89 954.585 949.861C967.023 828.952 1023.97 737.414 1087.03 736.94C1089.29 736.915 1091.62 737.019 1094.09 737.269H1094.11C1126.57 740.609 1154 768.008 1171.35 814.414C1187.8 858.423 1193.53 915.048 1187.49 973.855C1174.96 1095.52 1117.32 1186.82 1054.57 1186.82Z" fill="#00046A"/>
<path d="M1047.55 1175.96H947.582C922.297 1175.96 897.961 1165.8 880.563 1147.46C830.143 1094.28 817.812 1006.37 828.57 925.989C832.24 898.314 838.68 871.512 847.241 847.356C856.002 822.551 867.01 800.491 879.59 783.048C897.337 758.417 926.166 744.218 956.543 744.792L1087.31 747.213C1047.37 747.512 1008.69 791.832 985.223 858.087C976.836 881.819 970.396 908.371 966.553 936.719C965.904 941.386 965.354 946.102 964.855 950.869C952.774 1068.18 989.741 1168.27 1047.55 1175.96Z" fill="#FFEB52"/>
<path d="M956.337 935.943L838.852 926.836C842.576 899.277 849.104 872.518 857.848 848.5L974.54 857.547C966.365 881.317 960.126 907.727 956.337 935.943Z" fill="#FFF7BA"/>
<path d="M1039.67 1158.47H1029.12C1026.54 1156.9 1024.03 1155.09 1021.58 1153.05C1027.34 1155.84 1033.38 1157.68 1039.67 1158.47Z" fill="#0056B5"/>
<path d="M998.662 1158.47H940.021C924.132 1158.47 908.621 1154.46 894.974 1146.92C892.543 1144.92 890.232 1142.76 888.045 1140.46C870.696 1122.19 857.392 1098.64 848.501 1071.03C875.687 1088.92 913.413 1098.82 952.583 1098.82H966.988C974.838 1123.12 985.592 1143.49 998.662 1158.47Z" fill="#BFB158"/>
<path d="M954.77 755.02C928.205 755.02 903.303 767.657 887.896 789.033C858.39 829.95 838.331 896.704 835.55 963.25C832.4 1038.5 851.027 1101.42 887.991 1140.41C903.243 1156.49 924.965 1165.71 947.575 1165.71H1005.77C966.277 1128.3 944.85 1045.01 954.65 949.814C963.696 862.027 996.242 789.722 1037.57 756.537L956.347 755.035C955.823 755.025 955.294 755.02 954.77 755.02ZM1047.55 1186.21H947.575C919.363 1186.21 892.219 1174.66 873.113 1154.51C782.815 1059.27 809.325 862.93 871.261 777.05C890.901 749.794 922.798 733.908 956.732 734.542L1087.5 736.962C1093.12 737.067 1097.6 741.659 1097.56 747.264C1097.53 752.874 1093 757.415 1087.39 757.46C1036.45 757.84 986.052 845.077 975.049 951.915C963.811 1061.04 997.63 1158.99 1048.9 1165.8C1054.25 1166.51 1058.14 1171.25 1057.78 1176.64C1057.42 1182.03 1052.95 1186.21 1047.55 1186.21Z" fill="#00046A"/>
<path d="M962.379 794.221C962.155 795.22 961.93 796.243 961.705 797.242L900.836 783.459C937.912 619.437 946.45 476.539 926.152 358.71C908.825 257.985 870.077 178.633 814.076 129.244C747.039 70.0925 658.831 56.1098 565.705 89.8431C479.044 121.254 397.727 189.894 330.591 288.372C254.567 399.909 200.987 545.779 175.646 710.2L113.978 700.712C140.717 527.127 197.792 372.393 279.034 253.216C353.585 143.826 445.389 67.0463 544.458 31.1407C614.14 5.897 683.623 3.10046 746.241 21.6525L746.34 21.6775C785.988 33.4379 822.914 53.7877 855.371 82.4272C922.133 141.329 967.897 233.216 987.671 348.123C1009.22 473.318 1000.7 623.407 962.379 794.221Z" fill="white"/>
<path d="M167.004 698.943L153.78 696.906C179.48 534.892 232.67 391.171 307.765 280.968C374.888 182.481 456.19 113.835 542.833 82.4206C569.472 72.7667 595.697 67.0233 621.149 65.1305C601.718 68.147 581.908 73.2711 561.899 80.5228C473.239 112.666 390.275 182.626 321.979 282.836C246.663 393.364 193.17 537.059 167.004 698.943Z" fill="#BFC0DA"/>
<path d="M953.933 785.18L940.721 782.185C978.131 613.275 986.299 464.763 964.978 340.7C946.816 235.013 906.7 148.819 848.501 89.855C848.586 89.9299 848.676 90.0048 848.76 90.0847C913.692 147.456 958.234 237.294 977.582 349.885C977.602 350.005 977.622 350.12 977.642 350.24C977.657 350.33 977.672 350.41 977.687 350.5C977.692 350.534 977.697 350.564 977.707 350.599C977.767 350.954 977.822 351.293 977.881 351.648C977.886 351.653 977.886 351.668 977.886 351.678C977.901 351.767 977.921 351.862 977.936 351.952C977.941 351.982 977.946 352.012 977.951 352.042C977.966 352.147 977.981 352.242 978.001 352.346C978.006 352.366 978.006 352.371 978.011 352.396C978.031 352.506 978.046 352.616 978.066 352.731C978.066 352.736 978.071 352.746 978.071 352.756C978.131 353.11 978.185 353.46 978.245 353.819C978.25 353.824 978.25 353.824 978.25 353.829C998.406 475.221 990.227 620.289 953.938 785.16L953.933 785.18Z" fill="#BFC0DA"/>
<path d="M912.423 776.185L953.806 785.553C990.559 618.824 998.533 472.344 977.497 350.113C958.115 237.484 913.492 147.616 848.443 90.2254C817.416 62.8459 782.076 43.1315 743.395 31.6264C743.29 31.5965 743.19 31.5716 743.09 31.5416C681.966 13.4301 614.351 16.6459 547.559 40.8395C450.445 76.0388 360.346 151.526 287.004 259.136C208.144 374.826 152.268 524.542 125.137 692.638L167.062 699.09C193.23 537.23 246.73 393.557 322.055 283.045C390.359 182.85 473.333 112.901 562.004 80.7627C658.719 45.7231 750.475 60.3941 820.362 122.059C878.077 172.958 917.946 254.307 935.666 357.309C955.773 474.022 947.949 614.914 912.423 776.185ZM961.375 807.494C960.641 807.494 959.897 807.414 959.168 807.249L898.303 793.467C892.926 792.249 889.555 786.901 890.769 781.523C927.562 618.749 936.045 477.163 915.983 360.699C899.047 262.232 861.41 184.892 807.151 137.04C742.991 80.4231 658.344 67.1054 568.804 99.5383C484.103 130.243 404.489 197.586 338.562 294.295C263.377 404.597 210.361 549.035 185.246 711.993C184.403 717.441 179.32 721.186 173.857 720.342L112.193 710.855C109.575 710.45 107.224 709.022 105.657 706.89C104.093 704.753 103.439 702.081 103.842 699.464C130.803 524.432 188.432 368.279 270.502 247.886C346.221 136.79 439.67 58.7013 540.754 22.0639C611.54 -3.57785 683.419 -6.93857 748.623 12.3464C748.703 12.3714 748.788 12.3915 748.867 12.4164V12.4114C790.434 24.7453 828.381 45.8829 861.655 75.2448C930.154 135.681 977.018 229.554 997.18 346.722C1018.94 473.193 1010.41 624.582 971.79 796.673L971.116 799.699C970.537 802.286 968.949 804.533 966.707 805.951C965.1 806.965 963.247 807.494 961.375 807.494Z" fill="#00046A"/>
<path d="M1130.71 766.301C1099.63 729.221 997.212 744.203 962.239 796.639L962.139 794.267C976.678 729.446 986.945 667.621 992.89 609.018C1002.61 513.135 1000.83 425.867 987.444 348.162C985.745 338.274 983.847 328.586 981.749 319.047C969.833 264.389 951.697 215.549 927.89 173.7C907.631 137.943 883.2 107.281 855.072 82.4612C822.597 53.8212 785.651 33.4711 745.981 21.7104C876.505 42.3352 987.219 106.307 1062.11 204.637C1084.47 233.951 1103.63 266.362 1119.14 301.569C1133.88 334.853 1145.35 370.659 1153.22 408.763C1174.57 512.236 1169.48 632.764 1130.71 766.301Z" fill="#0096F0"/>
<path d="M991.188 315.398C979.648 263.239 962.472 216.266 940.166 175.489C975.446 179.821 1010.49 188.951 1044.98 199.627C1056.17 213.337 1066.61 227.773 1076.23 242.895C1088.1 261.523 1098.62 281.061 1107.82 301.425C1105.3 301.41 1102.79 301.4 1100.26 301.4C1076.56 301.4 1052.85 302.181 1029.46 305.945C1016.51 308.044 1003.61 311.117 991.188 315.398Z" fill="#99D5F9"/>
<path d="M835.695 54.5936C844.699 60.9652 853.414 67.8711 861.829 75.3063C930.262 135.742 977.081 229.613 997.224 346.778C1017.67 465.676 1011.35 606.575 978.468 766.015C1001.16 749.067 1031.98 738.061 1064.33 736.289C1088.75 734.951 1109.96 739.48 1125.03 748.937C1177.82 555.238 1160.67 376.059 1076.27 243.015C1020.22 154.657 936.642 89.6873 835.695 54.5936ZM962.226 806.891C961.334 806.891 960.431 806.771 959.538 806.521C955.378 805.353 952.44 801.643 952.26 797.323L952.16 794.951C952.12 794.078 952.2 793.199 952.395 792.345C990.395 622.819 998.86 474.045 977.56 350.168C958.196 237.542 913.616 147.676 848.63 90.2865C817.578 62.8577 782.197 43.1237 743.473 31.6239C738.435 30.1309 735.422 24.9776 736.579 19.8494C737.742 14.7162 742.675 11.3656 747.868 12.1845C895.26 35.5137 1017.87 113.686 1093.12 232.304C1136.67 300.963 1163.24 380.648 1172.1 469.146C1181.45 562.648 1170.65 663.65 1140.01 769.35C1138.98 772.895 1136.09 775.582 1132.48 776.341C1128.88 777.105 1125.15 775.807 1122.78 772.98C1112.82 761.071 1091.37 754.789 1065.41 756.237C1032.29 758.05 990.111 773.04 970.527 802.442C968.646 805.268 965.504 806.891 962.226 806.891Z" fill="#00046A"/>
<path d="M1113.02 766.486C1112.52 765.663 1111.98 764.857 1111.43 764.074C1112.04 764.515 1112.64 764.973 1113.24 765.448C1113.17 765.802 1113.1 766.138 1113.02 766.486Z" fill="#73A1D5"/>
<path d="M1113.13 765.279C1112.58 764.908 1112.02 764.551 1111.46 764.207C1111.26 763.959 1111.05 763.714 1110.83 763.47C1111.67 763.904 1112.47 764.357 1113.24 764.832C1113.21 764.976 1113.17 765.135 1113.13 765.279Z" fill="#00046A"/>
<path d="M978.761 765.883C989.681 712.969 997.673 662.091 1002.73 613.39C1013.22 616.304 1024.16 618.126 1034.89 618.126C1050.45 618.126 1065.58 614.298 1078.29 604.431C1087.86 597.044 1095.32 586.738 1101.57 575.783C1129.62 526.622 1134.03 465.308 1132.32 407.064C1132.68 407.738 1133.06 408.436 1133.42 409.11C1151.51 506.988 1148.4 620.122 1118.59 745.11C1106.14 739.126 1090.53 735.942 1072.94 735.942C1070.22 735.942 1067.44 736.017 1064.62 736.172C1032.28 737.943 1001.45 748.944 978.761 765.883Z" fill="#0071CE"/>
<path d="M961.966 796.639L961.876 794.267C974.938 729.471 984.164 667.669 989.508 609.088C991.1 609.687 992.713 610.236 994.331 610.785C996.965 611.664 999.64 612.488 1002.34 613.231C997.271 661.944 989.247 712.832 978.284 765.758C1001.07 748.815 1032.01 737.813 1064.49 736.04C1067.31 735.886 1070.1 735.811 1072.84 735.811C1090.5 735.811 1106.17 738.996 1118.67 744.981C1117.09 751.591 1115.43 758.245 1113.7 764.924C1112.81 764.4 1111.89 763.901 1110.93 763.422C1100.01 751.466 1081.7 745.8 1061.29 745.8C1024.79 745.8 981.574 763.926 961.966 796.639Z" fill="#00046A"/>
<path d="M858.15 175.49L858.798 170.666C859.177 172.177 859.557 173.688 859.959 175.199C859.356 175.278 858.753 175.384 858.15 175.49Z" fill="#999BC3"/>
</svg>
