<svg width="1035" height="1490" viewBox="0 0 1035 1490" fill="none" xmlns="http://www.w3.org/2000/svg">
<path d="M1013.56 755.922L1012.15 789.244L1011.48 804.933C1010.08 836.538 983.229 860.954 951.613 859.368L312.848 827.143L332.864 696.419H956.62C989.083 696.419 1015.03 723.518 1013.56 755.922Z" fill="#E86B34"/>
<path d="M954.593 880.793C953.246 880.793 951.899 880.757 950.551 880.698L311.774 848.473C299.996 847.876 290.923 837.85 291.519 826.059C292.115 814.28 302.129 805.196 313.932 805.816L952.697 838.029C962.175 838.506 971.415 835.227 978.496 828.789C985.578 822.34 989.703 813.529 990.108 803.968L992.242 755.005C992.671 745.193 989.167 735.882 982.383 728.8C975.599 721.707 966.455 717.796 956.632 717.796H332.888C321.085 717.796 311.524 708.235 311.524 696.444C311.524 684.641 321.085 675.08 332.888 675.08H956.632C978.21 675.08 998.311 683.664 1013.24 699.258C1028.16 714.84 1035.86 735.31 1034.92 756.865L1032.79 805.828C1031.87 826.846 1022.81 846.219 1007.25 860.383C992.695 873.628 974.133 880.793 954.593 880.793Z" fill="#371A45"/>
<path d="M954.51 838.076C953.914 838.076 953.306 838.052 952.698 838.029L344.036 807.33C353.764 779.408 357.961 749.234 356.364 717.796H422.637C422.721 738.719 433.737 759.785 473.043 767.82C549.94 783.569 900.266 788.123 990.765 789.053L990.11 803.968C989.704 813.529 985.579 822.339 978.497 828.789C971.869 834.81 963.345 838.076 954.51 838.076Z" fill="#BC5738"/>
<path d="M344.035 807.33L321.646 806.197C331.958 779.54 336.834 749.843 335.046 717.796H356.363C357.96 749.235 353.764 779.409 344.035 807.33Z" fill="#371A45"/>
<path d="M954.522 859.439C953.556 859.439 952.59 859.416 951.613 859.368L312.848 827.143L313.158 825.116C316.293 819 319.13 812.682 321.646 806.196L344.035 807.329L952.698 838.028C953.306 838.052 953.914 838.075 954.51 838.075C963.344 838.075 971.868 834.809 978.497 828.788C985.578 822.338 989.703 813.528 990.109 803.967L990.765 789.052C1004.42 789.184 1012.15 789.243 1012.15 789.243L1011.48 804.932C1010.13 835.56 984.863 859.439 954.522 859.439ZM422.637 717.795H356.363H335.046C334.653 710.785 333.949 703.656 332.9 696.419H425.808C423.912 703.155 422.601 710.463 422.637 717.795Z" fill="#371A45"/>
<path d="M350.397 1473.79C-50.8472 1202.22 53.565 226.96 428.212 15.2503C279.426 473.803 258.861 961.16 350.397 1473.79Z" fill="#AFB5BC"/>
<path d="M272.691 1382.74C178.854 1271.5 121.986 1101.78 111.387 899.405C117.336 901.17 123.536 902.35 129.914 902.874C137.568 1085.83 182.943 1259.46 272.691 1382.74ZM124.06 624.986C160.72 367.568 263.928 151.292 400.911 51.0643C400.363 52.8288 399.827 54.6053 399.29 56.3817C386.462 75.5164 374.242 94.9967 362.595 114.883C253.64 231.872 178.472 420.74 146.319 623.997H137.568C132.978 623.997 128.472 624.33 124.06 624.986Z" fill="#DFE1E4"/>
<path d="M400.91 51.0634C238.581 169.83 123.678 451.581 110.755 771.613C98.7016 1070 179.699 1315.4 328.807 1438.56C245.771 944.255 270.008 477.845 400.91 51.0634ZM350.397 1489.04C347.417 1489.04 344.425 1488.17 341.849 1486.43C164.785 1366.59 67.001 1098.91 80.2701 770.385C92.1205 476.939 201.981 125.54 420.701 1.96908C426.173 -1.1187 432.992 -0.534668 437.857 3.43533C442.733 7.41726 444.664 13.9864 442.721 19.9593C298.716 463.717 272.714 951.956 365.419 1471.11C366.492 1477.14 363.857 1483.23 358.707 1486.58C356.179 1488.23 353.282 1489.04 350.397 1489.04Z" fill="#371A45"/>
<path d="M428.212 15.2503C231.774 342.316 174.191 740.962 230.546 1115.04C251.004 1239.6 285.817 1363.3 350.398 1473.79C274.693 1369.84 232.215 1244.6 207.12 1119.27C137.222 747.042 200.539 323.897 428.212 15.2503Z" fill="#371A45"/>
<path d="M327.735 1432.14C277.412 1332.64 248.465 1224.17 230.547 1115.04C220.008 1045.08 213.451 974.239 211.043 903.196H276.399C277.841 903.196 279.26 903.161 280.679 903.089C282.097 1075.35 297.775 1251.87 327.735 1432.14Z" fill="#918E9E"/>
<path d="M350.399 1473.79C342.399 1460.1 334.853 1446.19 327.735 1432.14C297.776 1251.86 282.098 1075.35 280.679 903.088C285.734 902.862 290.682 902.218 295.498 901.205C297.06 1088.28 315.658 1279.24 350.399 1473.79Z" fill="#371A45"/>
<path d="M291.05 625.152C286.281 624.389 281.382 623.996 276.398 623.996H223.334C246.295 438.777 299.3 257.671 385.305 92.0036C386.843 90.5491 388.417 89.0946 389.978 87.664C339.632 260.711 306.644 440.1 291.05 625.152Z" fill="#918E9E"/>
<path d="M385.305 92.0039C387.832 87.1398 390.383 82.2757 392.97 77.4473C391.969 80.845 390.968 84.2665 389.978 87.6643C388.416 89.0949 386.843 90.5494 385.305 92.0039Z" fill="#B5AFBC"/>
<path d="M305.584 628.717C300.899 627.155 296.046 625.951 291.051 625.152C306.645 440.1 339.633 260.711 389.979 87.6637C390.969 84.2659 391.97 80.8444 392.972 77.4467C404.178 56.4521 415.921 35.72 428.213 15.25C363.584 214.418 323.157 418.986 305.584 628.717Z" fill="#371A45"/>
<path d="M350.398 1473.79C350.398 1473.78 350.398 1473.78 350.386 1473.78C259.517 1337.96 204.45 1130.81 195.973 903.196H211.043C213.451 974.238 220.008 1045.08 230.547 1115.04C248.465 1224.17 277.412 1332.64 327.734 1432.14C334.852 1446.19 342.398 1460.1 350.398 1473.79ZM223.334 623.996H208.801C236.639 408.352 307.038 192.494 428.212 15.2503C415.921 35.7202 404.178 56.4524 392.971 77.4469C390.384 82.2753 387.833 87.1394 385.306 92.0035C299.301 257.671 246.296 438.777 223.334 623.996Z" fill="#371A45"/>
<path d="M350.398 716.331V810.919C350.398 851.74 317.267 884.883 276.375 884.883H137.603C108.919 884.883 84.0738 868.586 71.8061 844.789C66.5605 834.656 63.5681 823.127 63.5681 810.919V716.331C63.5681 675.438 96.7111 642.295 137.603 642.295H276.375C302.674 642.295 325.803 656.029 338.857 676.726C346.189 688.195 350.398 701.738 350.398 716.331Z" fill="#AFB5BC"/>
<path d="M125.491 691.367C116.609 687.612 106.857 685.525 96.6282 685.525H91.1678C101.158 670.516 118.231 660.609 137.568 660.609H276.399C292.267 660.609 306.609 667.285 316.755 677.955C313.739 677.585 310.674 677.395 307.551 677.395H168.78C152.613 677.395 137.663 682.569 125.491 691.367Z" fill="#DFE1E4"/>
<path d="M137.568 660.608C106.857 660.608 81.88 685.596 81.88 716.295V810.884C81.88 841.595 106.857 866.571 137.568 866.571H276.398C307.109 866.571 332.086 841.595 332.086 810.884V716.295C332.086 685.596 307.109 660.608 276.398 660.608H137.568ZM276.398 903.195H137.568C86.6728 903.195 45.2678 861.779 45.2678 810.884V716.295C45.2678 665.4 86.6728 623.996 137.568 623.996H276.398C327.293 623.996 368.71 665.4 368.71 716.295V810.884C368.71 861.779 327.293 903.195 276.398 903.195Z" fill="#371A45"/>
<path d="M74.2501 827.92H96.6277C127.529 827.92 152.565 802.884 152.565 771.982V759.774C152.565 728.884 127.529 703.836 96.6277 703.836H74.2501C43.3604 703.836 18.3125 728.884 18.3125 759.774V771.982C18.3125 802.884 43.3604 827.92 74.2501 827.92Z" fill="#E86B34"/>
<path d="M46.5442 797.424C40.3806 790.724 36.625 781.782 36.625 771.983V759.774C36.625 739.03 53.5064 722.149 74.2506 722.149H96.6282C105.593 722.149 113.831 725.296 120.305 730.542H102.446C71.5681 730.542 46.5442 755.566 46.5442 786.503V797.424Z" fill="#F6C4AE"/>
<path d="M74.2496 722.149C53.5055 722.149 36.6241 739.03 36.6241 759.775V771.983C36.6241 792.739 53.5055 809.62 74.2496 809.62H96.6272C117.383 809.62 134.265 792.739 134.265 771.983V759.775C134.265 739.03 117.383 722.149 96.6272 722.149H74.2496ZM96.6272 846.232H74.2496C33.3097 846.232 0 812.923 0 771.983V759.775C0 718.835 33.3097 685.525 74.2496 685.525H96.6272C137.567 685.525 170.877 718.835 170.877 759.775V771.983C170.877 812.923 137.567 846.232 96.6272 846.232Z" fill="#371A45"/>
<path d="M276.399 866.57H137.568C120.377 866.57 104.986 858.738 94.7567 846.47C94.7567 846.387 94.7567 846.303 94.7567 846.232H96.6285C129.617 846.232 157.657 824.605 167.302 794.777C176.66 804.183 191.944 812.588 216.933 814.698C218.685 814.853 220.426 814.925 222.178 814.925C275.338 814.925 326.352 747.53 330.608 703.502C331.574 707.615 332.087 711.895 332.087 716.294V810.883C332.087 841.594 307.11 866.57 276.399 866.57Z" fill="#918E9E"/>
<path d="M94.7552 846.471C94.6956 846.387 94.6242 846.316 94.5645 846.232H94.7552C94.7552 846.304 94.7552 846.387 94.7552 846.471Z" fill="#B5AFBC"/>
<path d="M276.374 884.883H137.603C109.491 884.883 85.075 869.241 72.5689 846.208C73.1293 846.22 73.6895 846.232 74.2499 846.232H94.5649C94.6245 846.315 94.696 846.387 94.7556 846.47C104.985 858.738 120.376 866.571 137.567 866.571H276.398C307.109 866.571 332.086 841.594 332.086 810.883V716.295C332.086 711.896 331.573 707.616 330.607 703.503C331.275 696.671 330.798 690.388 329.034 685.024C326.792 678.228 328.366 675.271 332.515 675.271C334.232 675.271 336.365 675.772 338.857 676.726C346.189 688.195 350.398 701.738 350.398 716.331V810.919C350.398 851.74 317.267 884.883 276.374 884.883Z" fill="#371A45"/>
<path d="M96.6274 846.232H74.2498C73.6894 846.232 73.1291 846.22 72.5688 846.209C72.3065 845.744 72.0561 845.267 71.8058 844.79L109.348 829.101L152.553 763.566C152.553 763.566 152.934 780.352 167.3 794.777C157.656 824.606 129.615 846.232 96.6274 846.232Z" fill="#371A45"/>
</svg>
