<svg width="1309" height="1285" viewBox="0 0 1309 1285" fill="none" xmlns="http://www.w3.org/2000/svg">
<mask id="mask0_3_12173" style="mask-type:luminance" maskUnits="userSpaceOnUse" x="19" y="19" width="1271" height="1247">
<path d="M1017.26 187.147L714.821 87.4136V53.0803L654.221 19.3068L593.621 53.0803V87.4136L291.181 187.147L19.3008 98.667C54.7008 539.467 218.794 1003.85 218.794 1003.85C422.567 1171.16 654.221 1265.55 654.221 1265.55C654.221 1265.55 885.874 1171.16 1089.66 1003.85C1089.66 1003.85 1253.74 539.467 1289.14 98.667L1017.26 187.147Z" fill="white"/>
</mask>
<g mask="url(#mask0_3_12173)">
<path d="M19.3008 1265.55H1289.14V19.3068H19.3008V1265.55Z" fill="#B6BDCC"/>
<path d="M437.581 796.865C436.687 582.292 479.327 377.705 557.194 191.452C576.661 144.892 598.341 99.4788 622.074 55.3321C633.941 33.2654 646.341 11.5186 659.221 -9.89471V12.6386H1295.81V1272.21H521.301V1294.95C517.167 1282.93 513.194 1270.85 509.354 1258.69C494.021 1210.11 481.007 1160.47 470.447 1109.92C449.327 1008.85 438.021 904.145 437.581 796.865Z" fill="#B6BDCC"/>
<path d="M458.101 796.773C457.234 585.04 499.301 383.16 576.141 199.373C595.354 153.413 616.741 108.599 640.168 65.0528C651.874 43.2661 664.101 21.813 676.821 0.67962V12.6395H1295.81V1272.21H540.714V1288.29C536.648 1276.43 532.728 1264.51 528.941 1252.51C513.808 1204.56 500.968 1155.57 490.541 1105.71C469.701 1005.96 458.541 902.64 458.101 796.773Z" fill="#B7BECD"/>
<path d="M478.634 796.693C477.768 587.8 519.288 388.613 595.101 207.28C614.048 161.947 635.141 117.733 658.261 74.76C669.821 53.2666 681.874 32.0932 694.421 11.2532V12.6399H1295.81V1272.21H572.594V1316.53C564.021 1293.39 555.981 1269.99 548.514 1246.33C533.594 1199.01 520.914 1150.69 510.634 1101.48C490.074 1003.08 479.074 901.147 478.634 796.693Z" fill="#B8BFCD"/>
<path d="M499.168 796.613C498.314 590.547 539.261 394.053 614.048 215.187C632.741 170.48 653.554 126.853 676.354 84.4667C687.754 63.2801 699.648 42.3866 712.034 21.8266C718.221 11.5333 724.528 1.33334 730.954 -8.78666V12.6399H1295.81V1272.21H591.848V1309.39C583.394 1286.56 575.461 1263.48 568.101 1240.15C553.368 1193.47 540.874 1145.8 530.728 1097.27C510.448 1000.19 499.594 899.64 499.168 796.613Z" fill="#B9C0CE"/>
<path d="M519.688 796.519C518.848 593.292 559.234 399.505 632.994 223.105C669.874 134.892 715.087 51.0386 767.661 -27.4814V12.6386H1295.81V1272.21H611.101V1302.25C602.754 1279.75 594.941 1256.97 587.674 1233.96C573.154 1187.92 560.821 1140.91 550.821 1093.04C530.821 997.305 520.114 898.132 519.688 796.519Z" fill="#BAC1CF"/>
<path d="M540.221 796.439C539.394 596.039 579.221 404.959 651.941 231.012C688.301 144.039 732.888 61.3455 784.741 -16.0812V12.6389H1295.81V1272.21H630.354V1295.11C622.128 1272.92 614.421 1250.47 607.261 1227.77C592.941 1182.39 580.781 1136.03 570.914 1088.83C551.194 994.426 540.634 896.639 540.221 796.439Z" fill="#BBC1CF"/>
<path d="M560.754 796.346C559.928 598.786 599.194 410.413 670.888 238.933C706.741 153.186 750.701 71.6662 801.808 -4.66711V12.6394H1295.81V1272.21H649.608V1287.97C641.501 1266.09 633.901 1243.96 626.847 1221.59C612.714 1176.84 600.741 1131.13 591.021 1084.6C571.568 991.533 561.154 895.133 560.754 796.346Z" fill="#BCC2D0"/>
<path d="M581.274 796.267C580.474 601.547 619.167 415.867 689.834 246.84C725.167 162.333 768.501 81.9734 818.874 6.73341V12.6399H1295.81V1272.21H668.861V1280.84C660.874 1259.27 653.381 1237.45 646.421 1215.4C632.501 1171.29 620.687 1126.25 611.114 1080.39C591.941 988.653 581.687 893.627 581.274 796.267Z" fill="#BDC3D1"/>
<path d="M601.808 796.187C601.008 604.293 639.141 421.32 708.781 254.747C743.608 171.467 786.301 92.2935 835.954 18.1468C842.154 8.88015 848.474 -0.31995 854.888 -9.42662V12.64H1295.81V1272.21H688.114V1273.69C680.234 1252.44 672.861 1230.95 666.008 1209.21C652.288 1165.75 640.648 1121.36 631.208 1076.16C612.314 985.76 602.208 892.133 601.808 796.187Z" fill="#BEC4D1"/>
<path d="M622.341 796.092C621.555 607.038 659.128 426.772 727.741 262.665C762.035 180.612 804.101 102.598 853.021 29.5451C865.248 11.2918 877.901 -6.66832 890.968 -24.295V12.6383H1295.81V1272.21H719.394V1297.79C715.261 1287.44 711.261 1277.03 707.381 1266.56C699.608 1245.63 692.341 1224.44 685.581 1203.03C672.074 1160.2 660.608 1116.47 651.301 1071.95C632.688 982.878 622.728 890.625 622.341 796.092Z" fill="#BFC5D2"/>
<path d="M642.861 796.012C642.101 609.786 679.101 432.226 746.687 270.572C780.474 189.759 821.914 112.906 870.087 40.9589C882.127 22.9723 894.594 5.27883 907.474 -12.0812V12.6389H1295.81V1272.21H738.461V1290.19C734.394 1279.99 730.447 1269.73 726.621 1259.43C718.981 1238.8 711.821 1217.93 705.167 1196.84C691.847 1154.67 680.554 1111.59 671.394 1067.72C653.061 979.999 643.247 889.119 642.861 796.012Z" fill="#C0C6D2"/>
<path d="M663.394 795.933C662.634 612.533 699.074 437.679 765.634 278.493C798.914 198.893 839.714 123.226 887.154 52.3593C899.021 34.6527 911.301 17.2394 923.981 0.132761V12.6393H1295.81V1272.21H769.914V1312.51C702.047 1153.88 664.154 979.319 663.394 795.933Z" fill="#C1C7D3"/>
<path d="M683.927 795.839C683.181 615.293 719.061 443.133 784.581 286.4C817.341 208.04 857.514 133.533 904.234 63.7727C915.901 46.3327 927.994 29.1862 940.474 12.3462V12.6394H1295.81V1272.21H788.794V1304.44C721.967 1148.25 684.674 976.399 683.927 795.839Z" fill="#C2C8D4"/>
<path d="M704.448 795.759C703.714 618.039 739.034 448.573 803.528 294.319C835.781 217.186 875.314 143.853 921.301 75.1727C944.288 40.8394 968.888 7.67935 994.981 -24.214V12.6394H1295.81V1272.21H807.675V1296.36C741.901 1142.64 705.181 973.479 704.448 795.759Z" fill="#C3C9D4"/>
<path d="M724.981 795.666C724.261 620.786 759.008 454.026 822.474 302.226C854.208 226.32 893.128 154.16 938.368 86.5863C960.994 52.7996 985.194 20.1597 1010.89 -11.227V12.6397H1295.81V1272.21H826.568V1288.29C761.834 1137.03 725.701 970.56 724.981 795.666Z" fill="#C4CAD5"/>
<path d="M745.514 795.587C744.794 623.533 778.981 459.48 841.421 310.133C872.648 235.467 910.927 164.467 955.434 98.0001C977.701 64.7601 1001.51 32.6399 1026.78 1.77325V12.6399H1295.81V1272.21H845.447V1280.23C781.767 1131.4 746.221 967.64 745.514 795.587Z" fill="#C5CAD6"/>
<path d="M766.034 795.506C765.341 626.279 798.968 464.932 860.368 318.052C891.074 244.612 928.727 174.786 972.514 109.399C994.394 76.706 1017.82 45.1325 1042.67 14.7592C1055.1 -0.427475 1067.87 -15.3074 1081.01 -29.8674V12.6391H1295.81V1272.21H876.394V1299.43C872.261 1290.4 868.234 1281.31 864.327 1272.16C801.701 1125.79 766.741 964.719 766.034 795.506Z" fill="#C6CBD6"/>
<path d="M786.568 795.413C785.874 629.04 818.941 470.386 879.327 325.96C909.514 253.746 946.541 185.093 989.581 120.813C1011.1 88.6666 1034.13 57.6132 1058.57 27.7466C1070.78 12.8266 1083.35 -1.81338 1096.26 -16.1334V12.6398H1295.81V1272.21H907.554V1317.37C899.021 1299.84 890.901 1282.08 883.208 1264.09C821.634 1120.17 787.261 961.8 786.568 795.413Z" fill="#C7CCD7"/>
<path d="M807.101 795.333C806.421 631.787 838.914 475.84 898.274 333.88C927.941 262.893 964.341 195.413 1006.65 132.213C1027.81 100.613 1050.45 70.0935 1074.46 40.7468C1086.47 26.0668 1098.82 11.6935 1111.51 -2.38651V12.6401H1295.81V1272.21H926.034V1308.39C917.634 1291.16 909.661 1273.71 902.088 1256.01C841.568 1114.55 807.767 958.88 807.101 795.333Z" fill="#C8CDD8"/>
<path d="M827.621 795.252C826.288 473.812 955.368 182.279 1165.14 -29.2412V12.6387H1295.81V1272.21H944.501V1299.41C936.248 1282.48 928.408 1265.33 920.968 1247.95C861.488 1108.93 828.288 955.959 827.621 795.252Z" fill="#C9CED8"/>
<path d="M848.155 795.16C846.848 479.4 973.648 193 1179.71 -14.7738V12.6395H1295.81V1272.21H962.968V1290.44C954.861 1273.81 947.154 1256.95 939.848 1239.88C881.421 1103.32 848.808 953.04 848.155 795.16Z" fill="#CACFD9"/>
<path d="M868.688 795.08C867.394 484.987 991.928 203.733 1194.29 -0.319859V12.64H1295.81V1272.21H981.434V1281.47C973.474 1265.13 965.914 1248.57 958.741 1231.81C901.354 1097.71 869.328 950.12 868.688 795.08Z" fill="#CBD0DA"/>
<path d="M889.208 794.998C887.941 490.572 1010.19 214.452 1208.87 14.132C1221.29 1.61198 1234.01 -10.6147 1247.01 -22.5347V12.6385H1295.81V1272.21H999.901V1272.48C992.088 1256.45 984.661 1240.2 977.621 1223.75C921.288 1092.08 889.835 947.198 889.208 794.998Z" fill="#CCD1DA"/>
<path d="M909.741 794.906C908.501 496.159 1028.47 225.186 1223.45 28.586C1235.63 16.306 1248.11 4.30617 1260.87 -7.38716V12.6394H1295.81V1272.21H1042.45V1310.05C1025.66 1279.47 1010.33 1247.97 996.501 1215.68C941.221 1086.47 910.354 944.279 909.741 794.906Z" fill="#CDD2DB"/>
<path d="M930.261 794.826C929.047 501.733 1046.75 235.906 1238.02 43.0393C1261.93 18.9326 1286.99 -4.02734 1313.11 -25.774L1295.81 12.6393V1272.21H1060.46V1300.2C1043.99 1270.19 1028.94 1239.29 1015.38 1207.6C961.154 1080.85 930.874 941.359 930.261 794.826Z" fill="#CED3DB"/>
<path d="M950.794 794.732C949.608 507.319 1065.02 246.625 1252.59 57.4921C1276.05 33.8521 1300.62 11.3322 1326.23 -9.98781L1295.81 12.6387V1272.21H1078.47V1290.33C1062.33 1260.91 1047.57 1230.61 1034.26 1199.53C981.088 1075.23 951.394 938.452 950.794 794.732Z" fill="#CFD3DC"/>
<path d="M971.327 794.652C970.154 512.905 1083.3 257.359 1267.17 71.9585C1290.15 48.7852 1314.25 26.7053 1339.35 5.79864L1295.81 12.6385V1272.21H1096.47V1280.48C1080.65 1251.63 1066.18 1221.93 1053.14 1191.47C1001.01 1069.61 971.901 935.532 971.327 794.652Z" fill="#D0D4DD"/>
<path d="M991.847 794.573C990.714 518.493 1101.58 268.08 1281.75 86.4135C1293.01 75.0535 1304.54 63.9734 1316.33 53.1601H1295.81V1272.21H1138.74V1312.39C1130.33 1298.68 1122.25 1284.75 1114.49 1270.61C1098.98 1242.35 1084.81 1213.25 1072.03 1183.4C1020.94 1064 992.421 932.613 991.847 794.573Z" fill="#D1D5DD"/>
<path d="M1012.38 794.479C1011.26 524.066 1119.85 278.813 1296.33 100.866H1295.81V1272.21H1156.25V1301.67C1148.02 1288.24 1140.1 1274.6 1132.5 1260.76C1117.31 1233.07 1103.42 1204.56 1090.91 1175.33C1040.87 1058.39 1012.94 929.693 1012.38 794.479Z" fill="#D2D6DE"/>
<path d="M1032.91 794.399C1031.81 529.652 1138.13 289.532 1310.9 115.319H1295.81V1272.21H1173.77V1290.95C1165.7 1277.8 1157.95 1264.45 1150.51 1250.89C1135.65 1223.79 1122.03 1195.88 1109.79 1167.25C1060.81 1052.76 1033.46 926.772 1032.91 794.399Z" fill="#D3D7DF"/>
<path d="M1053.43 794.319C1052.37 535.239 1156.41 300.253 1325.47 129.773H1295.81V1272.21H1215.83V1318.2C1181.91 1268.43 1152.65 1215.21 1128.67 1159.19C1080.74 1047.15 1053.97 923.853 1053.43 794.319Z" fill="#D5D8DF"/>
<path d="M1073.97 794.226C1072.91 540.826 1174.67 310.986 1340.05 144.239H1295.81V1272.21H1232.81V1306.65C1199.62 1257.96 1171.01 1205.92 1147.55 1151.12C1100.67 1041.53 1074.49 920.932 1073.97 794.226Z" fill="#D6D9E0"/>
<path d="M1094.49 794.146C1093.98 670.279 1118.59 552.172 1163.55 444.652C1186.02 390.892 1213.58 339.772 1245.63 291.919C1261.66 267.985 1278.79 244.866 1296.99 222.639H1295.81V1272.21H1249.78V1295.11C1217.34 1247.51 1189.37 1196.63 1166.45 1143.05C1120.59 1035.91 1095.01 918.012 1094.49 794.146Z" fill="#D7DAE1"/>
<path d="M1115.02 794.054C1114.53 673.027 1138.57 557.627 1182.5 452.56C1204.46 400.027 1231.39 350.093 1262.7 303.32C1278.35 279.947 1295.11 257.347 1312.89 235.627H1295.81V1272.21H1266.77V1283.55C1235.06 1237.05 1207.71 1187.33 1185.33 1134.99C1140.53 1030.29 1115.53 915.094 1115.02 794.054Z" fill="#D8DBE1"/>
<path d="M1135.55 793.973C1135.06 675.773 1158.55 563.067 1201.45 460.48C1222.89 409.174 1249.19 360.4 1279.77 314.734C1295.06 291.894 1311.42 269.84 1328.78 248.627H1295.81V1272.21L1307.74 1305.47C1299.49 1294.52 1291.47 1283.36 1283.74 1272C1252.78 1226.59 1226.07 1178.04 1204.21 1126.92C1160.46 1024.68 1136.05 912.173 1135.55 793.973Z" fill="#D9DCE2"/>
<path d="M1156.07 793.893C1155.61 678.52 1178.53 568.52 1220.39 468.387C1241.33 418.32 1266.99 370.72 1296.85 326.133H1295.81V1260.45H1300.71C1270.5 1216.13 1244.43 1168.75 1223.09 1118.85C1180.39 1019.05 1156.55 909.253 1156.07 793.893Z" fill="#DADCE3"/>
<path d="M1176.61 793.8C1176.14 681.28 1198.5 573.973 1239.34 476.293C1259.77 427.466 1284.79 381.026 1313.91 337.546H1295.81V1248.91H1317.69C1288.22 1205.67 1262.79 1159.44 1241.97 1110.77C1200.33 1013.44 1177.07 906.333 1176.61 793.8Z" fill="#DBDDE3"/>
<path d="M1197.14 793.719C1196.69 684.026 1218.49 579.426 1258.29 484.213C1278.19 436.599 1302.61 391.333 1330.98 348.946H1295.81V1237.36H1334.66C1305.93 1195.21 1281.15 1150.15 1260.85 1102.71C1220.26 1007.83 1197.59 903.413 1197.14 793.719Z" fill="#DCDEE4"/>
<path d="M1217.66 793.627C1217.22 686.774 1238.46 584.88 1277.23 492.12C1286.94 468.934 1297.73 446.32 1309.55 424.334H1295.81V1162.16H1312.61C1300.61 1140.28 1289.62 1117.75 1279.74 1094.64C1240.18 1002.21 1218.11 900.494 1217.66 793.627Z" fill="#DDDFE4"/>
<path d="M1238.19 793.546C1237.77 689.519 1258.43 590.332 1296.19 500.039H1295.81V1086.57H1298.62C1260.11 996.586 1238.62 897.572 1238.19 793.546Z" fill="#DEE0E5"/>
<path d="M1258.73 793.466C1258.3 692.266 1278.41 595.786 1315.14 507.946H1295.81V1078.51H1317.5C1280.05 990.973 1259.14 894.653 1258.73 793.466Z" fill="#DFE1E6"/>
<path d="M1279.25 793.372C1278.85 695.026 1298.39 601.239 1334.09 515.866H1295.81V1070.43H1336.38C1299.98 985.359 1279.66 891.732 1279.25 793.372Z" fill="#E0E2E6"/>
</g>
<path d="M1017.26 187.146L714.821 87.4128V53.0795L654.221 19.3061C664.421 31.7594 674.621 44.2129 684.821 56.6662C685.181 74.1862 685.527 91.7062 685.887 109.213C797.074 146.759 908.261 184.293 1019.43 221.826C1097.37 196.453 1175.3 171.066 1253.23 145.679C1231.11 296.559 1206.13 423.853 1184.61 522.133C1171.34 582.639 1156.46 650.159 1132.05 739.839C1132.05 739.839 1114.98 802.559 1045.95 1026.24C940.261 1113.01 827.154 1180.11 742.674 1224.67C828.727 1181.91 964.421 1106.68 1089.66 1003.85C1089.66 1003.85 1253.74 539.466 1289.14 98.6662L1017.26 187.146Z" fill="white"/>
<path d="M481.287 1157.95C406.821 1116.01 318.554 1060.23 235.247 992.374C217.927 941.987 78.1805 526.12 41.0605 126.054L285.207 205.507C287.154 206.134 289.167 206.454 291.194 206.454C293.234 206.454 295.274 206.134 297.234 205.481L595.461 107.134C582.727 133.107 570.687 159.494 559.381 186.254L451.514 254.734C419.394 254.721 185.021 252.681 112.901 197.814C110.607 196.081 107.861 195.201 105.114 195.201C102.794 195.201 100.461 195.827 98.3939 197.081C93.8739 199.854 91.5006 205.107 92.434 210.334C103.007 269.387 114.341 327.921 126.421 385.827C135.634 448.681 147.061 514.227 161.154 582.134C192.141 731.441 230.474 865.481 270.301 982.761C336.781 1024.04 403.274 1065.32 469.754 1106.59C469.981 1107.71 470.221 1108.81 470.447 1109.92C473.807 1126.03 477.421 1142.03 481.287 1157.95ZM612.927 72.6007V64.4273L619.034 61.0273C616.981 64.8673 614.954 68.734 612.927 72.6007Z" fill="#9297BA"/>
<path d="M505.834 1171.55C497.834 1167.19 489.647 1162.65 481.287 1157.95C477.421 1142.03 473.807 1126.03 470.447 1109.92C470.22 1108.81 469.981 1107.71 469.754 1106.59C477.821 1111.6 485.887 1116.61 493.954 1121.61C497.647 1138.36 501.607 1155.01 505.834 1171.55ZM559.38 186.253C570.687 159.493 582.727 133.107 595.46 107.134L599.674 105.747C607.581 103.134 612.927 95.7469 612.927 87.4136V72.6003C614.954 68.7337 616.981 64.8669 619.034 61.0269L652.674 42.267C648.434 49.827 644.274 57.4135 640.167 65.0535C622.341 98.2001 605.687 132.093 590.274 166.653L559.38 186.253Z" fill="#9297BA"/>
<path d="M530.54 1184.8C522.553 1180.59 514.3 1176.16 505.833 1171.55C501.606 1155.01 497.646 1138.36 493.953 1121.61C502.126 1126.69 510.3 1131.76 518.473 1136.84C522.233 1152.92 526.26 1168.92 530.54 1184.8ZM590.273 166.654C605.687 132.094 622.34 98.2006 640.166 65.054C644.273 57.414 648.433 49.8275 652.673 42.2675L654.22 41.4009L655.926 42.3475C655.66 55.0941 655.407 67.8406 655.14 80.5873C643.62 102.227 632.62 124.174 622.14 146.427L590.273 166.654Z" fill="#9298BB"/>
<path d="M555.406 1197.72C547.446 1193.65 539.139 1189.35 530.539 1184.8C526.259 1168.92 522.233 1152.92 518.473 1136.84C526.753 1141.99 535.032 1147.12 543.312 1152.27C547.112 1167.51 551.153 1182.67 555.406 1197.72ZM622.139 146.427C632.619 124.174 643.619 102.227 655.139 80.5873C655.019 86.374 654.899 92.1607 654.792 97.9607C658.339 100.481 661.846 102.974 665.273 105.454C661.326 113.081 657.446 120.747 653.633 128.454C651.433 128.547 649.259 129.214 647.326 130.441L622.139 146.427Z" fill="#9399BB"/>
<path d="M580.433 1210.29C572.526 1206.39 564.179 1202.2 555.406 1197.72C551.153 1182.67 547.113 1167.51 543.312 1152.27C551.726 1157.48 560.126 1162.71 568.539 1167.92C572.299 1182.13 576.259 1196.25 580.433 1210.29ZM671.859 137.906L661.579 130.746C659.366 129.2 656.793 128.426 654.219 128.426C654.019 128.426 653.819 128.44 653.633 128.453C657.446 120.746 661.326 113.08 665.273 105.453C671.033 109.6 676.633 113.706 682.046 117.733C678.606 124.426 675.206 131.146 671.859 137.906Z" fill="#949ABC"/>
<path d="M605.606 1222.48C597.859 1218.8 589.446 1214.73 580.432 1210.29C576.259 1196.25 572.299 1182.13 568.539 1167.92C577.072 1173.23 585.619 1178.52 594.152 1183.83C597.792 1196.79 601.606 1209.67 605.606 1222.48ZM688.899 149.774L671.859 137.907C675.206 131.147 678.606 124.427 682.046 117.734C687.792 121.987 693.339 126.174 698.686 130.281C695.379 136.747 692.112 143.24 688.899 149.774Z" fill="#959ABC"/>
<path d="M630.899 1234.25C623.592 1230.92 615.112 1227 605.606 1222.48C601.606 1209.67 597.792 1196.79 594.152 1183.83C602.846 1189.23 611.526 1194.61 620.219 1200.01C622.366 1207.23 624.579 1214.41 626.846 1221.59C628.179 1225.81 629.526 1230.04 630.899 1234.25ZM705.939 161.654L688.899 149.774C692.112 143.241 695.379 136.747 698.686 130.281C704.406 134.654 709.912 138.947 715.192 143.107C712.059 149.267 708.979 155.441 705.939 161.654Z" fill="#969ABC"/>
<path d="M654.221 1244.59C648.994 1242.35 641.087 1238.88 630.901 1234.25C629.527 1230.04 628.181 1225.81 626.847 1221.59C624.581 1214.41 622.367 1207.23 620.221 1200.01C629.061 1205.49 637.927 1211 646.767 1216.49C649.674 1225.68 652.674 1234.83 655.767 1243.92C655.221 1244.16 654.714 1244.37 654.221 1244.59ZM722.994 173.519L705.941 161.653C708.981 155.439 712.061 149.266 715.194 143.106C720.914 147.626 726.367 151.999 731.567 156.226C728.674 161.973 725.807 167.746 722.994 173.519Z" fill="#969BBD"/>
<path d="M655.766 1243.92C652.672 1234.83 649.672 1225.68 646.766 1216.49C649.979 1218.48 653.179 1220.47 656.392 1222.47C660.232 1220.04 664.072 1217.63 667.899 1215.2C670.086 1222.01 672.326 1228.81 674.606 1235.57C666.739 1239.13 660.392 1241.93 655.766 1243.92ZM740.046 185.413L722.992 173.52C725.806 167.746 728.672 161.973 731.566 156.227C737.299 160.893 742.712 165.386 747.806 169.653C745.179 174.88 742.592 180.133 740.046 185.413Z" fill="#979CBE"/>
<path d="M674.607 1235.57C672.327 1228.81 670.087 1222.01 667.9 1215.2C673.887 1211.43 679.874 1207.64 685.847 1203.87C688.287 1211.59 690.794 1219.28 693.38 1226.95C686.42 1230.2 680.14 1233.08 674.607 1235.57ZM757.114 197.294L740.047 185.414C742.594 180.134 745.18 174.881 747.807 169.654C753.594 174.521 758.967 179.108 763.9 183.388C761.607 188.014 759.354 192.641 757.114 197.294Z" fill="#989DBE"/>
<path d="M693.381 1226.95C690.794 1219.28 688.288 1211.59 685.848 1203.87C691.848 1200.08 697.821 1196.31 703.808 1192.52C704.261 1193.96 704.714 1195.4 705.168 1196.84C707.408 1203.95 709.701 1211.01 712.061 1218.07C705.394 1221.28 699.154 1224.24 693.381 1226.95ZM774.181 209.187L757.114 197.294C759.354 192.641 761.608 188.014 763.901 183.387C765.088 184.427 766.261 185.441 767.408 186.441C771.754 190.241 775.901 193.907 779.861 197.441C777.954 201.347 776.061 205.267 774.181 209.187Z" fill="#999EBF"/>
<path d="M712.06 1218.07C709.7 1211.01 707.407 1203.95 705.167 1196.84C704.713 1195.4 704.26 1193.96 703.807 1192.52C709.807 1188.73 715.793 1184.95 721.793 1181.17C724.646 1190.48 727.607 1199.75 730.673 1208.97C724.153 1212.2 717.94 1215.23 712.06 1218.07ZM791.26 221.08L774.18 209.186C776.06 205.266 777.953 201.346 779.86 197.44C785.473 202.453 790.74 207.2 795.753 211.72C794.247 214.826 792.74 217.946 791.26 221.08Z" fill="#9A9EBF"/>
<path d="M730.673 1208.97C727.607 1199.75 724.646 1190.48 721.793 1181.17C727.793 1177.37 733.793 1173.59 739.793 1169.8C742.82 1179.81 745.953 1189.76 749.22 1199.67C742.793 1202.93 736.607 1206.03 730.673 1208.97ZM808.34 232.986L791.26 221.079C792.74 217.946 794.246 214.826 795.753 211.719C801.326 216.733 806.593 221.479 811.686 225.946C810.566 228.293 809.447 230.626 808.34 232.986Z" fill="#9A9FC0"/>
<path d="M749.22 1199.67C745.953 1189.76 742.82 1179.81 739.793 1169.8C745.793 1166 751.807 1162.21 757.807 1158.41C760.98 1169.05 764.273 1179.63 767.713 1190.15C761.366 1193.45 755.193 1196.63 749.22 1199.67ZM825.433 244.893L808.34 232.986C809.447 230.626 810.566 228.293 811.686 225.946C817.233 230.826 822.566 235.386 827.886 239.693C827.06 241.426 826.246 243.146 825.433 244.893Z" fill="#9BA0C0"/>
<path d="M767.713 1190.15C764.273 1179.63 760.98 1169.05 757.807 1158.41C763.82 1154.61 769.846 1150.81 775.86 1147.01C779.14 1158.23 782.567 1169.35 786.14 1180.43C779.847 1183.79 773.7 1187.03 767.713 1190.15ZM842.526 256.8L825.433 244.893C826.247 243.146 827.06 241.426 827.887 239.693C833.42 244.173 838.94 248.373 844.633 252.306C843.927 253.8 843.22 255.307 842.526 256.8Z" fill="#9CA1C0"/>
<path d="M786.14 1180.43C782.566 1169.35 779.139 1158.23 775.859 1147.01C781.873 1143.21 787.899 1139.41 793.926 1135.61C797.286 1147.31 800.819 1158.95 804.526 1170.51C798.273 1173.92 792.14 1177.23 786.14 1180.43ZM850.099 262.066L842.526 256.799C843.219 255.306 843.926 253.799 844.633 252.306C849.419 255.639 854.34 258.772 859.486 261.772C855.54 261.906 852.366 262.013 850.099 262.066Z" fill="#9DA2C1"/>
<path d="M804.526 1170.51C800.819 1158.95 797.286 1147.31 793.926 1135.61C799.952 1131.8 805.993 1127.99 812.019 1124.17C815.446 1136.32 819.059 1148.37 822.846 1160.36C816.632 1163.84 810.512 1167.23 804.526 1170.51Z" fill="#9EA2C2"/>
<path d="M822.846 1160.36C819.059 1148.37 815.446 1136.32 812.02 1124.17C818.06 1120.36 824.1 1116.55 830.14 1112.73C833.606 1125.24 837.259 1137.68 841.113 1150.01C834.939 1153.56 828.846 1157 822.846 1160.36Z" fill="#9EA2C2"/>
<path d="M841.114 1150.01C837.26 1137.68 833.607 1125.24 830.141 1112.73C836.194 1108.91 842.234 1105.09 848.287 1101.27C851.767 1114.08 855.447 1126.8 859.341 1139.44C853.194 1143.04 847.114 1146.57 841.114 1150.01Z" fill="#9FA3C3"/>
<path d="M859.34 1139.44C855.447 1126.8 851.767 1114.08 848.287 1101.27C854.354 1097.44 860.407 1093.61 866.474 1089.79C869.927 1102.83 873.607 1115.77 877.514 1128.64C871.394 1132.32 865.327 1135.92 859.34 1139.44Z" fill="#A0A4C4"/>
<path d="M877.513 1128.64C873.606 1115.77 869.926 1102.83 866.473 1089.79C872.539 1085.96 878.619 1082.12 884.686 1078.28C888.099 1091.48 891.753 1104.59 895.633 1117.6C889.526 1121.36 883.513 1125.03 877.513 1128.64Z" fill="#A1A5C4"/>
<path d="M895.634 1117.6C891.754 1104.59 888.101 1091.48 884.688 1078.28C890.767 1074.44 896.847 1070.6 902.927 1066.76C906.287 1080.04 909.887 1093.23 913.714 1106.32C907.661 1110.15 901.607 1113.92 895.634 1117.6Z" fill="#A2A6C4"/>
<path d="M913.712 1106.32C909.886 1093.23 906.286 1080.04 902.926 1066.76C909.019 1062.91 915.113 1059.07 921.206 1055.21C924.486 1068.51 927.993 1081.69 931.753 1094.77C925.699 1098.69 919.699 1102.53 913.712 1106.32Z" fill="#A2A6C5"/>
<path d="M931.754 1094.77C927.994 1081.69 924.487 1068.51 921.207 1055.21C927.314 1051.36 933.42 1047.51 939.527 1043.65C942.687 1056.85 946.1 1069.96 949.74 1082.96C943.727 1086.97 937.727 1090.91 931.754 1094.77Z" fill="#A3A7C5"/>
<path d="M949.741 1082.96C946.101 1069.96 942.687 1056.85 939.527 1043.65C945.647 1039.79 951.767 1035.92 957.887 1032.05C960.927 1045.09 964.194 1058.01 967.701 1070.87C961.701 1074.96 955.714 1079 949.741 1082.96Z" fill="#A4A8C6"/>
<path d="M967.7 1070.87C964.193 1058.01 960.927 1045.09 957.887 1032.05C964.02 1028.17 970.153 1024.31 976.287 1020.43C978.887 1031.92 981.66 1043.36 984.633 1054.71C982.22 1057.96 979.793 1061.13 977.353 1064.23C974.14 1066.45 970.913 1068.68 967.7 1070.87Z" fill="#A5A9C6"/>
<path d="M984.634 1054.71C981.66 1043.36 978.887 1031.92 976.287 1020.43C982.434 1016.55 988.58 1012.67 994.74 1008.77C996.447 1016.63 998.247 1024.43 1000.13 1032.2C995.1 1040.08 989.914 1047.57 984.634 1054.71Z" fill="#A6A9C7"/>
<path d="M1000.13 1032.2C998.247 1024.43 996.447 1016.63 994.74 1008.77C1000.9 1004.89 1007.07 1000.99 1013.23 997.093C1013.89 1000.21 1014.55 1003.33 1015.25 1006.44C1011.75 1012.93 1007.98 1019.53 1003.89 1026.2C1002.65 1028.23 1001.39 1030.23 1000.13 1032.2Z" fill="#A6AAC8"/>
<path d="M1015.25 1006.44C1014.55 1003.33 1013.89 1000.21 1013.23 997.093C1016.55 995 1019.87 992.906 1023.19 990.813C1020.73 995.933 1018.07 1001.16 1015.25 1006.44Z" fill="#A7AAC8"/>
<path d="M235.247 992.373C413.247 1137.36 613.847 1227.23 654.22 1244.59C694.594 1227.23 895.194 1137.36 1073.21 992.373C1090.51 941.987 1230.26 526.12 1267.39 126.053L1023.23 205.507C1019.33 206.787 1015.13 206.774 1011.22 205.48L708.78 105.747C700.86 103.134 695.513 95.7469 695.513 87.4136V64.4269L654.22 41.4003L612.927 64.4269V87.4136C612.927 95.7469 607.58 103.134 599.674 105.747L297.234 205.48C293.327 206.774 289.114 206.774 285.207 205.507L41.0601 126.053C78.1801 526.12 217.927 941.987 235.247 992.373ZM654.22 1284.85C651.754 1284.85 649.274 1284.37 646.94 1283.43C644.594 1282.47 410.207 1186 206.54 1018.77C203.82 1016.53 201.767 1013.6 200.593 1010.28C198.94 1005.61 35.2468 538.454 0.0600928 100.214C-0.446574 93.7736 2.27358 87.5201 7.35358 83.5201C12.4202 79.5201 19.1403 78.3068 25.2736 80.3068L291.14 166.84L574.327 73.4535V53.0803C574.327 46.0803 578.114 39.6402 584.22 36.2269L644.82 2.44018C650.674 -0.813152 657.78 -0.813152 663.62 2.44018L724.22 36.2269C730.34 39.6269 734.127 46.0803 734.127 53.0803V73.4535L1017.3 166.84L1283.17 80.3068C1289.3 78.3068 1296.03 79.5201 1301.1 83.5201C1306.17 87.5201 1308.9 93.7736 1308.38 100.214C1273.19 538.454 1109.5 1005.61 1107.86 1010.28C1106.69 1013.6 1104.62 1016.53 1101.9 1018.77C898.22 1186 663.847 1282.47 661.5 1283.43C659.167 1284.37 656.7 1284.85 654.22 1284.85Z" fill="#000072"/>
<mask id="mask1_3_12173" style="mask-type:luminance" maskUnits="userSpaceOnUse" x="105" y="141" width="1099" height="1048">
<path d="M846.193 275.041L654.22 141.307L455.273 267.587C455.273 267.587 186.607 270.054 105.113 208.068C151.447 467.041 212.753 719.147 291.727 963.107L654.22 1188.33L1016.73 963.107C1092.05 730.121 1152.66 476.174 1203.34 208.068C1121.83 270.054 846.193 275.041 846.193 275.041Z" fill="white"/>
</mask>
<g mask="url(#mask1_3_12173)">
<path d="M105.113 1188.33H1203.34V141.307H105.113V1188.33Z" fill="#B6BDCC"/>
<path d="M437.58 796.868C436.686 582.295 479.326 377.708 557.193 191.455C566.926 168.175 577.22 145.175 588.033 122.495V134.641H1210.01V1195H498.286V1222.05C494.753 1209.79 491.353 1197.44 488.113 1185.04C481.62 1160.24 475.726 1135.2 470.446 1109.92C449.326 1008.85 438.02 904.148 437.58 796.868Z" fill="#B6BDCC"/>
<path d="M458.1 796.775C457.233 585.041 499.3 383.161 576.14 199.361C585.753 176.388 595.9 153.708 606.58 131.308V134.641H1210.01V1195H518.02V1216.36C514.527 1204.24 511.18 1192.07 507.967 1179.83C501.567 1155.36 495.753 1130.64 490.54 1105.71C469.7 1005.96 458.54 902.641 458.1 796.775Z" fill="#B7BECD"/>
<path d="M478.633 796.694C477.767 587.801 519.287 388.614 595.1 207.281C604.567 184.614 614.58 162.228 625.113 140.134C630.38 129.094 635.78 118.121 641.3 107.214V134.641H1210.01V1195H537.74V1210.65C534.3 1198.71 530.993 1186.69 527.833 1174.61C521.513 1150.47 515.78 1126.09 510.633 1101.48C490.073 1003.08 479.073 901.148 478.633 796.694Z" fill="#B8BFCD"/>
<path d="M499.167 796.615C498.313 590.548 539.26 394.055 614.047 215.188C623.393 192.828 633.273 170.748 643.66 148.962C648.847 138.068 654.18 127.242 659.62 116.495V134.642H1210.01V1195H568.1V1240.15C553.367 1193.47 540.873 1145.8 530.727 1097.27C510.447 1000.19 499.593 899.642 499.167 796.615Z" fill="#B9C0CE"/>
<path d="M519.687 796.521C518.847 593.294 559.233 399.508 632.993 223.108C651.433 179.001 671.953 135.988 694.447 94.1743V134.641H1210.01V1195H587.673V1233.96C573.153 1187.92 560.833 1140.91 550.82 1093.04C530.82 997.308 520.113 898.134 519.687 796.521Z" fill="#BAC1CF"/>
<path d="M540.22 796.44C539.393 596.04 579.22 404.96 651.94 231.014C670.127 187.534 690.353 145.12 712.527 103.894V134.64H1210.01V1195H607.26V1227.77C592.94 1182.39 580.78 1136.03 570.913 1088.83C551.193 994.427 540.633 896.64 540.22 796.44Z" fill="#BBC1CF"/>
<path d="M560.753 796.348C559.927 598.788 599.193 410.415 670.887 238.935C688.807 196.055 708.767 154.241 730.62 113.601V134.641H1210.01V1195H626.846V1221.59C612.713 1176.84 600.74 1131.13 591.02 1084.6C571.567 991.535 561.153 895.135 560.753 796.348Z" fill="#BCC2D0"/>
<path d="M581.273 796.267C580.473 601.547 619.166 415.867 689.833 246.84C707.5 204.587 727.166 163.374 748.713 123.307V134.64H1210.01V1195H646.42V1215.4C632.5 1171.29 620.686 1126.25 611.113 1080.39C591.94 988.654 581.686 893.627 581.273 796.267Z" fill="#BDC3D1"/>
<path d="M601.807 796.188C601.007 604.295 639.14 421.322 708.78 254.748C726.193 213.108 745.58 172.495 766.807 133.028V134.641H1210.01V1195H666.007V1209.21C652.287 1165.75 640.647 1121.36 631.207 1076.16C612.313 985.761 602.207 892.135 601.807 796.188Z" fill="#BEC4D1"/>
<path d="M622.34 796.094C621.554 607.041 659.127 426.774 727.74 262.667C744.887 221.641 763.98 181.627 784.9 142.734C790.127 133.014 795.473 123.361 800.927 113.774V134.641H1210.01V1195H685.58V1203.03C672.073 1160.2 660.607 1116.47 651.3 1071.95C632.687 982.881 622.727 890.627 622.34 796.094Z" fill="#BFC5D2"/>
<path d="M642.86 796.015C642.1 609.789 679.1 432.229 746.686 270.575C763.58 230.162 782.38 190.749 802.993 152.442C813.286 133.295 824.046 114.415 835.233 95.8286V134.642H1210.01V1195H705.166V1196.84C691.846 1154.67 680.553 1111.59 671.393 1067.72C653.06 980.002 643.246 889.122 642.86 796.015Z" fill="#C0C6D2"/>
<path d="M663.393 795.934C662.633 612.534 699.073 437.681 765.633 278.494C782.273 238.694 800.793 199.881 821.086 162.147C831.22 143.294 841.82 124.708 852.833 106.401V134.641H1210.01V1195H734.94V1221.64C731.42 1211.37 728.02 1201.04 724.74 1190.65C711.633 1149.12 700.513 1106.69 691.486 1063.51C673.433 977.107 663.766 887.627 663.393 795.934Z" fill="#C1C7D3"/>
<path d="M683.926 795.841C683.18 615.295 719.06 443.135 784.58 286.401C800.967 247.228 819.193 209.001 839.18 171.868C849.167 153.295 859.58 134.988 870.433 116.975V134.641H1210.01V1195H754.367V1214.97C750.9 1204.87 747.553 1194.69 744.326 1184.47C731.42 1143.57 720.473 1101.81 711.58 1059.28C693.807 974.228 684.3 886.121 683.926 795.841Z" fill="#C2C8D4"/>
<path d="M704.447 795.762C703.713 618.042 739.033 448.575 803.527 294.322C819.647 255.749 837.607 218.135 857.26 181.575C867.1 163.295 877.353 145.282 888.033 127.549V134.642H1210.01V1195H784.393V1238C777.087 1218.32 770.26 1198.42 763.9 1178.28C751.207 1138.03 740.42 1096.92 731.674 1055.06C714.18 971.335 704.82 884.615 704.447 795.762Z" fill="#C3C9D4"/>
<path d="M724.98 795.667C724.26 620.787 759.007 454.027 822.473 302.227C838.34 264.281 856.007 227.254 875.353 191.281C885.033 173.294 895.127 155.574 905.633 138.121C910.887 129.387 916.247 120.734 921.7 112.134V134.641H1210.01V1195H803.647V1230.87C796.46 1211.49 789.74 1191.91 783.487 1172.09C770.98 1132.49 760.38 1092.03 751.767 1050.84C734.553 968.454 725.34 883.121 724.98 795.667Z" fill="#C4CAD5"/>
<path d="M745.513 795.588C744.793 623.534 778.98 459.481 841.42 310.135C872.647 235.468 910.926 164.468 955.433 98.0012V134.641H1210.01V1195H822.9V1223.73C815.833 1204.68 809.206 1185.4 803.06 1165.91C790.766 1126.95 780.326 1087.15 771.86 1046.61C754.926 965.574 745.86 881.614 745.513 795.588Z" fill="#C5CAD6"/>
<path d="M766.033 795.508C765.34 626.281 798.967 464.934 860.367 318.054C891.073 244.614 928.726 174.788 972.513 109.401V134.641H1210.01V1195H842.153V1216.59C835.193 1197.85 828.686 1178.89 822.646 1159.72C810.553 1121.4 800.287 1082.25 791.953 1042.4C775.3 962.681 766.393 880.108 766.033 795.508Z" fill="#C6CBD6"/>
<path d="M786.567 795.415C785.873 629.042 818.94 470.388 879.326 325.962C909.513 253.748 946.54 185.095 989.58 120.815V134.642H1210.01V1195H861.407V1209.46C854.567 1191.03 848.167 1172.39 842.22 1153.55C830.34 1115.86 820.247 1077.38 812.047 1038.18C795.673 959.802 786.913 878.615 786.567 795.415Z" fill="#C7CCD7"/>
<path d="M807.1 795.334C806.42 631.787 838.913 475.84 898.273 333.88C927.94 262.894 964.34 195.414 1006.65 132.214V134.64H1210.01V1195H880.66V1202.32C873.94 1184.2 867.647 1165.88 861.807 1147.36C850.113 1110.31 840.193 1072.48 832.14 1033.96C816.047 956.907 807.433 877.107 807.1 795.334Z" fill="#C8CDD8"/>
<path d="M827.62 795.254C826.953 634.534 858.9 481.294 917.22 341.787C946.38 272.041 982.14 205.72 1023.71 143.627C1034.11 128.094 1044.87 112.84 1055.98 97.8537V134.64H1210.01V1195H899.913V1195.17C893.313 1177.37 887.127 1159.37 881.393 1141.17C869.9 1104.77 860.153 1067.59 852.247 1029.73C836.42 954.027 827.953 875.601 827.62 795.254Z" fill="#C9CED8"/>
<path d="M848.154 795.161C847.5 637.281 878.874 486.747 936.167 349.707C964.82 281.174 999.94 216.028 1040.79 155.028C1051.01 139.774 1061.57 124.788 1072.49 110.068V134.641H1210.01V1195H939.847V1239.88C881.42 1103.32 848.807 953.041 848.154 795.161Z" fill="#CACFD9"/>
<path d="M868.686 795.081C868.033 640.028 898.846 492.201 955.113 357.615C983.246 290.321 1017.75 226.348 1057.86 166.441C1067.89 151.454 1078.27 136.735 1088.98 122.281V134.641H1210.01V1195H958.74V1231.81C901.353 1097.71 869.326 950.121 868.686 795.081Z" fill="#CBD0DA"/>
<path d="M889.207 795.001C888.58 642.788 918.82 497.655 974.06 365.521C1001.69 299.468 1035.55 236.655 1074.93 177.841C1094.62 148.441 1115.69 120.028 1138.05 92.7212V134.641H1210.01V1195H977.62V1223.75C921.287 1092.08 889.833 947.201 889.207 795.001Z" fill="#CCD1DA"/>
<path d="M909.74 794.908C909.114 645.535 938.807 503.095 993.007 373.442C1020.11 308.615 1053.35 246.975 1092.01 189.255C1111.33 160.388 1131.99 132.522 1153.94 105.708V134.642H1210.01V1195H996.5V1215.68C941.22 1086.47 910.354 944.282 909.74 794.908Z" fill="#CDD2DB"/>
<path d="M930.26 794.828C929.66 648.282 958.78 508.548 1011.97 381.348C1038.55 317.748 1071.15 257.282 1109.07 200.655C1128.03 172.348 1148.31 145.002 1169.83 118.695V134.642H1210.01V1195H1015.38V1207.6C961.153 1080.85 930.873 941.362 930.26 794.828Z" fill="#CED3DB"/>
<path d="M950.793 794.735C950.193 651.029 978.753 514.002 1030.91 389.269C1056.98 326.895 1088.97 267.589 1126.14 212.069C1144.73 184.309 1164.62 157.482 1185.73 131.695V134.642H1210.01V1195H1034.26V1199.54C981.086 1075.23 951.393 938.455 950.793 794.735Z" fill="#CFD3DC"/>
<path d="M971.326 794.654C970.74 653.774 998.726 519.454 1049.86 397.174C1075.42 336.041 1106.77 277.908 1143.21 223.468C1161.43 196.254 1180.93 169.961 1201.62 144.681C1211.97 132.041 1222.61 119.654 1233.54 107.534L1210.01 134.641V1195H1073.77V1236.57C1066.54 1221.73 1059.66 1206.69 1053.14 1191.47C1001.01 1069.61 971.9 935.534 971.326 794.654Z" fill="#D0D4DD"/>
<path d="M991.847 794.575C991.273 656.535 1018.71 524.908 1068.81 405.095C1093.86 345.175 1124.57 288.215 1160.29 234.882C1178.14 208.215 1197.25 182.455 1217.51 157.682H1210.01V1195H1092.23V1227.6C1085.15 1213.07 1078.42 1198.32 1072.03 1183.4C1020.94 1064 992.42 932.615 991.847 794.575Z" fill="#D1D5DD"/>
<path d="M1012.38 794.48C1011.82 659.28 1038.69 530.36 1087.75 413C1112.29 354.32 1142.37 298.534 1177.35 246.294C1194.85 220.174 1213.55 194.934 1233.41 170.667H1210.01V1195H1110.7V1218.63C1103.77 1204.39 1097.17 1189.95 1090.91 1175.33C1040.87 1058.39 1012.94 929.694 1012.38 794.48Z" fill="#D2D6DE"/>
<path d="M1032.91 794.401C1032.37 662.028 1058.66 535.814 1106.7 420.908C1130.73 363.468 1160.18 308.841 1194.42 257.694C1211.54 232.121 1229.86 207.414 1249.3 183.668H1210.01V1195H1129.17V1209.65C1122.38 1195.71 1115.91 1181.57 1109.79 1167.25C1060.81 1052.76 1033.46 926.774 1032.91 794.401Z" fill="#D3D7DF"/>
<path d="M1053.43 794.308C1052.9 664.774 1078.65 541.268 1125.65 428.828C1149.15 372.601 1177.98 319.161 1211.49 269.108H1210.01V1195H1168.53V1241.04C1153.97 1214.51 1140.66 1187.2 1128.67 1159.19C1080.74 1047.15 1053.97 923.854 1053.43 794.308Z" fill="#D5D8DF"/>
<path d="M1073.97 794.227C1073.45 667.521 1098.62 546.721 1144.59 436.734C1167.59 381.747 1195.78 329.467 1228.57 280.507H1210.01V1195H1186.53V1231.17C1172.3 1205.23 1159.29 1178.52 1147.55 1151.12C1100.67 1041.53 1074.49 920.934 1073.97 794.227Z" fill="#D6D9E0"/>
<path d="M1094.49 794.147C1093.98 670.28 1118.59 552.174 1163.55 444.654C1186.02 390.894 1213.58 339.773 1245.63 291.92H1210.01V1195H1204.54V1221.32C1190.63 1195.95 1177.9 1169.84 1166.45 1143.05C1120.59 1035.91 1095.01 918.014 1094.49 794.147Z" fill="#D7DAE1"/>
<path d="M1115.02 794.055C1114.53 673.028 1138.57 557.615 1182.5 452.562C1193.47 426.295 1205.7 400.682 1219.1 375.788H1210.01V1195L1222.55 1211.46C1208.95 1186.67 1196.53 1161.16 1185.33 1134.99C1140.53 1030.3 1115.53 915.095 1115.02 794.055Z" fill="#D8DBE1"/>
<path d="M1135.55 793.975C1135.06 675.775 1158.55 563.068 1201.45 460.482C1212.17 434.828 1224.11 409.802 1237.18 385.495H1210.01V1195L1240.57 1201.6C1227.29 1177.4 1215.14 1152.48 1204.21 1126.92C1160.46 1024.68 1136.05 912.175 1135.55 793.975Z" fill="#D9DCE2"/>
<path d="M1156.07 793.895C1155.61 678.522 1178.53 568.522 1220.39 468.389H1210.01V1118.86H1223.09C1180.39 1019.06 1156.55 909.255 1156.07 793.895Z" fill="#DADCE3"/>
<path d="M1176.61 793.8C1176.14 681.267 1198.5 573.974 1239.34 476.294H1210.01V1110.77H1241.97C1200.33 1013.44 1177.07 906.333 1176.61 793.8Z" fill="#DBDDE3"/>
<path d="M1197.14 793.72C1196.91 738.867 1202.25 685.293 1212.62 633.533H1210.01V953.773H1213.94C1203.14 902.093 1197.37 848.56 1197.14 793.72Z" fill="#DCDEE4"/>
</g>
<path d="M302.513 954.653L654.22 1173.17L1005.93 954.666C1073.94 743.506 1132.73 507.333 1185.35 233.653C1082.38 283.039 856.86 287.719 846.433 287.906C843.727 287.933 841.06 287.146 838.833 285.599L653.887 156.759L462.167 278.453C460.14 279.746 457.793 280.439 455.393 280.453C445.247 280.613 224.847 281.959 122.78 233.426C169.153 486.119 229.58 728.613 302.513 954.653ZM654.22 1201.2C651.86 1201.2 649.513 1200.55 647.433 1199.25L284.927 974.039C282.34 972.426 280.407 969.959 279.473 967.066C202.86 730.399 139.94 475.799 92.4334 210.333C91.5001 205.106 93.8733 199.853 98.3933 197.079C102.913 194.333 108.673 194.613 112.9 197.813C185.02 252.679 419.393 254.719 451.513 254.733L647.327 130.439C651.7 127.653 657.327 127.786 661.58 130.746L850.1 262.066C884.553 261.119 1123.58 252.546 1195.55 197.813C1199.79 194.599 1205.58 194.319 1210.11 197.119C1214.63 199.919 1216.98 205.226 1215.98 210.453C1161.42 499.093 1100.25 746.586 1028.97 967.066C1028.03 969.959 1026.1 972.426 1023.51 974.039L661.02 1199.25C658.94 1200.55 656.58 1201.2 654.22 1201.2Z" fill="#000072"/>
<path d="M459.526 1052.21L302.513 954.653C229.579 728.613 169.153 486.12 122.779 233.426C134.806 239.146 148.473 244.173 163.259 248.586C177.619 325.226 193.433 401.2 210.793 476.466C232.339 569.933 296.526 677.093 369.806 775.933C383.046 793.786 397.406 810.36 412.619 825.76L342.593 894.373L392.486 943.253L441.539 902.306C445.139 952.986 451.179 1003 459.526 1052.21Z" fill="#9297BA"/>
<path d="M482.926 1066.75L459.526 1052.21C451.179 1003 445.139 952.986 441.539 902.306L461.032 886.039C464.806 947.319 472.166 1007.63 482.926 1066.75Z" fill="#9297BA"/>
<path d="M506.593 1081.45L482.926 1066.75C472.166 1007.63 464.807 947.32 461.033 886.04L480.66 869.64C484.38 941.706 493.14 1012.41 506.593 1081.45Z" fill="#9298BB"/>
<path d="M530.54 1096.33L506.593 1081.45C493.14 1012.41 484.38 941.707 480.66 869.641L500.447 853.121C500.834 862.347 501.3 871.547 501.847 880.734C497.834 883.401 493.82 886.054 489.807 888.721C494.127 891.534 498.487 894.267 502.9 896.934C507.687 964.747 516.994 1031.32 530.54 1096.33Z" fill="#9399BB"/>
<path d="M554.781 1111.39L530.541 1096.33C516.994 1031.32 507.687 964.747 502.901 896.933C509.967 901.2 517.154 905.267 524.407 909.133C529.394 971.627 538.287 1033.01 550.821 1093.04C552.101 1099.17 553.421 1105.29 554.781 1111.39ZM501.847 880.733C501.301 871.547 500.834 862.347 500.447 853.12L520.394 836.48C520.714 846.867 521.141 857.227 521.674 867.573C515.061 871.96 508.461 876.347 501.847 880.733Z" fill="#949ABC"/>
<path d="M579.353 1126.67L554.779 1111.39C553.419 1105.29 552.099 1099.17 550.819 1093.04C538.286 1033.01 529.393 971.626 524.406 909.133C531.499 912.919 538.646 916.493 545.913 919.893C550.979 977.239 559.379 1033.61 570.913 1088.83C573.566 1101.49 576.379 1114.11 579.353 1126.67ZM521.673 867.573C521.139 857.226 520.713 846.866 520.393 836.479L540.499 819.679C540.726 831.266 541.099 842.826 541.593 854.346C534.953 858.746 528.313 863.159 521.673 867.573Z" fill="#959ABC"/>
<path d="M604.287 1142.15L579.353 1126.67C576.38 1114.11 573.567 1101.49 570.913 1088.83C559.38 1033.61 550.98 977.24 545.913 919.893C552.993 923.213 560.167 926.36 567.393 929.306C572.473 981.96 580.393 1033.79 591.02 1084.6C595.047 1103.93 599.487 1123.12 604.287 1142.15ZM541.593 854.347C541.1 842.827 540.727 831.267 540.5 819.68L560.793 802.747C560.9 815.56 561.18 828.32 561.62 841.053C554.94 845.48 548.273 849.907 541.593 854.347Z" fill="#969ABC"/>
<path d="M629.62 1157.89L604.286 1142.15C599.486 1123.12 595.046 1103.93 591.02 1084.6C580.393 1033.79 572.473 981.961 567.393 929.308C574.5 932.201 581.633 934.921 588.846 937.455C593.86 985.881 601.326 1033.56 611.113 1080.39C616.566 1106.49 622.74 1132.33 629.62 1157.89ZM561.62 841.055C561.18 828.321 560.9 815.561 560.793 802.748L581.273 785.641C581.26 789.175 581.26 792.721 581.273 796.268C581.327 806.775 581.486 817.241 581.753 827.695C575.046 832.148 568.326 836.601 561.62 841.055Z" fill="#969BBD"/>
<path d="M654.22 1173.17L629.62 1157.89C622.74 1132.33 616.567 1106.49 611.114 1080.39C601.327 1033.56 593.86 985.881 588.847 937.454C595.927 939.947 603.06 942.267 610.234 944.414C615.154 989.001 622.18 1032.95 631.207 1076.16C638.02 1108.77 645.967 1140.96 655.02 1172.68L654.22 1173.17ZM581.754 827.694C581.487 817.241 581.327 806.774 581.274 796.267C581.26 792.721 581.26 789.174 581.274 785.641L601.967 768.361C601.82 777.627 601.767 786.881 601.807 796.187C601.834 802.214 601.9 808.241 601.993 814.254C595.247 818.734 588.5 823.214 581.754 827.694Z" fill="#979CBE"/>
<path d="M655.019 1172.68C645.966 1140.96 638.019 1108.77 631.206 1076.16C622.179 1032.95 615.152 989 610.232 944.413C617.299 946.52 624.406 948.466 631.552 950.24C636.339 991.4 642.952 1031.99 651.299 1071.95C657.606 1102.15 664.912 1131.97 673.179 1161.4L655.019 1172.68ZM622.966 832.653L604.752 812.413C603.832 813.026 602.912 813.64 601.992 814.253C601.899 808.24 601.833 802.213 601.806 796.186C601.766 786.88 601.819 777.626 601.966 768.36L608.392 763L622.366 778.533C622.326 784.373 622.313 790.24 622.339 796.093C622.379 808.32 622.592 820.506 622.966 832.653Z" fill="#989DBE"/>
<path d="M673.18 1161.4C664.913 1131.97 657.607 1102.15 651.3 1071.95C642.953 1031.99 636.34 991.4 631.553 950.24C638.593 951.987 645.687 953.574 652.793 954.987C657.433 993.08 663.647 1030.68 671.393 1067.72C677.193 1095.51 683.86 1122.99 691.34 1150.11L673.18 1161.4ZM644.447 856.52L622.967 832.654C622.593 820.507 622.38 808.32 622.34 796.094C622.313 790.24 622.327 784.374 622.367 778.534L642.9 801.334C643.047 819.827 643.567 838.214 644.447 856.52Z" fill="#999EBF"/>
<path d="M691.34 1150.11C683.86 1122.99 677.194 1095.51 671.394 1067.72C663.647 1030.68 657.434 993.079 652.794 954.986C659.82 956.386 666.86 957.625 673.954 958.705C678.42 994.092 684.287 1029.04 691.487 1063.51C696.794 1088.88 702.82 1113.99 709.54 1138.8L691.34 1150.11ZM650.58 863.346L644.447 856.519C643.567 838.212 643.047 819.825 642.9 801.332L654.22 813.919L663.447 803.665C663.594 818.425 663.98 833.119 664.607 847.759L650.58 863.346Z" fill="#9A9EBF"/>
<path d="M709.541 1138.8C702.821 1113.99 696.794 1088.88 691.487 1063.51C684.287 1029.04 678.421 994.094 673.954 958.707C680.941 959.774 687.967 960.681 694.994 961.427C699.314 994.454 704.847 1027.08 711.581 1059.28C716.381 1082.24 721.781 1104.99 727.767 1127.48L709.541 1138.8ZM664.607 847.761C663.981 833.121 663.594 818.427 663.447 803.667L683.941 780.894C683.914 785.867 683.901 790.854 683.927 795.841C683.967 805.854 684.114 815.841 684.381 825.787L664.607 847.761Z" fill="#9A9FC0"/>
<path d="M727.767 1127.48C721.78 1104.99 716.38 1082.24 711.58 1059.28C704.847 1027.08 699.313 994.454 694.993 961.427C701.967 962.16 708.94 962.747 715.94 963.174C720.1 994.174 725.353 1024.81 731.673 1055.05C735.967 1075.6 740.753 1095.97 746.007 1116.15L727.767 1127.48ZM684.38 825.787C684.113 815.84 683.967 805.854 683.927 795.84C683.9 790.854 683.913 785.867 683.94 780.894L700.047 763L704.647 766.84C704.473 776.454 704.407 786.094 704.447 795.76C704.487 802.974 704.567 810.174 704.713 817.374C701.953 815.72 699.18 814.067 696.407 812.414L684.38 825.787Z" fill="#9BA0C0"/>
<path d="M746.007 1116.15C740.754 1095.97 735.967 1075.6 731.674 1055.05C725.354 1024.81 720.1 994.173 715.94 963.173C722.874 963.6 729.82 963.866 736.767 963.986C740.78 993.266 745.794 1022.23 751.767 1050.84C755.554 1068.97 759.727 1086.96 764.287 1104.79L746.007 1116.15ZM725.567 829.8C718.62 825.653 711.673 821.506 704.713 817.373C704.567 810.173 704.487 802.973 704.447 795.76C704.407 786.093 704.473 776.453 704.647 766.84L724.98 783.813C724.967 787.773 724.967 791.706 724.98 795.666C725.02 807.08 725.22 818.453 725.567 829.8Z" fill="#9CA1C0"/>
<path d="M764.287 1104.79C759.727 1086.96 755.554 1068.97 751.767 1050.84C745.794 1022.23 740.781 993.267 736.767 963.987C739.341 964.027 741.927 964.054 744.501 964.054C748.821 964.054 753.154 963.987 757.474 963.867C761.368 991.76 766.167 1019.35 771.861 1046.61C775.154 1062.33 778.727 1077.93 782.594 1093.41L764.287 1104.79ZM746.567 842.307C739.567 838.134 732.567 833.96 725.567 829.8C725.221 818.454 725.021 807.08 724.981 795.667C724.967 791.707 724.967 787.774 724.981 783.814L745.541 800.974C745.661 814.814 745.994 828.587 746.567 842.307Z" fill="#9DA2C1"/>
<path d="M782.592 1093.41C778.726 1077.93 775.152 1062.33 771.859 1046.61C766.166 1019.35 761.366 991.761 757.472 963.867C764.339 963.681 771.206 963.334 778.059 962.841C781.832 989.654 786.472 1016.17 791.952 1042.4C794.739 1055.69 797.726 1068.89 800.926 1082.03L782.592 1093.41ZM767.699 854.907C760.646 850.707 753.606 846.507 746.566 842.307C745.992 828.587 745.659 814.814 745.539 800.974L766.339 818.347C766.619 830.574 767.072 842.761 767.699 854.907Z" fill="#9EA2C2"/>
<path d="M800.926 1082.03C797.726 1068.89 794.74 1055.69 791.953 1042.4C786.473 1016.17 781.833 989.654 778.06 962.841C784.886 962.347 791.713 961.707 798.526 960.921C802.22 986.947 806.726 1012.72 812.046 1038.17C814.326 1049.04 816.74 1059.85 819.3 1070.61L800.926 1082.03ZM788.993 867.587C781.886 863.361 774.793 859.134 767.7 854.907C767.073 842.761 766.62 830.574 766.34 818.347L787.407 835.934C787.793 846.521 788.326 857.081 788.993 867.587Z" fill="#9EA2C2"/>
<path d="M819.299 1070.61C816.739 1059.85 814.326 1049.04 812.046 1038.17C806.726 1012.72 802.219 986.947 798.526 960.92C805.313 960.12 812.099 959.187 818.859 958.093C822.486 983.653 826.926 1008.95 832.14 1033.96C833.913 1042.4 835.766 1050.8 837.699 1059.17L819.299 1070.61ZM810.446 880.387C803.299 876.12 796.139 871.853 788.993 867.587C788.326 857.08 787.793 846.52 787.406 835.933L808.753 853.76C809.22 862.653 809.793 871.533 810.446 880.387Z" fill="#9FA3C3"/>
<path d="M837.701 1059.17C835.767 1050.8 833.914 1042.4 832.141 1033.96C826.927 1008.95 822.487 983.654 818.86 958.094C825.62 957.001 832.354 955.774 839.074 954.374C842.647 979.774 847.047 1004.89 852.247 1029.73C853.5 1035.75 854.794 1041.75 856.154 1047.72L837.701 1059.17ZM832.101 893.281C824.887 888.987 817.674 884.681 810.447 880.387C809.794 871.534 809.221 862.654 808.754 853.761L830.421 871.84C830.914 879.014 831.474 886.161 832.101 893.281Z" fill="#A0A4C4"/>
<path d="M856.153 1047.72C854.793 1041.75 853.5 1035.75 852.246 1029.73C847.046 1004.89 842.647 979.774 839.073 954.374C845.78 952.987 852.487 951.441 859.153 949.761C863.233 978.947 868.393 1007.79 874.633 1036.24L856.153 1047.72ZM853.94 906.307C846.66 901.961 839.38 897.627 832.1 893.281C831.473 886.161 830.913 879.014 830.42 871.841L852.446 890.227C852.9 895.601 853.407 900.961 853.94 906.307Z" fill="#A1A5C4"/>
<path d="M874.634 1036.24C868.394 1007.79 863.234 978.947 859.154 949.76C865.847 948.054 872.487 946.214 879.114 944.214C882.834 971.374 887.527 998.227 893.154 1024.72L874.634 1036.24ZM876.007 919.454C868.647 915.067 861.301 910.694 853.941 906.307C853.407 900.96 852.901 895.6 852.447 890.227L874.861 908.947C875.221 912.454 875.607 915.96 876.007 919.454Z" fill="#A2A6C4"/>
<path d="M893.153 1024.72C887.526 998.227 882.833 971.374 879.113 944.214C885.766 942.214 892.379 940.054 898.966 937.747C902.353 963.174 906.619 988.347 911.726 1013.19L893.153 1024.72ZM898.299 932.747C890.873 928.307 883.446 923.881 876.006 919.454C875.606 915.961 875.219 912.454 874.859 908.947L897.713 928.027C897.899 929.601 898.099 931.174 898.299 932.747Z" fill="#A2A6C5"/>
<path d="M911.726 1013.19C906.62 988.348 902.353 963.174 898.966 937.748C900.58 937.188 902.193 936.601 903.806 936.014C901.966 934.921 900.14 933.828 898.3 932.748C898.1 931.174 897.9 929.601 897.713 928.027L915.953 943.254L919.9 939.388C922.793 960.334 926.273 981.094 930.34 1001.63L911.726 1013.19Z" fill="#A3A7C5"/>
<path d="M930.34 1001.63C926.274 981.094 922.794 960.334 919.9 939.387L938.26 921.4C937.94 921.72 937.607 922.04 937.287 922.36C937.634 922.2 937.98 922.04 938.327 921.88C941.154 944.827 944.727 967.56 949.007 990.027L930.34 1001.63Z" fill="#A4A8C6"/>
<path d="M949.007 990.027C944.727 967.561 941.153 944.827 938.326 921.881C944.886 918.894 951.393 915.747 957.86 912.441C960.46 934.641 963.753 956.641 967.713 978.401L949.007 990.027ZM938.26 921.401L951.807 908.134C947.287 912.561 942.78 916.987 938.26 921.401Z" fill="#A5A9C6"/>
<path d="M967.713 978.4C963.753 956.64 960.459 934.64 957.859 912.44C964.406 909.094 970.9 905.587 977.34 901.894C979.713 923.72 982.766 945.347 986.499 966.734L967.713 978.4Z" fill="#A6A9C7"/>
<path d="M986.5 966.734C982.766 945.348 979.713 923.721 977.34 901.894C981.967 899.254 986.553 896.508 991.126 893.681C992.673 888.894 994.207 884.094 995.74 879.294C997.993 904.828 1001.21 930.094 1005.33 955.028L986.5 966.734Z" fill="#A6AAC8"/>
<path d="M1005.33 955.027C1001.21 930.094 997.994 904.827 995.74 879.294C1001.58 861.027 1007.3 842.627 1012.94 824.094C1013.94 853.427 1016.22 882.427 1019.73 911.041C1015.17 925.707 1010.57 940.241 1005.93 954.667L1005.33 955.027ZM1142.45 302.414C1146.22 283.814 1149.94 265.121 1153.59 246.347C1165.07 242.481 1175.75 238.267 1185.35 233.654C1185.27 234.054 1185.21 234.454 1185.13 234.854C1182.51 238.641 1179.91 242.454 1177.35 246.294C1165.11 264.574 1153.46 283.294 1142.45 302.414Z" fill="#A7AAC8"/>
<path d="M1019.73 911.039C1016.22 882.426 1013.94 853.426 1012.94 824.092C1019.95 801.012 1026.83 777.706 1033.57 754.226C1033.07 767.546 1032.85 780.932 1032.91 794.399C1032.99 816.359 1033.83 838.146 1035.37 859.746C1030.21 877.013 1025.01 894.106 1019.73 911.039ZM1127.37 374.946C1132.49 350.919 1137.53 326.719 1142.45 302.413C1153.46 283.293 1165.11 264.572 1177.35 246.292C1179.91 242.452 1182.51 238.639 1185.13 234.852C1181.65 252.906 1178.15 270.799 1174.62 288.519C1157.45 316.412 1141.66 345.253 1127.37 374.946Z" fill="#A8ABC8"/>
<path d="M1035.37 859.746C1033.83 838.146 1032.99 816.359 1032.91 794.399C1032.85 780.933 1033.07 767.546 1033.57 754.226C1044.93 714.573 1055.89 674.373 1066.47 633.613C1057.69 685.853 1053.21 739.533 1053.43 794.306C1053.45 795.453 1053.45 796.599 1053.46 797.733C1047.5 818.639 1041.47 839.319 1035.37 859.746ZM1099.83 498.186C1109.34 457.559 1118.5 416.479 1127.37 374.946C1141.66 345.253 1157.45 316.413 1174.62 288.519C1170.31 310.173 1165.97 331.559 1161.58 352.733C1148.51 377.466 1136.51 402.853 1125.65 428.826C1116.17 451.506 1107.55 474.639 1099.83 498.186Z" fill="#A9ACC9"/>
<path d="M1053.46 797.734C1053.45 796.601 1053.45 795.454 1053.43 794.308C1053.21 739.534 1057.69 685.854 1066.47 633.614C1078.03 589.108 1089.14 543.934 1099.83 498.188C1107.55 474.641 1116.17 451.508 1125.65 428.828C1136.51 402.854 1148.51 377.468 1161.58 352.734C1155.34 382.801 1149.02 412.401 1142.61 441.548C1107.93 525.828 1085.45 616.414 1077.34 711.054C1069.51 740.414 1061.55 769.308 1053.46 797.734Z" fill="#AAADC9"/>
<path d="M1077.34 711.053C1085.45 616.413 1107.93 525.826 1142.61 441.546C1121.86 535.866 1100.15 625.493 1077.34 711.053Z" fill="#ABAECA"/>
<path d="M454.526 559.934C389.206 492.934 323.9 425.934 258.566 358.92C325.326 416.8 392.1 474.68 458.86 532.547C457.34 541.64 455.886 550.787 454.526 559.934Z" fill="#9297BA"/>
<path d="M472.608 578.48C466.594 572.307 460.554 566.12 454.527 559.934C455.887 550.787 457.341 541.64 458.861 532.547C464.941 537.827 471.007 543.08 477.087 548.347C475.501 558.36 474.008 568.4 472.608 578.48Z" fill="#9297BA"/>
<path d="M490.847 597.188C484.767 590.948 478.687 584.708 472.607 578.481C474.007 568.401 475.501 558.361 477.087 548.348C483.194 553.641 489.301 558.947 495.407 564.241C493.767 575.187 492.247 586.161 490.847 597.188Z" fill="#9298BB"/>
<path d="M509.221 616.039C503.101 609.759 496.968 603.466 490.848 597.186C492.248 586.159 493.768 575.186 495.408 564.239C501.554 569.559 507.701 574.893 513.834 580.213C512.154 592.119 510.621 604.039 509.221 616.039Z" fill="#9399BB"/>
<path d="M527.781 635.066C521.594 628.72 515.407 622.386 509.221 616.04C510.621 604.04 512.154 592.12 513.834 580.213C520.021 585.573 526.181 590.92 532.367 596.266C530.674 609.146 529.141 622.093 527.781 635.066Z" fill="#949ABC"/>
<path d="M546.499 654.281C540.259 647.881 534.019 641.468 527.779 635.068C529.139 622.095 530.673 609.148 532.366 596.268C538.579 601.655 544.793 607.054 551.006 612.441C549.313 626.321 547.806 640.268 546.499 654.281Z" fill="#959ABC"/>
<path d="M565.42 673.693C559.113 667.213 552.807 660.747 546.5 654.28C547.807 640.267 549.313 626.32 551.007 612.44C557.26 617.853 563.513 623.28 569.767 628.707C568.087 643.627 566.633 658.627 565.42 673.693Z" fill="#969ABC"/>
<path d="M566.607 674.906C566.22 674.493 565.82 674.093 565.42 673.693C566.633 658.626 568.087 643.626 569.767 628.706C576.06 634.16 582.366 639.613 588.66 645.08C588.353 648.12 588.047 651.146 587.753 654.2L566.607 674.906Z" fill="#969BBD"/>
<path d="M587.754 654.199C588.047 651.146 588.354 648.119 588.66 645.079C590.154 646.359 591.634 647.653 593.114 648.946L587.754 654.199Z" fill="#979CBE"/>
<path d="M731.153 664.439L715.326 648.946C721.806 643.333 728.286 637.706 734.766 632.093C733.42 642.84 732.22 653.613 731.153 664.439Z" fill="#9CA1C0"/>
<path d="M738.406 671.547L731.152 664.44C732.219 653.613 733.419 642.84 734.766 632.093C742.579 625.32 750.379 618.56 758.206 611.773C756.032 626.893 754.126 642.107 752.512 657.387C747.806 662.12 743.112 666.827 738.406 671.547Z" fill="#9DA2C1"/>
<path d="M752.514 657.387C754.127 642.107 756.034 626.893 758.207 611.773C766.18 604.853 774.18 597.92 782.167 591C779.834 605.213 777.754 619.52 775.927 633.893C768.127 641.72 760.314 649.56 752.514 657.387Z" fill="#9EA2C2"/>
<path d="M775.926 633.895C777.752 619.521 779.833 605.215 782.166 591.001C790.353 583.908 798.526 576.815 806.712 569.721C804.259 582.975 802.019 596.308 800.006 609.721C791.979 617.775 783.952 625.828 775.926 633.895Z" fill="#9EA2C2"/>
<path d="M800.008 609.721C802.021 596.307 804.261 582.974 806.714 569.721C815.128 562.427 823.528 555.147 831.941 547.854C829.394 560.081 827.034 572.387 824.874 584.761C816.581 593.081 808.288 601.401 800.008 609.721Z" fill="#9FA3C3"/>
<path d="M824.873 584.76C827.033 572.386 829.393 560.08 831.94 547.853C840.606 540.346 849.273 532.826 857.926 525.32C855.34 536.453 852.9 547.653 850.633 558.906C842.046 567.52 833.46 576.146 824.873 584.76Z" fill="#A0A4C4"/>
<path d="M850.633 558.906C852.899 547.653 855.339 536.453 857.926 525.32C866.899 517.546 875.86 509.773 884.82 502C882.233 511.946 879.793 521.92 877.473 531.96C868.513 540.946 859.579 549.92 850.633 558.906Z" fill="#A1A5C4"/>
<path d="M877.473 531.961C879.793 521.921 882.233 511.948 884.819 502.001C894.126 493.934 903.459 485.854 912.766 477.774C910.273 486.388 907.886 495.041 905.592 503.734C896.219 513.134 886.846 522.561 877.473 531.961Z" fill="#A2A6C4"/>
<path d="M905.594 503.734C907.887 495.041 910.274 486.388 912.767 477.774C922.501 469.334 932.234 460.908 941.967 452.468C939.674 459.574 937.46 466.734 935.314 473.908C925.407 483.854 915.5 493.788 905.594 503.734Z" fill="#A2A6C5"/>
<path d="M935.312 473.906C937.459 466.733 939.673 459.573 941.966 452.466C952.219 443.573 962.459 434.706 972.699 425.813C970.766 431.213 968.886 436.626 967.033 442.066C956.459 452.68 945.886 463.293 935.312 473.906Z" fill="#A3A7C5"/>
<path d="M967.033 442.066C968.887 436.626 970.767 431.213 972.7 425.813C983.593 416.386 994.487 406.933 1005.37 397.506C1004.03 400.853 1002.71 404.2 1001.42 407.56C989.953 419.053 978.487 430.56 967.033 442.066Z" fill="#A4A8C6"/>
<path d="M1001.42 407.561C1002.71 404.201 1004.03 400.854 1005.37 397.507C1017.07 387.347 1028.79 377.2 1040.51 367.04C1040.17 367.814 1039.82 368.574 1039.49 369.347C1026.78 382.094 1014.11 394.814 1001.42 407.561Z" fill="#A5A9C6"/>
<path d="M1039.49 369.348C1039.82 368.574 1040.17 367.814 1040.51 367.041C1043.63 364.334 1046.75 361.628 1049.87 358.921C1046.41 362.401 1042.94 365.881 1039.49 369.348Z" fill="#A6A9C7"/>
<path d="M658.513 1181.89L296.006 956.666C217.033 712.706 155.739 460.613 109.393 201.626C122.019 211.239 139.153 219.293 159.073 226.053C160.459 233.573 161.846 241.079 163.259 248.586C148.473 244.173 134.806 239.146 122.779 233.426C169.153 486.119 229.579 728.613 302.513 954.653L459.526 1052.21L482.926 1066.75L506.593 1081.45L530.539 1096.33L554.779 1111.39L579.353 1126.67L604.286 1142.15L629.619 1157.89L654.219 1173.17L655.019 1172.68L673.179 1161.4L691.339 1150.11L709.539 1138.8L727.766 1127.48L746.006 1116.15L764.286 1104.79L782.593 1093.41L800.926 1082.03L819.299 1070.61L837.699 1059.17L856.153 1047.72L874.633 1036.24L893.153 1024.72L911.726 1013.19L930.339 1001.63L949.006 990.026L967.713 978.399L986.499 966.733L1005.33 955.026L1005.93 954.666C1010.57 940.239 1015.17 925.706 1019.73 911.039C1025.01 894.106 1030.21 877.013 1035.37 859.746C1041.47 839.319 1047.5 818.639 1053.46 797.733C1061.55 769.306 1069.51 740.413 1077.34 711.053C1100.15 625.493 1121.86 535.866 1142.61 441.546C1149.02 412.399 1155.34 382.799 1161.58 352.733C1165.97 331.559 1170.31 310.173 1174.62 288.519C1178.15 270.799 1181.65 252.906 1185.13 234.853C1185.21 234.453 1185.27 234.053 1185.35 233.653C1175.75 238.266 1165.07 242.479 1153.59 246.346C1154.89 239.746 1156.15 233.159 1157.43 226.546C1177.66 219.479 1194.98 211.239 1207.63 201.626C1156.94 469.746 1096.33 723.693 1021.02 956.666L658.513 1181.89Z" fill="#000072"/>
<path d="M1065.41 345.454L1040.19 317.201L710.993 528.761L654.22 432.534L597.446 528.761L268.246 317.201L243.033 345.454L593.113 648.947L342.593 894.374L392.487 943.254L608.393 763.001L654.22 813.921L700.046 763.001L915.953 943.254L965.86 894.374L715.326 648.947L1065.41 345.454Z" fill="#FF1B40"/>
<path d="M382.034 886.746C374.607 885.119 367.554 881.466 361.754 875.813L598.487 646.533L596.794 653.506C592.007 673.119 581.834 691.026 567.407 705.159L382.034 886.746Z" fill="#FFA4B3"/>
<path d="M664.834 450.519C664.847 450.519 664.834 450.533 664.834 450.519Z" fill="#E5E7ED"/>
<path d="M664.834 450.52C664.847 450.52 664.834 450.534 664.834 450.52Z" fill="#E5E8ED"/>
<path d="M600.086 563.693C491.406 486.2 382.726 408.707 274.059 331.227C272.113 326.547 270.179 321.867 268.246 317.2L597.446 528.76L654.22 432.533L664.833 450.52L679.74 475.787L694.899 501.467L710.326 527.613L710.993 528.76L1040.19 317.2C1039.98 319.32 1039.75 321.44 1039.53 323.56C928.806 403.493 818.086 483.427 707.353 563.347C689.5 533.093 671.646 502.827 653.806 472.573C635.9 502.947 617.993 533.32 600.086 563.693Z" fill="#FFA4B3"/>
<path d="M951.807 908.133C953.473 906.493 955.153 904.853 956.833 903.213L951.807 908.133Z" fill="#EBEDF1"/>
<path d="M956.834 903.213C959.834 900.266 962.847 897.319 965.861 894.373L956.834 903.213Z" fill="#ECEDF1"/>
<path d="M951.807 908.133L956.833 903.213C955.153 904.853 953.473 906.493 951.807 908.133Z" fill="#DBDDE8"/>
<path d="M956.834 903.213L965.861 894.373C962.847 897.319 959.834 900.266 956.834 903.213Z" fill="#DBDDE9"/>
<path d="M926.901 884.227L731.101 696.28C717.661 683.373 709.167 666.16 707.101 647.627L707.074 647.347C785.674 722.373 864.274 797.4 942.874 872.427L939.527 875.707C935.767 879.387 931.474 882.24 926.901 884.227Z" fill="#FFA4B3"/>
<path d="M1049.87 358.92L1065.41 345.453C1060.22 349.947 1055.05 354.427 1049.87 358.92ZM1065.41 345.453L1058.26 337.44C1060.63 340.107 1063.02 342.787 1065.41 345.453Z" fill="#A6A9C7"/>
<path d="M715.326 648.947L734.766 632.094C728.286 637.707 721.806 643.334 715.326 648.947Z" fill="#7D81B0"/>
<path d="M734.766 632.094L758.206 611.774C750.379 618.56 742.579 625.32 734.766 632.094Z" fill="#7E82B1"/>
<path d="M758.207 611.773L782.167 591C774.18 597.92 766.18 604.853 758.207 611.773Z" fill="#7E82B2"/>
<path d="M782.166 591L806.713 569.72C798.526 576.813 790.353 583.907 782.166 591Z" fill="#7E82B2"/>
<path d="M806.713 569.721L831.94 547.854C823.526 555.147 815.126 562.427 806.713 569.721Z" fill="#7F82B3"/>
<path d="M831.939 547.854L857.926 525.32C849.273 532.827 840.606 540.347 831.939 547.854Z" fill="#8083B4"/>
<path d="M857.926 525.32L884.819 502C875.859 509.774 866.899 517.547 857.926 525.32Z" fill="#8184B4"/>
<path d="M884.82 502L912.767 477.773C903.46 485.853 894.127 493.933 884.82 502Z" fill="#8285B4"/>
<path d="M912.766 477.773L941.966 452.467C932.232 460.907 922.499 469.333 912.766 477.773Z" fill="#8285B4"/>
<path d="M941.967 452.467L972.7 425.814C962.46 434.707 952.22 443.573 941.967 452.467Z" fill="#8286B4"/>
<path d="M972.699 425.812L1005.37 397.506C994.486 406.932 983.593 416.386 972.699 425.812Z" fill="#8386B5"/>
<path d="M1005.37 397.506L1040.51 367.039C1028.79 377.199 1017.07 387.346 1005.37 397.506Z" fill="#8487B5"/>
<path d="M1040.51 367.039L1049.87 358.919C1046.75 361.626 1043.63 364.332 1040.51 367.039Z" fill="#8587B6"/>
<path d="M715.327 648.947L715.287 648.534C713.047 623.267 723.687 598.587 743.58 582.867L1056.67 335.667C1057.21 336.254 1057.73 336.854 1058.26 337.441L1065.41 345.454L1049.87 358.921L1040.51 367.041L1005.37 397.507L972.7 425.814L941.967 452.467L912.767 477.774L884.82 502.001L857.927 525.321L831.94 547.854L806.713 569.721L782.167 591.001L758.207 611.774L734.767 632.094L715.327 648.947Z" fill="#CC164A"/>
<path d="M915.954 943.254L704.647 766.841L700.047 763.001L683.941 780.894L663.447 803.667L654.221 813.921L608.394 763.001L601.967 768.361L581.274 785.641L560.794 802.747L540.501 819.681L520.394 836.481L500.447 853.121L480.66 869.64L461.034 886.04L441.541 902.307L392.487 943.254L342.594 894.374L358.421 909.881L382.034 886.747C385.021 887.414 388.074 887.734 391.114 887.734C400.674 887.734 410.261 884.507 418.101 877.961L604.754 722.107L650.58 773.027L696.407 722.107L883.074 877.961C890.914 884.507 900.5 887.734 910.047 887.734C915.807 887.734 921.554 886.561 926.9 884.227L951.807 908.134L938.26 921.401L919.9 939.387L915.954 943.254ZM965.86 894.374C958.194 887.067 950.527 879.747 942.874 872.427L943.167 872.147L965.86 894.374ZM342.594 894.374L361.647 875.707C361.674 875.747 361.714 875.787 361.754 875.814L342.594 894.374Z" fill="#CC164A"/>
<path d="M358.421 909.879L342.594 894.372L361.754 875.812C367.554 881.466 374.607 885.119 382.034 886.746L358.421 909.879Z" fill="#CC83A6"/>
<path d="M951.807 908.133L926.9 884.226C931.474 882.24 935.767 879.386 939.527 875.706L942.874 872.426C950.527 879.746 958.194 887.066 965.86 894.373L956.834 903.213L951.807 908.133Z" fill="#CC83A6"/>
<path d="M258.567 358.92C253.393 354.427 248.22 349.947 243.033 345.453L258.567 358.92Z" fill="#9297BA"/>
<path d="M458.86 532.547C392.1 474.68 325.326 416.8 258.566 358.92L458.86 532.547Z" fill="#7579AC"/>
<path d="M477.086 548.348C471.006 543.081 464.939 537.828 458.859 532.548L477.086 548.348Z" fill="#7579AC"/>
<path d="M495.406 564.24C489.299 558.947 483.193 553.64 477.086 548.347L495.406 564.24Z" fill="#757AAC"/>
<path d="M513.833 580.213C507.699 574.893 501.553 569.559 495.406 564.239L513.833 580.213Z" fill="#767AAC"/>
<path d="M532.367 596.266C526.181 590.919 520.021 585.572 513.834 580.212L532.367 596.266Z" fill="#767BAD"/>
<path d="M551.007 612.439C544.794 607.053 538.581 601.653 532.367 596.266L551.007 612.439Z" fill="#777BAD"/>
<path d="M569.768 628.707C563.514 623.28 557.261 617.854 551.008 612.44L569.768 628.694V628.707Z" fill="#787BAD"/>
<path d="M588.659 645.08C582.366 639.613 576.059 634.16 569.766 628.707V628.693L588.659 645.08Z" fill="#787CAE"/>
<path d="M593.114 648.947C591.634 647.654 590.153 646.361 588.66 645.081L593.114 648.947Z" fill="#797DAF"/>
<path d="M593.113 648.947L588.66 645.081L569.767 628.694L551.007 612.44L532.367 596.267L513.833 580.214L495.407 564.24L477.087 548.347L458.86 532.547L258.567 358.921L243.033 345.454C246.793 341.254 250.54 337.054 254.287 332.841C357.887 417.907 461.5 502.974 565.1 588.027C580.687 600.841 590.487 619.374 592.273 639.467C592.553 642.627 592.833 645.787 593.113 648.947Z" fill="#CC164A"/>
<path d="M700.061 750.133C702.968 750.133 705.901 751.119 708.301 753.119L915.261 925.919L947.461 894.372L706.328 658.133C703.754 655.613 702.354 652.146 702.461 648.546C702.581 644.959 704.181 641.573 706.901 639.213L1041.45 349.199C1042.95 347.893 1043.85 346.066 1043.98 344.079C1044.11 342.093 1043.45 340.173 1042.11 338.679C1039.67 335.946 1035.69 335.412 1032.59 337.386L717.954 539.586C715.021 541.479 711.434 542.093 708.021 541.279C704.621 540.479 701.688 538.319 699.914 535.306L654.221 457.853L608.528 535.306C606.754 538.319 603.834 540.479 600.421 541.279C597.021 542.093 593.434 541.479 590.488 539.586L275.848 337.386C272.768 335.399 268.768 335.946 266.328 338.679C264.994 340.173 264.341 342.093 264.461 344.079C264.594 346.066 265.501 347.893 267.008 349.199L601.554 639.213C604.261 641.573 605.874 644.959 605.981 648.546C606.088 652.146 604.688 655.613 602.128 658.133L360.981 894.372L393.181 925.919L600.141 753.119C605.461 748.679 613.341 749.253 617.968 754.386L654.221 794.679L690.488 754.386C693.021 751.573 696.528 750.133 700.061 750.133ZM915.954 956.133C913.034 956.133 910.101 955.146 907.701 953.133L701.328 780.826L663.794 822.533C658.901 827.946 649.541 827.946 644.661 822.533L607.128 780.826L400.741 953.133C395.674 957.386 388.208 957.079 383.488 952.453L333.581 903.572C331.114 901.146 329.714 897.839 329.714 894.372C329.714 890.919 331.114 887.599 333.581 885.186L574.141 649.519L250.141 368.639C243.394 362.786 239.354 354.653 238.781 345.719C238.208 336.813 241.168 328.213 247.128 321.546C258.021 309.306 275.968 306.852 289.768 315.719L593.154 510.706L643.141 425.986C645.448 422.066 649.674 419.653 654.221 419.653C658.781 419.653 662.994 422.066 665.301 425.986L715.288 510.706L1018.67 315.719C1032.47 306.852 1050.41 309.306 1061.33 321.546C1067.27 328.213 1070.23 336.813 1069.67 345.719C1069.1 354.653 1065.06 362.786 1058.3 368.639L734.314 649.519L974.861 885.186C977.341 887.599 978.728 890.919 978.728 894.372C978.728 897.839 977.341 901.146 974.861 903.572L924.954 952.453C922.461 954.893 919.221 956.133 915.954 956.133Z" fill="#000072"/>
</svg>
