<svg width="1607" height="1581" viewBox="0 0 1607 1581" fill="none" xmlns="http://www.w3.org/2000/svg">
<path d="M1409.37 1343.9C1243.06 1528.21 902.795 1557.76 804.29 1557.76C705.828 1557.76 365.497 1528.21 199.209 1343.9C-36.5901 1082.59 65.3688 741.736 182.475 513.485C201.37 476.691 220.608 442.811 238.929 412.7C294.604 321.098 341.457 263.945 341.457 263.945L804.29 8.31399L1267.1 263.945C1267.1 263.945 1313.97 321.098 1369.64 412.7C1387.96 442.811 1407.2 476.691 1426.11 513.485C1543.2 741.736 1645.17 1082.59 1409.37 1343.9Z" fill="white"/>
<path d="M1409.37 1343.84C1243.06 1528.18 902.75 1557.78 804.31 1557.78C705.849 1557.78 365.565 1528.18 199.231 1343.84C69.5388 1200.07 41.9788 1032.3 63.032 872.339C77.5654 972.446 118.739 1070.9 199.231 1160.15C365.565 1344.43 705.849 1374.02 804.31 1374.02C902.75 1374.02 1243.06 1344.43 1409.37 1160.15C1489.87 1070.9 1531.04 972.446 1545.58 872.339C1566.62 1032.3 1539.06 1200.07 1409.37 1343.84Z" fill="#E5E5E5"/>
<path d="M190.524 1351.7C77.3551 1246.11 22.961 1087.56 33.2857 934.497C42.9501 782.961 91.1589 635.95 161.612 502.357C208.919 413.945 264.762 330.799 332.429 256.513C342.206 246.285 359.086 259.138 350.533 271.348C143.717 587.145 -56.963 993.369 207.904 1336.03C216.876 1347.15 201.187 1362.06 190.524 1351.7Z" fill="#232333"/>
<path d="M1065.8 1535.88C940.734 1579.12 803.352 1592.88 672.867 1568.92C629.365 1561.6 586.362 1551.15 544.797 1536.36C538.675 1534.19 535.466 1527.45 537.661 1521.33C539.542 1516.03 544.852 1512.91 550.2 1513.6C656.252 1525.91 761.879 1539.59 868.558 1532.15C932.786 1528.55 996.166 1520.99 1060.34 1513.12C1074.04 1511.39 1078.93 1531.17 1065.8 1535.88Z" fill="#000072"/>
<path d="M1276.17 256.503C1488.82 488.183 1679.64 933.247 1510.97 1231.43C1486.32 1276.37 1454.48 1316.85 1418.09 1351.7C1413.4 1356.18 1405.96 1356.02 1401.49 1351.34C1397.4 1347.09 1397.18 1340.54 1400.7 1336.03C1430.37 1297.63 1455.79 1256.69 1475.48 1213.45C1601.27 936.42 1478.27 640.586 1335.25 395.675C1310.86 353.636 1285 311.663 1258.07 271.35C1249.86 259.889 1265.9 245.772 1276.17 256.503Z" fill="#232333"/>
<path d="M1435.36 437.028C1531.94 675.798 1620.61 992.055 1546.72 1274.72C1472.09 1303.87 1417.16 1345.59 1310.11 1406.19C1226.4 1453.59 1018.78 1532.19 805.296 1532.19C591.793 1532.19 384.189 1453.59 300.464 1406.19C193.411 1345.59 138.477 1303.87 63.8509 1274.72C-10.0435 992.055 78.6372 675.798 175.225 437.028C175.225 437.028 182.476 124.37 799.898 337.263C1435.12 211.272 1435.36 437.028 1435.36 437.028Z" fill="#22C1FF"/>
<path d="M1546.74 1274.7C1472.11 1303.84 1417.18 1345.6 1310.12 1406.21C1226.42 1453.58 1018.82 1532.21 805.312 1532.21C591.808 1532.21 384.181 1453.58 300.477 1406.21C193.443 1345.6 138.508 1303.84 63.8693 1274.7C-10.0125 992.05 78.6012 675.828 175.241 437.035C175.241 437.035 179.403 258.985 446.796 263.076C533.699 264.426 648.416 285.014 799.914 337.247C915.872 314.243 1010.63 302.969 1088.13 299.857C1435.18 286.124 1435.35 437.035 1435.35 437.035C1531.94 675.828 1620.63 992.05 1546.74 1274.7Z" fill="#24A1FF"/>
<path d="M1446.2 432.651C1570.36 674.546 1640.06 1014.28 1571.22 1281.12C1569.09 1289.28 1563.25 1295.47 1555.92 1298.3C1483.2 1327.18 1413.29 1377.56 1342.36 1417.6C1298.44 1443.72 1250.87 1464.96 1203.38 1482.56C904.263 1598.36 574.442 1578.04 290.137 1430.1C211.769 1387.43 134.822 1330.47 54.649 1298.3C46.8499 1295.28 41.3551 1288.63 39.3681 1281.12C-6.44411 1102.5 9.98355 914.789 52.5964 737.67C77.9436 632.137 114.048 528.761 164.382 432.651C171.356 420.44 189.716 427.727 186.077 441.426C156.009 544.32 123.062 644.763 98.4765 748.59C58.7828 918.19 43.6353 1098.67 88.3293 1268.32L73.0637 1251.15C152.436 1282.24 220.93 1331.4 294.142 1372.71C448.549 1459.06 629.587 1502.8 805.286 1505.59C965.58 1504.01 1128.72 1464.91 1274.13 1395.75C1363.68 1350.4 1443.09 1288.3 1537.52 1251.14L1522.24 1268.32C1539.97 1201.33 1548.35 1131.75 1549.38 1061.88C1554.02 848.295 1485.04 644.063 1424.49 441.426C1422.7 435.167 1426.26 428.668 1432.48 426.83C1437.95 425.254 1443.64 427.814 1446.2 432.651Z" fill="#000072"/>
<path d="M1559.93 1209.26C1559.93 1209.26 1281.61 1401.08 805.266 1411.02H804.289C328.009 1401.08 49.6815 1209.26 49.6815 1209.26C-1.15859 1017.17 69.0409 740.836 69.0409 740.836C182.469 372.837 164.336 220.327 164.336 220.327C164.336 220.327 354.683 216.942 418.252 220.327C463.417 528.949 791.419 539.54 804.875 539.844H805.266C824.929 539.258 1146.66 525.737 1191.35 220.327C1254.94 216.942 1445.21 220.327 1445.21 220.327C1445.21 220.327 1427.09 372.837 1540.57 740.836C1540.57 740.836 1610.76 1017.17 1559.93 1209.26Z" fill="white"/>
<path d="M1559.91 1209.25C1559.91 1209.25 1281.59 1401.06 805.249 1410.99H804.251C327.974 1401.06 49.6589 1209.25 49.6589 1209.25C-1.18306 1017.14 69.0181 740.806 69.0181 740.806C182.446 372.809 164.313 220.322 164.313 220.322C164.313 220.322 183.845 219.953 212.511 219.606C273.282 218.846 375.005 218.021 418.238 220.322C463.402 528.941 791.403 539.533 804.837 539.815H805.249C824.912 539.229 1146.64 525.708 1191.33 220.322C1254.92 216.915 1445.19 220.322 1445.19 220.322C1445.19 220.322 1427.07 372.809 1540.55 740.806C1540.55 740.806 1610.74 1017.14 1559.91 1209.25Z" fill="white"/>
<path d="M1559.91 1209.25C1559.91 1209.25 1281.59 1401.06 805.249 1410.99H804.251C327.974 1401.06 49.6589 1209.25 49.6589 1209.25C-1.18306 1017.14 69.0181 740.806 69.0181 740.806C118.684 579.705 143.072 459.903 154.885 376.129C170.044 268.503 164.313 220.322 164.313 220.322C164.313 220.322 183.845 219.953 212.511 219.606C262.105 218.976 338.978 218.325 389.112 219.302H389.242C400.463 219.562 410.338 219.91 418.238 220.322C418.477 221.776 418.65 223.23 418.932 224.706C432.757 313.32 470.174 377.019 516.64 422.813C629.345 534.259 795.374 539.576 804.837 539.815H805.249C819.118 539.402 983.324 532.566 1094.4 421.359C1140.5 375.37 1177.46 311.497 1190.92 222.818C1191.09 222.015 1191.2 221.125 1191.33 220.322C1196.36 220.018 1202.2 219.844 1208.69 219.649C1283.94 217.435 1445.19 220.322 1445.19 220.322C1445.19 220.322 1439.59 267.396 1454.09 372.331C1465.68 456.279 1490.14 577.253 1540.55 740.806C1540.55 740.806 1610.74 1017.14 1559.91 1209.25Z" fill="white"/>
<path d="M1573.42 1135.71C1517.97 1133.73 994.255 1115.47 805.237 1126.94C805.237 1126.94 805.065 1126.89 804.785 1126.77V1126.94C615.251 1115.47 89.2027 1133.85 36.1365 1135.78C31.8176 1098.86 30.5895 1060.66 31.4046 1023.22V1023.11C36.8979 990.475 45.0971 969.356 45.0971 969.356C45.0971 969.356 431.051 956.023 804.785 956.023V963.916C805.129 961.342 805.237 958.703 805.237 956.023C1178.97 956.023 1565.01 969.356 1565.01 969.356C1565.01 969.356 1572.6 988.954 1578.04 1019.6C1579.03 1058.16 1577.94 1097.64 1573.42 1135.71Z" fill="white"/>
<path d="M1132.15 1291.64C914.237 1295.07 696.38 1295.07 478.446 1291.64C420.983 1290.73 374.193 1245.12 372.152 1187.69C368.886 1094.63 368.886 1001.83 372.152 908.775C374.193 851.351 421.003 805.727 478.446 804.833C696.38 801.392 914.237 801.392 1132.15 804.833C1189.61 805.727 1236.42 851.351 1238.45 908.775C1241.73 1001.83 1241.73 1094.63 1238.45 1187.69C1236.4 1245.12 1189.61 1290.73 1132.15 1291.64Z" fill="#E8E8E8"/>
<path d="M69.0103 740.82C182.434 372.824 164.308 220.317 164.308 220.317C164.308 220.317 183.833 219.959 212.502 219.618C239.056 595.799 69.0103 740.82 69.0103 740.82Z" fill="#FFCC3E"/>
<path d="M210.696 392.707C191.269 388.444 172.541 382.993 154.871 376.143C156.222 366.625 157.393 357.497 158.451 348.906C158.63 347.132 158.857 345.375 159.036 343.683C161.428 323.101 162.958 305.252 163.934 289.99C164.064 287.712 164.178 285.482 164.308 283.318C164.422 281.854 164.471 280.52 164.536 279.104C164.829 273.377 164.992 268.105 165.122 263.257C165.187 261.499 165.235 259.807 165.235 258.164C165.756 232.489 164.308 220.318 164.308 220.318C164.308 220.318 183.833 219.96 212.502 219.618C217.058 283.969 215.838 341.519 210.696 392.707Z" fill="#FFB140"/>
<path d="M1540.3 740.802C1426.89 372.812 1445.03 220.32 1445.03 220.32C1445.03 220.32 1425.48 219.958 1396.81 219.597C1370.26 595.797 1540.3 740.802 1540.3 740.802Z" fill="#FFCC3E"/>
<path d="M1453.98 372.391C1436.41 379.879 1417.83 385.79 1398.41 390.478C1393.43 339.827 1392.38 282.954 1396.82 219.609C1413.49 219.775 1427.12 220.024 1435.6 220.149C1437.01 220.19 1438.3 220.19 1439.4 220.19C1442.51 220.252 1444.44 220.315 1445.02 220.315C1445.02 220.315 1439.4 267.398 1453.98 372.391Z" fill="#FFB140"/>
<path d="M1559.92 1209.25C1559.92 1209.25 1281.58 1401.06 805.241 1411H804.252C327.979 1401.06 49.6568 1209.25 49.6568 1209.25C33.4562 1147.99 29.5361 1078.16 31.6962 1011.47C33.3894 1056.93 38.7101 1102.14 49.6568 1143.44C49.6568 1143.44 327.979 1335.25 804.252 1345.2H805.241C1281.58 1335.25 1559.92 1143.44 1559.92 1143.44C1570.85 1102.14 1576.16 1056.93 1577.88 1011.47C1580.03 1078.16 1576.12 1147.99 1559.92 1209.25Z" fill="#FFCC3E"/>
<path d="M1573.42 1135.71C1517.97 1133.73 994.255 1115.47 805.237 1126.94C805.237 1126.94 805.065 1126.89 804.785 1126.77V1126.94C615.251 1115.47 89.2027 1133.85 36.1365 1135.78C31.8176 1098.86 30.5895 1060.66 31.4046 1023.22V1023.11C36.8979 990.475 45.0971 969.356 45.0971 969.356C45.0971 969.356 431.051 956.023 804.785 956.023V963.916C805.129 961.342 805.237 958.703 805.237 956.023C1178.97 956.023 1565.01 969.356 1565.01 969.356C1565.01 969.356 1572.6 988.954 1578.04 1019.6C1579.03 1058.16 1577.94 1097.64 1573.42 1135.71Z" fill="#E8E8E8"/>
<path d="M1454.09 372.331C1352.95 415.516 1215.91 406.618 1094.4 421.345C1140.51 375.38 1177.47 311.494 1190.91 222.822C1192.38 222.594 1193.86 222.303 1195.31 222.054C1199.81 221.308 1204.25 220.478 1208.71 219.669C1283.92 217.45 1445.19 220.312 1445.19 220.312C1445.19 220.312 1439.59 267.397 1454.09 372.331Z" fill="#E8E8E8"/>
<path d="M1454.09 372.331L1453.98 372.393C1436.42 379.881 1417.83 385.793 1398.42 390.48C1393.44 339.828 1392.38 282.953 1396.82 219.607C1413.5 219.773 1427.12 220.022 1435.61 220.146C1437.02 220.188 1438.3 220.188 1439.4 220.188C1442.51 220.25 1444.44 220.312 1445.02 220.312H1445.19C1445.19 220.312 1439.59 267.397 1454.09 372.331Z" fill="#FFB140"/>
<path d="M154.885 376.141C170.04 268.523 164.31 220.322 164.31 220.322C164.31 220.322 183.845 219.963 212.511 219.622C262.096 218.97 338.964 218.335 389.102 219.328H389.216C394.246 220.321 399.276 221.184 404.372 222.063C409.272 222.894 414.139 223.756 418.925 224.7C432.745 313.321 470.17 377.036 516.629 422.828C396.07 406.517 258.303 416.284 154.885 376.141Z" fill="#E8E8E8"/>
<path d="M210.696 392.707C191.269 388.444 172.541 382.993 154.871 376.143C156.222 366.625 157.393 357.497 158.451 348.906C158.63 347.132 158.857 345.44 159.036 343.683C161.428 323.101 162.958 305.252 163.934 289.99C164.064 287.712 164.178 285.482 164.308 283.318C164.357 281.919 164.471 280.52 164.536 279.104C164.829 273.377 164.992 268.105 165.122 263.257C165.187 261.499 165.235 259.807 165.235 258.164C165.756 232.489 164.308 220.318 164.308 220.318C164.308 220.318 183.833 219.96 212.502 219.618C217.058 283.969 215.838 341.519 210.696 392.707Z" fill="#FFB140"/>
<path d="M70.1127 1194.61C116.286 1223.57 383.066 1378.82 804.776 1387.62H805.278C1226.55 1378.82 1493.29 1223.59 1539.52 1194.61C1583 1014.78 1521.32 760.473 1518.03 747.112C1429.19 458.822 1420.12 301.21 1420.76 243.357C1373.46 242.657 1268.15 241.412 1211.26 242.985C1187.57 367.191 1114.47 461.181 998.895 515.561C908.379 558.143 822.32 562.731 805.977 563.211L805.016 563.233H804.361C789.919 562.905 456.803 552.069 398.337 242.985C341.423 241.412 236.101 242.657 188.819 243.357C189.433 301.21 180.393 458.822 91.5937 747.112C88.299 760.405 26.6854 1014.95 70.1127 1194.61ZM804.295 1434.42C325.999 1424.43 47.9939 1236.53 36.4057 1228.54L29.2723 1223.62L27.0591 1215.26C-24.7272 1019.53 43.4473 746.592 46.3662 735.072L46.6852 733.938C156.659 377.11 141.261 224.502 141.086 223.016L138.22 197.476L163.913 196.93C171.726 196.798 355.843 193.565 419.508 196.973L438.647 198L441.422 216.942C483.392 503.85 787.428 515.976 805.016 516.435C815.918 516.063 896.297 512.109 978.97 473.219C1087.1 422.335 1150.76 336.123 1168.22 216.942L1170.99 198L1190.11 196.973C1253.77 193.565 1437.84 196.798 1445.64 196.93L1471.51 197.388L1468.47 223.104C1468.3 224.502 1452.9 377.11 1562.92 733.938L1563.25 735.072C1566.18 746.592 1634.34 1019.53 1582.56 1215.26L1580.34 1223.62L1573.21 1228.54C1561.61 1236.53 1283.62 1424.43 805.759 1434.41L804.295 1434.42Z" fill="#000072"/>
<path d="M45.1112 910.879C45.1112 910.879 431.066 897.539 804.804 897.539C804.804 1048.22 804.804 1068.46 804.804 1068.46C605.09 1056.36 31.8382 1077.43 31.8382 1077.43C14.761 989.042 45.1112 910.879 45.1112 910.879Z" fill="#5F5F82"/>
<path d="M1578.24 1077.42C1578.24 1077.42 1004.98 1056.36 805.267 1068.46C805.267 1068.46 805.267 1048.22 805.267 897.542C1178.99 897.542 1565.02 910.877 1565.02 910.877C1565.02 910.877 1595.38 989.037 1578.24 1077.42Z" fill="#5F5F82"/>
<path d="M51.7998 1053.29C50.5732 1042.47 50.0532 1031.87 50.0532 1021.69C50.0532 1018.72 50.0933 1015.77 50.1733 1012.87C77.0799 1011.93 131.56 1010.11 200.227 1008.16C200.147 1013.19 200.107 1018.31 200.107 1023.51C200.107 1031.68 200.213 1040.07 200.466 1048.6C133.533 1050.52 79.9465 1052.32 51.7998 1053.29Z" fill="#4C4C7F"/>
<path d="M1558.28 1053.29C1530.24 1052.32 1476.82 1050.51 1410.12 1048.61C1410.53 1034.65 1410.57 1021.13 1410.36 1008.17C1478.85 1010.12 1533.15 1011.94 1559.93 1012.87C1560.02 1015.68 1560.06 1018.53 1560.06 1021.41C1560.06 1031.67 1559.55 1042.36 1558.28 1053.29Z" fill="#4C4C7F"/>
<path d="M62.3309 933.728C56.0094 956.089 45.9693 1001.94 51.8006 1053.29C153.417 1049.74 586.994 1035.55 781.387 1043.86V920.966C462.898 921.44 138.053 931.294 62.3309 933.728ZM12.655 1101.53L8.85203 1081.88C-9.301 987.933 21.9513 905.856 23.3035 902.424L28.8812 888.041L44.2961 887.5C48.1667 887.365 434.941 874.147 804.797 874.147H828.189V1093.34L803.377 1091.83C607.108 1079.93 38.3972 1100.59 32.6842 1100.81L12.655 1101.53Z" fill="#232333"/>
<path d="M985.776 1041.27C1197.95 1041.27 1479.08 1050.53 1558.3 1053.29C1564.15 1001.93 1554.12 956.074 1547.79 933.715C1472.06 931.287 1147.17 921.42 828.672 920.955V1043.85C871.467 1042.02 925.88 1041.27 985.776 1041.27ZM1597.42 1101.53L1577.4 1100.79C1571.66 1100.58 1002.96 1079.91 806.698 1091.82L781.874 1093.33V874.141H805.284C1175.14 874.141 1561.98 887.354 1565.83 887.487L1581.25 888.022L1586.84 902.407C1588.17 905.86 1619.43 987.928 1601.22 1081.87L1597.42 1101.53Z" fill="#232333"/>
<path d="M62.3309 933.728C56.0094 956.089 45.9693 1001.94 51.8006 1053.29C153.417 1049.74 586.994 1035.55 781.387 1043.86V920.966C462.898 921.44 138.053 931.294 62.3309 933.728ZM12.655 1101.53L8.85203 1081.88C-9.301 987.933 21.9513 905.856 23.3035 902.424L28.8812 888.041L44.2961 887.5C48.1667 887.365 434.941 874.147 804.797 874.147H828.189V1093.34L803.377 1091.83C607.108 1079.93 38.3972 1100.59 32.6842 1100.81L12.655 1101.53Z" fill="#000072"/>
<path d="M985.776 1041.27C1197.95 1041.27 1479.08 1050.53 1558.3 1053.29C1564.15 1001.93 1554.12 956.074 1547.79 933.715C1472.06 931.287 1147.17 921.42 828.672 920.955V1043.85C871.467 1042.02 925.88 1041.27 985.776 1041.27ZM1597.42 1101.53L1577.4 1100.79C1571.66 1100.58 1002.96 1079.91 806.698 1091.82L781.874 1093.33V874.141H805.284C1175.14 874.141 1561.98 887.354 1565.83 887.487L1581.25 888.022L1586.84 902.407C1588.17 905.86 1619.43 987.928 1601.22 1081.87L1597.42 1101.53Z" fill="#000072"/>
<path d="M532.715 297.304C407.122 263.21 277.253 271.478 149.782 244.914C128.014 239.9 106.113 233.292 84.7472 223.347C63.3987 213.57 42.7209 199.265 25.7662 180.432C17.1127 170.823 17.8842 155.998 27.5103 147.361C37.5725 138.205 53.588 139.731 61.7887 150.548C84.9987 180.55 122.715 196.984 159.459 208.137C282.016 242.231 414.769 243.79 536.119 286.118C542.911 288.466 540.144 299.199 532.715 297.304Z" fill="#232333"/>
<path d="M282.056 860.739L502.677 861.18C530.892 861.226 553.719 884.099 553.719 912.299V1051.55C553.719 1079.43 531.379 1102.18 503.499 1102.68L276.242 1106.76C248.453 1107.25 225.291 1085.44 224.18 1057.68C221.669 995.011 226.524 940.651 231.272 904.979C234.65 879.579 256.413 860.693 282.056 860.739Z" fill="white"/>
<path d="M553.698 912.331V1051.55C553.698 1079.46 531.357 1102.21 503.508 1102.67L276.208 1106.76C249.18 1107.25 226.596 1086.64 224.359 1060.04C224.253 1059.28 224.253 1058.46 224.192 1057.68C221.681 995.042 226.535 940.652 231.268 905.026C234.677 879.566 256.439 860.665 282.052 860.741L347.034 860.862L502.701 861.136C530.886 861.212 553.698 884.146 553.698 912.331Z" fill="white"/>
<path d="M553.698 912.331V1051.55C553.698 1079.46 531.357 1102.21 503.508 1102.67L276.208 1106.76C249.18 1107.25 226.596 1086.64 224.359 1060.04C244.082 1068.87 269.466 1075.94 300.009 1075.35C367.335 1074.07 306.964 1043.95 306.964 1043.95C306.964 1043.95 375.066 1049.69 378.216 999.775C379.966 971.88 380.149 928.812 381.26 892.151C381.305 890.416 374.959 899.334 363.865 908.267C351.751 918.053 333.992 927.808 312.823 923.623C342.544 906.015 348.266 881.559 347.034 860.862L502.701 861.136C530.886 861.212 553.698 884.146 553.698 912.331Z" fill="#D3D3D3"/>
<path d="M281.945 884.132C268.104 884.132 256.29 894.409 254.478 908.081C249.961 941.954 245.092 995.245 247.565 1056.72C248.164 1071.52 260.561 1083.36 275.324 1083.36C275.478 1083.36 275.662 1083.36 275.816 1083.36L503.081 1079.28C518.105 1079.01 530.333 1066.57 530.333 1051.55V912.306C530.333 897.036 517.905 884.593 502.651 884.562L282.022 884.132H281.945ZM275.324 1130.15C235.705 1130.15 202.401 1098.32 200.803 1058.61C198.222 993.801 203.322 937.607 208.085 901.906C212.985 865.068 244.723 837.324 281.945 837.324H282.114L502.728 837.769C543.76 837.846 577.126 871.289 577.126 912.306V1051.55C577.126 1091.92 544.282 1125.35 503.926 1126.07L276.66 1130.14C276.215 1130.15 275.77 1130.15 275.324 1130.15Z" fill="#232333"/>
<path d="M1328.53 860.731L1107.9 861.17C1079.69 861.225 1056.86 884.104 1056.86 912.305V1051.54C1056.86 1079.42 1079.2 1102.17 1107.09 1102.68L1334.35 1106.76C1362.14 1107.25 1385.29 1085.44 1386.41 1057.68C1388.91 995.01 1384.05 940.652 1379.31 904.983C1375.93 879.584 1354.16 860.69 1328.53 860.731Z" fill="white"/>
<path d="M1057.31 912.312V1051.54C1057.31 1079.45 1079.67 1102.19 1107.5 1102.66L1334.83 1106.75C1361.85 1107.23 1384.41 1086.63 1386.65 1060.02C1366.93 1068.86 1341.54 1075.93 1311.01 1075.34C1243.68 1074.06 1304.05 1043.94 1304.05 1043.94C1304.05 1043.94 1235.95 1049.67 1232.8 999.767C1231.06 971.873 1230.87 928.807 1229.75 892.14C1229.69 890.406 1236.06 899.326 1247.14 908.259C1259.27 918.033 1277.02 927.792 1298.2 923.607C1268.48 906.006 1262.75 881.553 1263.99 860.847L1108.33 861.125C1080.14 861.193 1057.31 884.127 1057.31 912.312Z" fill="#D3D3D3"/>
<path d="M281.945 884.132C268.104 884.132 256.29 894.409 254.478 908.081C249.961 941.954 245.092 995.245 247.565 1056.72C248.164 1071.52 260.561 1083.36 275.324 1083.36C275.478 1083.36 275.662 1083.36 275.816 1083.36L503.081 1079.28C518.105 1079.01 530.333 1066.57 530.333 1051.55V912.306C530.333 897.036 517.905 884.593 502.651 884.562L282.022 884.132H281.945ZM275.324 1130.15C235.705 1130.15 202.401 1098.32 200.803 1058.61C198.222 993.801 203.322 937.607 208.085 901.906C212.985 865.068 244.723 837.324 281.945 837.324H282.114L502.728 837.769C543.76 837.846 577.126 871.289 577.126 912.306V1051.55C577.126 1091.92 544.282 1125.35 503.926 1126.07L276.66 1130.14C276.215 1130.15 275.77 1130.15 275.324 1130.15Z" fill="#000072"/>
<path d="M312.412 914.837C340.628 909.633 365.265 890.642 360.617 859.532C360.175 849.809 367.717 841.553 377.44 841.097C388.176 840.513 397.087 850.079 395.776 860.744C394.364 881.218 384.84 903.417 367.588 915.464C351.235 927.312 333.028 931.989 313.268 932.359C308.42 932.388 304.485 928.481 304.456 923.648C304.414 919 307.978 915.322 312.412 914.837Z" fill="#000072"/>
<path d="M307.435 1035.14C337.025 1035.33 368.456 1048.1 381.881 1076.33C389 1091.9 398.674 1122.29 374.434 1126.3C364.746 1127.41 356 1120.46 354.888 1110.79C354.588 1103.24 356 1094.98 353.518 1088.06C348.31 1067.54 325.369 1056.14 305.78 1052.53C295.393 1050.54 296.92 1035.11 307.435 1035.14Z" fill="#000072"/>
<path d="M1328.57 884.136L1107.94 884.563C1092.67 884.602 1080.26 897.043 1080.26 912.309V1051.55C1080.26 1066.57 1092.47 1079.01 1107.51 1079.28L1334.76 1083.36C1334.92 1083.36 1335.11 1083.38 1335.27 1083.38C1350.02 1083.38 1362.42 1071.52 1363.01 1056.74C1365.47 995.229 1360.61 941.949 1356.11 908.083C1354.3 894.429 1342.48 884.136 1328.63 884.136H1328.57ZM1335.27 1130.16C1334.82 1130.16 1334.37 1130.16 1333.92 1130.15L1106.67 1126.08C1066.29 1125.35 1033.47 1091.92 1033.47 1051.55V912.309C1033.47 871.296 1066.84 837.856 1107.85 837.776L1328.49 837.336H1328.63C1365.86 837.336 1397.59 865.07 1402.51 901.908C1407.24 937.602 1412.38 993.762 1409.76 1058.62C1408.18 1098.33 1374.89 1130.16 1335.27 1130.16Z" fill="#000072"/>
<path d="M1297.31 932.361C1267.73 932.175 1236.28 919.401 1222.86 891.174C1215.73 875.604 1206.06 845.208 1230.32 841.197C1239.99 840.085 1248.75 847.034 1249.84 856.703C1250.14 864.268 1248.75 872.507 1251.23 879.436C1256.43 899.961 1279.36 911.36 1298.96 914.973C1309.34 916.961 1307.82 932.373 1297.31 932.361Z" fill="#000072"/>
<path d="M1304.03 1052.68C1275.81 1057.88 1251.17 1076.86 1255.8 1107.97C1256.24 1117.7 1248.73 1125.96 1238.99 1126.4C1228.24 1127 1219.34 1117.42 1220.65 1106.76C1222.06 1086.29 1231.58 1064.08 1248.83 1052.04C1265.2 1040.18 1283.38 1035.52 1303.15 1035.14C1308 1035.12 1311.96 1039.02 1311.98 1043.86C1312.02 1048.49 1308.46 1052.18 1304.03 1052.68Z" fill="#000072"/>
<path d="M268.31 224.274C268.31 224.274 463.493 489.581 488.801 838.368C507.907 1101.75 658.677 857.021 658.677 857.021C658.677 857.021 607.376 412 366.388 139.922L268.31 224.274Z" fill="#5F5F82"/>
<path d="M1339.29 224.277C1339.29 224.277 1144.1 489.578 1118.8 838.377C1099.7 1101.75 948.915 857.033 948.915 857.033C948.915 857.033 1000.23 411.991 1241.21 139.917L1339.29 224.277Z" fill="#5F5F82"/>
<path d="M540.832 426.572C487.84 417.45 430.698 414.694 374.064 411.298C320.301 294.962 268.31 224.285 268.31 224.285L299.432 197.559C332.72 207.337 368.042 215.868 404.366 222.07C414.423 223.76 424.365 225.695 434.143 227.681C477.078 291.041 512.236 359.241 540.832 426.572Z" fill="#515159"/>
<path d="M1339.31 224.299C1339.31 224.299 1287.42 294.792 1233.73 410.853C1177.39 414.239 1120.42 416.744 1067.3 425.18C1096.13 357.612 1131.48 289.222 1174.7 225.822C1181.49 224.539 1188.33 223.237 1195.28 222.075C1233.83 215.462 1271.16 206.285 1306.19 195.805L1339.31 224.299Z" fill="#515159"/>
<path d="M1094.7 421.352C1101.88 404.949 1109.45 388.546 1117.43 372.182C1148.69 369.065 1180.87 367.186 1212.42 365.346C1218.17 364.998 1223.96 364.668 1229.71 364.32C1222.2 379.406 1214.53 395.479 1206.88 412.405C1169 414.612 1131.14 416.917 1094.7 421.352Z" fill="#41415E"/>
<path d="M513.311 422.417C476.906 417.618 438.964 415.158 400.96 412.897C393.285 395.933 385.641 379.907 378.121 364.819C381.15 364.988 384.196 365.173 387.226 365.357C421.569 367.357 456.697 369.402 490.533 373.078C498.546 389.473 506.128 405.96 513.311 422.417Z" fill="#41415E"/>
<path d="M544.673 983.807C540.307 983.807 535.959 983.316 531.61 982.267C480.665 969.797 469.464 895.147 465.471 840.056C440.937 501.912 251.384 240.737 249.472 238.148C241.824 227.725 244.04 213.09 254.446 205.442C264.869 197.76 279.504 200.011 287.169 210.4C295.291 221.465 486.637 485.195 512.153 836.672C518.785 928.326 540.29 936.211 542.727 936.803C561.677 941.473 604.975 896.923 634.399 851.662C625.973 790.683 564.52 398.904 348.876 155.427C340.314 145.749 341.211 130.961 350.872 122.399C360.551 113.821 375.339 114.735 383.9 124.396C626.971 398.836 679.811 835.876 681.926 854.336L682.857 862.39L678.61 869.293C666.191 889.428 604.806 983.807 544.673 983.807Z" fill="#000072"/>
<path d="M1062.94 983.813C1002.78 983.813 941.415 889.453 928.992 869.293L924.75 862.399L925.679 854.347C927.8 835.882 980.624 398.846 1223.7 124.404C1232.26 114.728 1247.05 113.839 1256.72 122.404C1266.4 130.969 1267.29 145.755 1258.72 155.431C1042.86 399.149 981.594 790.734 973.211 851.658C1002.62 896.907 1045.79 941.479 1064.88 936.799C1067.3 936.213 1088.82 928.333 1095.46 836.67C1120.96 485.203 1312.31 221.467 1320.44 210.417C1328.09 200.014 1342.74 197.792 1353.14 205.427C1363.54 213.083 1365.79 227.729 1358.15 238.152C1356.23 240.738 1166.63 502.494 1142.13 840.063C1138.15 895.146 1126.94 969.8 1075.99 982.266C1071.65 983.321 1067.28 983.813 1062.94 983.813Z" fill="#000072"/>
<path d="M1555.85 165.49C1555.85 165.49 1569.31 223.35 1508.76 270.433C1396.97 357.419 1206.34 329.508 1052.67 357.419C928.248 379.995 886.826 432.521 799.905 432.564H799.731C712.788 432.521 671.388 379.995 546.97 357.419C393.297 329.508 202.651 357.419 90.8789 270.433C30.3312 223.35 43.7857 165.49 43.7857 165.49C43.7857 165.49 -8.45584 84.8361 53.8377 23.3971C53.8377 23.3971 214.772 119.513 404.357 151.849C622.007 189.063 765.683 298.17 799.731 298.517H799.905C833.954 298.17 977.608 189.063 1195.28 151.849C1384.87 119.513 1545.78 23.3971 1545.78 23.3971C1608.09 84.8361 1555.85 165.49 1555.85 165.49Z" fill="#22C1FF"/>
<path d="M1555.85 165.49C1555.85 165.49 1569.31 223.35 1508.76 270.433C1396.97 357.419 1206.34 329.508 1052.67 357.419C928.248 379.995 886.826 432.521 799.905 432.564H799.731C712.788 432.521 671.388 379.995 546.97 357.419C393.297 329.508 202.651 357.419 90.8789 270.433C30.3312 223.35 43.7857 165.49 43.7857 165.49C43.7857 165.49 -8.45584 84.8361 53.8377 23.3971C53.8377 23.3971 214.772 119.513 404.357 151.849C622.007 189.063 765.683 298.17 799.731 298.517H799.905C833.954 298.17 977.608 189.063 1195.28 151.849C1384.87 119.513 1545.78 23.3971 1545.78 23.3971C1608.09 84.8361 1555.85 165.49 1555.85 165.49Z" fill="#22C1FF"/>
<path d="M1557.13 180.397C1557 200.595 1550.41 238.086 1508.76 270.425C1396.97 357.418 1206.33 329.503 1052.65 357.418C928.23 379.989 886.828 432.528 799.899 432.57H799.728C712.799 432.528 671.376 379.989 546.977 357.418C393.296 329.503 202.649 357.418 90.8742 270.425C49.2222 238.086 42.5555 200.531 42.4893 180.354C132.462 250.44 340.416 242.126 534.388 291.735C656.948 323.027 704.826 393.797 799.728 393.797C894.63 393.797 942.807 323.027 1065.3 291.735C1259.21 242.126 1467.16 250.44 1557.13 180.397Z" fill="#24A1FF"/>
<path d="M1574.97 77.284C1546.42 148.889 1380.3 172.801 1227.28 198.947C991.706 239.186 886.952 337.259 799.9 337.259C712.869 337.259 608.093 239.186 372.524 198.947C219.504 172.801 53.3701 148.889 24.8247 77.284C27.9313 59.2591 36.4108 40.6113 53.8384 23.4028C53.8384 23.4028 214.771 119.5 404.363 151.854C622.38 189.128 766.149 298.502 799.9 298.502C833.651 298.502 977.441 189.128 1195.46 151.854C1385.03 119.5 1545.97 23.4028 1545.97 23.4028C1563.39 40.6113 1571.87 59.2591 1574.97 77.284Z" fill="#24A1FF"/>
<path d="M59.2142 53.3401C28.987 98.4449 61.8674 150.378 63.4267 152.771C66.8803 158.099 68.0002 164.602 66.5736 170.778C66.2669 172.322 58.0528 215.274 105.239 251.962C174.773 306.07 279.297 312.182 389.949 318.619C443.84 321.772 499.558 325.034 551.144 334.408C613.233 345.651 654.945 363.811 691.764 379.817C729.431 396.215 759.182 409.155 799.742 409.176C840.432 409.155 870.205 396.215 907.872 379.817C944.691 363.811 986.403 345.651 1048.49 334.386C1100.08 325.035 1155.8 321.772 1209.69 318.619C1320.34 312.182 1424.86 306.07 1494.39 251.962C1541.58 215.274 1533.38 172.322 1533.01 170.495C1531.77 164.514 1532.86 157.99 1536.16 152.858C1537.69 150.422 1570.18 98.1405 1540.38 53.3401C1493.21 79.1764 1356.88 148.03 1199.2 174.91C1055.65 199.463 943.821 256.681 877.033 290.869C838.127 310.768 816.683 321.729 800.155 321.903C782.953 321.729 761.509 310.768 722.603 290.869C655.794 256.681 543.967 199.463 400.41 174.91C242.719 148.008 106.361 79.1547 59.2142 53.3401ZM799.916 455.978C749.439 455.956 712.359 439.819 673.083 422.725C638.613 407.741 599.554 390.734 542.792 380.448C493.991 371.575 439.708 368.421 387.231 365.355C274.295 358.743 157.521 351.936 76.5081 288.89C20.2402 245.133 17.7065 192.417 19.5333 170.473C-0.626877 133.741 -18.3599 61.7346 37.4274 6.73456C44.9999 -0.72491 56.6805 -2.16022 65.8406 3.29846C67.413 4.25536 225.493 97.5966 408.283 128.783C558.929 154.554 674.714 213.795 743.915 249.2C766.533 260.77 792.087 273.862 799.938 275.08C807.288 273.971 832.994 260.835 855.699 249.2C924.9 213.795 1040.71 154.554 1191.33 128.805C1374.14 97.5968 1532.23 4.25536 1533.79 3.29846C1542.97 -2.13847 1554.63 -0.72491 1562.22 6.73456C1618 61.7346 1600.28 133.741 1580.09 170.473C1581.92 192.417 1579.38 245.133 1523.14 288.89C1442.13 351.936 1325.34 358.743 1212.41 365.355C1159.93 368.421 1105.65 371.575 1056.84 380.448C1000.1 390.734 961.023 407.741 926.553 422.725C887.276 439.819 850.197 455.956 799.916 455.978Z" fill="#000072"/>
<path d="M1063.54 286.111C1145.32 258.377 1231.83 246.921 1316.59 233.679C1378.23 223.279 1441.07 214.666 1495.67 185.575C1512.71 176.316 1526.98 164.344 1537.88 150.563C1545.78 140.163 1560.74 138.268 1570.99 146.386C1581.59 154.697 1582.92 170.459 1573.88 180.429C1556.93 199.27 1536.26 213.589 1514.9 223.343C1453.43 251.292 1385.13 256.374 1320.14 262.705C1277.27 266.451 1234.68 269.638 1192.37 274.612C1150.08 279.629 1108.07 286.455 1066.94 297.307C1060.01 299.159 1056.3 288.673 1063.54 286.111Z" fill="#000072"/>
<path d="M1115.43 1244.11C908.094 1259.22 702.487 1259.22 495.189 1244.11C457.411 1241.37 426.724 1212.38 421.9 1174.82C405.337 1045.93 405.337 923.278 421.9 794.379C426.724 756.813 457.411 727.836 495.189 725.088C702.487 709.985 908.094 709.985 1115.43 725.088C1153.19 727.855 1183.86 756.813 1188.7 794.379C1205.26 923.278 1205.26 1045.93 1188.68 1174.82C1183.86 1212.38 1153.19 1241.35 1115.43 1244.11Z" fill="#515159"/>
<path d="M1200.92 1007.78C1200.69 1020.47 1200.34 1033.23 1199.75 1045.98C1198.83 1069.14 1197.31 1092.43 1195.12 1115.82C1194.03 1128.51 1192.72 1141.33 1191.21 1154.14C1190.46 1161.05 1189.57 1167.95 1188.71 1174.85C1183.83 1212.41 1153.2 1241.35 1115.4 1244.11C908.082 1259.19 702.472 1259.19 495.173 1244.11C457.434 1241.35 426.72 1212.41 421.921 1174.85C421.057 1167.95 420.174 1161.05 419.406 1154.14C417.889 1141.33 416.603 1128.58 415.49 1115.89C413.321 1092.43 411.747 1069.14 410.806 1045.98C410.23 1033.23 409.866 1020.54 409.654 1007.85C408.522 937.171 412.63 866.76 421.921 794.39C426.72 756.824 457.434 727.818 495.173 725.073C702.472 709.985 908.082 709.985 1115.4 725.073C1153.2 727.818 1183.83 756.824 1188.71 794.39C1198 866.76 1202.09 937.133 1200.92 1007.78Z" fill="#5F5F82"/>
<path d="M1192.24 824.139C1192.23 824.139 1192.23 824.139 1192.23 824.139C1191.33 815.834 1190.35 807.51 1189.3 799.147C1190.35 807.51 1191.33 815.834 1192.24 824.139Z" fill="white"/>
<path d="M1193.64 837.589C1193.31 834.258 1192.97 830.908 1192.6 827.576C1192.6 827.519 1192.59 827.481 1192.59 827.442C1192.59 827.347 1192.57 827.213 1192.55 827.117C1192.45 826.122 1192.34 825.145 1192.22 824.15C1192.22 824.15 1192.22 824.15 1192.24 824.15C1192.74 828.629 1193.2 833.109 1193.66 837.589H1193.64Z" fill="#EFEFEF"/>
<path d="M1199.74 921.57C1199.19 909.198 1198.5 896.807 1197.63 884.377H1197.65C1198.5 896.807 1199.19 909.198 1199.74 921.57Z" fill="#E0E0E0"/>
<path d="M1197.62 884.395C1196.54 868.849 1195.22 853.264 1193.63 837.604H1193.65C1195.22 853.264 1196.56 868.849 1197.63 884.395H1197.62Z" fill="#4D4D9D"/>
<path d="M1192.53 827.127C1191.39 816.256 1190.09 805.348 1188.69 794.401C1188.88 795.989 1189.09 797.578 1189.28 799.166C1190.33 807.51 1191.31 815.835 1192.21 824.141C1192.32 825.155 1192.44 826.131 1192.53 827.127Z" fill="#86868B"/>
<path d="M410.063 979.232C409.89 973.62 409.775 968.02 409.66 962.406C410.543 906.907 414.611 851.24 421.922 794.383C426.719 756.831 457.441 727.817 495.166 725.073C598.825 717.532 702.042 713.752 805.298 713.752C908.515 713.752 1011.75 717.532 1115.39 725.073C1153.19 727.817 1183.84 756.831 1188.71 794.383C1190.09 805.34 1191.4 816.24 1192.55 827.12C1192.57 827.216 1192.59 827.331 1192.59 827.446C1192.59 827.484 1192.61 827.523 1192.61 827.561C1192.97 830.919 1193.32 834.258 1193.64 837.597C1195.24 853.255 1196.56 868.836 1197.63 884.38C1198.5 896.814 1199.19 909.21 1199.75 921.587C1200.32 934.827 1200.72 948.087 1200.92 961.312C1200.82 967.18 1200.69 973.059 1200.51 978.925C1199.11 929.627 1195.18 880.158 1188.71 829.729C1183.84 792.158 1153.19 763.144 1115.39 760.4C1011.75 752.859 908.515 749.078 805.298 749.078C702.042 749.078 598.825 752.859 495.166 760.4C457.441 763.144 426.719 792.158 421.922 829.729C415.455 880.273 411.464 929.838 410.063 979.232Z" fill="#8F8FA8"/>
<path d="M805.31 1163.9C680.503 1163.9 555.677 1160.83 430.353 1154.7C426.064 1146.51 423.135 1137.48 421.909 1127.88C421.411 1123.98 420.933 1120.08 420.454 1116.19C548.937 1122.6 676.903 1125.82 804.85 1125.82C933.123 1125.82 1061.36 1122.59 1190.15 1116.14C1189.67 1120.04 1189.17 1123.96 1188.69 1127.88C1187.43 1137.48 1184.52 1146.51 1180.21 1154.7C1054.9 1160.83 930.116 1163.9 805.31 1163.9ZM1191.41 1152.23C1192.44 1143.26 1193.38 1134.31 1194.24 1125.39C1194.22 1125.66 1194.19 1125.94 1194.17 1126.22C1194.13 1126.7 1194.07 1127.16 1194.03 1127.64C1193.25 1135.82 1192.39 1144.03 1191.41 1152.23Z" fill="#4C4C7F"/>
<path d="M805.293 1056.43C676.771 1056.43 548.249 1053.18 419.171 1046.69C417.311 1046.61 415.432 1046.45 413.571 1046.28C412.612 1033.49 411.807 1020.74 411.193 1008.04C413.82 1008.33 416.486 1008.52 419.171 1008.67C548.077 1015.12 676.502 1018.36 804.851 1018.36C933.526 1018.36 1062.18 1015.11 1191.38 1008.61C1194.06 1008.47 1196.73 1008.28 1199.37 1007.97C1198.74 1020.7 1197.95 1033.47 1196.99 1046.26C1195.15 1046.45 1193.25 1046.61 1191.38 1046.69C1062.34 1053.18 933.814 1056.43 805.293 1056.43Z" fill="#4C4C7F"/>
<path d="M1188.7 1174.85C1188.89 1173.29 1189.1 1171.73 1189.29 1170.17C1189.1 1171.73 1188.91 1173.29 1188.7 1174.85ZM417.55 1137.5C417.206 1134.21 416.881 1130.91 416.556 1127.63C416.881 1130.93 417.206 1134.21 417.55 1137.5Z" fill="#BABAD0"/>
<path d="M412.678 1080.91C409.979 1040.81 408.974 1001.05 409.635 961.232C409.635 961.448 409.635 961.677 409.649 961.892C409.405 977.207 409.405 992.537 409.635 1007.85C409.793 1017.14 410.037 1026.41 410.381 1035.73C410.654 1043.35 410.984 1050.98 411.371 1058.63C411.744 1066.04 412.189 1073.46 412.692 1080.91H412.678Z" fill="#A9A9C0"/>
<path d="M416.538 1127.65C414.986 1112.01 413.692 1096.42 412.671 1080.91H412.685C412.829 1083.2 412.987 1085.48 413.16 1087.77C414.109 1101.01 415.23 1114.29 416.538 1127.65Z" fill="#000072"/>
<path d="M421.916 1174.86C420.296 1162.36 418.836 1149.91 417.535 1137.52C417.187 1134.22 416.855 1130.94 416.537 1127.64C415.235 1114.29 414.108 1101.02 413.168 1087.76C413.833 1097.11 414.599 1106.5 415.467 1115.9C416.595 1128.59 417.867 1141.33 419.385 1154.16C420.152 1161.06 421.034 1167.97 421.916 1174.86ZM411.36 1058.65C410.97 1050.99 410.637 1043.35 410.377 1035.72C410.493 1039.15 410.637 1042.57 410.796 1046C410.97 1050.21 411.158 1054.42 411.36 1058.65Z" fill="#41415E"/>
<path d="M1191.04 1155.56C1191.04 1155.48 1191.06 1155.39 1191.07 1155.31C1191.17 1154.35 1191.28 1153.4 1191.4 1152.44C1191.4 1152.38 1191.4 1152.31 1191.42 1152.23C1191.3 1153.34 1191.17 1154.45 1191.04 1155.56Z" fill="#BABAD0"/>
<path d="M1191.08 1155.3C1191.13 1154.92 1191.17 1154.53 1191.21 1154.14C1191.27 1153.57 1191.34 1153.01 1191.4 1152.44C1191.31 1153.4 1191.19 1154.34 1191.08 1155.3ZM1194.26 1125.38C1194.57 1122.18 1194.84 1119.01 1195.12 1115.82C1195.55 1111.25 1195.95 1106.67 1196.33 1102.1C1195.7 1109.85 1195.01 1117.61 1194.26 1125.38ZM1198.1 1077.74C1198.77 1067.13 1199.33 1056.54 1199.75 1045.98C1200.34 1033.24 1200.69 1020.47 1200.92 1007.78C1201.03 1000.06 1201.11 992.342 1201.11 984.622C1201.11 1015.58 1200.11 1046.57 1198.1 1077.74ZM1201.11 984.503C1201.11 984.476 1201.11 984.422 1201.11 984.395C1201.11 984.436 1201.11 984.463 1201.11 984.503Z" fill="#41415E"/>
<path d="M805.296 1255.43C702.051 1255.43 598.826 1251.66 495.16 1244.11C466.854 1242.05 442.501 1225.22 430.066 1201.1C425.94 1193.06 423.119 1184.22 421.929 1174.85C421.046 1167.95 420.164 1161.05 419.415 1154.14C423.061 1154.33 426.707 1154.5 430.373 1154.69C442.866 1178.51 467.065 1195.09 495.16 1197.14C598.826 1204.69 702.051 1208.46 805.296 1208.46C908.521 1208.46 1011.75 1204.69 1115.39 1197.14C1143.53 1195.09 1167.71 1178.51 1180.24 1154.69C1183.88 1154.5 1187.55 1154.33 1191.21 1154.14C1191.18 1154.53 1191.14 1154.91 1191.08 1155.3C1191.08 1155.38 1191.06 1155.47 1191.04 1155.55C1190.49 1160.42 1189.91 1165.29 1189.3 1170.17C1189.08 1171.73 1188.89 1173.29 1188.7 1174.85C1187.82 1181.66 1186.09 1188.18 1183.62 1194.33C1172.48 1222.05 1146.35 1241.86 1115.39 1244.11C1011.75 1251.66 908.521 1255.43 805.296 1255.43ZM420.451 1116.18C420.048 1116.17 419.607 1116.14 419.185 1116.11C417.957 1116.06 416.709 1116.01 415.481 1115.89C414.618 1106.49 413.85 1097.1 413.178 1087.75C413.006 1085.47 412.852 1083.18 412.699 1080.9C412.2 1073.46 411.758 1066.03 411.374 1058.63C411.182 1054.41 410.971 1050.19 410.799 1045.98C411.72 1046.07 412.66 1046.18 413.581 1046.27C415.328 1069.43 417.611 1092.71 420.451 1116.18ZM1190.18 1116.13C1193 1092.67 1195.28 1069.41 1197.01 1046.26C1197.93 1046.18 1198.85 1046.07 1199.75 1045.98C1199.33 1056.54 1198.78 1067.13 1198.1 1077.74C1197.59 1085.85 1196.99 1093.97 1196.32 1102.1C1195.95 1106.67 1195.55 1111.25 1195.13 1115.82C1193.9 1115.94 1192.62 1116.01 1191.39 1116.06C1190.98 1116.07 1190.56 1116.1 1190.18 1116.13ZM411.202 1008.03C410.664 1007.97 410.165 1007.91 409.647 1007.85C409.398 992.527 409.398 977.205 409.666 961.886C409.666 962.06 409.666 962.233 409.666 962.406C409.455 975.78 409.417 989.154 409.59 1002.51C409.666 994.753 409.839 986.993 410.069 979.234C410.338 988.82 410.722 998.421 411.202 1008.03ZM1199.39 1007.97C1199.85 998.273 1200.23 988.607 1200.52 978.927C1200.73 986.58 1200.89 994.233 1200.98 1001.87C1201.16 988.353 1201.14 974.834 1200.92 961.314C1200.92 961.287 1200.92 961.247 1200.92 961.22C1201.04 968.94 1201.12 976.674 1201.12 984.394C1201.12 984.419 1201.12 984.473 1201.12 984.5C1201.12 984.54 1201.12 984.58 1201.12 984.621C1201.12 992.339 1201.04 1000.06 1200.92 1007.78C1200.41 1007.85 1199.89 1007.91 1199.39 1007.97Z" fill="#4C4C7F"/>
<path d="M409.589 1002.51C409.417 989.153 409.455 975.78 409.666 962.406C409.762 968.019 409.896 973.621 410.069 979.234C409.839 986.992 409.666 994.753 409.589 1002.51ZM1200.98 1001.87C1200.89 994.233 1200.73 986.58 1200.52 978.927C1200.69 973.06 1200.83 967.18 1200.92 961.314C1201.14 974.833 1201.15 988.353 1200.98 1001.87Z" fill="#72729D"/>
<path d="M1180.21 1154.69C1184.52 1146.51 1187.43 1137.48 1188.68 1127.88C1189.18 1123.96 1189.67 1120.04 1190.15 1116.13C1190.55 1116.11 1190.96 1116.08 1191.36 1116.07C1192.6 1116.01 1193.89 1115.95 1195.11 1115.83C1194.83 1119.02 1194.56 1122.19 1194.25 1125.39C1193.39 1134.31 1192.45 1143.26 1191.42 1152.23C1191.36 1152.87 1191.28 1153.51 1191.19 1154.15C1187.55 1154.33 1183.87 1154.51 1180.21 1154.69ZM430.359 1154.69C426.7 1154.51 423.042 1154.33 419.403 1154.15C417.871 1141.33 416.587 1128.59 415.477 1115.9C416.702 1116.01 417.947 1116.07 419.173 1116.12C419.594 1116.15 420.035 1116.18 420.456 1116.19C420.935 1120.08 421.414 1123.97 421.912 1127.88C423.138 1137.48 426.068 1146.51 430.359 1154.69Z" fill="#3D3D7C"/>
<path d="M413.583 1046.27C412.664 1046.18 411.731 1046.07 410.812 1045.98C410.237 1033.23 409.878 1020.54 409.648 1007.85C410.165 1007.92 410.682 1007.96 411.199 1008.03C411.817 1020.74 412.621 1033.49 413.583 1046.27Z" fill="#3D3D7C"/>
<path d="M1197 1046.26C1197.96 1033.46 1198.75 1020.7 1199.38 1007.97C1199.88 1007.91 1200.42 1007.85 1200.92 1007.78C1200.69 1020.47 1200.34 1033.23 1199.76 1045.98C1198.84 1046.07 1197.92 1046.18 1197 1046.26Z" fill="#3D3D7C"/>
<path d="M805.247 737.083C702.916 737.083 600.624 740.858 496.861 748.427C470.262 750.363 448.503 770.941 445.115 797.347C428.699 925.095 428.699 1044.1 445.115 1171.85C448.503 1198.26 470.262 1218.85 496.861 1220.78C704.387 1235.9 906.164 1235.9 1113.73 1220.78C1140.33 1218.84 1162.09 1198.26 1165.48 1171.85C1181.89 1044.1 1181.89 925.115 1165.48 797.347C1162.09 770.941 1140.31 750.363 1113.73 748.427C1009.93 740.858 907.558 737.083 805.247 737.083ZM805.266 1278.92C701.813 1278.92 598.379 1275.1 493.473 1267.45C444.786 1263.9 404.907 1226.21 398.693 1177.81C381.986 1047.8 381.986 921.417 398.693 791.403C404.907 743.006 444.766 705.295 493.473 701.753C703.245 686.459 907.248 686.459 1117.12 701.753C1165.82 705.295 1205.66 742.987 1211.9 791.403C1228.6 921.417 1228.6 1047.81 1211.9 1177.81C1205.68 1226.21 1165.82 1263.9 1117.12 1267.45C1012.19 1275.1 908.72 1278.92 805.266 1278.92Z" fill="#000072"/>
<path d="M604.171 653.921C560.847 666.176 516.956 676.401 472.656 684.518C452.032 688.31 431.66 676.322 425.132 656.375C417.675 633.533 413.16 614.104 409.778 590.318C406.82 569.537 419.799 549.794 439.982 544.084C483.307 531.829 527.213 521.603 571.513 513.47C592.137 509.71 612.509 521.698 619.022 541.629C626.463 564.471 630.994 583.9 634.392 607.686C637.349 628.451 624.355 648.21 604.171 653.921Z" fill="white"/>
<path d="M604.209 653.933C560.868 666.156 516.93 676.398 472.646 684.531C452.053 688.275 431.633 676.287 425.136 656.387C422.808 649.135 420.7 642.181 418.891 635.385C427.244 651.542 445.446 660.666 463.804 657.268C508.089 649.135 551.964 638.956 595.321 626.686C615.488 621.007 628.483 601.232 625.494 580.466C623.213 564.247 620.412 550.104 616.417 535.537C617.471 537.472 618.304 539.517 619.012 541.625C626.485 564.499 631 583.927 634.382 607.666C637.371 628.432 624.377 648.206 604.209 653.933Z" fill="#CECCCC"/>
<path d="M999.543 653.92C1042.87 666.166 1086.78 676.399 1131.07 684.525C1151.71 688.301 1172.08 676.323 1178.58 656.373C1186.05 633.529 1190.55 614.115 1193.97 590.313C1196.92 569.539 1183.92 549.799 1163.74 544.088C1120.41 531.823 1076.53 521.609 1032.22 513.483C1011.6 509.707 991.226 521.685 984.71 541.635C977.255 564.479 972.732 583.912 969.34 607.695C966.389 628.45 979.363 648.209 999.543 653.92Z" fill="white"/>
<path d="M999.545 653.95C1042.88 666.168 1086.81 676.42 1131.1 684.552C1151.68 688.275 1172.1 676.286 1178.59 656.394C1180.94 649.14 1183.04 642.191 1184.86 635.395C1176.47 651.545 1158.3 660.67 1139.92 657.272C1095.65 649.14 1051.78 638.964 1008.42 626.689C988.243 621.019 975.262 601.242 978.24 580.472C980.531 564.264 983.337 550.118 987.308 535.552C986.258 537.48 985.437 539.523 984.731 541.642C977.247 564.512 972.742 583.927 969.344 607.675C966.366 628.446 979.366 648.204 999.545 653.95Z" fill="#CECCCC"/>
<path d="M579.096 530.353C577.623 530.353 576.149 530.48 574.66 530.749C531.085 538.751 487.383 548.908 444.759 560.967C433.001 564.294 425.443 575.845 427.138 587.84C430.403 610.705 434.649 628.991 441.827 650.937C445.583 662.457 457.451 669.46 469.493 667.274C513.037 659.272 556.738 649.099 599.379 637.041C611.152 633.713 618.71 622.162 617.015 610.167C613.751 587.349 609.504 569.064 602.326 547.086C599.03 536.992 589.491 530.353 579.096 530.353ZM465.104 702.768C439.799 702.768 416.522 686.51 408.472 661.823C400.724 638.134 395.923 617.487 392.405 592.8C388.206 563.486 406.619 535.281 435.204 527.2C478.874 514.84 523.685 504.414 568.337 496.222C597.588 490.834 626.506 508.059 635.696 536.184C643.445 559.937 648.23 580.567 651.764 605.207C655.931 634.521 637.535 662.726 608.949 670.807C565.232 683.167 520.452 693.593 475.832 701.785C472.235 702.435 468.654 702.768 465.104 702.768Z" fill="#000072"/>
<path d="M582.677 614.331L474.471 639.505C465.801 641.518 457.131 636.13 455.118 627.444L447.299 593.848C445.271 585.162 450.675 576.507 459.345 574.479L567.551 549.32C576.221 547.292 584.892 552.68 586.904 561.366L594.723 594.962C596.751 603.633 591.348 612.318 582.677 614.331Z" fill="#000072"/>
<path d="M1024.62 530.358C1014.23 530.358 1004.69 536.99 1001.37 547.092C994.202 569.069 989.961 587.345 986.703 610.171C985.006 622.162 992.583 633.729 1004.32 637.045C1046.99 649.113 1090.69 659.273 1134.24 667.273C1146.19 669.452 1158.15 662.454 1161.91 650.944C1169.06 628.986 1173.32 610.71 1176.56 587.846C1178.29 575.836 1170.72 564.288 1158.97 560.972C1116.33 548.904 1072.63 538.744 1029.04 530.744C1027.57 530.493 1026.09 530.358 1024.62 530.358ZM1138.62 702.765C1135.07 702.765 1131.5 702.437 1127.9 701.782C1083.27 693.588 1038.48 683.178 994.761 670.801C966.191 662.723 947.78 634.519 951.963 605.216C955.472 580.578 960.272 559.931 968.022 536.199C977.199 508.053 1006.15 490.837 1035.38 496.235C1080.05 504.409 1124.83 514.839 1168.52 527.196C1197.11 535.293 1215.5 563.478 1211.32 592.801C1207.81 617.477 1202.99 638.143 1195.26 661.837C1187.2 686.513 1163.93 702.765 1138.62 702.765Z" fill="#000072"/>
<path d="M1021.05 614.338L1129.24 639.513C1137.93 641.519 1146.6 636.143 1148.61 627.455L1156.44 593.857C1158.45 585.169 1153.05 576.5 1144.39 574.494L1036.19 549.319C1027.5 547.294 1018.83 552.688 1016.81 561.376L1008.99 594.974C1006.98 603.643 1012.38 612.313 1021.05 614.338Z" fill="#000072"/>
<path d="M1194.37 1141.54H416.197C406.511 1141.54 398.654 1133.69 398.654 1124C398.654 1114.3 406.511 1106.45 416.197 1106.45H1194.37C1204.08 1106.45 1211.93 1114.3 1211.93 1124C1211.93 1133.69 1204.08 1141.54 1194.37 1141.54Z" fill="#000072"/>
<path d="M1194.37 1030.4H409.75C400.064 1030.4 392.207 1022.55 392.207 1012.85C392.207 1003.16 400.064 995.308 409.75 995.308H1194.37C1204.08 995.308 1211.91 1003.16 1211.91 1012.85C1211.91 1022.55 1204.08 1030.4 1194.37 1030.4Z" fill="#000072"/>
<path d="M484.745 814.918C697.495 802.897 912.211 802.823 1124.98 814.918C912.211 827.013 697.514 826.938 484.745 814.918Z" fill="#DDDDDD"/>
</svg>
