<svg width="1492" height="2127" viewBox="0 0 1492 2127" fill="none" xmlns="http://www.w3.org/2000/svg">
<path d="M323.477 1370.95L315.388 1743.1C310.691 1959.08 539.551 2132.3 804.748 2109.42C808.631 2109.08 812.514 2108.72 816.408 2108.31C1042.47 2084.75 1207.97 1923.75 1201.09 1739.23L1187.37 1370.95H323.477Z" fill="#6E7189"/>
<path d="M352.752 1378.55L345.055 1742.23C342.904 1843.78 393.362 1941.37 483.486 2009.98C572.177 2077.49 691.141 2110.17 809.844 2099.66C813.566 2099.32 817.277 2098.97 820.987 2098.56C1035.88 2075.57 1192.94 1920.76 1186.33 1738.48L1173.26 1378.55H352.752ZM766.019 2126.18C654.925 2126.18 546.773 2091.47 463.523 2028.11C367.157 1954.75 313.205 1850.39 315.498 1741.79L323.459 1366.04C323.595 1359.34 330.175 1353.97 338.234 1353.97H1187.6C1195.59 1353.97 1202.12 1359.25 1202.37 1365.89L1215.87 1737.73C1219.26 1831.11 1181.37 1921.86 1109.18 1993.29C1036.66 2065.03 935.661 2111.08 824.756 2122.95C820.833 2123.37 816.899 2123.76 812.976 2124.1C797.308 2125.49 781.628 2126.18 766.019 2126.18Z" fill="#000072"/>
<path d="M1389.84 1768.91C1333.04 1870.68 1251.45 1936.14 1166.84 1950.93L1108.57 1879.48L1037.16 1791.98L1077.91 1751.67L1166.84 1663.67C1187.49 1611.6 1170.36 1549.68 1135.95 1483.22L1090.84 1364.52L1183.43 1306.69C1215.05 1329.77 1243.72 1354.16 1269.26 1379.38C1353.94 1462.95 1404.27 1555.44 1414.63 1638.74C1415.76 1647.72 1416.4 1656.58 1416.58 1665.31C1417.37 1701.56 1407.5 1737.24 1389.84 1768.91Z" fill="#6E7189"/>
<path d="M1395.91 1669.75C1385.6 1598.51 1348.41 1530.48 1316.44 1483.04L1320.88 1460.15C1321.51 1461.02 1322.14 1461.88 1322.78 1462.75C1363.92 1519.2 1399.75 1589.82 1401.99 1661.19C1400.06 1664.11 1398.05 1666.97 1395.91 1669.75Z" fill="#C5C6D0"/>
<path d="M531.724 1677.3L513.167 1699.27H513.133L434.745 1792.02L366.729 1872.43C210.634 1823.14 85.1376 1759.67 61.6323 1648.89C53.5127 1589.56 70.9209 1531.22 104.153 1477.54C126.91 1440.8 157.074 1406.29 191.55 1375.13C232.969 1337.7 280.616 1305.19 329.046 1279.68L388.06 1374.77L366.729 1466.59L350.555 1556.61L350.095 1559.17C367.895 1566.51 385.142 1574.06 401.588 1582C401.665 1582.08 401.733 1582.1 401.844 1582.1C403.766 1583.07 405.723 1583.99 407.68 1584.96C409.314 1585.77 410.922 1586.56 412.522 1587.38C414.7 1588.44 416.869 1589.58 419.047 1590.7C424.416 1593.44 429.76 1596.31 435.035 1599.27C446.359 1605.54 457.148 1612.05 467.333 1618.9C469.187 1620.15 471.076 1621.39 472.931 1622.67C496.568 1639.09 516.588 1657.11 531.724 1677.3Z" fill="#6E7189"/>
<path d="M374.573 1468L364.657 1561.79L355.731 1545.51C407.212 1566.63 459.322 1590.7 503.34 1626.26C518.231 1638.41 532.253 1652.13 544.269 1667.9C548.788 1673.83 548.375 1681.99 543.692 1687.42C502.695 1736.14 420.209 1834.32 378.971 1882.83C374.667 1887.92 367.867 1889.65 361.894 1887.75C298.035 1867.35 234.796 1844.32 176.42 1810.16C93.8008 1761.82 29.212 1688.68 46.5035 1586.54C69.7377 1442.16 200.039 1332.56 322.403 1267.05C329.056 1263.53 337.276 1265.86 341.184 1272.17C351.048 1288 360.542 1304.06 369.632 1320.36C378.618 1336.8 387.381 1353.31 394.835 1370.57C396.573 1374.66 394.654 1379.41 390.557 1381.14C387.251 1382.55 383.516 1381.56 381.286 1378.98C375.141 1371.81 369.468 1364.36 363.83 1356.88C347.106 1334.4 331.682 1311.03 316.928 1287.23L335.71 1292.32C300.91 1310.84 267.659 1332.34 236.638 1356.56C148.726 1424.11 61.7164 1533.18 77.0489 1645.6C98.9016 1740.47 196.131 1789.8 279.572 1824.47C309.595 1836.65 340.444 1847.23 371.569 1857.13L354.457 1862.08C395.472 1813.29 478.482 1715.69 519.772 1667.19L519.204 1686.7C499.011 1659.93 470.873 1638.41 440.669 1620.25C409.76 1601.57 376.225 1586.43 342.475 1571.83C336.777 1568.94 334.04 1562.51 335.555 1556.57L358.881 1465.19C361.438 1455.75 375.468 1458.21 374.573 1468Z" fill="#000072"/>
<path d="M345.13 1572.54L277.302 1540.5C268.624 1536.32 273.589 1523.12 282.833 1525.65L355.083 1545.85C374.551 1552.26 364.078 1580.44 345.13 1572.54Z" fill="#000072"/>
<path d="M1143.54 1479.29C1166.56 1521.41 1187.72 1568.15 1188.46 1617.82C1188.64 1634.83 1186.07 1652.34 1180.07 1668.9C1179.4 1670.84 1178.27 1672.45 1176.84 1673.78L1047.2 1802.09L1048.22 1782.96L1177.85 1941.93L1164.36 1936.9C1230.86 1924.94 1288.2 1881.96 1330.87 1830.37C1344.35 1813.84 1356.81 1796.36 1367.94 1778.09C1383.4 1753.42 1395.69 1726.49 1400.07 1697.71C1411.81 1614.33 1370.93 1528.84 1322.77 1462.75C1282.12 1407.07 1230.69 1359.45 1175.04 1318.22L1190.99 1318.78L1098.4 1376.59C1082.23 1386.13 1067.6 1362.86 1083.31 1352.43L1175.89 1294.61C1180.94 1291.42 1187.31 1291.84 1191.84 1295.19C1292.37 1369.69 1383.74 1468.55 1419.41 1591.42C1429.12 1627.24 1434.22 1665.3 1428.19 1702.27C1423.22 1734.75 1409.56 1765.37 1392.26 1792.91C1380.44 1812.33 1367.24 1830.86 1352.83 1848.53C1306.22 1904.95 1242.82 1951.86 1169.27 1964.97C1164.02 1965.92 1158.91 1963.84 1155.79 1959.93L1026.15 1800.97C1021.48 1795.25 1022.03 1786.95 1027.16 1781.84L1156.8 1653.53L1153.58 1658.4C1159.1 1645.65 1162.09 1631.72 1162.83 1617.33C1164.68 1571.92 1147.64 1528.4 1128.36 1487.14C1123.82 1477.26 1137.95 1469.7 1143.54 1479.29Z" fill="#000072"/>
<path d="M603.361 1420.3V1546.13H655.816V1420.3H603.361Z" fill="white"/>
<path d="M614.039 1535.46H645.126V1430.99H614.039V1535.46ZM655.809 1556.82H603.356C597.459 1556.82 592.682 1552.04 592.682 1546.14V1420.3C592.682 1414.4 597.459 1409.62 603.356 1409.62H655.809C661.706 1409.62 666.492 1414.4 666.492 1420.3V1546.14C666.492 1552.04 661.706 1556.82 655.809 1556.82Z" fill="#000072"/>
<path d="M678.926 1576.7C678.926 1594.57 658.201 1609.05 632.629 1609.05C607.058 1609.05 586.332 1594.57 586.332 1576.7C586.332 1558.83 607.058 1544.36 632.629 1544.36C658.201 1544.36 678.926 1558.83 678.926 1576.7Z" fill="#42477F"/>
<path d="M678.926 1576.7C678.926 1594.57 658.201 1609.05 632.629 1609.05C607.058 1609.05 586.332 1594.57 586.332 1576.7C586.332 1558.83 607.058 1544.36 632.629 1544.36C658.201 1544.36 678.926 1558.83 678.926 1576.7Z" fill="white"/>
<path d="M632.629 1555.04C613.663 1555.04 597.018 1565.16 597.018 1576.7C597.018 1588.24 613.663 1598.37 632.629 1598.37C651.596 1598.37 668.241 1588.24 668.241 1576.7C668.241 1565.16 651.596 1555.04 632.629 1555.04ZM632.629 1619.73C600.684 1619.73 575.653 1600.83 575.653 1576.7C575.653 1552.57 600.684 1533.67 632.629 1533.67C664.583 1533.67 689.615 1552.57 689.615 1576.7C689.615 1600.83 664.583 1619.73 632.629 1619.73Z" fill="#000072"/>
<path d="M849.236 1420.3V1546.13H901.683V1420.3H849.236Z" fill="white"/>
<path d="M859.924 1535.45H891.005V1430.98H859.924V1535.45ZM901.683 1556.82H849.246C843.345 1556.82 838.557 1552.03 838.557 1546.13V1420.3C838.557 1414.4 843.345 1409.62 849.246 1409.62H901.683C907.584 1409.62 912.372 1414.4 912.372 1420.3V1546.13C912.372 1552.03 907.584 1556.82 901.683 1556.82Z" fill="#000072"/>
<path d="M924.806 1576.7C924.806 1594.57 904.077 1609.05 878.512 1609.05C852.938 1609.05 832.208 1594.57 832.208 1576.7C832.208 1558.83 852.938 1544.35 878.512 1544.35C904.077 1544.35 924.806 1558.83 924.806 1576.7Z" fill="white"/>
<path d="M878.52 1555.03C859.538 1555.03 842.904 1565.16 842.904 1576.7C842.904 1588.24 859.538 1598.37 878.52 1598.37C897.491 1598.37 914.125 1588.24 914.125 1576.7C914.125 1565.16 897.491 1555.03 878.52 1555.03ZM878.52 1619.74C846.562 1619.74 821.535 1600.84 821.535 1576.7C821.535 1552.57 846.562 1533.66 878.52 1533.66C910.468 1533.66 935.495 1552.57 935.495 1576.7C935.495 1600.84 910.468 1619.74 878.52 1619.74Z" fill="#000072"/>
<path d="M157.356 1370.72L153.045 1370.39C154.612 1370.29 156.139 1370.18 157.706 1370.14C157.603 1370.33 157.499 1370.53 157.356 1370.72Z" fill="#1C9ABD"/>
<path d="M249.639 1811.56C174.258 1777.55 96.3253 1729.31 77.046 1645.61C71.8696 1607.63 78.3741 1570.03 92.643 1534.29C91.2018 1564.24 100.506 1595.78 117.401 1620.9C146.61 1664.34 193.295 1692.37 240.034 1716.24L249.639 1811.56Z" fill="#585A84"/>
<path d="M251.511 1830.12C151.817 1786.6 78.9703 1730.63 61.6302 1648.89C53.511 1589.56 70.919 1531.22 104.15 1477.55C106.678 1475.14 109.244 1472.78 111.839 1470.46L117.22 1470.82C101.457 1488.45 93.7674 1510.88 92.6431 1534.29C78.3741 1570.03 71.8697 1607.63 77.0461 1645.61C96.3254 1729.31 174.258 1777.55 249.639 1811.56L251.511 1830.12Z" fill="#000072"/>
<path d="M1254.85 1899.62L1273.98 1709.81C1274.32 1706.52 1274.46 1703.29 1274.41 1700.13L1276.05 1691.7C1288.84 1702.31 1304.44 1709.32 1320.97 1710.11C1322.02 1710.15 1323.07 1710.18 1324.11 1710.18C1351.01 1710.18 1376.22 1694.05 1393.31 1673.07C1394.2 1671.97 1395.06 1670.87 1395.91 1669.75C1396.03 1670.48 1396.12 1671.21 1396.22 1671.94C1398.1 1685.57 1398.19 1698.51 1398.19 1698.51C1398.25 1701.69 1398.24 1704.88 1398.15 1708.05C1392.69 1732.96 1381.54 1756.4 1367.94 1778.09C1356.82 1796.36 1344.35 1813.84 1330.88 1830.37C1309.11 1856.69 1283.52 1880.76 1254.85 1899.62Z" fill="#585A84"/>
<path d="M1398.14 1708.05C1398.23 1704.88 1398.26 1701.69 1398.18 1698.51C1398.18 1698.51 1398.09 1685.57 1396.23 1671.94C1396.12 1671.21 1396.03 1670.48 1395.92 1669.75C1398.05 1666.97 1400.07 1664.11 1402 1661.19C1402.37 1673.36 1401.79 1685.55 1400.07 1697.7C1399.54 1701.18 1398.89 1704.63 1398.14 1708.05Z" fill="#9E9EBD"/>
<path d="M1253.01 1917.77L1254.85 1899.62C1283.52 1880.76 1309.1 1856.69 1330.86 1830.37C1344.35 1813.84 1356.81 1796.36 1367.94 1778.09C1381.53 1756.4 1392.67 1732.97 1398.14 1708.06C1398.89 1704.63 1399.54 1701.18 1400.06 1697.71C1401.78 1685.56 1402.37 1673.36 1401.99 1661.19C1406.71 1654.03 1410.86 1646.49 1414.63 1638.74C1415.76 1647.72 1416.4 1656.58 1416.58 1665.3C1417.37 1701.56 1407.5 1737.24 1389.84 1768.91C1352.77 1835.32 1305.15 1886.27 1253.01 1917.77Z" fill="#000072"/>
<path d="M1437.28 865.082C1437.13 871.144 1436.88 877.156 1436.54 883.217C982.784 594.573 525.094 574.948 62.5495 883.217C56.2491 769.889 82.1386 658.494 127.722 555.224C150.624 503.294 178.503 453.478 209.773 406.463C277.444 304.651 361.019 216.223 444.354 149.239C556.106 59.3526 667.398 8.06176 739.302 14.8274C942.157 -3.6511 1449.17 412.917 1437.28 865.082Z" fill="#6E7189"/>
<path d="M1423.2 845.519C1417.52 837.976 1411.73 830.548 1405.82 823.2C1400.07 738.522 1377.06 655.688 1342.33 577.436C1343.6 577.452 1344.88 577.468 1346.16 577.468L1356.02 559.94C1399.12 655.171 1422.42 752.262 1423.2 845.519ZM1014 165.131C913.513 86.5059 813.351 37.2236 740.06 30.2157H748.073C750.556 30.2157 752.895 29.5682 754.932 28.4515C824.042 29.2769 925.668 76.9245 1028.05 155.55C1023.34 158.576 1018.66 161.765 1014 165.131ZM709.115 29.9405C708.33 29.8596 707.545 29.7949 706.752 29.7301C712.54 29.0342 718.131 28.6133 723.511 28.5C724.123 28.8399 724.772 29.1313 725.436 29.374C724.47 29.3578 723.528 29.3416 722.576 29.3416C717.965 29.3416 713.461 29.5359 709.115 29.9405Z" fill="#C5C6D0"/>
<path d="M741.763 645.062C745.513 645.062 749.241 645.095 752.991 645.128C972.787 647.489 1198.15 719.102 1423.16 858.028C1426.11 640.043 1304.23 399.586 1093.29 209.862C970.425 99.3438 838.763 29.4704 754.931 28.4535C752.892 29.5688 750.553 30.2085 748.072 30.2085H730.264C727.826 30.2085 725.525 29.6016 723.509 28.5027C646.143 30.0609 524.831 94.4724 411.019 196.166C244.788 344.721 72.5709 594.264 75.9284 857.421C294.529 716.461 518.38 645.062 741.763 645.062ZM1436.53 897.459C1433.85 897.459 1431.2 896.705 1428.88 895.228C961.125 597.676 516.781 597.61 70.4501 895.081C66.2019 897.918 60.7547 898.246 56.1818 895.95C51.6089 893.67 48.6138 889.11 48.335 884.009C41.164 754.793 73.7256 621.18 145.108 486.895C221.531 343.13 321.573 237.893 392.034 174.925C519.828 60.7331 654.134 -6.35209 739.242 0.536844C830.939 -7.00817 975.395 65.4896 1112.35 188.67C1212.8 279.03 1297.21 385.579 1356.43 496.802C1426.21 627.823 1457.95 758.09 1450.75 884.026C1450.45 889.078 1447.52 893.588 1443.02 895.901C1440.97 896.934 1438.74 897.459 1436.53 897.459Z" fill="#000072"/>
<path d="M1005.56 171.415C1008.35 169.266 1011.18 167.164 1014 165.123C1011.18 167.164 1008.37 169.251 1005.56 171.415Z" fill="#C5C6D0"/>
<path d="M1014 165.124C1018.67 161.766 1023.34 158.577 1028.06 155.542C1023.35 158.577 1018.65 161.766 1014 165.124Z" fill="#E8E8EC"/>
<path d="M1363.66 546.365C1363.72 546.26 1363.73 546.234 1363.78 546.13C1363.74 546.208 1363.7 546.286 1363.66 546.365ZM1363.86 545.999C1363.9 545.947 1363.95 545.856 1363.98 545.804C1363.94 545.856 1363.9 545.947 1363.86 545.999ZM1364.24 545.334C1364.29 545.243 1364.33 545.191 1364.38 545.086C1364.33 545.178 1364.29 545.243 1364.24 545.334ZM1364.42 545.008C1364.48 544.904 1364.54 544.799 1364.6 544.682C1364.55 544.773 1364.47 544.904 1364.42 545.008ZM1364.62 544.682C1364.72 544.473 1364.86 544.212 1364.98 544.004C1364.86 544.225 1364.73 544.447 1364.62 544.682ZM1365.03 543.912C1365.07 543.834 1365.14 543.73 1365.18 543.651C1365.12 543.743 1365.08 543.821 1365.03 543.912ZM1365.22 543.573C1365.27 543.495 1365.32 543.378 1365.37 543.312C1365.32 543.404 1365.27 543.482 1365.22 543.573ZM1365.41 543.234C1365.46 543.143 1365.52 543.051 1365.57 542.947C1365.52 543.051 1365.46 543.13 1365.41 543.234ZM1365.59 542.895C1365.65 542.804 1365.72 542.673 1365.78 542.582C1365.72 542.686 1365.66 542.791 1365.59 542.895ZM1365.79 542.556C1365.98 542.217 1366.17 541.865 1366.36 541.525C1366.17 541.865 1365.97 542.217 1365.79 542.556ZM1366.38 541.486C1366.44 541.382 1366.49 541.278 1366.55 541.186C1366.49 541.291 1366.44 541.382 1366.38 541.486ZM1366.58 541.121C1366.65 541.004 1366.69 540.938 1366.75 540.821C1366.7 540.912 1366.64 541.043 1366.58 541.121Z" fill="#000072"/>
<path d="M1372.94 529.224C1414.64 448.391 1424.52 373.213 1412.33 309.545C1424.53 373.213 1414.66 448.377 1372.94 529.224Z" fill="#1C9ABD"/>
<path d="M1366.95 540.451C1369.01 536.688 1371 532.951 1372.93 529.214C1371.02 532.951 1369.01 536.688 1366.95 540.451Z" fill="#000072"/>
<path d="M1412.32 309.507C1412.32 309.449 1412.31 309.377 1412.29 309.319C1412.31 309.391 1412.32 309.449 1412.32 309.507Z" fill="#1C9ABD"/>
<path d="M1406.2 829.433C1352.4 767.865 1275.36 711.736 1181.85 666.785C1060.4 608.406 922.371 575.09 801.734 575.09C799.802 575.09 797.87 575.104 795.938 575.118C779.377 575.256 762.691 575.325 745.992 575.325C729.306 575.325 712.62 575.256 696.059 575.118C694.196 575.104 692.36 575.09 690.497 575.09C569.946 575.09 431.67 608.379 310.148 666.785C218.686 710.742 142.98 765.423 89.3674 825.389C92.2947 744.196 110.209 664.522 138.679 588.657C143.078 594.039 147.567 599.325 152.133 604.501C153.808 606.433 155.852 607.247 157.845 607.247C162.539 607.247 166.976 602.775 165.888 597.766C273.815 563.925 381.333 504.345 455.93 423.484C457.93 421.331 459.899 419.15 461.847 416.956C463.159 416.984 464.472 417.011 465.793 417.066C469 417.218 472.214 417.425 475.428 417.715C531.486 422.904 582.827 453.019 635.783 473.872C749.359 518.547 874.081 521.1 991.888 551.794C1153.07 593.818 1299.45 691.434 1405.81 823.208C1405.95 825.292 1406.08 827.349 1406.2 829.433Z" fill="#585A84"/>
<path d="M1423.21 850.077C1417.82 843.125 1412.15 836.239 1406.19 829.431C1406.08 827.34 1405.95 825.289 1405.8 823.211C1411.72 830.542 1417.52 837.99 1423.2 845.53C1423.2 847.046 1423.21 848.548 1423.21 850.077Z" fill="#9E9EBD"/>
<path d="M1437.16 869.186C1432.75 862.767 1428.11 856.4 1423.2 850.073C1423.2 848.548 1423.2 847.048 1423.19 845.522C1427.98 851.902 1432.67 858.347 1437.28 864.871C1437.24 866.305 1437.2 867.739 1437.16 869.186Z" fill="#000072"/>
<path d="M1310.22 1156.4C1282.29 1192.29 1244.87 1219.72 1202.81 1236.99C1063.64 1294.18 924.322 1338.66 784.865 1370.61C760.641 1376.16 735.499 1376.16 711.311 1370.61C571.821 1338.66 432.503 1294.18 293.361 1236.99C251.302 1219.72 213.837 1192.29 185.917 1156.4C19.2489 942.216 414.198 733.747 706.897 735.942C734.351 736.172 761.818 736.172 789.241 735.942C1081.98 733.747 1476.89 942.216 1310.22 1156.4ZM796.072 589.367C762.707 589.654 729.3 589.654 695.933 589.367C339.94 586.267 -140.368 877.969 62.3405 1177.69C96.3195 1227.9 141.828 1266.22 193.003 1290.45C362.2 1370.47 531.648 1432.68 701.276 1477.41C730.72 1485.14 761.272 1485.14 790.734 1477.41C960.356 1432.68 1129.81 1370.47 1299 1290.45C1350.17 1266.22 1395.69 1227.9 1429.66 1177.69C1632.37 877.969 1152.06 586.267 796.072 589.367Z" fill="#6E7189"/>
<path d="M39.8834 961.279C44.8012 946.339 51.2712 931.386 59.308 916.42C150.748 745.961 438.549 603.568 690.107 603.568C692.001 603.568 693.909 603.582 695.816 603.595C712.464 603.741 729.232 603.807 746.013 603.807C762.781 603.807 779.548 603.741 796.197 603.595C798.223 603.582 800.237 603.568 802.263 603.568C1053.67 603.568 1341.31 746.041 1432.71 916.42C1440.73 931.373 1447.21 946.339 1452.12 961.266C1361.99 771.629 1052.32 627.316 801.707 627.316C799.826 627.316 797.959 627.342 796.078 627.356C779.39 627.501 762.701 627.568 746 627.568C729.312 627.568 712.623 627.501 695.935 627.356C694.041 627.342 692.187 627.316 690.293 627.316C439.696 627.316 129.996 771.656 39.8834 961.279Z" fill="#C5C6D0"/>
<path d="M130.404 1232.9C109.117 1214.63 90.1617 1193.39 74.1344 1169.7C45.4578 1127.29 30.2081 1084.17 28.4039 1040.63C36.2398 1062.45 47.4444 1084.43 62.3413 1106.47C76.595 1127.53 92.8713 1146.49 110.755 1163.22L130.404 1232.9ZM1365.55 1229.46L1377.74 1166.44C1397 1148.96 1414.48 1128.89 1429.67 1106.47C1444.56 1084.43 1455.77 1062.45 1463.6 1040.63C1461.8 1084.17 1446.54 1127.29 1417.88 1169.7C1402.84 1191.91 1385.24 1211.98 1365.55 1229.46Z" fill="#585A84"/>
<path d="M702.316 750.17C602.067 750.17 487.785 775.107 387.939 818.86C282.676 864.99 207.537 925.18 176.365 988.323C149.789 1042.16 156.783 1095.77 197.161 1147.65C222.899 1180.73 258.033 1207.06 298.771 1223.82C436.135 1280.29 576.005 1325.01 714.484 1356.72C736.457 1361.76 759.694 1361.76 781.666 1356.72C920.146 1325.01 1060.02 1280.29 1197.37 1223.82C1238.12 1207.06 1273.25 1180.73 1298.99 1147.66C1339.37 1095.77 1346.36 1042.16 1319.79 988.323C1288.61 925.18 1213.48 864.99 1108.21 818.86C1006.87 774.456 890.568 749.492 789.348 750.183C761.957 750.387 734.181 750.387 706.803 750.183C705.307 750.17 703.799 750.17 702.316 750.17ZM748.075 1388.99C734.642 1388.99 721.195 1387.49 708.119 1384.5C568.117 1352.43 426.748 1307.23 287.936 1250.16C242.617 1231.54 203.454 1202.14 174.674 1165.15C127.694 1104.78 119.447 1039.27 150.815 975.72C184.952 906.557 265.103 841.586 376.501 792.772C481.379 746.808 601.773 720.886 707.007 721.692C734.258 721.896 761.893 721.896 789.144 721.692C790.69 721.679 792.25 721.679 793.809 721.679C897.867 721.679 1016.32 747.486 1119.65 792.772C1231.05 841.586 1311.2 906.557 1345.34 975.72C1376.7 1039.27 1368.46 1104.77 1321.47 1165.15C1292.7 1202.14 1253.54 1231.54 1208.21 1250.16C1069.4 1307.23 928.032 1352.43 788.032 1384.5C774.956 1387.49 761.509 1388.99 748.075 1388.99Z" fill="#000072"/>
<path d="M690.103 603.574C438.545 603.574 150.743 745.969 59.305 916.428C13.3778 1002.03 18.3667 1087.25 74.1329 1169.7C105.855 1216.6 149.061 1253.89 199.081 1277.55C366.22 1356.61 536.405 1419.21 704.903 1463.62C731.783 1470.71 760.2 1470.71 787.094 1463.62C955.596 1419.21 1125.78 1356.61 1292.91 1277.55C1342.95 1253.89 1386.14 1216.6 1417.87 1169.7C1473.63 1087.25 1478.62 1002.03 1432.7 916.428C1340.56 744.678 1049.03 601.277 796.186 603.601C762.891 603.886 729.12 603.886 695.811 603.601C693.908 603.588 691.992 603.574 690.103 603.574ZM745.999 1497.43C729.731 1497.43 713.464 1495.34 697.645 1491.18C527.456 1446.32 355.61 1383.11 186.895 1303.31C132.265 1277.46 85.1109 1236.78 50.5368 1185.66C-10.7579 1095.04 -16.4058 997.288 34.1949 902.946C82.4554 812.995 180.459 729.118 310.148 666.781C433.55 607.474 574.203 574.07 696.056 575.117C729.188 575.402 762.809 575.402 795.942 575.117C917.938 574.029 1058.46 607.474 1181.84 666.781C1311.54 729.118 1409.54 812.995 1457.81 902.946C1508.41 997.288 1502.75 1095.04 1441.46 1185.66C1406.89 1236.78 1359.73 1277.46 1305.1 1303.31C1136.38 1383.11 964.538 1446.32 794.351 1491.18C778.533 1495.34 762.266 1497.43 745.999 1497.43Z" fill="#000072"/>
<path d="M470.653 146.749C470.45 146.619 470.253 146.505 470.058 146.375L457.925 139.789C459.185 137.968 460.708 136.277 462.209 134.667C528.726 63.5934 623.81 20.0483 721.074 16.1133L733.139 21.7231C730.105 21.5605 727.073 21.4792 724.047 21.4792C683.775 21.4792 644.107 35.642 611.6 59.4797C567.466 79.8376 519.181 109.562 470.653 146.749Z" fill="#000072"/>
</svg>
