<svg width="1551" height="1636" viewBox="0 0 1551 1636" fill="none" xmlns="http://www.w3.org/2000/svg">
<path fill-rule="evenodd" clip-rule="evenodd" d="M1485.19 1437.99C1496.58 1079.89 1502.77 799.682 1503.72 597.336C1510.04 602.608 1516.36 607.712 1522.66 612.69L1522.45 612.501C1361.98 484.141 1275.9 283.316 1294.6 77.554C1242.06 98.0965 1187.24 115.341 1130.55 128.889C1055.81 252.166 919.893 325.766 775.129 320.326C632.087 314.97 503.455 233.304 437.458 107.381C368.416 86.0608 302.671 59.1958 241.044 27.4158C310.863 240.613 222.832 475.193 27.4238 589.165C50.7705 863.681 67.1835 1165.05 76.663 1493.36C274.483 1626.56 528.072 1645.08 743.181 1542.07C762.442 1446.68 766.286 1331.59 749.146 1194.01C783.321 1199.48 814.765 1199.48 843.457 1194.01C847.49 1337.67 862.971 1459.65 889.962 1560.03C1096.06 1626.39 1321.88 1580.11 1485.19 1437.99Z" fill="#E71C24"/>
<path d="M534.233 1431.77C457.246 1431.77 380.769 1418.64 308.3 1393.11C328.553 1394.47 347.098 1395.15 364.071 1395.15C548.888 1395.15 549.772 1314.45 568.631 1149.15C569.829 1138.45 576.921 1128.97 587.176 1125.75C589.808 1124.92 592.067 1124.65 593.874 1124.65C597.096 1124.65 598.903 1125.49 598.903 1125.49C657.602 1143.28 717.066 1152.17 778.79 1152.17C840.513 1152.17 904.496 1143.28 972.231 1125.49C981.051 1139.53 982.957 1143.2 982.564 1143.2C982.112 1143.2 978.91 1138.83 978.91 1138.83C1030.34 1275.29 1053.21 1377.41 1201.41 1377.41C1229.69 1377.41 1262.52 1373.71 1300.98 1365.8C1220.74 1400.69 1133.77 1418.84 1046.15 1418.84C992.7 1418.84 939.011 1412.09 886.442 1398.28C878.152 1335.75 872.946 1267.24 870.884 1193.25C870.648 1185.21 866.916 1177.68 860.649 1172.64C855.738 1168.69 849.668 1166.59 843.479 1166.59C841.77 1166.59 840.042 1166.75 838.352 1167.08C825.74 1169.48 812.362 1170.68 798.336 1170.68C784.054 1170.68 769.066 1169.43 753.487 1166.93C752.053 1166.71 750.619 1166.6 749.165 1166.6C742.113 1166.6 735.257 1169.31 730.11 1174.29C724.727 1179.49 721.741 1186.61 721.722 1194C721.722 1195.13 721.801 1196.27 721.938 1197.4C729.069 1254.53 732.605 1308.93 732.605 1360.35C732.605 1374.53 732.33 1388.51 731.8 1402.24C666.992 1422.08 600.455 1431.77 534.233 1431.77Z" fill="#A1143B"/>
<path d="M103.645 1478.28C287.033 1596.02 520.287 1613 718.896 1523.12C736.081 1428.78 737.119 1319.28 721.926 1197.4C720.867 1188.84 723.897 1180.29 730.105 1174.3C736.314 1168.31 744.959 1165.59 753.477 1166.94C784.329 1171.88 812.892 1171.92 838.341 1167.08C846.223 1165.57 854.381 1167.62 860.632 1172.64C866.904 1177.69 870.634 1185.22 870.867 1193.26C874.617 1327.23 888.645 1443.22 912.631 1538.32C1100.86 1593.63 1307.52 1550.78 1458.15 1424.99C1469.05 1081 1475.11 806.701 1476.23 609.221C1337.14 483.847 1260.22 304.945 1264.82 117.863C1226.6 131.339 1187.46 143.078 1147.88 152.91C1066.66 278.987 924.582 353.32 774.094 347.747C625.874 342.174 490.728 259.154 418.62 130.216C371.961 115.362 326.404 97.8388 282.52 77.9418C300.679 170.18 292.86 266.698 259.339 355.227C220.52 457.721 148.711 545.403 56.1636 603.794C78.3511 869.059 94.3238 1163.06 103.645 1478.28ZM452.968 1635.11C315.47 1635.11 178.484 1594.96 61.3507 1516.1C54.0043 1511.16 49.4973 1502.99 49.2452 1494.15C39.818 1167.82 23.284 864.114 0.0984439 591.511C-0.795752 580.937 4.45696 570.83 13.6045 565.49C195.95 459.119 280.634 236.439 214.977 35.9656C211.51 25.392 214.79 13.7589 223.253 6.53334C231.729 -0.671082 243.701 -2.04827 253.596 3.05839C314.071 34.2281 378.635 60.5242 445.552 81.2051C452.523 83.3452 458.35 88.1976 461.741 94.6604C523.232 211.987 643.695 287.951 776.15 292.951C910.724 298.016 1037.35 229.68 1107.09 114.684C1110.88 108.412 1117.02 103.941 1124.17 102.225C1178.9 89.1512 1232.89 72.2419 1284.59 52.0272C1293.45 48.5521 1303.47 49.9082 1311.06 55.6294C1318.66 61.3293 1322.75 70.568 1321.88 80.0397C1304.02 276.72 1385.41 467.786 1539.59 591.108C1539.88 591.363 1540.18 591.596 1540.48 591.85C1541 592.316 1541.56 592.825 1542.04 593.291C1552.3 603.568 1552.79 620.047 1543.15 630.9C1539.73 634.74 1535.47 637.407 1530.88 638.846C1529.33 836.686 1523.18 1105.5 1512.59 1438.86C1512.36 1446.48 1508.92 1453.66 1503.18 1458.67C1333.69 1606.18 1095.52 1655.03 881.567 1586.12C872.71 1583.27 865.887 1576.14 863.472 1567.15C837.981 1472.38 822.385 1357.36 817.067 1224.91C805.158 1225.7 792.847 1225.71 780.261 1224.99C792.487 1344.89 789.075 1453.24 770.047 1547.48C768.352 1555.92 762.779 1563.07 755.024 1566.79C659.502 1612.54 556.097 1635.11 452.968 1635.11Z" fill="#000071"/>
<path d="M798.432 388.32C796.368 388.32 794.266 388.302 792.183 388.283C661.723 386.2 543.595 320.115 472.749 216.216C476.506 216.867 480.263 217.499 484.039 218.132C559.405 295.953 663.081 343.569 774.104 347.754C779.367 347.94 784.612 348.052 789.876 348.052C909.38 348.033 1022.39 297.851 1102.22 211.733C1111.78 209.985 1121.29 208.143 1130.68 206.228C1059.37 317.994 934.881 388.32 798.432 388.32Z" fill="#F38E92"/>
<path d="M103.645 1478.28C287.033 1596.02 520.287 1613 718.896 1523.12C736.081 1428.78 737.119 1319.28 721.926 1197.4C720.867 1188.84 723.897 1180.29 730.105 1174.3C736.314 1168.31 744.959 1165.59 753.477 1166.94C784.329 1171.88 812.892 1171.92 838.341 1167.08C846.223 1165.57 854.381 1167.62 860.632 1172.64C866.904 1177.69 870.634 1185.22 870.867 1193.26C874.617 1327.23 888.645 1443.22 912.631 1538.32C1100.86 1593.63 1307.52 1550.78 1458.15 1424.99C1469.05 1081 1475.11 806.701 1476.23 609.221C1337.14 483.847 1260.22 304.945 1264.82 117.863C1226.6 131.339 1187.46 143.078 1147.88 152.91C1066.66 278.987 924.582 353.32 774.094 347.747C625.874 342.174 490.728 259.154 418.62 130.216C371.961 115.362 326.404 97.8388 282.52 77.9418C300.679 170.18 292.86 266.698 259.339 355.227C220.52 457.721 148.711 545.403 56.1636 603.794C78.3511 869.059 94.3238 1163.06 103.645 1478.28ZM452.968 1635.11C315.47 1635.11 178.484 1594.96 61.3507 1516.1C54.0043 1511.16 49.4973 1502.99 49.2452 1494.15C39.818 1167.82 23.284 864.114 0.0984439 591.511C-0.795752 580.937 4.45696 570.83 13.6045 565.49C195.95 459.119 280.634 236.439 214.977 35.9656C211.51 25.392 214.79 13.7589 223.253 6.53334C231.729 -0.671082 243.701 -2.04827 253.596 3.05839C314.071 34.2281 378.635 60.5242 445.552 81.2051C452.523 83.3452 458.35 88.1976 461.741 94.6604C523.232 211.987 643.695 287.951 776.15 292.951C910.724 298.016 1037.35 229.68 1107.09 114.684C1110.88 108.412 1117.02 103.941 1124.17 102.225C1178.9 89.1512 1232.89 72.2419 1284.59 52.0272C1293.45 48.5521 1303.47 49.9082 1311.06 55.6294C1318.66 61.3293 1322.75 70.568 1321.88 80.0397C1304.02 276.72 1385.41 467.786 1539.59 591.108C1539.88 591.363 1540.18 591.596 1540.48 591.85C1541 592.316 1541.56 592.825 1542.04 593.291C1552.3 603.568 1552.79 620.047 1543.15 630.9C1539.73 634.74 1535.47 637.407 1530.88 638.846C1529.33 836.686 1523.18 1105.5 1512.59 1438.86C1512.36 1446.48 1508.92 1453.66 1503.18 1458.67C1333.69 1606.18 1095.52 1655.03 881.567 1586.12C872.71 1583.27 865.887 1576.14 863.472 1567.15C837.981 1472.38 822.385 1357.36 817.067 1224.91C805.158 1225.7 792.847 1225.71 780.261 1224.99C792.487 1344.89 789.075 1453.24 770.047 1547.48C768.352 1555.92 762.779 1563.07 755.024 1566.79C659.502 1612.54 556.097 1635.11 452.968 1635.11Z" fill="#000071"/>
<path d="M601.015 1125.43C632.335 1138.4 662.663 1149.44 693.788 1156.72C724.772 1164.15 756.163 1168.3 787.767 1168.75C819.335 1169.1 850.992 1165.44 882.188 1158.14C913.491 1150.98 943.961 1139.48 974.501 1125.43L974.572 1125.4C978.523 1123.58 983.217 1125.31 985.024 1129.27C986.459 1132.36 985.697 1135.92 983.412 1138.19C958.274 1162.92 927.184 1181.75 893.756 1194.92C860.221 1207.99 824.03 1214.75 787.767 1215.14C751.486 1215.55 715.046 1209.3 681.335 1196.34C647.711 1183.28 616.48 1164.02 592.122 1138.19C589.092 1135 589.252 1129.98 592.44 1126.96C594.779 1124.75 598.127 1124.24 600.926 1125.39L601.015 1125.43Z" fill="#000071"/>
<path d="M790.348 1120.32C717.723 1120.32 645.117 1099.8 581.6 1058.75C507.963 1011.19 454.454 941.175 426.885 861.602C459.402 922.654 507.119 975.615 566.7 1014.11C634.659 1058 712.494 1079.95 790.348 1079.93C868.184 1079.93 946.057 1057.99 1013.98 1014.11C1073.58 975.602 1121.33 922.575 1153.85 861.467C1126.28 941.094 1072.73 1011.15 999.097 1058.75C935.561 1099.8 862.955 1120.32 790.348 1120.32Z" fill="#A1143B"/>
<path d="M1046.04 1465.49C981.805 1465.49 917.273 1456.41 854.44 1437.79C842.071 1434.12 835.047 1421.13 838.695 1408.79C842.364 1396.43 855.342 1389.36 867.711 1393.04C1079.19 1455.75 1311.76 1402.23 1474.59 1253.36C1484.09 1244.67 1498.85 1245.33 1507.55 1254.84C1516.25 1264.35 1515.58 1279.11 1506.08 1287.8C1379.62 1403.43 1213.95 1465.49 1046.04 1465.49Z" fill="#000071"/>
<path d="M534.279 1478.43C359.83 1478.43 187.983 1415.44 53.8877 1296.55C44.2318 1288 43.3419 1273.25 51.8938 1263.61C60.4457 1253.96 75.1934 1253.09 84.8329 1261.63C266.22 1422.44 521.509 1473.93 751.044 1396.03C763.238 1391.88 776.486 1398.43 780.622 1410.63C784.774 1422.83 778.232 1436.07 766.039 1440.21C690.373 1465.89 612.054 1478.43 534.279 1478.43Z" fill="#000071"/>
<path fill-rule="evenodd" clip-rule="evenodd" d="M409.996 610.483C387.386 760.058 454.533 909.018 581.593 991.083C708.652 1073.18 872.029 1073.18 999.089 991.083C1126.13 909.018 1193.3 760.058 1170.67 610.483C995.729 621.702 742.197 621.702 409.996 610.483Z" fill="#E71C24"/>
<path d="M1139.26 744.156C1086.49 697.498 899.42 666.834 729.978 666.834C598.476 666.834 477.583 685.318 438.445 729.133C434.217 705.018 432.44 680.323 433.319 655.404C433.637 646.386 441.176 639.24 450.231 639.24C450.399 639.24 450.587 639.24 450.774 639.24C599.431 643.935 732.541 646.274 849.225 646.274C956.967 646.274 1050.71 644.272 1129.74 640.287C1130.04 640.268 1130.34 640.25 1130.64 640.25C1134.83 640.25 1138.89 641.821 1142.03 644.721C1145.36 647.771 1147.25 651.905 1147.4 656.376C1148.37 686.141 1145.55 715.607 1139.26 744.156Z" fill="#F38E92"/>
<path d="M450.225 639.239C441.167 639.239 433.636 646.389 433.312 655.427C428.888 780.396 491.392 900.179 596.454 968.044C714.235 1044.14 866.432 1044.14 984.194 968.044C1088.95 900.379 1151.47 780.949 1147.39 656.38C1147.24 651.919 1145.35 647.781 1142.04 644.73C1138.66 641.641 1134.24 640.039 1129.74 640.287C965.088 648.62 736.677 648.277 450.758 639.239C450.587 639.239 450.396 639.239 450.225 639.239ZM790.333 1079.94C712.48 1079.95 634.646 1058.01 566.689 1014.11C445.496 935.831 373.382 797.652 378.511 653.482C379.884 614.165 412.795 583.104 452.494 584.438C736.887 593.4 963.81 593.762 1126.97 585.506C1146.34 584.534 1164.88 591.226 1179.16 604.364C1193.38 617.463 1201.58 635.292 1202.21 654.588C1206.92 798.281 1134.79 936.058 1013.98 1014.11C946.058 1057.99 868.167 1079.94 790.333 1079.94Z" fill="#000071"/>
</svg>
