<svg width="1013" height="1269" viewBox="0 0 1013 1269" fill="none" xmlns="http://www.w3.org/2000/svg">
<path d="M803.641 750.857C830.683 794.764 788.073 870.11 708.459 919.163C628.847 968.203 542.38 972.364 515.333 928.457C488.288 884.55 530.901 809.204 610.516 760.164C690.129 711.124 776.595 706.95 803.641 750.857Z" fill="#FFC533"/>
<path d="M675.471 953.27L910.749 1232.87C925.335 1230.91 957.549 1222.39 974.762 1185.42L771.585 893.203C751.617 907.336 714.261 932.696 675.471 953.27ZM903.935 1268.96C903.495 1268.96 903.069 1268.95 902.642 1268.95C897.522 1268.86 892.682 1266.55 889.389 1262.63L633.847 958.95C630.306 954.736 628.917 949.123 630.085 943.75C631.253 938.363 634.85 933.843 639.821 931.483C699.118 903.336 764.529 854.496 765.178 854.003C769.033 851.11 773.895 849.923 778.655 850.683C783.414 851.443 787.653 854.123 790.403 858.07L1009.44 1173.08C1012.74 1177.83 1013.52 1183.87 1011.55 1189.3C988.562 1252.48 931.882 1268.96 903.935 1268.96Z" fill="#0F0F14"/>
<path d="M733.697 738.509C702.1 738.509 661.285 749.736 619.824 775.283C543.78 822.123 511.689 888.696 530.445 919.149C549.205 949.589 623.103 950.882 699.151 904.042C775.188 857.202 807.279 790.629 788.529 760.176C779.996 746.322 760.052 738.509 733.697 738.509ZM585.033 976.562C547.128 976.562 516.181 963.682 500.219 937.763C467.539 884.709 511.899 800.056 601.204 745.042C690.511 690.029 786.071 688.496 818.763 741.549C851.429 794.603 807.077 879.256 717.771 934.269C672.08 962.416 624.74 976.562 585.033 976.562Z" fill="#0F0F14"/>
<path d="M715.293 782.923C715.293 782.923 388.118 114.496 354.129 84.2831C320.141 54.0698 72.1554 8.74974 54.5314 18.8297C36.9087 28.8964 10.1434 290.723 19.7501 320.936C29.3567 351.15 602.114 868.203 602.114 868.203L715.293 782.923Z" fill="white"/>
<path d="M36.3995 314.47C59.4915 349.003 390.429 653.016 603.137 845.216L692.904 777.563C567.828 522.376 367.341 122.763 342.165 97.3898C315.79 73.9498 109.786 35.0163 66.3182 35.0163C66.0408 35.0163 65.7715 35.0163 65.5035 35.0163C51.3995 74.4697 29.3168 282.283 36.3995 314.47ZM602.118 885.963C597.845 885.963 593.585 884.416 590.221 881.39C588.789 880.083 445.313 750.536 302.508 618.95C10.2635 349.683 5.61285 335.056 2.83152 326.323C-5.42715 300.35 6.75817 183.55 9.2835 160.403C25.1328 15.1764 38.0208 7.81633 45.7221 3.41633C62.7275 -6.30367 139.932 6.54977 201.716 19.0564C252.845 29.3898 342.168 49.8963 365.924 71.0163C400.761 101.976 676.345 662.976 731.237 775.123C734.977 782.763 732.77 791.976 725.976 797.11L612.8 882.39C609.625 884.776 605.865 885.963 602.118 885.963Z" fill="#0F0F14"/>
<path d="M602.096 883.004C594.681 883.004 588.284 877.444 587.419 869.897L572.763 741.977L42.6533 27.6438C37.7826 21.0838 39.1547 11.8173 45.716 6.93729C52.276 2.07063 61.5427 3.44396 66.4093 10.004L598.887 727.537C600.437 729.631 601.411 732.084 601.707 734.671L616.813 866.524C617.744 874.644 611.917 881.977 603.799 882.897C603.229 882.964 602.66 883.004 602.096 883.004Z" fill="#0F0F14"/>
<path d="M715.293 797.723C713.617 797.723 711.91 797.443 710.244 796.829L581.96 750.256C574.281 747.469 570.316 738.976 573.102 731.309C575.892 723.616 584.381 719.656 592.057 722.442L720.342 769.016C728.021 771.803 731.985 780.296 729.2 787.976C727.014 793.989 721.338 797.723 715.293 797.723Z" fill="#0F0F14"/>
<path d="M873.883 1228.44C870.096 1228.44 866.389 1226.64 864.096 1223.28C860.403 1217.88 861.803 1210.52 867.189 1206.84L895.349 1187.62C900.629 1183.99 907.816 1185.24 911.589 1190.42L917.669 1198.75L938.976 1184.3L932.936 1175.52C929.509 1170.55 930.376 1163.79 934.963 1159.84L961.336 1137.14C966.296 1132.88 973.776 1133.44 978.029 1138.39C982.296 1143.34 981.736 1150.82 976.776 1155.08L958.456 1170.84L965.229 1180.7C967.016 1183.3 967.696 1186.5 967.123 1189.59C966.536 1192.7 964.736 1195.43 962.123 1197.2L921.483 1224.75C916.203 1228.34 909.043 1227.1 905.283 1221.94L899.229 1213.63L880.536 1226.39C878.496 1227.78 876.176 1228.44 873.883 1228.44Z" fill="#0F0F14"/>
<path d="M994.869 1183.23L775.83 868.204C775.83 868.204 709.114 918.243 647.432 947.51L902.976 1251.2C902.976 1251.2 969.682 1252.46 994.869 1183.23Z" fill="#FF2434"/>
<path d="M873.869 1216.62L902.029 1197.39L914.842 1214.96L955.482 1187.4L942.682 1168.82L969.056 1146.11L993.829 1185.92C993.829 1185.92 981.816 1224.78 952.216 1236.71C922.602 1248.64 899.829 1251.2 899.829 1251.2L873.869 1216.62Z" fill="#FFC533"/>
<path d="M803.641 750.857C830.683 794.764 788.073 870.11 708.459 919.163C628.847 968.203 542.38 972.364 515.333 928.457C488.288 884.55 530.901 809.204 610.516 760.164C690.129 711.124 776.595 706.95 803.641 750.857Z" fill="#FFC533"/>
<path d="M675.471 953.27L910.749 1232.87C925.335 1230.91 957.549 1222.39 974.762 1185.42L771.585 893.203C751.617 907.336 714.261 932.696 675.471 953.27ZM903.935 1268.96C903.495 1268.96 903.069 1268.95 902.642 1268.95C897.522 1268.86 892.682 1266.55 889.389 1262.63L633.847 958.95C630.306 954.736 628.917 949.123 630.085 943.75C631.253 938.363 634.85 933.843 639.821 931.483C699.118 903.336 764.529 854.496 765.178 854.003C769.033 851.11 773.895 849.923 778.655 850.683C783.414 851.443 787.653 854.123 790.403 858.07L1009.44 1173.08C1012.74 1177.83 1013.52 1183.87 1011.55 1189.3C988.562 1252.48 931.882 1268.96 903.935 1268.96Z" fill="#0F0F14"/>
<path d="M733.697 738.509C702.1 738.509 661.285 749.736 619.824 775.283C543.78 822.123 511.689 888.696 530.445 919.149C549.205 949.589 623.103 950.882 699.151 904.042C775.188 857.202 807.279 790.629 788.529 760.176C779.996 746.322 760.052 738.509 733.697 738.509ZM585.033 976.562C547.128 976.562 516.181 963.682 500.219 937.763C467.539 884.709 511.899 800.056 601.204 745.042C690.511 690.029 786.071 688.496 818.763 741.549C851.429 794.603 807.077 879.256 717.771 934.269C672.08 962.416 624.74 976.562 585.033 976.562Z" fill="#0F0F14"/>
<path d="M715.293 782.923C715.293 782.923 388.118 114.496 354.129 84.2831C320.141 54.0698 72.1554 8.74974 54.5314 18.8297C36.9087 28.8964 10.1434 290.723 19.7501 320.936C29.3567 351.15 602.114 868.203 602.114 868.203L715.293 782.923Z" fill="white"/>
<path d="M602.096 883.004C594.681 883.004 588.284 877.444 587.419 869.897L572.763 741.977L42.6533 27.6438C37.7826 21.0838 39.1547 11.8173 45.716 6.93729C52.276 2.07063 61.5427 3.44396 66.4093 10.004L598.887 727.537C600.437 729.631 601.411 732.084 601.707 734.671L616.813 866.524C617.744 874.644 611.917 881.977 603.799 882.897C603.229 882.964 602.66 883.004 602.096 883.004Z" fill="#0F0F14"/>
<path d="M715.293 797.723C713.617 797.723 711.91 797.443 710.244 796.829L581.96 750.256C574.281 747.469 570.316 738.976 573.102 731.309C575.892 723.616 584.381 719.656 592.057 722.442L720.342 769.016C728.021 771.803 731.985 780.296 729.2 787.976C727.014 793.989 721.338 797.723 715.293 797.723Z" fill="#0F0F14"/>
<path d="M873.883 1228.44C870.096 1228.44 866.389 1226.64 864.096 1223.28C860.403 1217.88 861.803 1210.52 867.189 1206.84L895.349 1187.62C900.629 1183.99 907.816 1185.24 911.589 1190.42L917.669 1198.75L938.976 1184.3L932.936 1175.52C929.509 1170.55 930.376 1163.79 934.963 1159.84L961.336 1137.14C966.296 1132.88 973.776 1133.44 978.029 1138.39C982.296 1143.34 981.736 1150.82 976.776 1155.08L958.456 1170.84L965.229 1180.7C967.016 1183.3 967.696 1186.5 967.123 1189.59C966.536 1192.7 964.736 1195.43 962.123 1197.2L921.483 1224.75C916.203 1228.34 909.043 1227.1 905.283 1221.94L899.229 1213.63L880.536 1226.39C878.496 1227.78 876.176 1228.44 873.883 1228.44Z" fill="#0F0F14"/>
<path d="M910.749 1232.87L896.256 1215.66L899.229 1213.63L905.283 1221.94C907.589 1225.11 911.189 1226.8 914.843 1226.8C917.136 1226.8 919.456 1226.14 921.483 1224.75L962.123 1197.2C964.736 1195.43 966.536 1192.7 967.123 1189.59C967.696 1186.5 967.016 1183.3 965.229 1180.7L958.456 1170.84L962.323 1167.52L974.762 1185.42C957.549 1222.39 925.336 1230.91 910.749 1232.87Z" fill="#C3972B"/>
<path d="M904.575 1248.39C900.242 1248.39 897.549 1248.18 897.549 1248.18L879.815 1226.84C880.055 1226.7 880.295 1226.55 880.535 1226.39L896.255 1215.66L910.749 1232.87C925.335 1230.91 957.549 1222.39 974.762 1185.42L962.322 1167.52L973.709 1157.72L994.869 1183.23C994.869 1183.23 980.855 1210.18 960.762 1230.9C945.669 1246.46 917.629 1248.39 904.575 1248.39Z" fill="#0F0F14"/>
<path d="M917.67 1198.75L911.59 1190.42C909.283 1187.24 905.67 1185.55 902.016 1185.55C899.723 1185.55 897.39 1186.22 895.35 1187.62L880.95 1197.46L677.31 955.443C690.672 949.643 704.127 942.657 717.442 934.47C752.512 980.617 879.43 1146.34 897.31 1151.75C899.51 1152.43 901.87 1152.72 904.323 1152.72C917.083 1152.72 932.35 1144.63 942.123 1138.47L948.736 1147.99L934.963 1159.84C930.376 1163.79 929.51 1170.55 932.936 1175.52L938.976 1184.3L917.67 1198.75Z" fill="#C31F2C"/>
<path d="M864.882 1208.9L659.862 962.376C665.65 960.296 671.468 957.99 677.309 955.443L880.949 1197.46L867.189 1206.84C866.322 1207.44 865.549 1208.14 864.882 1208.9ZM948.736 1147.99L942.122 1138.47C948.122 1134.67 952.069 1131.62 952.069 1131.62L958.602 1139.5L948.736 1147.99Z" fill="#0F0F14"/>
<path d="M659.863 962.377L653.788 955.07C653.788 955.07 685.587 927.67 691.923 927.67C692.021 927.67 692.113 927.67 692.199 927.684C692.585 927.75 692.996 927.777 693.427 927.777C699.237 927.777 708.485 922.657 708.485 922.657C708.485 922.657 711.755 926.99 717.441 934.47C704.127 942.657 690.672 949.644 677.309 955.444C671.468 957.99 665.651 960.297 659.863 962.377Z" fill="#0F0F14"/>
<path d="M879.816 1226.84L864.883 1208.9C865.549 1208.14 866.323 1207.44 867.189 1206.84L880.949 1197.46L895.349 1187.62C897.389 1186.22 899.723 1185.55 902.016 1185.55C905.669 1185.55 909.283 1187.24 911.589 1190.42L917.67 1198.75L938.976 1184.3L932.936 1175.52C929.51 1170.55 930.376 1163.79 934.963 1159.84L948.736 1147.99L958.603 1139.5L973.709 1157.72L962.323 1167.52L958.456 1170.84L965.229 1180.7C967.016 1183.3 967.696 1186.5 967.123 1189.59C966.536 1192.7 964.736 1195.43 962.123 1197.2L921.483 1224.75C919.456 1226.14 917.136 1226.8 914.843 1226.8C911.19 1226.8 907.589 1225.11 905.283 1221.94L899.229 1213.63L896.256 1215.66L880.536 1226.39C880.296 1226.55 880.056 1226.7 879.816 1226.84Z" fill="#0F0F14"/>
<path d="M585.273 940.816C558.918 940.816 538.977 932.99 530.445 919.15C522.472 906.203 523.686 886.723 533.565 865.016C535.008 870.656 537.058 877.15 540.048 883.643C548.317 901.603 563.778 919.563 593.424 919.563C594.418 919.563 595.424 919.55 596.452 919.51C650.605 917.336 748.562 853.657 789.688 803.457C783.086 823.323 768.528 845.896 746.461 867.43C722.662 884.056 679.849 912.483 639.821 931.483C639.612 931.576 639.405 931.683 639.201 931.79C619.601 937.937 601.26 940.816 585.273 940.816Z" fill="#C3972B"/>
<path d="M639.201 931.789C639.405 931.682 639.612 931.576 639.821 931.482C679.849 912.482 722.663 884.056 746.461 867.429C733.321 880.256 717.515 892.722 699.151 904.042C678.667 916.656 658.337 925.789 639.201 931.789Z" fill="#0F0F14"/>
<path d="M568.501 958.775C546.717 958.775 530.831 953.176 522.81 942.789C501.41 915.096 505.189 870.602 529.734 847.749C529.754 847.736 529.775 847.722 529.795 847.722C530.37 847.722 531.019 855.042 533.565 865.016C523.686 886.722 522.471 906.202 530.445 919.149C538.977 932.989 558.918 940.815 585.273 940.815C601.259 940.815 619.601 937.936 639.201 931.789C658.337 925.789 678.666 916.655 699.15 904.042C717.514 892.722 733.321 880.255 746.461 867.429C768.527 845.895 783.086 823.322 789.687 803.456C796.359 795.309 801.531 787.522 804.782 780.402C804.782 780.402 813.189 852.096 717.406 908.136C657.531 943.176 604.825 958.775 568.501 958.775Z" fill="#0F0F14"/>
<path d="M615.824 857.883L605.325 766.256L692.199 800.323L627.111 849.376L615.824 857.883ZM585.505 853.19L574.451 843.19C574.451 843.19 52.5413 358.243 41.9453 331.016C31.3493 303.776 74.6746 98.1362 74.6746 98.1362L573.653 749.749L585.505 853.19Z" fill="#C3C3C4"/>
<path d="M599.06 865.443L585.505 853.19L573.653 749.75L587.009 767.19L592.675 761.283L605.325 766.257L615.824 857.883L612.273 860.55L599.06 865.443Z" fill="#0F0F14"/>
<path d="M36.3995 314.47C59.4915 349.003 390.429 653.016 603.138 845.216L692.904 777.563C567.829 522.376 367.341 122.763 342.165 97.3898C315.79 73.9498 109.785 35.0163 66.3182 35.0163C66.0408 35.0163 65.7715 35.0163 65.5048 35.0163C51.3995 74.4697 29.3168 282.283 36.3995 314.47ZM602.12 885.963C597.845 885.963 593.584 884.416 590.221 881.39C588.789 880.083 445.313 750.536 302.506 618.95C10.2635 349.683 5.61152 335.056 2.83152 326.323C-5.42715 300.35 6.75817 183.55 9.2835 160.403C25.1328 15.1764 38.0208 7.81633 45.7221 3.41633C62.7275 -6.30367 139.932 6.54977 201.716 19.0564C252.845 29.3898 342.167 49.8963 365.925 71.0163C400.761 101.976 676.344 662.976 731.237 775.123C734.977 782.763 732.77 791.976 725.977 797.11L612.8 882.39C609.625 884.776 605.866 885.963 602.12 885.963Z" fill="#0F0F14"/>
</svg>
