<svg width="603" height="1978" viewBox="0 0 603 1978" fill="none" xmlns="http://www.w3.org/2000/svg">
<path d="M438.534 1385.41H438.512C403.919 1401.13 368.687 1406.38 337.073 1406.38C283.287 1406.38 239.996 1391.21 228.095 1386.62C142.605 1433.25 36.1625 1519.62 78.9856 1728.98C92.8151 1796.57 123.27 1845.52 169.504 1874.42C237.952 1917.22 321.006 1903.18 339.196 1899.38C340.387 1895.2 342.183 1887.65 342.499 1879.24L338.061 1856.14C337.634 1855.32 337.342 1854.45 336.848 1853.68C330.893 1844.1 319.939 1838.41 304.288 1836.75C271.563 1833.27 238.478 1813.24 213.515 1781.79C179 1738.31 164.378 1678.87 172.347 1614.45C185.318 1509.63 229.149 1499.86 308.714 1482.15C330.803 1477.23 355.846 1471.65 384.236 1463.22C402.369 1457.85 418.951 1452.58 434.153 1447.48L434.221 1447.45H434.254C536.998 1412.94 575.073 1385.64 577.027 1378.71C576.994 1371.44 562.602 1341.14 550.4 1317.95C508.505 1357.03 441.512 1384.21 438.534 1385.41Z" fill="#FFCA55"/>
<path d="M427.963 1375.17C407.684 1294.81 179.047 382.965 157.2 32.6123C117.53 67.0849 -26.6136 226.065 46.8404 666.927C127.005 1148.08 221.308 1350.7 232.571 1373.69C248.174 1379.64 340.971 1411.92 427.963 1375.17Z" fill="white"/>
<path d="M388.113 1476.29C359.285 1484.85 333.995 1490.48 311.683 1495.44C301.694 1497.67 292.404 1499.75 283.763 1501.87L351.003 1851.24C355.072 1859.89 356.273 1869.32 356.15 1877.96L369.631 1948C494.239 1962.78 541.942 1920.35 551.661 1909.85L431.267 1462.73C416.954 1467.49 402.461 1472.04 388.113 1476.29Z" fill="#595C7F"/>
<path d="M284.961 1892.34C253.19 1892.34 212.396 1886.65 176.066 1863.93C132.818 1836.89 104.233 1790.66 91.112 1726.51C86.3152 1703.05 83.4628 1681.22 82.2939 1660.86C92.0201 1700.07 111.045 1746.17 147.568 1790.15C209.804 1865.07 279.053 1876.54 315.625 1876.54C320.894 1876.54 325.478 1876.31 329.276 1876L330.062 1880.07C329.883 1883.1 329.49 1886.05 329.006 1888.72C319.299 1890.36 303.705 1892.34 284.961 1892.34Z" fill="#C99859"/>
<path d="M158.042 1638.01C149.93 1590.9 148.863 1514.91 214.647 1480.7C270.953 1460.9 426.669 1436.26 541.48 1368.96C541.48 1368.96 547.479 1375.79 552.86 1383.3C535.311 1394.31 500.652 1411.19 444.903 1430.71C444.678 1430.75 444.454 1430.76 444.218 1430.79C419.366 1433.34 398.413 1440.74 381.022 1451.27C380.92 1451.3 380.809 1451.33 380.719 1451.37C368.079 1455.12 356.092 1458.3 344.722 1461.1C340.015 1460.48 335.33 1460.17 330.667 1460.17C307.848 1460.17 285.593 1467.47 265.082 1479.86C208.619 1495.48 171.533 1520.27 160.067 1612.94C159.023 1621.39 158.349 1629.74 158.042 1638.01Z" fill="#C99859"/>
<path d="M390.137 1923.53C385.981 1923.53 381.754 1923.45 377.463 1923.28C381.742 1923.45 385.981 1923.53 390.137 1923.53Z" fill="#4D4579"/>
<path d="M337.647 1392.47C298.998 1392.47 265.701 1384.34 246.828 1378.54C265.701 1384.34 299.01 1392.47 337.647 1392.47ZM376.687 1389.55C376.789 1389.53 376.867 1389.51 376.969 1389.51C376.878 1389.51 376.778 1389.53 376.687 1389.55ZM377.07 1389.48C377.149 1389.47 377.215 1389.47 377.295 1389.45C377.227 1389.47 377.149 1389.47 377.07 1389.48ZM379.238 1389.15C379.249 1389.15 379.272 1389.15 379.294 1389.13C379.272 1389.13 379.249 1389.15 379.238 1389.15ZM379.755 1389.05C379.766 1389.05 379.766 1389.05 379.766 1389.05H379.755Z" fill="#438FC4"/>
<path d="M337.647 1392.48C299.009 1392.48 265.702 1384.35 246.829 1378.54C246.752 1375.64 246.009 1372.7 244.536 1369.97C241.071 1363.53 234.461 1359.88 227.628 1359.88C227.148 1359.88 226.668 1359.88 226.189 1359.93C221.976 1350.5 216.121 1336.74 208.956 1318.37C208.961 1318.34 243.24 1222.04 234.005 1175.84C224.768 1129.67 153.507 852.551 111.279 612.599C69.0495 372.647 87.1923 128.767 87.1923 128.767L97.4081 109.432C111.559 84.3331 125.663 65.6798 137.434 52.3897C141.301 93.7421 163.141 314.876 210.69 573.223C263.476 860.031 403.416 1383.76 403.416 1383.76C395.597 1385.97 387.788 1387.69 380.058 1389C380.037 1389 380.025 1389 380.002 1389C379.924 1389.03 379.844 1389.03 379.766 1389.05C379.766 1389.05 379.766 1389.05 379.755 1389.05C379.597 1389.07 379.451 1389.1 379.294 1389.12C379.272 1389.14 379.249 1389.14 379.237 1389.14C379.171 1389.14 379.091 1389.17 379.025 1389.17C378.99 1389.19 378.957 1389.19 378.924 1389.19C378.868 1389.21 378.8 1389.21 378.731 1389.21C378.677 1389.21 378.621 1389.24 378.553 1389.24C378.484 1389.26 378.407 1389.26 378.339 1389.29C378.273 1389.29 378.204 1389.31 378.136 1389.31C378.092 1389.33 378.059 1389.33 378.014 1389.33C377.946 1389.36 377.88 1389.36 377.812 1389.38C377.767 1389.38 377.732 1389.38 377.699 1389.38C377.598 1389.4 377.497 1389.43 377.407 1389.43C377.374 1389.45 377.327 1389.45 377.294 1389.45C377.217 1389.47 377.148 1389.47 377.071 1389.47C377.035 1389.5 377.002 1389.5 376.97 1389.5C376.868 1389.52 376.788 1389.52 376.687 1389.54C376.678 1389.54 376.666 1389.54 376.654 1389.54C376.553 1389.57 376.44 1389.59 376.339 1389.59C376.306 1389.61 376.283 1389.61 376.262 1389.61C376.17 1389.64 376.08 1389.64 375.991 1389.66C375.97 1389.66 375.946 1389.66 375.923 1389.66C375.699 1389.71 375.474 1389.73 375.25 1389.76C375.238 1389.76 375.238 1389.76 375.227 1389.76C362.362 1391.68 349.747 1392.48 337.647 1392.48Z" fill="#DAC5D3"/>
<path d="M294.034 1403.27C272.443 1400.19 254.464 1395.4 242.249 1391.53C242.252 1391.53 242.255 1391.53 242.257 1391.53C254.484 1395.38 272.482 1400.16 294.076 1403.25C294.063 1403.25 294.046 1403.25 294.034 1403.27Z" fill="#86D4F3"/>
<path d="M92.1382 1559.86C117.036 1472.03 181.844 1425.54 236.743 1395.97C238.902 1394.8 240.749 1393.29 242.249 1391.53C254.464 1395.4 272.444 1400.19 294.034 1403.27C274.799 1413.11 221.242 1441.29 162.746 1478.72C131.111 1498.95 108.103 1530.62 92.1382 1559.86Z" fill="#FFDF99"/>
<path d="M241.556 1363.81C263.748 1371.58 339.727 1394.05 413.294 1367.6C380.522 1237.62 176.737 419.616 146.803 60.0565C129.274 79.5179 105.891 111.691 85.4783 160.75C49.5056 247.206 15.7224 404.853 59.0504 664.887C135.186 1121.9 223.998 1326.38 241.556 1363.81ZM337.222 1418.68C273.076 1418.68 223.275 1398.05 220.16 1396.74C216.065 1395 212.703 1391.9 210.64 1387.97C206.447 1379.95 106.922 1185.79 21.1864 671.183C-66.13 147.108 144.092 8.56478 153.085 2.93623C158.855 -0.688942 166.117 -0.975186 172.156 2.17299C178.199 5.32116 182.115 11.4504 182.449 18.2476C199.752 369.65 452.042 1364.33 454.594 1374.32C456.886 1383.34 452.402 1392.69 443.964 1396.53C407.529 1413.15 370.455 1418.68 337.222 1418.68Z" fill="#6B184E"/>
<path d="M285 1930.76C247.684 1930.76 199.567 1923.87 155.724 1896.47C103.211 1863.63 68.8235 1809.02 53.5107 1734.17C18.4019 1562.56 72.3865 1440.88 218.544 1362.17C227.881 1357.13 239.518 1360.63 244.542 1369.97C249.569 1379.29 246.079 1390.93 236.746 1395.95C154.287 1440.37 49.4772 1522.94 91.1172 1726.48C104.239 1790.65 132.824 1836.87 176.072 1863.92C233.83 1900.04 302.869 1893.12 329.013 1888.72C330.608 1879.88 331.214 1867.97 326.316 1860.15C324.877 1857.86 320.519 1850.89 302.981 1849.04C266.982 1845.21 230.841 1823.49 203.83 1789.47C167.231 1743.36 151.695 1680.66 160.073 1612.93C174.118 1499.42 226.597 1487.74 306.037 1470.05C327.933 1465.17 352.752 1459.64 380.727 1451.35C494.56 1417.57 549.904 1387.77 563.566 1375.6C560.958 1367.65 554.252 1352.91 546.59 1337.58C503.368 1372.45 445.946 1395.75 443.148 1396.88C433.317 1400.84 422.151 1396.05 418.196 1386.23C414.241 1376.4 419.005 1365.22 428.836 1361.27C429.555 1360.96 501.245 1331.82 538.32 1293.35C542.567 1288.97 548.646 1286.83 554.713 1287.66C560.78 1288.49 566.081 1292.14 569.003 1297.53C584.518 1326.08 603 1363.4 603 1379.06C603 1391.49 595.675 1406.55 542.545 1432.35C516.007 1445.25 468.281 1465.4 391.647 1488.16C362.391 1496.82 336.887 1502.51 314.373 1507.5C235.468 1525.08 208.884 1531 198.168 1617.63C191.061 1675.08 203.75 1727.62 233.891 1765.61C254.244 1791.24 281.587 1808.16 307.037 1810.87C337.012 1814.06 351.83 1828.46 358.977 1839.98C377.312 1869.53 364.088 1907.57 362.516 1911.83C360.336 1917.72 355.391 1922.18 349.291 1923.74C347.157 1924.29 321.149 1930.76 285 1930.76Z" fill="#6B184E"/>
<path d="M419.338 1977.1C401.855 1977.1 382.598 1975.91 361.421 1973.2C353.197 1972.13 346.579 1965.93 345.018 1957.79L257.002 1500.45C254.998 1490.03 261.813 1479.97 272.221 1477.97C282.607 1475.98 292.689 1482.79 294.694 1493.19L380.048 1936.69C478.512 1946.45 523.103 1918.55 537.809 1906L417.46 1459.03C414.708 1448.8 420.763 1438.26 430.998 1435.5C441.234 1432.75 451.773 1438.8 454.525 1449.04L577.705 1906.53C579.176 1912.01 578.154 1917.88 574.885 1922.53C573.109 1925.07 535.124 1977.1 419.338 1977.1Z" fill="#6B184E"/>
<path d="M130.945 797.936L228.374 662.982L243.37 670.437C243.37 670.437 251.162 721.915 250.501 723.557C249.843 725.198 158.503 849.019 158.917 850.897C159.328 852.796 160.768 919.838 160.768 919.838L266.338 791.41L270.956 816.249C270.956 816.249 170.666 958.758 168.686 960.083C166.707 961.408 148.89 871.663 145.591 865.077C142.293 858.472 130.945 797.936 130.945 797.936Z" fill="white"/>
<path d="M451.745 1862.94C461.294 1842.83 447.847 1738.74 429.803 1652.12C420.905 1691.96 415.467 1777.72 345.159 1816.29L351.877 1851.23C355.956 1859.9 357.158 1869.33 357.022 1877.96L362.157 1904.64C362.168 1904.64 435.027 1898.13 451.745 1862.94Z" fill="#595C7F"/>
<path d="M545.979 1885.47C545.967 1885.48 473.683 1930.36 365.632 1922.64L370.508 1948C495.118 1962.77 542.824 1920.36 552.535 1909.86L545.979 1885.47Z" fill="#595C7F"/>
<path d="M545.977 1885.46L474.713 1620.8C462.568 1620.53 446.66 1622.63 436.873 1633.49C433.864 1636.81 431.75 1643.39 429.807 1652.12C447.85 1738.74 461.299 1842.82 451.75 1862.94C435.031 1898.13 362.173 1904.63 362.162 1904.63L365.633 1922.63C473.68 1930.36 545.966 1885.47 545.977 1885.46Z" fill="#595C7F"/>
<path d="M390.62 1923.54C382.755 1923.54 374.655 1923.27 366.363 1922.7C366.116 1922.67 365.868 1922.65 365.634 1922.65L362.161 1904.63C362.172 1904.63 435.032 1898.13 451.748 1862.94C453.928 1858.34 454.917 1849.36 454.917 1837.21C454.917 1796.15 443.726 1718.93 429.806 1652.11C431.751 1643.39 433.863 1636.81 436.873 1633.49C446.164 1623.19 460.973 1620.77 472.837 1620.77C473.465 1620.77 474.095 1620.78 474.713 1620.8L545.977 1885.46C545.964 1885.48 484.712 1923.54 390.664 1923.54C390.653 1923.54 390.631 1923.54 390.62 1923.54Z" fill="#5E4B73"/>
<path d="M420.224 1977.11C402.744 1977.11 383.486 1975.92 362.297 1973.19C353.972 1972.11 347.31 1965.77 345.849 1957.5L321.964 1822.55C320.122 1812.13 327.076 1802.16 337.513 1800.32C347.974 1798.48 357.915 1805.44 359.758 1815.88L381.149 1936.72C479.423 1946.42 523.991 1918.54 538.698 1906L464.85 1631.74C462.086 1621.49 468.153 1610.96 478.388 1608.21C488.611 1605.44 499.151 1611.52 501.903 1621.75L578.588 1906.53C580.071 1912.01 579.035 1917.87 575.775 1922.53C573.983 1925.08 536.001 1977.09 420.224 1977.11Z" fill="#6B184E"/>
</svg>
