<svg width="1791" height="750" viewBox="0 0 1791 750" fill="none" xmlns="http://www.w3.org/2000/svg">
<path d="M791.778 490.555C802.741 540.462 808.028 635.077 783.636 664.023C743.967 711.117 584.997 721.943 454.1 728.916C273.803 738.516 119.179 722.077 64.6865 696.769C21.0922 668.943 30.3365 564.755 50.6578 506.756L791.778 490.555Z" fill="white"/>
<path d="M783.611 664.041C743.962 711.134 584.962 721.947 454.056 728.906C273.759 738.506 119.161 722.067 64.7042 696.8C38.5683 680.12 31.4154 636.028 34.2798 590.868C36.5616 622.094 45.5757 649.068 64.7042 661.294C119.161 686.613 273.759 703.054 454.056 693.467C584.962 686.506 743.962 675.628 783.611 628.535C794.194 615.96 799.244 590.974 800.587 562.667C802.335 604.2 798.531 646.373 783.611 664.041Z" fill="#E8E8E8"/>
<path d="M350.82 749.227C220.256 749.227 106.904 735.734 57.2973 712.692C56.5781 712.359 55.8917 711.986 55.2379 711.56C2.31303 677.773 11.319 565.92 34.0875 500.96C37.2911 491.799 47.2942 487 56.4473 490.187C65.5842 493.401 70.4222 503.413 67.2023 512.56C46.0192 573.027 44.156 661.052 73.2336 681.387C123.184 703.799 268.866 721.2 453.155 711.399C551.078 706.172 733.356 696.454 770.198 652.72C787.458 632.239 786.723 549.333 774.611 494.334C772.535 484.867 778.517 475.506 787.997 473.425C797.429 471.346 806.811 477.32 808.903 486.786C818.432 530.119 828.696 637.759 797.053 675.333C753.984 726.466 610.688 738.146 455.018 746.44C419.664 748.319 384.654 749.227 350.82 749.227Z" fill="#000072"/>
<path d="M233.071 86.3034C246.284 77.7304 324.044 30.037 513.946 95.0644C661.398 145.557 727.873 143.503 758.268 141.45C770.289 140.636 776.659 139.823 780.171 142.276C826.719 174.783 791.032 274.611 791.032 393.171C791.032 472.625 808.018 541.358 783.633 570.305C743.977 617.399 584.994 628.224 454.086 635.198C273.805 644.797 105.136 620.598 50.6498 595.291C16.4816 570.305 5.58759 496.278 33.6637 445.478C64.696 386.932 166.106 328.344 194.003 277.57C220.543 229.237 181.998 119.451 233.071 86.3034Z" fill="#FCFCFC"/>
<path d="M791.01 393.172C791.01 472.613 808.029 541.345 783.644 570.305C749.068 611.306 623.944 624.826 505.728 632.199C488.236 633.305 470.923 634.293 454.068 635.172C273.788 644.826 105.153 620.613 50.6344 595.279C17.9201 571.36 6.51985 502.452 30.3165 452.025C31.3782 449.799 32.5051 447.638 33.6647 445.479C64.6641 386.92 166.09 328.359 194.003 277.586C220.543 229.266 181.998 119.479 233.07 86.3058C246.3 77.7066 324.027 30.0398 513.911 95.0797C661.329 145.559 727.803 143.506 758.231 141.453C770.284 140.64 776.67 139.826 780.198 142.293C826.697 174.813 791.01 274.599 791.01 393.172Z" fill="#FCFCFC"/>
<path d="M791.028 393.171C791.028 472.611 808.029 541.345 783.649 570.305C749.078 611.304 623.96 624.825 505.733 632.199C488.228 633.305 470.935 634.291 454.08 635.172C273.798 644.825 105.153 620.612 50.6396 595.278C17.9216 571.358 6.52801 502.452 30.3229 452.025C31.3794 449.798 32.5008 447.638 33.6548 445.478C64.6662 386.919 166.103 328.358 194.01 277.586C206.802 254.305 204.477 216.693 204.347 180.251C204.234 141.172 206.639 103.504 233.067 86.3052C246.297 77.7055 324.037 30.0377 513.908 95.0787C661.342 145.558 727.802 143.506 758.228 141.451C770.288 140.638 776.676 139.824 780.187 142.291C813.766 165.799 804.469 224.358 796.733 299.812C793.758 328.771 791.028 360.239 791.028 393.171Z" fill="#FCFCFC"/>
<path d="M791.028 393.171C791.028 472.611 808.029 541.345 783.649 570.305C749.078 611.304 623.96 624.825 505.733 632.199C488.228 633.305 470.935 634.291 454.08 635.172C273.798 644.825 105.153 620.612 50.6396 595.278C17.9216 571.358 6.52801 502.452 30.3229 452.025C31.3794 449.798 32.5008 447.638 33.6548 445.478C64.6662 386.919 166.103 328.358 194.01 277.586C206.802 254.305 204.477 216.693 204.347 180.251C204.234 141.172 206.639 103.504 233.067 86.3052C246.297 77.7055 324.037 30.0377 513.908 95.0787C661.342 145.558 727.802 143.506 758.228 141.451C770.288 140.638 776.676 139.824 780.187 142.291C813.766 165.799 804.469 224.358 796.733 299.812C793.758 328.771 791.028 360.239 791.028 393.171Z" fill="#FCFCFC"/>
<path d="M790.99 393.203C790.99 472.642 808.007 541.375 783.611 570.335C749.056 611.335 623.923 624.855 505.697 632.214C488.209 633.336 470.899 634.322 454.045 635.201C273.764 644.854 105.121 620.642 50.6076 595.308C17.9062 571.388 6.49636 502.468 30.3073 452.055C31.3638 449.829 32.469 447.669 33.6392 445.496C44.9839 424.028 65.8206 402.563 89.0464 381.442C123.552 350.15 163.324 319.616 184.973 291.243C188.484 286.629 191.523 282.123 193.977 277.616C206.785 254.337 204.46 216.722 204.33 180.282C204.217 141.203 206.606 103.537 233.05 86.3374C246.264 77.7362 324.019 30.0575 513.889 95.1093C661.305 145.59 727.781 143.536 758.191 141.483C770.251 140.67 776.654 139.856 780.165 142.31C813.744 165.829 804.431 224.389 796.711 299.843C793.736 328.803 790.99 360.269 790.99 393.203Z" fill="#FCFCFC"/>
<path d="M494.478 240.052C466.412 231.932 442.535 224.146 425.269 217.653C399.958 208.119 370.239 200.865 339.926 195.426C342.738 164.252 348.059 105.639 352.045 61.7047C393.333 63.1051 446.565 71.999 513.904 95.1056C517.702 96.3857 521.442 97.6788 525.124 98.9053C527.473 151.786 510.917 203.025 494.478 240.052Z" fill="#FFB522"/>
<path d="M512.39 191.847C500.809 230.875 484.013 263.155 473.599 281.114C445.698 268.248 419.251 253.394 395.686 236.194V129.034C433.828 154.354 473.311 175.007 512.39 191.847Z" fill="#FFB522"/>
<path d="M350.798 429.349C270.791 374.429 146.938 376.762 89.0391 381.442C123.543 350.149 163.312 319.616 184.965 291.243C275.752 301.657 406.431 344.243 410.88 369.509C416.85 403.616 350.798 429.349 350.798 429.349Z" fill="#E8E8E8"/>
<path d="M783.609 570.335C749.047 611.335 623.918 624.854 505.711 632.214C488.212 633.335 470.891 634.321 454.055 635.201C273.761 644.855 105.127 620.641 50.5926 595.308C27.7889 578.642 15.336 540.082 18.0207 501.135C23.4062 512.948 30.7162 522.655 39.5466 529.148C94.0651 554.481 262.699 578.695 442.993 569.041C459.845 568.162 477.166 567.175 494.649 566.054C612.872 558.694 737.985 545.175 772.563 504.174C780.342 494.988 787.652 480.068 794.088 461.415C797.485 510.494 800.638 550.095 783.609 570.335Z" fill="#E8E8E8"/>
<path d="M796.733 299.812C675.905 291.452 495.38 244.065 425.295 217.626C359.258 192.771 263.607 183.638 204.347 180.251C204.234 141.172 206.639 103.505 233.067 86.3055C246.297 77.7058 324.037 30.038 513.908 95.079C661.342 145.559 727.802 143.506 758.228 141.451C770.288 140.639 776.676 139.824 780.187 142.292C813.766 165.799 804.469 224.358 796.733 299.812Z" fill="#FFCE31"/>
<path d="M494.478 240.052C466.412 231.932 442.535 224.146 425.269 217.653C399.958 208.119 370.239 200.865 339.926 195.426C342.738 164.252 348.059 105.639 352.045 61.7047C393.333 63.1051 446.565 71.999 513.904 95.1056C517.702 96.3857 521.442 97.6788 525.124 98.9053C527.473 151.786 510.917 203.025 494.478 240.052Z" fill="#EFB000"/>
<mask id="mask0_1_5164" style="mask-type:luminance" maskUnits="userSpaceOnUse" x="524" y="117" width="259" height="60">
<path d="M782.859 176.093C781.992 175.399 781.099 174.719 780.179 174.079C778.406 172.839 775.926 172.44 772.366 172.44C768.819 172.44 764.219 172.84 758.206 173.24C752.192 173.653 744.779 174.053 735.606 174.053C699.472 174.053 636.126 167.759 524.406 130.426C524.779 126.093 525.059 121.733 525.206 117.359C635.379 153.613 699.126 159.813 735.819 159.813C747.632 159.813 756.646 159.173 763.499 158.679C766.592 158.466 769.992 158.213 772.099 158.186C777.112 162.426 780.579 168.493 782.859 176.093Z" fill="white"/>
</mask>
<g mask="url(#mask0_1_5164)">
<path d="M524.412 117.358H782.861V176.092H524.412" fill="#FFF0C1"/>
</g>
<path d="M524.416 130.422C520.954 129.262 517.464 128.089 513.901 126.862C505.704 124.062 497.738 121.463 489.96 119.063C490.38 114.729 490.656 110.316 490.728 105.876C496.463 107.702 502.3 109.623 508.253 111.663C514.031 113.636 519.68 115.529 525.212 117.357C525.067 121.729 524.792 126.089 524.416 130.422Z" fill="#FAE7B2"/>
<path d="M505.717 632.2C488.223 633.306 470.915 634.293 454.066 635.174C273.791 644.827 105.149 620.613 50.6253 595.281C17.9197 571.361 6.51515 502.454 30.3154 452.028C106.6 499.814 274.25 535.681 402.703 450.507C402.703 450.507 498.809 555.161 505.717 632.2Z" fill="#FFCE31"/>
<path d="M505.717 632.21C488.223 633.33 470.9 634.317 454.066 635.197C273.776 644.851 105.135 620.637 50.611 595.304C27.8018 578.637 15.3487 540.077 18.0346 501.13C23.4066 512.944 30.7319 522.651 39.5511 529.143C94.0748 554.477 262.716 578.69 443.006 569.038C456.58 568.344 470.441 567.57 484.431 566.704C495.591 588.81 503.836 611.503 505.717 632.21Z" fill="#EFB000"/>
<path d="M800.552 263.759C797.689 291.613 793.937 322.612 792.126 355.666C695.432 350.279 511.505 320.559 395.695 236.211V129.052C546.453 229.186 718.364 256.399 800.552 263.759Z" fill="#FFCE31"/>
<path d="M512.39 191.847C500.809 230.875 484.013 263.155 473.599 281.114C445.698 268.248 419.251 253.394 395.686 236.194V129.034C433.828 154.354 473.311 175.007 512.39 191.847Z" fill="#EFB000"/>
<path d="M413.249 227.146C512.229 295.493 665.413 328.52 775.741 336.987C777.272 316.653 779.356 297.16 781.245 279.481C694.395 270.04 548.604 242.266 413.249 160.894V227.146ZM792.121 373.213C791.796 373.213 791.47 373.2 791.144 373.187C672.674 366.588 495.328 330.48 385.358 250.401C380.831 247.094 378.145 241.826 378.145 236.214V129.041C378.145 122.574 381.71 116.64 387.409 113.587C393.092 110.521 399.995 110.854 405.417 114.427C551.176 211.281 716.539 238.614 802.102 246.28C806.792 246.706 811.09 248.973 814.086 252.6C817.082 256.226 818.482 260.895 818.01 265.561C817.408 271.214 816.805 277.014 816.17 282.92C813.663 306.413 811.058 330.719 809.641 356.626C809.38 361.267 807.296 365.627 803.828 368.734C800.604 371.627 796.436 373.213 792.121 373.213Z" fill="#000072"/>
<path d="M380.195 468.022C379.329 468.022 378.463 467.956 377.583 467.823C371.59 466.93 366.49 462.997 364.098 457.436L361.802 452.076C358.86 445.063 360.757 436.956 366.504 431.996L375.109 424.569C380.745 419.702 388.842 418.902 395.317 422.636C401.792 426.342 405.201 433.743 403.826 441.062C402.96 445.716 402.135 448.33 402.135 448.33C401.888 449.103 401.544 450.05 401.187 450.783C400.637 451.943 398.465 456.129 393.53 461.89C390.176 465.823 385.295 468.022 380.195 468.022Z" fill="#232333"/>
<path d="M386.582 455.403C385.48 455.403 384.349 455.297 383.219 455.083C373.721 453.243 367.49 444.043 369.324 434.523C371.75 422.017 374.92 389.564 352.134 358.204C325.447 321.47 272.555 297.977 194.932 288.377C185.311 287.19 178.473 278.43 179.673 268.804C180.858 259.19 189.625 252.338 199.247 253.551C286.905 264.391 347.902 292.657 380.531 337.564C411.395 380.057 407.08 424.19 403.786 441.19C402.173 449.576 394.826 455.403 386.582 455.403Z" fill="#232333"/>
<path d="M198.617 519.429C194.818 519.429 190.978 519.403 187.042 519.335C106.762 517.963 50.1244 497.723 18.6651 459.188C12.5351 451.683 13.6459 440.616 21.1611 434.495C28.6625 428.363 39.7158 429.495 45.8458 436.989C70.1191 466.736 119.146 483.069 187.618 484.242C316.13 486.402 357.285 450.176 366.898 439.029C373.234 431.683 384.301 430.856 391.651 437.203C399.002 443.522 399.811 454.603 393.475 461.949C374.715 483.696 324.66 519.429 198.617 519.429Z" fill="#000072"/>
<path d="M59.7238 580.143C109.808 602.276 272.191 627.303 453.15 617.676C551.094 612.45 733.377 602.744 770.216 558.996C782.332 544.609 779.618 506.143 776.757 465.41C775.22 443.57 773.47 418.822 773.47 393.169C773.47 352.636 777.542 314.343 781.139 280.57C787.352 221.969 792.323 175.289 772.096 158.183C770.003 158.209 766.602 158.462 763.512 158.675C734.309 160.755 665.912 165.648 508.254 111.662C336.991 53.0214 261.628 88.6883 242.612 101.035C221.127 114.983 221.568 155.182 222.009 194.062C222.402 228.821 222.762 261.663 209.37 286.023C194.523 313.063 163.538 339.836 130.737 368.183C97.8548 396.635 63.8116 426.05 49.1773 453.69C24.7813 497.823 34.8209 560.103 59.7238 580.143ZM373.209 654.863C225.476 654.863 93.1293 634.37 43.2581 611.209C42.2117 610.73 41.2305 610.143 40.2822 609.463C-2.65608 578.05 -13.3335 494.236 18.3061 436.982C35.8836 403.796 72.4287 372.197 107.796 341.636C136.803 316.555 166.791 290.635 178.63 269.116C187.574 252.835 187.23 223.156 186.92 194.463C186.396 148.329 185.808 96.0479 223.497 71.5816C252.177 52.9821 338.463 16.4209 519.618 78.4622C670.539 130.129 733.966 125.595 760.994 123.662C773.208 122.808 782.022 122.169 790.23 127.889C829.718 155.475 823.684 212.315 816.032 284.276C812.549 317.183 808.576 354.488 808.576 393.169C808.576 417.596 810.195 440.65 811.765 462.943C815.444 515.129 818.338 556.342 797.065 581.61C753.996 632.743 610.694 644.423 455.03 652.716C427.511 654.183 400.123 654.863 373.209 654.863Z" fill="#000072"/>
<path d="M783.636 570.281C764.677 592.867 718.407 607.013 660.914 616.561C671.147 579.466 686.408 525.014 696.95 490.56C716.947 425.161 750.94 382.747 791.713 364.787C791.242 374.093 791.015 383.561 791.015 393.161C791.015 472.654 808.028 541.386 783.636 570.281Z" fill="#FFCE31"/>
<path d="M783.609 570.268C764.67 592.854 718.4 607.002 660.89 616.547C666.631 595.775 673.925 569.628 681.073 544.534C723.834 535.228 757.166 522.481 772.563 504.173C780.342 494.987 787.652 480.068 794.089 461.414C797.485 510.494 800.639 550.094 783.609 570.268Z" fill="#EFB000"/>
<path d="M773.463 396.6C747.918 417.612 727.159 451.747 713.743 495.693C705.212 523.585 693.652 564.413 685.348 594.133C740.184 582.56 761.838 568.96 770.191 558.999L770.223 558.96C782.337 544.626 779.618 506.187 776.752 465.48C775.287 444.599 773.61 421.053 773.463 396.6ZM660.926 634.105C655.993 634.105 651.238 632.026 647.884 628.293C643.879 623.838 642.398 617.653 644.01 611.88C652.639 580.613 668.806 522.613 680.171 485.426C701.141 416.852 737.27 369.585 784.633 348.719C790.201 346.265 796.664 346.879 801.679 350.333C806.678 353.786 809.559 359.587 809.25 365.666C808.794 374.639 808.566 383.879 808.566 393.159C808.566 417.612 810.194 440.693 811.757 463.013C815.437 515.147 818.351 556.332 797.088 581.572C776.997 605.506 734.632 622.119 663.791 633.866C662.831 634.026 661.87 634.105 660.926 634.105Z" fill="#000072"/>
<path d="M633.249 620.584C587.569 626.731 536.921 630.477 488.303 633.277C434.717 572.264 390.385 473.997 380.192 450.477C383.994 446.038 385.341 443.224 385.341 443.224C385.341 443.224 385.932 441.291 386.568 437.85L473.203 362.731C473.203 362.731 535.967 528.571 633.249 620.584Z" fill="#FFCE31"/>
<path d="M633.227 620.574C587.532 626.72 536.885 630.467 488.267 633.268C471.652 614.32 455.916 591.855 441.83 569.107C442.239 569.107 442.587 569.041 442.996 569.041C459.838 568.161 477.165 567.173 494.658 566.054C523.132 564.308 552.03 562.134 580.005 559.334C596.195 581.387 614.037 602.44 633.227 620.574Z" fill="#EFB000"/>
<path d="M400.264 452.507C413.816 482.654 451.419 561.708 495.967 615.254C524.093 613.574 560.216 611.106 596.079 607.334C531.097 534.148 485.07 436.187 466.192 392.027L402.416 447.334C402.233 447.987 402.126 448.335 402.126 448.335C401.882 449.107 401.531 450.055 401.18 450.787C401.012 451.121 400.722 451.707 400.264 452.507ZM488.29 650.84C483.254 650.84 478.447 648.667 475.105 644.867C418.959 580.934 372.779 477.534 364.08 457.455C361.425 451.294 362.493 444.175 366.858 439.068C367.819 437.96 368.506 437.054 368.964 436.387C369.071 435.894 369.193 435.308 369.3 434.627C370.047 430.72 372.077 427.187 375.068 424.587L461.705 349.481C466.04 345.721 471.93 344.321 477.485 345.721C483.056 347.122 487.588 351.16 489.618 356.521C490.228 358.148 552.158 519.734 645.311 607.84C650.21 612.493 652.026 619.547 649.951 625.973C647.875 632.414 642.274 637.081 635.59 637.987C584.496 644.853 527.633 648.587 489.313 650.8C488.977 650.828 488.626 650.84 488.29 650.84Z" fill="#000072"/>
<path d="M224.42 239.296C224.42 239.296 237.38 220.562 242.151 124.03C244.885 69.0828 265.891 -6.87756 402.725 25.0564C485.853 44.4563 478.049 101.389 465.26 157.109C453.653 207.535 425.739 257.415 411.996 276.495C392.272 303.881 224.42 239.296 224.42 239.296Z" fill="white"/>
<path d="M465.246 157.099C464.42 160.794 463.48 164.419 462.497 168.047C449.68 214.606 424.756 258.833 412.01 276.5C392.299 303.874 224.416 239.288 224.416 239.288C224.416 239.288 234.884 224.207 240.495 151.313C241.136 143.007 241.72 133.886 242.19 123.994C244.882 69.073 265.888 -6.86036 402.767 25.0201C485.897 44.446 478.064 101.354 465.246 157.099Z" fill="white"/>
<path d="M462.49 168.051C449.675 214.61 424.763 258.838 411.99 276.505C392.295 303.878 224.413 239.291 224.413 239.291C224.413 239.291 234.874 224.211 240.485 151.318C279.325 141.731 351.001 132.371 410.89 171.09C430.374 183.731 447.63 180.103 462.49 168.051Z" fill="#E5E5E5"/>
<path d="M246.804 228.964C317.025 254.657 383.689 270.576 398.71 264.896C412.765 244.87 437.766 198.27 448.15 153.177C463.156 87.8708 459.584 56.3506 398.724 42.1509C348.78 30.4844 312.086 33.1242 289.735 49.9911C271.316 63.8711 261.494 88.3778 259.679 124.898C256.943 179.99 251.557 211.338 246.804 228.964ZM390.112 300.829C372.327 300.829 346.001 296.496 305.98 285.044C261.321 272.257 219.845 256.351 218.117 255.684C212.745 253.617 208.108 249.87 206.726 244.297C205.415 238.87 206.135 233.91 209.664 229.684C211.42 225.87 220.709 202.31 224.626 123.164C226.988 75.6038 241.361 42.4966 268.594 21.9646C299.657 -1.46206 346.116 -6.18281 406.702 7.96506C511.89 32.5107 492.678 116.123 482.338 161.044C470.5 212.563 442.303 264.443 426.231 286.75C420.672 294.47 411.671 300.829 390.112 300.829Z" fill="#000072"/>
<path d="M361.251 375.576C361.251 375.576 330.777 438.176 372.331 468.668C421.048 504.416 497.487 445.122 514.945 366.975C537.731 264.95 421.572 198.576 323.482 182.443C195.472 161.39 172.555 227.323 181.611 271.109C190.667 314.883 361.251 375.576 361.251 375.576Z" fill="#FFCE31"/>
<mask id="mask1_1_5164" style="mask-type:luminance" maskUnits="userSpaceOnUse" x="505" y="317" width="13" height="78">
<path d="M505.939 394.933C509.739 385.999 512.793 376.626 514.953 366.973C518.913 349.226 518.673 332.586 515.06 317.079H515.073C518.686 332.586 518.913 349.253 514.953 366.999C512.793 376.639 509.726 386.013 505.939 394.933Z" fill="white"/>
</mask>
<g mask="url(#mask1_1_5164)">
<path d="M505.934 317.082H518.899V394.936H505.934" fill="#FEFEFE"/>
</g>
<path d="M491.982 270.157C491.968 270.157 491.968 270.144 491.953 270.144C489.583 267.104 487.056 264.117 484.428 261.211C484.428 261.211 484.428 261.211 484.428 261.197C487.07 264.117 489.597 267.104 491.982 270.157Z" fill="#FFF0C1"/>
<path d="M484.419 261.212C475.979 251.932 466.229 243.36 455.555 235.546C455.555 235.546 455.555 235.546 455.555 235.532C466.244 243.36 475.979 251.919 484.419 261.199C484.419 261.212 484.419 261.212 484.419 261.212Z" fill="#FAE7B2"/>
<path d="M515.063 317.083H515.048C511.083 300.003 503.007 284.323 491.946 270.15C491.961 270.15 491.961 270.163 491.975 270.163C503.021 284.336 511.083 300.003 515.063 317.083Z" fill="#B2B2D4"/>
<path d="M490.838 422.868C490.852 422.828 490.867 422.801 490.881 422.775C496.656 414.147 501.755 404.802 505.935 394.934C501.741 404.84 496.627 414.215 490.838 422.868Z" fill="#B2B2D4"/>
<path d="M425.587 216.788C407.096 206.856 387.134 198.775 366.964 192.629C387.134 198.762 407.096 206.856 425.587 216.776C425.587 216.788 425.587 216.788 425.587 216.788Z" fill="#F7F7F7"/>
<path d="M455.557 235.544C446.21 228.703 436.146 222.45 425.59 216.784C425.59 216.784 425.59 216.784 425.59 216.77C436.146 222.437 446.21 228.703 455.557 235.53C455.557 235.544 455.557 235.544 455.557 235.544Z" fill="#B2B2D4"/>
<path d="M490.88 422.772C495.381 412.921 498.985 402.467 501.373 391.626C523.604 292 410.177 227.186 314.437 211.4C297.967 208.694 283.291 207.466 270.222 207.466C216.873 207.466 190.46 227.96 179.88 252.346C180.575 217.347 203.746 178.4 278.153 178.4C291.555 178.4 306.607 179.668 323.498 182.439C337.768 184.787 352.415 188.2 366.961 192.627C387.136 198.774 407.095 206.854 425.591 216.787C436.142 222.453 446.201 228.707 455.551 235.547C466.232 243.36 475.973 251.934 484.411 261.212C487.059 264.12 489.577 267.106 491.951 270.147C503.023 284.32 511.085 300.001 515.05 317.081C518.669 332.587 518.915 349.227 514.949 366.972C512.793 376.626 509.739 386 505.932 394.933C501.749 404.8 496.655 414.146 490.88 422.772Z" fill="#FFF0C1"/>
<path d="M377.061 383.213C376.726 383.906 353.624 433.174 382.731 454.52C394.114 462.866 407.989 464.053 423.964 458.053C457.268 445.546 488.343 405.64 497.816 363.147C503.792 336.439 498.837 311.106 483.139 287.84C454.82 245.907 391.024 211.333 320.626 199.746C268.272 191.147 230.464 197.133 211.312 217.08C194.273 234.84 196.882 258.293 198.806 267.547C202.552 285.706 281.214 328.454 367.135 359.04C371.843 360.706 375.618 364.306 377.498 368.933C379.378 373.533 379.218 378.734 377.061 383.213ZM405.06 496.867C389.392 496.867 374.671 492.146 361.961 482.812C324.634 455.425 331.105 410.827 338.641 385.973C284.771 365.719 173.577 318.907 164.423 274.654C158.098 244.053 166.158 213.439 185.995 192.773C213.892 163.694 261.144 154.386 326.339 165.12C389.581 175.52 471.61 208.067 512.217 268.2C533.555 299.773 540.23 334.294 532.083 370.786C519.985 424.88 480.603 474.28 436.28 490.906C425.684 494.894 415.175 496.867 405.06 496.867Z" fill="#000072"/>
<path d="M121.935 352.799C121.935 352.799 252.553 322.093 384.99 411.866C384.99 411.866 463.685 415.747 436.236 348.693C407.376 278.213 227.092 243.479 185.735 262.453C146.027 280.653 117.421 316.879 121.935 352.799Z" fill="white"/>
<path d="M407.374 409.814C395.389 412.387 384.973 411.868 384.973 411.868C252.531 322.068 121.907 352.788 121.907 352.788C121.218 347.347 121.329 341.961 122.085 336.574C131.387 328.454 142.381 321.722 154.545 317.094C220.126 292.294 376.194 332.895 405.021 403.388C405.971 405.601 406.727 407.709 407.374 409.814Z" fill="white"/>
<path d="M407.374 409.814C395.389 412.387 384.973 411.868 384.973 411.868C252.531 322.068 121.907 352.788 121.907 352.788C121.218 347.347 121.329 341.961 122.085 336.574C131.387 328.454 142.381 321.722 154.545 317.094C220.126 292.294 376.194 332.895 405.021 403.388C405.971 405.601 406.727 407.709 407.374 409.814Z" fill="#E8E8E8"/>
<path d="M178.421 330.042C230.46 330.042 309.583 341.149 390.328 394.322C400.409 393.935 416.411 391.135 422.05 383.109C426.901 376.189 423.615 364.189 419.992 355.335C411.97 335.749 385.717 316.336 346.085 300.682C283.232 275.869 211.046 270.162 193.056 278.403C166.127 290.749 146.839 311.201 140.918 332.055C150.787 330.962 163.49 330.042 178.421 330.042ZM387.762 429.469C385.999 429.469 384.745 429.428 384.124 429.388C380.924 429.242 377.808 428.203 375.143 426.388C251.129 342.336 127.157 369.616 125.902 369.895C121.109 371.002 115.977 370.029 111.902 367.188C107.827 364.336 105.149 359.909 104.514 354.988C99.2272 312.801 128.919 269.202 178.407 246.496C213.302 230.509 299.925 244.722 358.972 268.042C393.359 281.616 437.503 305.483 452.462 342.041C462.599 366.775 461.993 387.429 450.685 403.415C433.753 427.322 399.52 429.469 387.762 429.469Z" fill="#000072"/>
<path d="M551.626 409.624L618.271 495.611L765.17 355.665L619.212 438.811L551.626 409.624Z" fill="#000072"/>
<path d="M999.118 490.559C988.147 540.465 982.882 635.08 1007.26 664.024C1046.92 711.119 1205.9 721.946 1336.8 728.918C1517.09 738.519 1671.72 722.078 1726.2 696.77C1769.79 668.945 1760.57 564.758 1740.24 506.757L999.118 490.559Z" fill="white"/>
<path d="M1007.28 664.037C1046.93 711.13 1205.93 721.943 1336.85 728.904C1517.13 738.505 1671.73 722.065 1726.19 696.796C1752.35 680.118 1759.47 636.023 1756.6 590.863C1754.33 622.091 1745.33 649.064 1726.19 661.289C1671.73 686.611 1517.13 703.051 1336.85 693.464C1205.93 686.503 1046.93 675.623 1007.28 628.531C996.691 615.957 991.662 590.971 990.317 562.663C988.553 604.197 992.346 646.371 1007.28 664.037Z" fill="#E8E8E8"/>
<path d="M1440.06 749.227C1406.22 749.227 1371.22 748.322 1335.87 746.441C1180.19 738.147 1036.89 726.468 993.826 675.335C962.187 637.773 972.437 530.135 981.976 486.789C984.043 477.321 993.47 471.347 1002.9 473.428C1012.37 475.507 1018.33 484.868 1016.26 494.335C1004.14 549.334 1003.43 632.242 1020.66 652.721C1057.5 696.455 1239.8 706.173 1337.72 711.4C1522.03 721.201 1667.71 703.801 1717.65 681.387C1746.73 661.054 1744.86 573.029 1723.67 512.562C1720.47 503.415 1725.27 493.401 1734.43 490.188C1743.53 487.002 1753.57 491.802 1756.8 500.947C1779.57 565.907 1788.57 677.774 1735.63 711.56C1734.97 711.987 1734.3 712.361 1733.59 712.694C1683.96 735.735 1570.59 749.227 1440.06 749.227Z" fill="#000072"/>
<path d="M1557.82 86.307C1544.63 77.7325 1466.86 30.0396 1276.95 95.0659C1129.5 145.56 1063.01 143.505 1032.62 141.453C1020.58 140.64 1014.23 139.827 1010.72 142.279C964.158 174.787 999.856 274.613 999.856 393.172C999.856 472.626 982.862 541.36 1007.25 570.306C1046.9 617.4 1205.89 628.227 1336.79 635.199C1517.1 644.8 1685.73 620.601 1740.24 595.292C1774.43 570.306 1785.31 496.279 1757.21 445.479C1726.2 386.932 1624.79 328.346 1596.89 277.572C1570.33 229.239 1608.89 119.452 1557.82 86.307Z" fill="#FCFCFC"/>
<path d="M999.879 393.169C999.879 472.61 982.845 541.343 1007.25 570.305C1041.83 611.303 1166.95 624.823 1285.16 632.198C1302.66 633.304 1319.99 634.29 1336.82 635.17C1517.1 644.824 1685.75 620.61 1740.27 595.278C1772.96 571.357 1784.38 502.45 1760.57 452.023C1759.5 449.797 1758.39 447.637 1757.24 445.476C1726.24 386.918 1624.81 328.357 1596.9 277.583C1570.34 229.263 1608.89 119.476 1557.81 86.3014C1544.6 77.7024 1466.85 30.0351 1276.97 95.0757C1129.55 145.557 1063.08 143.502 1032.66 141.448C1020.62 140.635 1014.23 139.823 1010.72 142.29C964.191 174.809 999.879 274.596 999.879 393.169Z" fill="#FCFCFC"/>
<path d="M999.879 393.169C999.879 472.61 982.845 541.343 1007.25 570.305C1041.83 611.303 1166.95 624.823 1285.16 632.198C1302.66 633.304 1319.98 634.29 1336.82 635.17C1517.1 644.824 1685.75 620.61 1740.27 595.278C1772.96 571.357 1784.38 502.45 1760.57 452.023C1759.5 449.797 1758.39 447.637 1757.24 445.476C1726.24 386.918 1624.81 328.357 1596.9 277.583C1584.08 254.303 1586.44 216.689 1586.53 180.25C1586.66 141.168 1584.26 103.501 1557.81 86.3014C1544.6 77.7024 1466.85 30.0351 1276.97 95.0757C1129.55 145.557 1063.08 143.502 1032.66 141.448C1020.62 140.635 1014.23 139.823 1010.72 142.29C977.115 165.795 986.421 224.357 994.149 299.809C997.125 328.77 999.879 360.237 999.879 393.169Z" fill="#FCFCFC"/>
<path d="M999.879 393.169C999.879 472.61 982.845 541.343 1007.25 570.305C1041.83 611.303 1166.95 624.823 1285.16 632.198C1302.66 633.304 1319.98 634.29 1336.82 635.17C1517.1 644.824 1685.75 620.61 1740.27 595.278C1772.96 571.357 1784.38 502.45 1760.57 452.023C1759.5 449.797 1758.39 447.637 1757.24 445.476C1726.24 386.918 1624.81 328.357 1596.9 277.583C1584.08 254.303 1586.44 216.689 1586.53 180.25C1586.66 141.168 1584.26 103.501 1557.81 86.3014C1544.6 77.7024 1466.85 30.0351 1276.97 95.0757C1129.55 145.557 1063.08 143.502 1032.66 141.448C1020.62 140.635 1014.23 139.823 1010.72 142.29C977.115 165.795 986.421 224.357 994.149 299.809C997.125 328.77 999.879 360.237 999.879 393.169Z" fill="#FCFCFC"/>
<path d="M999.879 393.199C999.879 472.64 982.868 541.373 1007.25 570.333C1041.83 611.333 1166.95 624.853 1285.19 632.213C1302.66 633.332 1319.99 634.318 1336.84 635.2C1517.1 644.852 1685.75 620.638 1740.27 595.305C1772.98 571.385 1784.38 502.465 1760.57 452.053C1759.53 449.825 1758.39 447.667 1757.24 445.493C1745.89 424.026 1725.06 402.56 1701.85 381.438C1667.34 350.147 1627.54 319.613 1605.91 291.24C1602.4 286.625 1599.36 282.119 1596.9 277.613C1584.08 254.333 1586.44 216.719 1586.55 180.28C1586.68 141.198 1584.26 103.532 1557.83 86.3337C1544.6 77.7325 1466.87 30.0519 1276.99 95.1058C1129.57 145.587 1063.08 143.533 1032.68 141.478C1020.62 140.666 1014.23 139.853 1010.72 142.307C977.138 165.825 986.421 224.385 994.149 299.839C997.148 328.798 999.879 360.265 999.879 393.199Z" fill="#FCFCFC"/>
<path d="M1296.4 240.055C1324.49 231.935 1348.34 224.149 1365.6 217.656C1390.94 208.121 1420.66 200.869 1450.94 195.429C1448.14 164.256 1442.82 105.642 1438.85 61.7081C1397.55 63.1094 1344.3 72.0031 1276.98 95.1092C1273.17 96.3895 1269.44 97.6819 1265.75 98.9098C1263.41 151.79 1279.97 203.028 1296.4 240.055Z" fill="#FFB522"/>
<path d="M1278.5 191.855C1290.07 230.881 1306.86 263.161 1317.28 281.122C1345.19 268.255 1371.63 253.401 1395.2 236.201V129.042C1357.06 154.363 1317.58 175.016 1278.5 191.855Z" fill="#FFB522"/>
<path d="M1440.09 429.344C1520.1 374.423 1643.95 376.756 1701.85 381.437C1667.33 350.143 1627.57 319.609 1605.91 291.236C1515.13 301.651 1384.45 344.236 1380.02 369.503C1374.05 403.61 1440.09 429.344 1440.09 429.344Z" fill="#E8E8E8"/>
<path d="M1007.26 570.332C1041.84 611.332 1166.94 624.853 1285.18 632.212C1302.68 633.333 1319.98 634.319 1336.84 635.199C1517.11 644.853 1685.76 620.639 1740.26 595.306C1763.08 578.64 1775.55 540.079 1772.85 501.132C1767.47 512.945 1760.16 522.653 1751.34 529.146C1696.82 554.479 1528.16 578.693 1347.89 569.038C1331.03 568.159 1313.73 567.173 1296.23 566.052C1178 558.693 1052.89 545.172 1018.31 504.172C1010.54 494.987 1003.22 480.066 996.8 461.413C993.388 510.492 990.242 550.093 1007.26 570.332Z" fill="#E8E8E8"/>
<path d="M994.149 299.812C1115 291.451 1295.51 244.066 1365.59 217.625C1431.64 192.771 1527.27 183.638 1586.52 180.252C1586.65 141.172 1584.25 103.505 1557.8 86.3057C1544.59 77.704 1466.85 30.0393 1276.97 95.0774C1129.54 145.558 1063.07 143.504 1032.65 141.451C1020.6 140.638 1014.22 139.824 1010.69 142.293C977.122 165.799 986.422 224.358 994.149 299.812Z" fill="#FFCE31"/>
<path d="M1296.4 240.055C1324.49 231.935 1348.34 224.149 1365.6 217.656C1390.94 208.121 1420.66 200.869 1450.94 195.429C1448.14 164.256 1442.82 105.642 1438.85 61.7081C1397.55 63.1094 1344.3 72.0031 1276.98 95.1092C1273.17 96.3895 1269.44 97.6819 1265.75 98.9098C1263.41 151.79 1279.97 203.028 1296.4 240.055Z" fill="#EFB000"/>
<mask id="mask2_1_5164" style="mask-type:luminance" maskUnits="userSpaceOnUse" x="1008" y="117" width="259" height="60">
<path d="M1008.03 176.105C1010.31 168.492 1013.78 162.425 1018.78 158.185C1020.89 158.212 1024.29 158.465 1027.39 158.679C1034.23 159.172 1043.25 159.812 1055.06 159.812C1091.75 159.812 1155.51 153.612 1265.69 117.359C1265.83 121.732 1266.1 126.092 1266.47 130.425C1154.77 167.759 1091.42 174.052 1055.29 174.052C1046.11 174.052 1038.69 173.652 1032.67 173.239C1026.67 172.839 1022.06 172.439 1018.53 172.439C1014.97 172.439 1012.47 172.839 1010.71 174.079C1009.79 174.719 1008.89 175.399 1008.03 176.105Z" fill="white"/>
</mask>
<g mask="url(#mask2_1_5164)">
<path d="M1008.03 117.359H1266.47V176.104H1008.03" fill="#FFF0C1"/>
</g>
<path d="M1266.46 130.428C1266.09 126.094 1265.82 121.736 1265.69 117.362C1271.21 115.534 1276.85 113.641 1282.62 111.669C1288.58 109.629 1294.41 107.709 1300.15 105.896C1300.23 110.322 1300.51 114.736 1300.92 119.069C1293.14 121.469 1285.18 124.068 1276.98 126.868C1273.42 128.096 1269.94 129.267 1266.46 130.428Z" fill="#FAE7B2"/>
<path d="M1285.16 632.198C1302.66 633.304 1319.99 634.29 1336.82 635.17C1517.1 644.824 1685.75 620.61 1740.27 595.278C1772.96 571.357 1784.38 502.45 1760.57 452.023C1684.29 499.81 1516.64 535.678 1388.19 450.504C1388.19 450.504 1292.07 555.157 1285.16 632.198Z" fill="#FFCE31"/>
<path d="M1285.18 632.212C1302.68 633.333 1319.98 634.319 1336.84 635.199C1517.11 644.853 1685.76 620.639 1740.26 595.306C1763.08 578.64 1775.55 540.079 1772.85 501.132C1767.47 512.945 1760.16 522.653 1751.34 529.146C1696.82 554.479 1528.16 578.693 1347.89 569.038C1334.31 568.345 1320.45 567.572 1306.47 566.706C1295.3 588.813 1287.04 611.505 1285.18 632.212Z" fill="#EFB000"/>
<path d="M990.346 263.758C993.2 291.611 996.966 322.611 998.77 355.665C1095.47 350.278 1279.37 320.557 1395.2 236.211V129.05C1244.44 229.183 1072.52 256.398 990.346 263.758Z" fill="#FFCE31"/>
<path d="M1278.5 191.855C1290.07 230.881 1306.86 263.161 1317.28 281.122C1345.19 268.255 1371.63 253.401 1395.2 236.201V129.042C1357.06 154.363 1317.58 175.016 1278.5 191.855Z" fill="#EFB000"/>
<path d="M1009.65 279.479C1011.53 297.16 1013.6 316.653 1015.13 336.988C1125.45 328.52 1278.66 295.494 1377.64 227.147V160.894C1242.29 242.266 1096.48 270.04 1009.65 279.479ZM998.772 373.213C994.448 373.213 990.283 371.627 987.055 368.733C983.567 365.626 981.495 361.266 981.235 356.627C979.821 330.667 977.21 306.334 974.699 282.8C974.061 276.933 973.463 271.187 972.886 265.56C972.407 260.895 973.802 256.228 976.811 252.601C979.781 248.974 984.105 246.706 988.768 246.279C1074.36 238.613 1239.7 211.28 1385.47 114.426C1390.88 110.855 1397.79 110.52 1403.49 113.587C1409.17 116.64 1412.74 122.574 1412.74 129.041V236.214C1412.74 241.828 1410.07 247.093 1405.52 250.401C1295.56 330.479 1118.2 366.587 999.729 373.187C999.41 373.201 999.091 373.213 998.772 373.213Z" fill="#000072"/>
<path d="M1410.71 468.024C1405.61 468.024 1400.72 465.825 1397.38 461.892C1392.44 456.145 1390.28 451.957 1389.74 450.825C1389.36 450.065 1389.02 449.119 1388.76 448.331C1388.76 448.331 1387.93 445.719 1387.07 441.064C1385.71 433.745 1389.1 426.344 1395.57 422.637C1402.05 418.919 1410.16 419.705 1415.78 424.572L1424.38 431.999C1430.15 436.959 1432.04 445.065 1429.09 452.078L1426.82 457.412C1424.42 462.985 1419.33 466.918 1413.33 467.824C1412.45 467.958 1411.57 468.024 1410.71 468.024Z" fill="#232333"/>
<path d="M1404.3 455.396C1396.05 455.396 1388.71 449.571 1387.1 441.169C1383.8 424.171 1379.49 380.024 1410.37 337.543C1443.01 292.65 1503.99 264.383 1591.65 253.543C1601.23 252.343 1610.01 259.184 1611.22 268.796C1612.4 278.423 1605.57 287.184 1595.94 288.369C1518.33 297.97 1465.43 321.463 1438.76 358.184C1415.97 389.531 1419.13 422.011 1421.54 434.516C1423.38 444.037 1417.16 453.237 1407.66 455.077C1406.54 455.291 1405.42 455.396 1404.3 455.396Z" fill="#232333"/>
<path d="M1592.25 519.424C1466.19 519.424 1416.15 483.691 1397.39 461.943C1391.07 454.598 1391.89 443.517 1399.23 437.185C1406.57 430.85 1417.66 431.677 1424 439.025C1433.62 450.17 1475.08 486.411 1603.27 484.238C1671.74 483.066 1720.76 466.732 1745.03 436.985C1751.17 429.478 1762.22 428.358 1769.73 434.491C1777.23 440.623 1778.36 451.678 1772.22 459.185C1740.78 497.718 1684.11 517.958 1603.85 519.331C1599.92 519.397 1596.04 519.424 1592.25 519.424Z" fill="#000072"/>
<path d="M1018.79 158.182C998.579 175.289 1003.54 221.956 1009.77 280.557C1013.36 314.331 1017.43 352.624 1017.43 393.171C1017.43 418.823 1015.68 443.585 1014.14 465.41C1011.26 506.144 1008.56 544.61 1020.69 558.997C1057.51 602.745 1239.81 612.45 1337.72 617.677C1518.69 627.304 1681.07 602.276 1731.18 580.143C1756.07 560.104 1766.12 497.837 1741.87 453.97C1727.09 426.051 1693.06 396.636 1660.15 368.183C1627.37 339.836 1596.37 313.064 1581.52 286.023C1568.12 261.663 1568.5 228.823 1568.88 194.064C1569.33 155.183 1569.78 114.97 1548.27 101.022C1529.27 88.6895 1453.95 53.022 1282.64 111.662C1124.99 165.636 1056.59 160.757 1027.41 158.676C1024.3 158.464 1020.89 158.209 1018.79 158.182ZM1417.69 654.863C1390.78 654.863 1363.4 654.184 1335.87 652.717C1180.21 644.424 1036.9 632.746 993.845 581.61C972.565 556.344 975.445 515.13 979.13 462.943C980.715 440.651 982.323 417.597 982.323 393.171C982.323 354.477 978.348 317.184 974.865 284.263C967.228 212.303 961.177 155.476 1000.68 127.89C1008.87 122.169 1017.69 122.796 1029.89 123.663C1056.99 125.61 1120.37 130.129 1271.27 78.4624C1452.5 16.4099 1538.72 52.9818 1567.39 71.5826C1605.08 96.0495 1604.5 148.33 1603.99 194.464C1603.67 223.155 1603.34 252.836 1612.27 269.117C1624.08 290.636 1654.09 316.557 1683.1 341.636C1718.45 372.196 1755 403.797 1772.73 437.263C1804.24 494.238 1793.57 578.064 1750.6 609.464C1749.67 610.143 1748.68 610.731 1747.63 611.211C1697.77 634.371 1565.42 654.863 1417.69 654.863Z" fill="#000072"/>
<path d="M1007.25 570.28C1026.19 592.867 1072.47 607.014 1129.96 616.56C1119.72 579.465 1104.46 525.013 1093.94 490.561C1073.93 425.16 1039.94 382.746 999.155 364.786C999.647 374.093 999.865 383.559 999.865 393.16C999.865 472.653 982.836 541.387 1007.25 570.28Z" fill="#FFCE31"/>
<path d="M1007.25 570.267C1026.21 592.854 1072.48 607.001 1129.99 616.547C1124.25 595.774 1116.94 569.628 1109.79 544.534C1067.04 535.228 1033.69 522.48 1018.32 504.174C1010.53 494.988 1003.21 480.068 996.792 461.414C993.39 510.494 990.243 550.094 1007.25 570.267Z" fill="#EFB000"/>
<path d="M1017.4 396.6C1017.28 421.053 1015.59 444.601 1014.13 465.48C1011.25 506.187 1008.54 544.627 1020.66 558.96L1020.68 559C1029.05 568.961 1050.7 582.561 1105.51 594.133C1096.82 562.919 1085.58 523.254 1077.14 495.68C1063.7 451.748 1042.98 417.613 1017.4 396.6ZM1129.95 634.105C1129.02 634.105 1128.05 634.027 1127.1 633.867C1056.25 622.12 1013.89 605.507 993.807 581.572C972.534 556.333 975.445 515.146 979.125 463.014C980.699 440.694 982.329 417.613 982.329 393.161C982.329 383.881 982.09 374.64 981.633 365.667C981.34 359.588 984.196 353.786 989.212 350.334C994.228 346.881 1000.69 346.28 1006.24 348.721C1053.62 369.587 1089.73 416.853 1110.71 485.427C1122.01 522.374 1138.21 580.507 1146.89 611.879C1148.48 617.653 1147.02 623.839 1143.01 628.293C1139.66 632.026 1134.9 634.105 1129.95 634.105Z" fill="#000072"/>
<path d="M1157.65 620.583C1203.33 626.731 1253.98 630.477 1302.59 633.277C1356.18 572.264 1400.52 473.997 1410.69 450.477C1406.89 446.038 1405.56 443.224 1405.56 443.224C1405.56 443.224 1404.96 441.29 1404.32 437.851L1317.69 362.73C1317.69 362.73 1254.91 528.57 1157.65 620.583Z" fill="#FFCE31"/>
<path d="M1157.65 620.572C1203.33 626.721 1253.99 630.466 1302.6 633.266C1319.22 614.32 1334.95 591.852 1349.06 569.107C1348.65 569.107 1348.3 569.041 1347.89 569.041C1331.02 568.159 1313.71 567.173 1296.23 566.053C1267.74 564.307 1238.85 562.132 1210.89 559.332C1194.69 581.386 1176.84 602.44 1157.65 620.572Z" fill="#EFB000"/>
<path d="M1194.79 607.334C1230.65 611.107 1266.76 613.573 1294.9 615.254C1339.39 561.76 1377.05 482.668 1390.61 452.508C1390.15 451.72 1389.87 451.147 1389.71 450.827C1389.35 450.068 1388.99 449.12 1388.75 448.335C1388.75 448.335 1388.63 447.987 1388.47 447.334L1324.67 392.041C1305.8 436.187 1259.79 534.148 1194.79 607.334ZM1302.58 650.84C1302.24 650.84 1301.9 650.826 1301.55 650.8C1263.24 648.586 1206.37 644.853 1155.29 637.986C1148.6 637.081 1142.99 632.414 1140.93 625.974C1138.85 619.546 1140.67 612.493 1145.58 607.84C1238.72 519.734 1300.65 358.148 1301.25 356.521C1303.3 351.161 1307.82 347.121 1313.39 345.721C1318.96 344.321 1324.83 345.721 1329.18 349.481L1415.79 424.587C1418.79 427.187 1420.82 430.72 1421.56 434.628C1421.68 435.307 1421.82 435.894 1421.92 436.401C1422.36 437.014 1423.04 437.933 1424.02 439.067C1428.39 444.173 1429.45 451.308 1426.81 457.453C1414.55 485.68 1370.44 582.614 1315.76 644.867C1312.43 648.667 1307.6 650.84 1302.58 650.84Z" fill="#000072"/>
<path d="M1566.46 239.292C1566.46 239.292 1553.52 220.56 1548.72 124.027C1546 69.0802 1524.99 -6.88005 1388.15 25.0527C1305.03 44.4523 1312.81 101.387 1325.62 157.106C1337.21 207.533 1365.13 257.412 1378.87 276.493C1398.61 303.88 1566.46 239.292 1566.46 239.292Z" fill="white"/>
<path d="M1325.65 157.108C1326.46 160.802 1327.4 164.429 1328.4 168.055C1341.22 214.616 1366.14 258.842 1378.89 276.508C1398.59 303.882 1566.48 239.296 1566.48 239.296C1566.48 239.296 1556.02 224.215 1550.39 151.322C1549.74 143.016 1549.15 133.895 1548.7 124.002C1546 69.0814 1525.01 -6.85006 1388.11 25.0286C1305 44.4555 1312.83 101.363 1325.65 157.108Z" fill="white"/>
<path d="M1328.4 168.055C1341.22 214.616 1366.14 258.842 1378.89 276.508C1398.59 303.882 1566.48 239.296 1566.48 239.296C1566.48 239.296 1556.02 224.215 1550.39 151.322C1511.55 141.736 1439.89 132.375 1379.99 171.096C1360.5 183.735 1343.26 180.108 1328.4 168.055Z" fill="#E5E5E5"/>
<path d="M1392.18 264.892C1407.18 270.559 1473.84 254.652 1544.06 228.959C1539.32 211.331 1533.93 179.986 1531.2 124.891C1529.39 88.3727 1519.57 63.8652 1501.14 49.986C1478.77 33.1182 1442.11 30.478 1392.13 42.1451C1331.29 56.3454 1327.72 87.8648 1342.73 153.172C1353.1 198.264 1378.11 244.866 1392.18 264.892ZM1400.76 300.825C1379.18 300.825 1370.2 294.466 1364.64 286.744C1348.56 264.439 1320.38 212.559 1308.52 161.039C1298.19 116.118 1278.99 32.5054 1384.16 7.95811C1444.75 -6.17503 1491.22 -1.46959 1522.28 21.959C1549.52 42.4913 1563.9 75.5974 1566.27 123.158C1570.17 202.305 1579.45 225.865 1581.21 229.679C1584.74 233.906 1585.47 238.865 1584.13 244.293C1582.79 249.865 1578.13 253.611 1572.78 255.678C1571.01 256.346 1529.56 272.252 1484.9 285.038C1444.88 296.491 1418.54 300.825 1400.76 300.825Z" fill="#000072"/>
<path d="M1429.62 375.571C1429.62 375.571 1460.11 438.171 1418.54 468.664C1369.83 504.41 1293.4 445.116 1275.96 366.97C1253.16 264.943 1369.32 198.57 1467.42 182.436C1595.43 161.383 1618.33 227.315 1609.29 271.103C1600.24 314.876 1429.62 375.571 1429.62 375.571Z" fill="#FFCE31"/>
<mask id="mask3_1_5164" style="mask-type:luminance" maskUnits="userSpaceOnUse" x="1273" y="317" width="12" height="78">
<path d="M1284.94 394.945C1281.15 386.012 1278.1 376.652 1275.94 366.999C1271.97 349.252 1272.21 332.585 1275.81 317.079H1275.82C1272.22 332.572 1271.98 349.239 1275.94 366.972C1278.1 376.625 1281.15 385.999 1284.95 394.932L1284.94 394.945Z" fill="white"/>
</mask>
<g mask="url(#mask3_1_5164)">
<path d="M1271.96 317.081H1284.94V394.947H1271.96" fill="#FEFEFE"/>
</g>
<path d="M1298.93 270.154C1301.3 267.101 1303.82 264.115 1306.46 261.195C1306.46 261.208 1306.48 261.208 1306.48 261.208C1303.84 264.115 1301.32 267.101 1298.95 270.143C1298.93 270.154 1298.95 270.143 1298.93 270.154Z" fill="#FFF0C1"/>
<path d="M1306.48 261.211C1306.48 261.211 1306.46 261.211 1306.46 261.197C1314.92 251.918 1324.64 243.359 1335.32 235.544H1335.34C1324.64 243.359 1314.92 251.93 1306.48 261.211Z" fill="#FAE7B2"/>
<path d="M1275.8 317.081C1279.77 300.015 1287.84 284.335 1298.9 270.161C1298.92 270.147 1298.9 270.161 1298.92 270.147C1287.86 284.321 1279.79 300.001 1275.8 317.081Z" fill="#B2B2D4"/>
<path d="M1300.03 422.867C1294.24 414.215 1289.14 404.841 1284.93 394.947L1284.95 394.934C1289.14 404.814 1294.24 414.147 1299.99 422.773C1300.01 422.8 1300.01 422.827 1300.03 422.867Z" fill="#B2B2D4"/>
<path d="M1365.3 216.784C1365.3 216.784 1365.3 216.784 1365.3 216.77C1383.87 206.811 1403.95 198.692 1424.21 192.544C1403.95 198.692 1383.87 206.811 1365.3 216.784Z" fill="#F7F7F7"/>
<path d="M1335.33 235.548C1344.67 228.708 1354.75 222.442 1365.29 216.775C1365.29 216.789 1365.29 216.789 1365.29 216.789C1354.75 222.454 1344.67 228.722 1335.33 235.548Z" fill="#B2B2D4"/>
<path d="M1300 422.771C1294.25 414.145 1289.15 404.811 1284.96 394.931C1281.16 385.997 1278.11 376.624 1275.93 366.971C1271.98 349.238 1272.21 332.572 1275.83 317.077C1279.8 299.999 1287.88 284.318 1298.94 270.145C1301.31 267.104 1303.85 264.117 1306.47 261.211C1314.93 251.931 1324.65 243.357 1335.35 235.544C1344.68 228.717 1354.76 222.452 1365.31 216.785C1383.88 206.811 1403.94 198.692 1424.22 192.545C1438.66 188.157 1453.23 184.77 1467.4 182.438C1484.29 179.664 1499.35 178.397 1512.75 178.397C1587.14 178.397 1610.31 217.345 1611.01 252.343C1600.44 227.958 1574.01 207.464 1520.68 207.464C1507.61 207.464 1492.94 208.691 1476.47 211.397C1380.71 227.184 1267.29 291.998 1289.51 391.624C1291.9 402.464 1295.51 412.903 1300 422.771Z" fill="#FFF0C1"/>
<path d="M1512.93 195.93C1500.08 195.93 1485.8 197.196 1470.24 199.755C1399.86 211.331 1336.09 245.903 1307.77 287.838C1292.06 311.103 1287.1 336.437 1293.06 363.143C1302.55 405.637 1333.62 445.544 1366.94 458.051C1382.92 464.051 1396.79 462.864 1408.18 454.517C1437.58 432.93 1414.09 383.744 1413.86 383.25C1411.67 378.756 1411.5 373.543 1413.39 368.93C1415.28 364.304 1419.05 360.704 1423.75 359.036C1509.67 328.451 1588.34 285.703 1592.1 267.558C1594.02 258.291 1596.61 234.836 1579.59 217.078C1566.12 203.049 1543.42 195.93 1512.93 195.93ZM1385.83 496.864C1375.73 496.864 1365.19 494.892 1354.6 490.904C1310.28 474.278 1270.89 424.876 1258.8 370.784C1250.65 334.29 1257.34 299.77 1278.66 268.196C1319.28 208.064 1401.32 175.518 1464.56 165.117C1529.78 154.41 1577 163.689 1604.89 192.77C1624.74 213.437 1632.79 244.05 1626.47 274.664C1617.32 318.904 1506.1 365.717 1452.24 385.97C1459.78 410.825 1466.26 455.423 1428.94 482.81C1416.22 492.145 1401.49 496.864 1385.83 496.864Z" fill="#000072"/>
<path d="M1668.95 352.802C1668.95 352.802 1538.32 322.096 1405.88 411.869C1405.88 411.869 1327.18 415.749 1354.63 348.695C1383.5 278.216 1563.79 243.482 1605.14 262.456C1644.84 280.655 1673.45 316.882 1668.95 352.802Z" fill="white"/>
<path d="M1612.94 347.729C1647.41 347.729 1668.96 352.795 1668.96 352.795C1669.28 350.29 1669.43 347.783 1669.43 345.276C1669.43 311.903 1642.08 279.383 1605.16 262.449C1597.63 258.983 1585.48 257.316 1570.47 257.316C1503.13 257.316 1378.26 291.05 1354.65 348.69C1350.59 358.65 1348.84 367.037 1348.84 374.117C1348.84 409.73 1392.84 411.904 1403.57 411.904C1405.05 411.904 1405.89 411.863 1405.89 411.863C1484.55 358.556 1562.54 347.729 1612.94 347.729Z" fill="#000072"/>
<path d="M1383.51 409.813C1395.49 412.387 1405.92 411.867 1405.92 411.867C1538.34 322.067 1668.96 352.786 1668.96 352.786C1669.67 347.346 1669.54 341.961 1668.79 336.574C1659.5 328.454 1648.49 321.719 1636.31 317.093C1570.75 292.293 1414.69 332.893 1385.83 403.386C1384.91 405.601 1384.16 407.706 1383.51 409.813Z" fill="white"/>
<path d="M1383.51 409.813C1395.49 412.387 1405.92 411.867 1405.92 411.867C1538.34 322.067 1668.96 352.786 1668.96 352.786C1669.67 347.346 1669.54 341.961 1668.79 336.574C1659.5 328.454 1648.49 321.719 1636.31 317.093C1570.75 292.293 1414.69 332.893 1385.83 403.386C1384.91 405.601 1384.16 407.706 1383.51 409.813Z" fill="#E8E8E8"/>
<path d="M1571.26 274.865C1540.01 274.865 1489.98 282.839 1444.8 300.691C1405.16 316.345 1378.91 335.744 1370.9 355.332C1367.27 364.211 1363.98 376.225 1368.85 383.145C1374.52 391.145 1390.62 393.945 1400.55 394.333C1504.44 325.892 1605.75 327.145 1649.96 332.051C1644.06 311.197 1624.75 290.746 1597.83 278.398C1592.79 276.079 1583.47 274.865 1571.26 274.865ZM1403.12 429.464C1391.37 429.464 1357.12 427.317 1340.2 403.412C1328.88 387.425 1328.3 366.771 1338.4 342.037C1353.38 305.478 1397.52 281.625 1431.88 268.051C1490.96 244.732 1577.6 230.504 1612.48 246.491C1661.97 269.197 1691.66 312.798 1686.36 354.984C1685.73 359.918 1683.05 364.371 1678.96 367.212C1674.89 370.038 1669.81 371.012 1664.96 369.878C1663.01 369.452 1539.39 342.572 1415.72 426.385C1413.08 428.198 1409.96 429.239 1406.76 429.386C1406.13 429.425 1404.88 429.464 1403.12 429.464Z" fill="#000072"/>
<path d="M1239.28 409.622L1172.64 495.609L1025.74 355.662L1171.67 438.808L1239.28 409.622Z" fill="#000072"/>
</svg>
