<svg width="1534" height="1534" viewBox="0 0 1534 1534" fill="none" xmlns="http://www.w3.org/2000/svg">
<path d="M1533.26 766.592C1533.26 1189.96 1190.03 1533.17 766.628 1533.17C343.231 1533.17 0 1189.96 0 766.592C0 343.209 343.231 0 766.628 0C1190.03 0 1533.26 343.209 1533.26 766.592Z" fill="#F5C236"/>
<path d="M1533.26 766.592C1533.26 1189.96 1190.03 1533.17 766.628 1533.17C343.231 1533.17 0 1189.96 0 766.592C0 343.209 343.231 0 766.628 0C1190.03 0 1533.26 343.209 1533.26 766.592Z" fill="#F5C236"/>
<path d="M440.876 199.149C432.946 199.149 425.257 194.944 421.145 187.525C415.122 176.64 419.075 162.933 429.943 156.91C532.41 100.22 648.836 70.2676 766.629 70.2676C779.075 70.2676 789.151 80.3376 789.151 92.7889C789.151 105.217 779.075 115.31 766.629 115.31C656.432 115.31 547.56 143.327 451.762 196.322C448.308 198.234 444.571 199.149 440.876 199.149Z" fill="white"/>
<path d="M359.085 252.478C352.299 252.478 345.571 249.417 341.143 243.587C333.624 233.681 335.542 219.553 345.436 212.028C350.862 207.899 356.428 203.8 361.971 199.823C372.106 192.586 386.159 194.926 393.397 205.049C400.635 215.166 398.294 229.218 388.188 236.456C382.992 240.18 377.783 244.027 372.704 247.869C368.639 250.977 363.848 252.478 359.085 252.478Z" fill="white"/>
<path d="M766.628 1491.96C365.994 1491.96 41.2154 1167.2 41.2154 766.592C41.2154 365.971 365.994 41.2128 766.628 41.2128C1167.26 41.2128 1492.05 365.971 1492.05 766.592C1492.05 1167.2 1167.26 1491.96 766.628 1491.96ZM766.628 0.0117188C343.231 0.0117188 0 343.227 0 766.592C0 1189.96 343.231 1533.17 766.628 1533.17C1190.03 1533.17 1533.26 1189.96 1533.26 766.592C1533.26 343.227 1190.03 0.0117188 766.628 0.0117188Z" fill="#E3A131"/>
<path d="M1380.49 766.592C1380.49 1105.58 1105.65 1380.4 766.629 1380.4C427.604 1380.4 152.78 1105.58 152.78 766.592C152.78 427.588 427.604 152.77 766.629 152.77C1105.65 152.77 1380.49 427.588 1380.49 766.592Z" fill="#E3A131"/>
<path d="M1380.49 766.593C1380.49 1105.59 1105.65 1380.4 766.628 1380.4C578.141 1380.4 409.509 1295.47 296.913 1161.78C403.696 1251.72 541.566 1305.91 692.122 1305.91C1031.15 1305.91 1305.99 1031.08 1305.99 692.079C1305.99 541.55 1251.8 403.671 1161.86 296.889C1295.55 409.495 1380.49 578.135 1380.49 766.593Z" fill="#C0852B"/>
<path d="M822.454 350.071L927.203 562.311L1161.44 596.351C1212.5 603.764 1232.9 666.507 1195.94 702.512L1026.45 867.733L1066.47 1101C1075.17 1151.86 1021.81 1190.63 976.137 1166.62L766.629 1056.49L557.12 1166.62C511.459 1190.63 458.085 1151.86 466.807 1101L506.82 867.733L337.313 702.512C300.379 666.507 320.767 603.764 371.818 596.351L606.055 562.311L710.814 350.071C733.642 303.815 799.615 303.815 822.454 350.071Z" fill="#FFCF48"/>
<path d="M1195.94 702.529L1026.45 867.732L1066.47 1101C1075.17 1151.84 1021.81 1190.63 976.136 1166.61L766.628 1056.49L557.12 1166.61C511.458 1190.63 458.084 1151.84 466.806 1101L489.012 971.553C489.012 971.553 1011.26 1023.56 927.202 562.311L1161.44 596.351C1212.5 603.764 1232.89 666.507 1195.94 702.529Z" fill="#FEBD39"/>
<path d="M505.589 634.08C505.589 634.08 667.442 624.831 715.983 465.305C715.983 465.305 750.67 742.739 505.589 634.08Z" fill="#FCE78E"/>
</svg>
