<svg width="2515" height="1173" viewBox="0 0 2515 1173" fill="none" xmlns="http://www.w3.org/2000/svg">
<path d="M468.438 119.209C340.891 143.864 193.826 186.321 35.3841 239.118C13.1728 393.592 32.2529 545.312 102.186 693.631L457.464 668.591C460.158 763.338 484.611 840.419 535.225 896.244C516.118 918.004 511.704 942.325 517.425 968.392C525.985 1007.31 555.317 1038.24 592.731 1051.93C868.25 1152.7 1373.94 1181.03 1749.84 1092.66C1825.39 1074.9 1867.94 993.098 1836.19 922.284C1835.95 921.777 1835.7 921.258 1835.48 920.738C1898.96 847.513 1905.62 743.058 1866.65 613.485C2061.45 655.405 2243.28 685.552 2373.16 668.591C2461.41 547.712 2494.7 407.514 2486.7 252.794C2277.34 185.784 2066.59 137.036 1853.99 112.795L468.438 119.209Z" fill="#B269FF"/>
<path d="M242.254 683.754L102.181 693.639C32.2517 545.283 13.1453 393.603 35.3849 239.101C84.1517 222.871 131.91 207.587 178.266 193.554C131.575 356.934 152.945 520.375 242.254 683.754Z" fill="#FEDA24"/>
<path d="M2245.74 653.028L2369.34 677.121C2447.94 549.47 2481.68 413.296 2478.91 270.108C2437.3 250.055 2396.49 230.972 2356.77 213.204C2380.3 367.121 2343.26 513.763 2245.74 653.028Z" fill="#FEDA24"/>
<path d="M2363.19 279.923C2194.5 232.032 2024.85 196.733 1853.99 177.257L1499.66 178.884C1548.49 163.062 1595.34 150.376 1640.36 140.496L1852.55 139.529C2017.77 158.464 2184.95 192.3 2360.53 242.455C2361.82 254.999 2362.72 267.496 2363.19 279.923ZM162.55 262.757C164.736 249.788 167.351 236.819 170.39 223.85C285.964 188.339 385.138 162.637 471.069 145.896L701.057 144.834C745.629 154.997 793.496 167.566 843.738 181.926L468.445 183.67C375.751 201.591 272.738 228.896 162.55 262.757ZM1068 149.833C1061.19 147.593 1054.49 145.424 1047.82 143.231L1056.69 143.208C1060.48 145.424 1064.23 147.617 1068 149.833Z" fill="#E0C3FF"/>
<path d="M55.8672 296.792C56.8315 284.316 58.0972 271.78 59.6643 259.228C98.162 246.496 135.047 234.714 170.396 223.85C167.352 236.823 164.746 249.781 162.546 262.754C127.679 273.483 92.0897 284.843 55.8672 296.792Z" fill="#FFF0A7"/>
<path d="M2461.1 309.145C2428.51 298.959 2395.86 289.199 2363.19 279.933C2362.71 267.492 2361.82 255 2360.53 242.449C2393.64 251.929 2427.06 261.959 2460.81 272.599C2461.18 284.946 2461.27 297.131 2461.1 309.145Z" fill="#FFF0A7"/>
<path d="M1749.86 1092.65C1373.93 1181.03 868.242 1152.7 592.719 1051.92C555.311 1038.23 525.992 1007.29 517.445 968.36C511.7 942.305 516.112 917.986 535.22 896.212C766.788 1057.65 1531.59 1114.44 1835.48 920.732C1835.75 921.266 1835.95 921.798 1836.22 922.264C1867.95 993.065 1825.41 1074.89 1749.86 1092.65Z" fill="#FEDA24"/>
<path d="M228.708 657.936C216.722 634.096 206.189 610.256 197.095 586.429L441.135 569.282C441.869 595.002 444.215 619.416 448.255 642.442L228.708 657.936Z" fill="#8E54E3"/>
<path d="M118.775 665.682C108.268 642.028 99.0417 618.082 91.0684 593.868L197.095 586.428C206.188 610.255 216.722 634.095 228.708 657.935L118.775 665.682Z" fill="#CBAE34"/>
<path d="M2250.82 645.688C2134.46 640.406 1998.02 614.406 1873.09 587.54C1869.09 564.099 1863.23 539.646 1855.56 514.181C2013.12 547.966 2162.22 574.1 2282.4 574.1C2286.36 574.1 2290.28 574.072 2294.17 574.007C2281.45 598.113 2267 622.019 2250.82 645.688Z" fill="#8E54E3"/>
<path d="M2292.01 646.666C2278.6 646.666 2264.88 646.318 2250.84 645.678C2267.03 622.011 2281.48 598.105 2294.18 573.998C2318.77 573.639 2342.11 572.119 2363.97 569.278C2408.47 508.544 2438.98 442.945 2457.34 373.051C2446.71 474.758 2413.93 563.985 2358.32 643.439C2337.47 645.651 2315.27 646.666 2292.01 646.666Z" fill="#CBAE34"/>
<path d="M1839.88 867.346C1842.87 857.598 1847.29 845.505 1854.26 832.198C1850.52 844.585 1845.73 856.293 1839.88 867.346Z" fill="#8E54E3"/>
<path d="M1242.24 1118.91C1004.07 1118.91 767.518 1087.42 601.924 1026.83C572.209 1015.98 549.826 991.38 543.516 962.66C541.13 951.767 541.195 942.273 543.862 933.552C554.039 940.834 565.362 946.861 576.908 952.634C790.975 1059.63 1020.7 1096.75 1221.22 1096.74C1444.05 1096.74 1630.79 1050.87 1719.58 1004.13C1756.32 991.473 1789.72 977.113 1819.44 961.086C1821.44 978.966 1818.31 997.313 1810.04 1014.02C1796.89 1040.65 1772.71 1059.83 1743.7 1066.65C1594.11 1101.82 1417.76 1118.91 1242.24 1118.91Z" fill="#CBAE34"/>
<path d="M457.472 641.865C464.085 641.865 470.486 644.318 475.407 648.77C480.806 653.664 483.966 660.544 484.18 667.824C486.753 758.464 510.593 829.279 555.019 878.292C564.151 888.357 564.272 903.664 555.312 913.864C542.86 928.037 539.233 943.091 543.526 962.651C549.846 991.373 572.22 1015.97 601.926 1026.82C889.593 1132.04 1391.11 1149.54 1743.74 1066.64C1772.74 1059.83 1796.9 1040.64 1810.06 1014.01C1822.73 988.411 1823.37 958.958 1811.83 933.211L1811.24 931.946C1806.84 922.412 1808.41 911.171 1815.31 903.225C1870.56 839.491 1878.98 747.238 1841.07 621.171C1838.35 612.118 1840.6 602.306 1847.01 595.357C1853.45 588.41 1863.02 585.358 1872.28 587.357C2038.64 623.157 2225.59 657.492 2358.33 643.437C2431.56 538.825 2465.19 417.237 2460.8 272.597C2248.08 205.595 2048.92 162.011 1852.54 139.519L471.073 145.903C358.859 167.757 224.097 204.858 59.6589 259.224C42.0706 401.038 61.9376 537.598 118.779 665.678L455.591 641.932C456.22 641.892 456.846 641.865 457.472 641.865ZM1243.32 1172.04C998.241 1172.04 754.46 1139.52 583.566 1077.01C536.166 1059.68 501.7 1021.21 491.34 974.118C485.152 945.972 488.592 920.317 501.54 897.585C461.673 846.052 438.418 778.81 432.206 697.145L104.07 720.292C93.0577 721.105 82.7253 714.998 78.0183 705.024C8.55141 557.678 -14.6894 399.651 8.95158 235.318C10.3905 225.317 17.3517 216.964 26.95 213.772C202.033 155.406 344.792 115.898 463.365 92.964C465.005 92.6448 466.658 92.4975 468.325 92.4729L1853.86 86.0888C1854.94 86.0397 1855.98 86.1379 1857.03 86.2607C2062.9 109.71 2271.53 155.872 2494.88 227.343C2505.46 230.731 2512.83 240.317 2513.42 251.411C2522.06 418.985 2482.16 564.637 2394.77 684.332C2390.45 690.252 2383.89 694.132 2376.65 695.077C2246.59 712.052 2068.15 682.825 1903.71 648.637C1930.47 763.945 1917.85 856.824 1866.04 925.425C1878.2 962.185 1875.45 1002.33 1857.96 1037.69C1837.71 1078.68 1800.53 1108.17 1755.97 1118.67C1603.16 1154.57 1422.88 1172.04 1243.32 1172.04Z" fill="#000072"/>
<path d="M242.305 710.479C232.843 710.479 223.689 705.446 218.826 696.57C126.425 527.543 104.135 355.83 152.543 186.186C156.587 172 171.406 163.757 185.561 167.817C199.747 171.861 207.975 186.649 203.93 200.835C159.505 356.51 180.298 514.67 265.722 670.946C272.792 683.897 268.053 700.121 255.086 707.191C251.026 709.429 246.627 710.479 242.305 710.479Z" fill="#000072"/>
<path d="M2216.22 697.057C2209.17 697.057 2202.13 694.295 2196.89 688.802C2186.7 678.136 2187.08 661.216 2197.75 651.017C2301.36 552.068 2345.71 405.642 2329.62 215.787C2328.38 201.074 2339.28 188.17 2354 186.908C2368.62 185.647 2381.61 196.574 2382.88 211.264C2400.4 418.029 2350.52 578.988 2234.67 689.669C2229.48 694.602 2222.84 697.057 2216.22 697.057Z" fill="#000072"/>
<path d="M580.729 300.775C521.948 446.041 463.227 602.839 495.633 760.242C498.752 774.671 489.586 788.879 475.157 791.998C460.314 795.251 445.649 785.301 443.165 770.31C428.81 685.85 439.824 599.571 462.487 518.334C484.944 437.998 517.557 362.201 552.063 288.149C560.948 270.098 588.106 281.807 580.729 300.775Z" fill="#000072"/>
<path d="M1780.86 284.811C1862.38 414.277 1871.53 571.411 1914.75 714.471C1923.4 748.592 1874.14 762.897 1863.34 729.138C1835.44 619.564 1825.29 508.892 1792.57 402.187C1781.71 367.837 1767.93 334.718 1749.83 304.106C1738.13 283.6 1767.49 265.12 1780.86 284.811Z" fill="#000072"/>
<path d="M1247.62 1070.16C1217.99 1070.16 1187.81 1069.56 1157.18 1068.36C885.624 1057.67 635.516 998.718 519.951 918.16C507.845 909.718 504.873 893.065 513.312 880.959C521.752 868.865 538.405 865.893 550.513 874.318C658.263 949.438 897.223 1004.64 1159.28 1014.96C1441.6 1026.1 1688.99 982.427 1821.12 898.199C1833.6 890.279 1850.09 893.931 1858.03 906.372C1865.95 918.813 1862.28 935.332 1849.84 943.265C1721.53 1025.05 1505.22 1070.16 1247.62 1070.16Z" fill="#000072"/>
<path d="M1585.01 660.109V728.374C1585.01 815.073 1527.9 888.74 1448.74 913.458C1432.59 918.54 1415.48 921.539 1397.78 922.207C1263.13 927.152 1129.2 924.939 996.148 915.192C977.456 913.859 959.477 909.979 942.59 903.899C863.024 875.725 806.851 799.914 806.851 711.731V661.238C806.851 644.068 819.47 629.776 836.376 626.917C903.907 615.427 937.099 560.91 948.269 478.974C951.128 457.667 969.576 441.945 991.014 441.945H1391.5C1413.14 441.945 1431.25 457.987 1434.38 479.369C1444.47 548.893 1480.41 599.988 1556.35 622.442C1573.18 627.387 1585.01 642.545 1585.01 660.109Z" fill="#FEDA24"/>
<path d="M833.582 692.156V661.248C833.582 657.334 836.639 653.978 840.852 653.251C883.001 646.092 915.698 624.86 938.684 589.869C922.279 645.869 890.252 682.407 836.396 691.56C835.427 691.727 834.495 691.914 833.582 692.156ZM1558.3 687.701C1557.66 687.477 1557.01 687.272 1556.36 687.086C1491.11 667.791 1455.4 627.395 1440.24 572.29C1464.34 608.455 1500.62 633.808 1548.79 648.05C1554.48 649.728 1558.3 654.556 1558.3 660.074V687.701ZM1414.01 512.953C1407.43 508.927 1399.73 506.615 1391.51 506.615H1339.8L1338.21 468.661H1391.53C1399.81 468.661 1406.7 474.794 1407.95 483.22C1409.46 493.566 1411.48 503.483 1414.01 512.953ZM969.48 512.319C971.568 502.849 973.301 492.932 974.737 482.549C975.818 474.626 982.809 468.661 991.03 468.661H1079.41L1079.97 506.615H991.011C983.237 506.615 975.874 508.666 969.48 512.319ZM1287.36 506.615H1135.34C1135.52 493.995 1135.56 481.337 1135.43 468.661H1286.8L1287.36 506.615Z" fill="#FFF0A7"/>
<path d="M1260.22 898.008C1172.04 898.008 1084.3 894.861 998.105 888.567C909.769 882.126 839.756 810.622 833.959 723.423C857.912 765.177 896.255 797.76 942.576 814.164C959.482 820.248 977.452 824.114 996.148 825.447C1083.63 831.861 1171.48 835.008 1259.67 835.008C1305.61 835.008 1351.65 834.154 1397.77 832.461C1415.48 831.794 1432.57 828.795 1448.73 823.713C1495.09 809.243 1533.88 777.946 1558.06 737.105C1553.68 823.434 1484.43 892.261 1396.82 895.501C1351.26 897.18 1305.69 898.008 1260.22 898.008Z" fill="#CBAE34"/>
<path d="M991.018 468.655C982.805 468.655 975.805 474.63 974.724 482.559C961.047 583.059 915.994 640.499 840.837 653.266C836.626 653.986 833.572 657.344 833.572 661.252V711.71C833.572 804.15 905.845 881.831 998.113 888.565C1128.74 898.097 1262.87 900.417 1396.83 895.498C1487.35 892.15 1558.3 818.749 1558.3 728.385V660.076C1558.3 654.555 1554.47 649.737 1548.78 648.049C1467.74 624.09 1420.35 568.643 1407.95 483.223C1406.7 474.782 1399.79 468.655 1391.52 468.655H991.018ZM1260.2 951.456C1170.7 951.456 1081.69 948.244 994.224 941.857C874.166 933.097 780.135 832.003 780.135 711.71V661.252C780.135 631.185 801.912 605.671 831.883 600.568C863.885 595.143 908.046 576.249 921.78 475.332C926.446 441.054 956.209 415.218 991.018 415.218H1391.52C1426.58 415.218 1455.73 440.599 1460.82 475.541C1470.22 540.264 1502.99 578.791 1563.92 596.812C1592.5 605.235 1611.72 630.673 1611.72 660.076V728.385C1611.72 847.63 1518.2 944.483 1398.8 948.897C1352.58 950.604 1306.31 951.456 1260.2 951.456Z" fill="#000072"/>
<path d="M1134.16 548.707H1080.59L1079.98 506.6H1135.35C1135.15 520.689 1134.75 534.714 1134.16 548.707Z" fill="#CBAE34"/>
<path d="M1135.33 506.614H1079.97L1079.4 468.66H1135.43C1135.54 481.338 1135.51 494.016 1135.33 506.614Z" fill="#CCC09C"/>
<path d="M1134.02 415.223H1078.62L1076.26 255.027L1123 279.518C1128.42 325.165 1132.13 370.426 1134.02 415.223Z" fill="#8E54E3"/>
<path d="M1135.43 468.656H1079.43L1078.62 415.218H1134.04C1134.79 433.111 1135.26 450.908 1135.43 468.656Z" fill="#000072"/>
<path d="M1341.53 548.708H1287.97L1287.36 506.606H1339.8L1341.53 548.708Z" fill="#CBAE34"/>
<path d="M1339.79 506.613H1287.35L1286.8 468.654H1338.22L1339.79 506.613Z" fill="#CCC09C"/>
<path d="M1336.01 415.207H1286.01L1283.78 264.042C1286.82 262.642 1289.86 261.243 1292.9 259.861L1330.39 279.506L1336.01 415.207Z" fill="#8E54E3"/>
<path d="M1338.2 468.67H1286.78L1285.98 415.222H1335.99L1338.2 468.67Z" fill="#000072"/>
<path d="M468.444 119.19C408.499 -10.3082 585.886 -19.3618 1207.64 197.137C1464.05 91.6162 1875.57 -65.5802 1888.93 112.121C1702.25 112.638 1484.08 162.329 1209.85 299.537C906.579 195.401 607.751 101.662 468.444 119.19Z" fill="#FEDA24"/>
<path d="M1207.62 197.147C1160.15 180.601 1115.28 165.396 1072.89 151.45C1115.26 165.396 1160.16 180.601 1207.62 197.147ZM1072.84 151.433C1072.28 151.251 1071.68 151.052 1071.12 150.854C1071.67 151.052 1072.3 151.251 1072.84 151.433ZM1070.77 150.754C1070.59 150.705 1070.37 150.622 1070.21 150.572C1070.39 150.638 1070.57 150.688 1070.77 150.754Z" fill="#EBEBF4"/>
<path d="M1878.7 112.245C1878.7 112.224 1878.67 112.204 1878.65 112.204C1882.09 112.163 1885.54 112.121 1888.93 112.121C1885.54 112.121 1882.11 112.204 1878.7 112.245Z" fill="#9999C7"/>
<path d="M1649.02 46.3281C1649.16 46.3082 1649.3 46.2684 1649.44 46.2285C1649.28 46.2684 1649.16 46.3082 1649.02 46.3281ZM1657.11 44.6546C1657.39 44.5948 1657.59 44.555 1657.87 44.4952C1657.63 44.555 1657.37 44.6147 1657.11 44.6546ZM1677.44 40.7891C1677.46 40.7891 1677.44 40.7891 1677.46 40.7891H1677.44ZM1686.1 39.2947C1686.18 39.2947 1686.24 39.2747 1686.32 39.2548C1686.24 39.2747 1686.16 39.2947 1686.1 39.2947ZM1686.6 39.2151C1686.7 39.1952 1686.8 39.1752 1686.9 39.1752C1686.78 39.1752 1686.72 39.1952 1686.6 39.2151ZM1687.12 39.1353C1687.18 39.1154 1687.26 39.0955 1687.34 39.0955C1687.26 39.1154 1687.2 39.1154 1687.12 39.1353ZM1687.62 39.0556C1687.9 39.0157 1688.22 38.956 1688.5 38.8962C1688.2 38.956 1687.92 38.9958 1687.62 39.0556ZM1688.64 38.8962C1689.07 38.8165 1689.45 38.7567 1689.87 38.697C1689.47 38.7567 1689.05 38.8165 1688.64 38.8962ZM1698.6 37.3421C1698.74 37.3222 1698.88 37.3023 1699.02 37.2824C1698.86 37.3023 1698.74 37.3222 1698.6 37.3421ZM1699.14 37.2623C1699.2 37.2424 1699.24 37.2425 1699.29 37.2425C1699.26 37.2425 1699.18 37.2424 1699.14 37.2623ZM1711.89 35.509C1711.93 35.509 1711.93 35.509 1711.97 35.509C1711.95 35.509 1711.91 35.509 1711.89 35.509ZM1727.89 33.7358C1728.05 33.7159 1728.21 33.6959 1728.37 33.6959C1728.21 33.6959 1728.05 33.7358 1727.89 33.7358ZM1741.95 32.58C1742.21 32.5601 1742.43 32.5602 1742.67 32.5403C1742.43 32.5602 1742.19 32.5601 1741.95 32.58ZM1743.27 32.5004C1745.06 32.3809 1746.86 32.2813 1748.61 32.2016C1746.84 32.2813 1745.08 32.3809 1743.27 32.5004Z" fill="#9999C7"/>
<path d="M1211.5 239.118C869.228 119.934 661.638 69.1269 554.165 69.1269C499.272 69.1269 470.485 82.3972 463.246 106.581C445.019 56.1254 469.046 27.1252 550.271 27.1252C642.518 27.1252 808.602 64.5795 1070.22 150.567C1070.39 150.609 1070.6 150.691 1070.78 150.753C1070.91 150.774 1070.99 150.815 1071.13 150.857C1071.69 151.043 1072.29 151.229 1072.85 151.415C1072.89 151.435 1072.85 151.415 1072.89 151.435C1115.29 165.388 1160.16 180.601 1207.64 197.137C1208.11 196.93 1208.57 196.724 1209.07 196.538C1210.16 196.083 1211.3 195.628 1212.41 195.173C1213.39 194.76 1214.36 194.367 1215.35 193.954C1216.11 193.644 1216.86 193.334 1217.62 193.024C1217.87 192.92 1218.08 192.838 1218.3 192.734H1218.33C1218.72 192.569 1219.09 192.404 1219.48 192.259C1346.4 140.232 1507.93 77.3743 1640.62 48.1467C1643.43 47.5266 1646.24 46.9272 1649.03 46.3278C1649.17 46.3071 1649.28 46.2864 1649.44 46.245C1652.01 45.7076 1654.57 45.1702 1657.11 44.6534C1657.36 44.6121 1657.63 44.5502 1657.86 44.5089C1662.36 43.5994 1666.87 42.7311 1671.29 41.9043C1671.52 41.863 1671.73 41.8217 1671.95 41.7804C1673.77 41.4496 1675.61 41.119 1677.43 40.7882H1677.45C1680.34 40.2715 1683.24 39.7754 1686.09 39.3C1686.17 39.3 1686.26 39.2792 1686.32 39.2586C1686.4 39.2586 1686.5 39.2379 1686.61 39.2172C1686.71 39.1965 1686.77 39.1758 1686.9 39.1758C1686.96 39.1551 1687.04 39.1346 1687.1 39.1346C1687.19 39.114 1687.25 39.1138 1687.33 39.1138C1687.43 39.0725 1687.52 39.0725 1687.62 39.0519C1687.91 38.9899 1688.2 38.9485 1688.51 38.9071C1688.53 38.9071 1688.59 38.8866 1688.63 38.8866C1689.05 38.8245 1689.46 38.7625 1689.87 38.7004C1690.12 38.6591 1690.37 38.6178 1690.62 38.5765C1690.76 38.5352 1690.89 38.5144 1691.03 38.4937C1691.05 38.4937 1691.11 38.4938 1691.13 38.4731C1691.26 38.4731 1691.36 38.4524 1691.47 38.4318C1691.53 38.4318 1691.59 38.4111 1691.65 38.3904C1691.73 38.3904 1691.82 38.3905 1691.88 38.3698C1691.98 38.3491 1692.06 38.3492 1692.15 38.3078C1692.44 38.2872 1692.73 38.2457 1693.02 38.1837C1693.72 38.0803 1694.44 37.977 1695.14 37.8736C1695.45 37.8116 1695.76 37.7703 1696.07 37.7083C1696.1 37.7083 1696.14 37.7083 1696.16 37.7083C1696.16 37.7083 1696.18 37.7083 1696.2 37.7083C1696.98 37.5843 1697.79 37.4603 1698.6 37.3363C1698.74 37.3156 1698.86 37.295 1699.01 37.2743C1699.05 37.2743 1699.09 37.2743 1699.13 37.2743C1699.17 37.2537 1699.26 37.2536 1699.3 37.2329C1702.87 36.7162 1706.43 36.22 1709.94 35.7652C1710.01 35.7652 1710.05 35.7653 1710.11 35.7447C1710.69 35.6826 1711.31 35.6 1711.89 35.5174C1711.91 35.5174 1711.95 35.5174 1711.97 35.5174C1713.15 35.352 1714.33 35.2279 1715.5 35.0832C1715.81 35.0418 1716.15 35.0005 1716.46 34.9798C1716.58 34.9591 1716.7 34.9385 1716.83 34.9178C1717.1 34.8972 1717.34 34.8558 1717.61 34.8145C1717.65 34.8145 1717.65 34.8145 1717.67 34.8145C1717.92 34.7938 1718.17 34.7732 1718.42 34.7525C1718.65 34.7112 1718.87 34.6904 1719.12 34.6698C1719.12 34.6491 1719.16 34.6492 1719.16 34.6492C1719.62 34.5872 1720.09 34.5458 1720.55 34.5044C1720.59 34.4838 1720.59 34.4839 1720.63 34.4839C1721.73 34.3805 1722.78 34.2564 1723.88 34.153C1723.92 34.1323 1724 34.1323 1724.06 34.1116C1724.21 34.1116 1724.35 34.0911 1724.5 34.0705C1724.7 34.0498 1724.93 34.0289 1725.14 34.0083C1725.2 34.0083 1725.24 33.9877 1725.28 33.9877H1725.3C1725.61 33.967 1725.92 33.9256 1726.23 33.9049C1726.25 33.9049 1726.29 33.8843 1726.31 33.8843C1726.58 33.8637 1726.83 33.8429 1727.1 33.8016C1727.2 33.8016 1727.27 33.8017 1727.37 33.781C1727.53 33.781 1727.72 33.7603 1727.89 33.7396C1728.03 33.7396 1728.22 33.6982 1728.36 33.6982C1728.49 33.6776 1728.63 33.657 1728.75 33.657C1728.94 33.6364 1729.13 33.6155 1729.31 33.5949C1729.42 33.5949 1729.52 33.5743 1729.64 33.5743C1731.09 33.4296 1732.56 33.3055 1733.98 33.1815C1734.09 33.1815 1734.13 33.1609 1734.21 33.1609C1735.95 33.0162 1737.7 32.8921 1739.4 32.7681C1740.27 32.7061 1741.11 32.6442 1741.96 32.5822C1742.19 32.5615 1742.44 32.5615 1742.67 32.5408C1742.87 32.5408 1743.08 32.5201 1743.26 32.4994C1745.08 32.3754 1746.84 32.2927 1748.6 32.1893C1749.28 32.148 1749.92 32.1275 1750.6 32.1068C1750.93 32.0861 1751.28 32.0653 1751.62 32.0446C1757.03 31.8172 1762.28 31.714 1767.43 31.714C1837.62 31.714 1884.54 53.9964 1888.93 112.121C1885.54 112.121 1882.08 112.162 1878.65 112.204C1859.16 84.9396 1821.07 73.6949 1771.27 73.6949C1626.85 73.6949 1384.08 168.116 1211.5 239.118Z" fill="#FFF0A7"/>
<path d="M505.145 90.4002C657.898 90.4002 924.798 173.915 1193.62 265.743C1202.7 268.869 1212.74 268.264 1221.14 264.18C1452.24 151.369 1659.47 92.9422 1853.27 86.1077C1849.71 81.0026 1845.08 76.752 1839.31 73.168C1738.08 10.4072 1373.48 158.495 1253.67 207.17C1224.45 219.026 1191.91 219.902 1161.96 209.629C945.677 135.325 777.523 87.0454 662.191 66.1459C523.998 41.0791 493.518 61.0202 487.465 67.7296C482.918 72.7722 483.706 81.8987 486.212 90.8794C492.305 90.5668 498.625 90.4002 505.145 90.4002ZM1205.62 321.211C1195.8 321.211 1185.95 319.586 1176.34 316.314C902.086 222.611 603.868 129.094 471.772 145.722C460.224 147.118 449.079 140.992 444.184 130.428C420.29 78.7939 432.957 48.372 447.785 31.9316C490.05 -14.9306 610.036 -36.476 1179.32 159.079C1197.05 165.163 1216.31 164.663 1233.56 157.662C1585.98 14.512 1781.47 -25.5574 1867.48 27.7435C1896.22 45.5799 1912.84 74.0641 1915.55 110.133C1916.12 117.53 1913.57 124.844 1908.53 130.282C1903.49 135.72 1896.4 138.825 1888.99 138.846C1693.24 139.388 1482.46 196.085 1244.56 312.188C1232.27 318.189 1219 321.211 1205.62 321.211Z" fill="#000072"/>
<path d="M1088.92 575.413C1074.79 575.413 1062.99 564.341 1062.26 550.068L1045.58 220.545C1044.83 205.809 1056.15 193.24 1070.89 192.491C1071.35 192.491 1071.83 192.475 1072.26 192.475C1086.41 192.475 1098.21 203.547 1098.93 217.836L1115.62 547.359C1116.37 562.079 1105.03 574.648 1090.31 575.397C1089.83 575.413 1089.37 575.413 1088.92 575.413Z" fill="#000072"/>
<path d="M1329.3 575.424C1327.87 575.424 1326.42 575.319 1324.94 575.074C1310.37 572.674 1300.51 558.927 1302.91 544.374C1320.3 438.79 1314.86 331.7 1286.77 226.064C1282.98 211.791 1291.46 197.168 1305.72 193.368C1319.99 189.567 1334.61 198.061 1338.41 212.316C1368.46 325.326 1374.26 439.963 1355.63 553.043C1353.49 566.142 1342.16 575.424 1329.3 575.424Z" fill="#000072"/>
<path d="M1154.08 587.585C1154.08 632.305 1125.7 668.572 1090.68 668.572C1055.67 668.572 1027.29 632.305 1027.29 587.585C1027.29 542.865 1055.67 506.614 1090.68 506.614C1125.7 506.614 1154.08 542.865 1154.08 587.585Z" fill="#000072"/>
<path d="M1378.58 622.197C1358.68 662.341 1316.72 682.087 1284.86 666.298C1253 650.508 1243.28 605.154 1263.19 565.011C1283.07 524.867 1325.04 505.121 1356.9 520.928C1388.76 536.7 1398.47 582.054 1378.58 622.197Z" fill="#000072"/>
</svg>
