<svg width="2758" height="1538" viewBox="0 0 2758 1538" fill="none" xmlns="http://www.w3.org/2000/svg">
<path d="M2695.8 469.678C2608.52 539.308 2411.15 679.759 2180.25 733.72C2180.25 733.72 2257.55 1001.91 2256.67 1346.59C1770.74 1588.32 1032.24 1554.59 500.438 1346.59C499.57 1001.91 576.878 733.72 576.878 733.72C345.971 679.759 148.596 539.308 61.2476 469.678C30.6877 445.325 16.0958 405.939 23.6812 367.583C35.6736 306.542 52.9413 247.364 76.4945 190.222V190.149C93.1834 149.463 112.984 109.954 136.317 71.5242C164.638 24.9279 224.384 8.30045 273.077 32.9229C453.545 124.252 650.638 202.779 854.306 278.216L1103.4 360.495C1182.37 552.173 1546.49 596.094 1701.09 358.264L1902.8 278.216C2106.48 202.779 2303.56 124.252 2484.03 32.9229C2532.71 8.30045 2592.48 24.9279 2620.81 71.5242C2648.89 117.826 2671.94 165.87 2690.6 215.434C2709.09 264.703 2723.1 315.493 2733.42 367.583C2740.95 405.939 2726.41 445.325 2695.8 469.678Z" fill="#0096F0"/>
<path d="M793.432 314.593C611.401 246.009 435.495 174.157 273.068 91.9787C257.882 84.288 241.616 80.6052 225.576 80.6052C190.163 80.6052 155.789 98.496 136.31 130.54C119.549 158.216 104.576 186.451 91.269 215.264C90.9495 214.704 90.6281 214.163 90.3086 213.621C108.096 167.874 129.536 124.456 154.829 82.7715C170.161 57.5151 197.548 43.3073 225.722 43.3073C238.415 43.3073 251.269 46.1958 263.242 52.2616C443.709 143.575 635.864 219.723 805.04 283.036C799.714 292.965 795.797 303.58 793.432 314.593Z" fill="#8CD0F8"/>
<path d="M1904.04 336.856C1903.75 325.595 1901.88 314.31 1898.32 303.313L1910.33 298.558C2089.16 232.263 2298.35 151.153 2493.83 52.2502C2505.81 46.1753 2518.66 43.2938 2531.36 43.2938C2559.52 43.2938 2586.94 57.5086 2602.26 82.7685C2623.22 117.321 2641.54 153.05 2657.32 190.339C2656.91 190.819 2656.24 191.828 2655.33 193.317C2644.79 172.067 2633.29 151.153 2620.8 130.527C2601.3 98.472 2566.94 80.6075 2531.52 80.6075C2515.49 80.6075 2499.23 84.2812 2484.03 91.9648C2303.92 183.088 2107.24 261.485 1904.04 336.856Z" fill="#8CD0F8"/>
<path d="M2695.8 469.678C2608.52 539.308 2411.15 679.759 2180.25 733.72C2180.25 733.72 2257.55 1001.91 2256.67 1346.59C1770.74 1588.32 1032.24 1554.59 500.438 1346.59C499.57 1001.91 576.878 733.72 576.878 733.72C345.971 679.759 148.596 539.308 61.2476 469.678C30.6877 445.325 16.0958 405.939 23.6812 367.583C35.6736 306.542 52.9413 247.364 76.4945 190.222C87.2632 200.964 316.785 687.2 691.304 427.545C691.304 427.545 489.959 1143.43 1032.24 1346.59C1258.6 1391.45 1481.97 1393.99 1701.83 1346.59C2244.04 1143.43 2042.74 427.545 2042.74 427.545C2417.79 687.626 2647.46 199.468 2657.49 190.149C2657.49 190.149 2670.86 200.106 2690.6 215.434C2709.09 264.703 2723.1 315.493 2733.42 367.583C2740.95 405.939 2726.41 445.325 2695.8 469.678Z" fill="#1378D3"/>
<path d="M1431.67 878.92C1408.96 878.92 1386.08 878.52 1362.97 877.679C1095.93 868.068 817.829 801.004 599.977 693.667C592.816 690.134 589.883 681.469 593.403 674.319C596.936 667.148 605.602 664.225 612.751 667.737C1037.49 877.027 1700.98 944.447 2147.28 668.41C2154.05 664.225 2162.97 666.307 2167.16 673.099C2171.36 679.892 2169.26 688.788 2162.49 692.994C1965.02 815.115 1713.5 878.92 1431.67 878.92Z" fill="#232333"/>
<path d="M522.095 1331.75C1088.24 1548.81 1787.88 1549.31 2234.98 1333.09C2233.82 1002.16 2160.14 742.37 2159.38 739.756C2157.73 734.048 2158.52 727.917 2161.5 722.796C2164.51 717.663 2169.47 714.008 2175.26 712.649C2398.26 660.488 2588.64 527.422 2682.3 452.745C2706.71 433.285 2718.16 402.232 2712.14 371.747C2690.98 264.283 2655.02 169.743 2602.23 82.7752C2580.01 46.1481 2532.38 32.7306 2493.81 52.2403C2298.34 151.17 2089.16 232.268 1910.32 298.566L1715.37 375.915C1637.18 491.321 1498.69 554.344 1352.11 540.69C1229.35 529.29 1129.04 467.347 1087.41 378.085L847.481 298.813C847.242 298.739 846.988 298.665 846.749 298.566C667.91 232.268 458.722 151.17 263.242 52.2403C224.684 32.7306 177.069 46.1481 154.828 82.7752C102.044 169.743 66.0924 264.283 44.9326 371.747C38.9267 402.232 50.3637 433.285 74.7792 452.745C168.416 527.422 358.803 660.488 581.803 712.649C587.59 714.008 592.562 717.663 595.561 722.796C598.563 727.917 599.335 734.048 597.695 739.756C596.935 742.37 523.457 1001.46 522.095 1331.75ZM1431.3 1537.15C1419.37 1537.15 1407.45 1537.08 1395.44 1536.91C1082.88 1532.69 762.203 1472.27 492.51 1366.78C484.215 1363.54 478.749 1355.55 478.735 1346.65C478.029 1058.65 532.203 820.757 550.27 749.528C328.428 692.222 141.216 561.183 47.7542 486.634C10.6364 457.062 -6.74481 409.804 2.40085 363.361C24.2537 252.394 63.0709 150.406 117.777 60.2809C151.684 4.41546 224.19 -16.1054 282.816 13.5662C476.229 111.46 683.829 191.941 861.456 257.771L1110.17 339.954C1116.16 341.927 1121 346.44 1123.41 352.286C1156.1 431.558 1245.26 487.226 1356.1 497.536C1460.33 507.205 1600.87 472.625 1682.88 346.44C1685.33 342.667 1688.9 339.781 1693.07 338.104L1894.78 258.092C2072.95 192.04 2280.71 111.51 2474.25 13.5662C2532.9 -16.1054 2605.39 4.41546 2639.31 60.2809C2694.01 150.406 2732.81 252.394 2754.66 363.361C2763.81 409.804 2746.42 457.062 2709.33 486.634C2615.85 561.183 2428.64 692.222 2206.81 749.528C2224.86 820.757 2279.03 1058.65 2278.34 1346.65C2278.31 1354.86 2273.68 1362.34 2266.33 1366.01C2040.79 1478.18 1752.68 1537.15 1431.3 1537.15Z" fill="#232333"/>
<path d="M576.877 755.439C574.624 755.439 572.337 755.089 570.084 754.338C558.718 750.599 552.542 738.348 556.281 726.965C560.237 714.931 654.972 430.425 789.314 275.453C797.142 266.39 810.828 265.422 819.891 273.267C828.921 281.094 829.889 294.797 822.061 303.844C693.477 452.189 598.391 737.681 597.44 740.535C594.436 749.648 585.973 755.439 576.877 755.439Z" fill="#232333"/>
<path d="M2179.63 755.428C2170.53 755.428 2162.05 749.653 2159.06 740.545C2158.11 737.679 2063.04 452.2 1934.45 303.844C1926.59 294.8 1927.57 281.107 1936.61 273.252C1945.68 265.418 1959.37 266.395 1967.18 275.439C2101.51 430.418 2196.26 714.921 2200.23 726.958C2203.96 738.337 2197.78 750.587 2186.41 754.345C2184.15 755.088 2181.88 755.428 2179.63 755.428Z" fill="#232333"/>
</svg>
